  0
SECTION
  2
HEADER
  9
$ACADVER
  1
AC1014
  9
$EXTMIN
 10
70.16401489310567
 20
112.369642808922
 30
0.0
  9
$EXTMAX
 10
277.0834797641999
 20
227.1366601424358
 30
0.0
  9
$HANDSEED
  5
56
  9
$MEASUREMENT
 70
0
  0
ENDSEC
  0
SECTION
  2
TABLES
  0
TABLE
  2
VPORT
  5
8
330
0
100
AcDbSymbolTable
 70
     4
  0
VPORT
  5
2E
330
8
100
AcDbSymbolTableRecord
100
AcDbViewportTableRecord
  2
*ACTIVE
 70
     0
 10
0.0
 20
0.0
 11
1.0
 21
1.0
 12
209.9999999999999
 22
148.4999999999999
 13
0.0
 23
0.0
 14
10.0
 24
10.0
 15
10.0
 25
10.0
 16
0.0
 26
0.0
 36
1.0
 17
0.0
 27
0.0
 37
0.0
 40
340.9950045922664
 41
1.239944521497919
 42
50.0
 43
0.0
 44
0.0
 50
0.0
 51
0.0
 71
     0
 72
   100
 73
     1
 74
     3
 75
     0
 76
     0
 77
     0
 78
     0
  0
ENDTAB
  0
TABLE
  2
LTYPE
  5
5
330
0
100
AcDbSymbolTable
 70
     1
  0
LTYPE
  5
14
330
5
100
AcDbSymbolTableRecord
100
AcDbLinetypeTableRecord
  2
BYBLOCK
 70
     0
  3

 72
    65
 73
     0
 40
0.0
  0
LTYPE
  5
15
330
5
100
AcDbSymbolTableRecord
100
AcDbLinetypeTableRecord
  2
BYLAYER
 70
     0
  3

 72
    65
 73
     0
 40
0.0
  0
LTYPE
  5
16
330
5
100
AcDbSymbolTableRecord
100
AcDbLinetypeTableRecord
  2
CONTINUOUS
 70
     0
  3
Solid line
 72
    65
 73
     0
 40
0.0
  0
ENDTAB
  0
TABLE
  2
LAYER
  5
2
330
0
100
AcDbSymbolTable
 70
4
  0
LAYER
  5
10
330
2
100
AcDbSymbolTableRecord
100
AcDbLayerTableRecord
  2
0
 70
     0
 62
     7
  6
CONTINUOUS
  0
LAYER
  5
37a
100
AcDbSymbolTableRecord
100
AcDbLayerTableRecord
  2
C00-00-00-BLACK
 70
0
 62
7
  6
CONTINUOUS
  0
LAYER
  5
37b
100
AcDbSymbolTableRecord
100
AcDbLayerTableRecord
  2
CFF-FF-FF-WHITE
 70
0
 62
7
  6
CONTINUOUS
  0
ENDTAB
  0
TABLE
  2
STYLE
  5
3
330
0
100
AcDbSymbolTable
 70
     1
  0
STYLE
  5
11
330
3
100
AcDbSymbolTableRecord
100
AcDbTextStyleTableRecord
  2
STANDARD
 70
     0
 40
0.0
 41
1.0
 50
0.0
 71
     0
 42
2.5
  3
txt
  4

  0
ENDTAB
  0
TABLE
  2
VIEW
  5
6
330
0
100
AcDbSymbolTable
 70
     0
  0
ENDTAB
  0
TABLE
  2
UCS
  5
7
330
0
100
AcDbSymbolTable
 70
     0
  0
ENDTAB
  0
TABLE
  2
APPID
  5
9
330
0
100
AcDbSymbolTable
 70
     2
  0
APPID
  5
12
330
9
100
AcDbSymbolTableRecord
100
AcDbRegAppTableRecord
  2
ACAD
 70
     0
  0
APPID
  5
2B
330
9
100
AcDbSymbolTableRecord
100
AcDbRegAppTableRecord
  2
URBANX
 70
     0
  0
ENDTAB
  0
TABLE
  2
DIMSTYLE
  5
A
330
0
100
AcDbSymbolTable
 70
     1
  0
DIMSTYLE
105
27
330
A
100
AcDbSymbolTableRecord
100
AcDbDimStyleTableRecord
  2
ISO-25
 70
     0
  3

  4

  5

  6

  7

 40
1.0
 41
2.5
 42
0.625
 43
3.75
 44
1.25
 45
0.0
 46
0.0
 47
0.0
 48
0.0
140
2.5
141
2.5
142
0.0
143
0.03937007874016
144
1.0
145
0.0
146
1.0
147
0.625
 71
     0
 72
     0
 73
     0
 74
     0
 75
     0
 76
     0
 77
     1
 78
     8
170
     0
171
     3
172
     1
173
     0
174
     0
175
     0
176
     0
177
     0
178
     0
270
     2
271
     2
272
     2
273
     2
274
     3
340
11
275
     0
280
     0
281
     0
282
     0
283
     0
284
     8
285
     0
286
     0
287
     3
288
     0
  0
ENDTAB
  0
TABLE
  2
BLOCK_RECORD
  5
1
330
0
100
AcDbSymbolTable
 70
     1
  0
BLOCK_RECORD
  5
1F
102
{ACAD_XDICTIONARY
360
52
102
}
330
1
100
AcDbSymbolTableRecord
100
AcDbBlockTableRecord
  2
*MODEL_SPACE
  0
BLOCK_RECORD
  5
1B
102
{ACAD_XDICTIONARY
360
50
102
}
330
1
100
AcDbSymbolTableRecord
100
AcDbBlockTableRecord
  2
*PAPER_SPACE
  0
ENDTAB
  0
ENDSEC
  0
SECTION
  2
BLOCKS
  0
BLOCK
  5
20
330
1F
100
AcDbEntity
  8
0
100
AcDbBlockBegin
  2
*MODEL_SPACE
 70
     0
 10
0.0
 20
0.0
 30
0.0
  3
*MODEL_SPACE
  1

  0
ENDBLK
  5
21
330
1F
100
AcDbEntity
  8
0
100
AcDbBlockEnd
  0
BLOCK
  5
1C
330
1B
100
AcDbEntity
 67
     1
  8
0
100
AcDbBlockBegin
  2
*PAPER_SPACE
  1

  0
ENDBLK
  5
1D
330
1B
100
AcDbEntity
 67
     1
  8
0
100
AcDbBlockEnd
  0
ENDSEC
  0
SECTION
  2
ENTITIES
  0
LINE
  5
ff
100
AcDbEntity
  8
C00-00-00-BLACK
100
AcDbLine
 10
1.18886
 20
3.64204
 30
0.0
 11
1.05452
 21
3.56451
 31
0.0
  0
LINE
  5
100
100
AcDbEntity
  8
C00-00-00-BLACK
100
AcDbLine
 10
0.836697
 20
4.49214
 30
0.0
 11
0.686903
 21
4.45199
 31
0.0
  0
LINE
  5
101
100
AcDbEntity
  8
C00-00-00-BLACK
100
AcDbLine
 10
0.716635
 20
5.40435
 30
0.0
 11
0.561524
 21
5.40435
 31
0.0
  0
LINE
  5
102
100
AcDbEntity
  8
C00-00-00-BLACK
100
AcDbLine
 10
0.836697
 20
6.31663
 30
0.0
 11
0.686903
 21
6.35678
 31
0.0
  0
LINE
  5
103
100
AcDbEntity
  8
C00-00-00-BLACK
100
AcDbLine
 10
1.18886
 20
7.16672
 30
0.0
 11
1.05452
 21
7.24425
 31
0.0
  0
LINE
  5
104
100
AcDbEntity
  8
C00-00-00-BLACK
100
AcDbLine
 10
1.74897
 20
7.89669
 30
0.0
 11
1.63932
 21
8.00635
 31
0.0
  0
LINE
  5
105
100
AcDbEntity
  8
C00-00-00-BLACK
100
AcDbLine
 10
2.47894
 20
8.45682
 30
0.0
 11
2.40142
 21
8.5911
 31
0.0
  0
LINE
  5
106
100
AcDbEntity
  8
C00-00-00-BLACK
100
AcDbLine
 10
3.32904
 20
8.80892
 30
0.0
 11
3.2889
 21
8.95871
 31
0.0
  0
LINE
  5
107
100
AcDbEntity
  8
C00-00-00-BLACK
100
AcDbLine
 10
4.24126
 20
8.92904
 30
0.0
 11
4.24126
 21
9.0841
 31
0.0
  0
LINE
  5
108
100
AcDbEntity
  8
C00-00-00-BLACK
100
AcDbLine
 10
5.15354
 20
8.80892
 30
0.0
 11
5.19368
 21
8.95871
 31
0.0
  0
LINE
  5
109
100
AcDbEntity
  8
C00-00-00-BLACK
100
AcDbLine
 10
6.00364
 20
8.45682
 30
0.0
 11
6.08117
 21
8.5911
 31
0.0
  0
LINE
  5
10a
100
AcDbEntity
  8
C00-00-00-BLACK
100
AcDbLine
 10
6.73356
 20
7.89669
 30
0.0
 11
6.84326
 21
8.00635
 31
0.0
  0
LINE
  5
10b
100
AcDbEntity
  8
C00-00-00-BLACK
100
AcDbLine
 10
7.29372
 20
7.16672
 30
0.0
 11
7.428
 21
7.24425
 31
0.0
  0
LINE
  5
10c
100
AcDbEntity
  8
C00-00-00-BLACK
100
AcDbLine
 10
7.64583
 20
6.31663
 30
0.0
 11
7.79562
 21
6.35678
 31
0.0
  0
LINE
  5
10d
100
AcDbEntity
  8
C00-00-00-BLACK
100
AcDbLine
 10
7.76594
 20
5.40435
 30
0.0
 11
7.921
 21
5.40435
 31
0.0
  0
LINE
  5
10e
100
AcDbEntity
  8
C00-00-00-BLACK
100
AcDbLine
 10
7.64583
 20
4.49214
 30
0.0
 11
7.79562
 21
4.45199
 31
0.0
  0
LINE
  5
10f
100
AcDbEntity
  8
C00-00-00-BLACK
100
AcDbLine
 10
7.29372
 20
3.64204
 30
0.0
 11
7.428
 21
3.56451
 31
0.0
  0
LINE
  5
110
100
AcDbEntity
  8
C00-00-00-BLACK
100
AcDbLine
 10
0.984918
 20
4.05556
 30
0.0
 11
0.854656
 21
4.00157
 31
0.0
  0
LINE
  5
111
100
AcDbEntity
  8
C00-00-00-BLACK
100
AcDbLine
 10
0.746799
 20
4.94428
 30
0.0
 11
0.606987
 21
4.92589
 31
0.0
  0
LINE
  5
112
100
AcDbEntity
  8
C00-00-00-BLACK
100
AcDbLine
 10
0.746799
 20
5.86442
 30
0.0
 11
0.606987
 21
5.88281
 31
0.0
  0
LINE
  5
113
100
AcDbEntity
  8
C00-00-00-BLACK
100
AcDbLine
 10
0.984918
 20
6.75319
 30
0.0
 11
0.854656
 21
6.80713
 31
0.0
  0
LINE
  5
114
100
AcDbEntity
  8
C00-00-00-BLACK
100
AcDbLine
 10
1.44499
 20
7.55003
 30
0.0
 11
1.33312
 21
7.63585
 31
0.0
  0
LINE
  5
115
100
AcDbEntity
  8
C00-00-00-BLACK
100
AcDbLine
 10
2.0956
 20
8.20068
 30
0.0
 11
2.00976
 21
8.31256
 31
0.0
  0
LINE
  5
116
100
AcDbEntity
  8
C00-00-00-BLACK
100
AcDbLine
 10
2.89247
 20
8.66069
 30
0.0
 11
2.83849
 21
8.79096
 31
0.0
  0
LINE
  5
117
100
AcDbEntity
  8
C00-00-00-BLACK
100
AcDbLine
 10
3.78119
 20
8.89887
 30
0.0
 11
3.76281
 21
9.03863
 31
0.0
  0
LINE
  5
118
100
AcDbEntity
  8
C00-00-00-BLACK
100
AcDbLine
 10
4.70133
 20
8.89887
 30
0.0
 11
4.71972
 21
9.03863
 31
0.0
  0
LINE
  5
119
100
AcDbEntity
  8
C00-00-00-BLACK
100
AcDbLine
 10
5.59011
 20
8.66069
 30
0.0
 11
5.64404
 21
8.79096
 31
0.0
  0
LINE
  5
11a
100
AcDbEntity
  8
C00-00-00-BLACK
100
AcDbLine
 10
6.38693
 20
8.20068
 30
0.0
 11
6.47276
 21
8.31256
 31
0.0
  0
LINE
  5
11b
100
AcDbEntity
  8
C00-00-00-BLACK
100
AcDbLine
 10
7.03754
 20
7.55003
 30
0.0
 11
7.14942
 21
7.63585
 31
0.0
  0
LINE
  5
11c
100
AcDbEntity
  8
C00-00-00-BLACK
100
AcDbLine
 10
7.49761
 20
6.75319
 30
0.0
 11
7.62787
 21
6.80713
 31
0.0
  0
LINE
  5
11d
100
AcDbEntity
  8
C00-00-00-BLACK
100
AcDbLine
 10
7.73579
 20
5.86442
 30
0.0
 11
7.87554
 21
5.88281
 31
0.0
  0
LINE
  5
11e
100
AcDbEntity
  8
C00-00-00-BLACK
100
AcDbLine
 10
7.73579
 20
4.94428
 30
0.0
 11
7.87554
 21
4.92589
 31
0.0
  0
LINE
  5
11f
100
AcDbEntity
  8
C00-00-00-BLACK
100
AcDbLine
 10
7.49761
 20
4.05556
 30
0.0
 11
7.62787
 21
4.00157
 31
0.0
  0
LINE
  5
120
100
AcDbEntity
  8
C00-00-00-BLACK
100
AcDbLine
 10
1.08013
 20
3.84543
 30
0.0
 11
0.985297
 21
3.79867
 31
0.0
  0
LINE
  5
121
100
AcDbEntity
  8
C00-00-00-BLACK
100
AcDbLine
 10
0.9037
 20
4.27138
 30
0.0
 11
0.803549
 21
4.23742
 31
0.0
  0
LINE
  5
122
100
AcDbEntity
  8
C00-00-00-BLACK
100
AcDbLine
 10
0.784343
 20
4.71674
 30
0.0
 11
0.680664
 21
4.69613
 31
0.0
  0
LINE
  5
123
100
AcDbEntity
  8
C00-00-00-BLACK
100
AcDbLine
 10
0.724175
 20
5.17383
 30
0.0
 11
0.618653
 21
5.16694
 31
0.0
  0
LINE
  5
124
100
AcDbEntity
  8
C00-00-00-BLACK
100
AcDbLine
 10
0.724175
 20
5.63488
 30
0.0
 11
0.618653
 21
5.64182
 31
0.0
  0
LINE
  5
125
100
AcDbEntity
  8
C00-00-00-BLACK
100
AcDbLine
 10
0.784343
 20
6.09196
 30
0.0
 11
0.680664
 21
6.11263
 31
0.0
  0
LINE
  5
126
100
AcDbEntity
  8
C00-00-00-BLACK
100
AcDbLine
 10
0.9037
 20
6.53733
 30
0.0
 11
0.803549
 21
6.57135
 31
0.0
  0
LINE
  5
127
100
AcDbEntity
  8
C00-00-00-BLACK
100
AcDbLine
 10
1.08013
 20
6.96326
 30
0.0
 11
0.985297
 21
7.01004
 31
0.0
  0
LINE
  5
128
100
AcDbEntity
  8
C00-00-00-BLACK
100
AcDbLine
 10
1.31066
 20
7.36257
 30
0.0
 11
1.22271
 21
7.42133
 31
0.0
  0
LINE
  5
129
100
AcDbEntity
  8
C00-00-00-BLACK
100
AcDbLine
 10
1.59131
 20
7.72835
 30
0.0
 11
1.51183
 21
7.79807
 31
0.0
  0
LINE
  5
12a
100
AcDbEntity
  8
C00-00-00-BLACK
100
AcDbLine
 10
1.91732
 20
8.05436
 30
0.0
 11
1.8476
 21
8.13385
 31
0.0
  0
LINE
  5
12b
100
AcDbEntity
  8
C00-00-00-BLACK
100
AcDbLine
 10
2.2831
 20
8.33501
 30
0.0
 11
2.22433
 21
8.4229
 31
0.0
  0
LINE
  5
12c
100
AcDbEntity
  8
C00-00-00-BLACK
100
AcDbLine
 10
2.68235
 20
8.56554
 30
0.0
 11
2.63558
 21
8.66038
 31
0.0
  0
LINE
  5
12d
100
AcDbEntity
  8
C00-00-00-BLACK
100
AcDbLine
 10
3.10835
 20
8.74197
 30
0.0
 11
3.07433
 21
8.84213
 31
0.0
  0
LINE
  5
12e
100
AcDbEntity
  8
C00-00-00-BLACK
100
AcDbLine
 10
3.55365
 20
8.86128
 30
0.0
 11
3.53304
 21
8.965
 31
0.0
  0
LINE
  5
12f
100
AcDbEntity
  8
C00-00-00-BLACK
100
AcDbLine
 10
4.01074
 20
8.9215
 30
0.0
 11
4.00385
 21
9.02696
 31
0.0
  0
LINE
  5
130
100
AcDbEntity
  8
C00-00-00-BLACK
100
AcDbLine
 10
4.47179
 20
8.9215
 30
0.0
 11
4.47874
 21
9.02696
 31
0.0
  0
LINE
  5
131
100
AcDbEntity
  8
C00-00-00-BLACK
100
AcDbLine
 10
4.92893
 20
8.86128
 30
0.0
 11
4.94954
 21
8.965
 31
0.0
  0
LINE
  5
132
100
AcDbEntity
  8
C00-00-00-BLACK
100
AcDbLine
 10
5.37424
 20
8.74197
 30
0.0
 11
5.40826
 21
8.84213
 31
0.0
  0
LINE
  5
133
100
AcDbEntity
  8
C00-00-00-BLACK
100
AcDbLine
 10
5.80018
 20
8.56554
 30
0.0
 11
5.84694
 21
8.66038
 31
0.0
  0
LINE
  5
134
100
AcDbEntity
  8
C00-00-00-BLACK
100
AcDbLine
 10
6.19949
 20
8.33501
 30
0.0
 11
6.25825
 21
8.4229
 31
0.0
  0
LINE
  5
135
100
AcDbEntity
  8
C00-00-00-BLACK
100
AcDbLine
 10
6.56526
 20
8.05436
 30
0.0
 11
6.63499
 21
8.13385
 31
0.0
  0
LINE
  5
136
100
AcDbEntity
  8
C00-00-00-BLACK
100
AcDbLine
 10
6.89128
 20
7.72835
 30
0.0
 11
6.97076
 21
7.79807
 31
0.0
  0
LINE
  5
137
100
AcDbEntity
  8
C00-00-00-BLACK
100
AcDbLine
 10
7.17193
 20
7.36257
 30
0.0
 11
7.25988
 21
7.42133
 31
0.0
  0
LINE
  5
138
100
AcDbEntity
  8
C00-00-00-BLACK
100
AcDbLine
 10
7.40246
 20
6.96326
 30
0.0
 11
7.49729
 21
7.01004
 31
0.0
  0
LINE
  5
139
100
AcDbEntity
  8
C00-00-00-BLACK
100
AcDbLine
 10
7.57889
 20
6.53733
 30
0.0
 11
7.67904
 21
6.57135
 31
0.0
  0
LINE
  5
13a
100
AcDbEntity
  8
C00-00-00-BLACK
100
AcDbLine
 10
7.69819
 20
6.09196
 30
0.0
 11
7.80192
 21
6.11263
 31
0.0
  0
LINE
  5
13b
100
AcDbEntity
  8
C00-00-00-BLACK
100
AcDbLine
 10
7.7584
 20
5.63488
 30
0.0
 11
7.86387
 21
5.64182
 31
0.0
  0
LINE
  5
13c
100
AcDbEntity
  8
C00-00-00-BLACK
100
AcDbLine
 10
7.7584
 20
5.17383
 30
0.0
 11
7.86387
 21
5.16694
 31
0.0
  0
LINE
  5
13d
100
AcDbEntity
  8
C00-00-00-BLACK
100
AcDbLine
 10
7.69819
 20
4.71674
 30
0.0
 11
7.80192
 21
4.69613
 31
0.0
  0
LINE
  5
13e
100
AcDbEntity
  8
C00-00-00-BLACK
100
AcDbLine
 10
7.57889
 20
4.27138
 30
0.0
 11
7.67904
 21
4.23742
 31
0.0
  0
LINE
  5
13f
100
AcDbEntity
  8
C00-00-00-BLACK
100
AcDbLine
 10
7.40246
 20
3.84543
 30
0.0
 11
7.49729
 21
3.79867
 31
0.0
  0
LINE
  5
140
100
AcDbEntity
  8
C00-00-00-BLACK
100
AcDbLine
 10
1.1511
 20
3.70904
 30
0.0
 11
1.0893
 21
3.67513
 31
0.0
  0
LINE
  5
141
100
AcDbEntity
  8
C00-00-00-BLACK
100
AcDbLine
 10
1.11485
 20
3.77686
 30
0.0
 11
1.05235
 21
3.74431
 31
0.0
  0
LINE
  5
142
100
AcDbEntity
  8
C00-00-00-BLACK
100
AcDbLine
 10
1.04688
 20
3.91476
 30
0.0
 11
0.982964
 21
3.88499
 31
0.0
  0
LINE
  5
143
100
AcDbEntity
  8
C00-00-00-BLACK
100
AcDbLine
 10
1.01514
 20
3.98481
 30
0.0
 11
0.950575
 21
3.95643
 31
0.0
  0
LINE
  5
144
100
AcDbEntity
  8
C00-00-00-BLACK
100
AcDbLine
 10
0.956272
 20
4.1269
 30
0.0
 11
0.890571
 21
4.10135
 31
0.0
  0
LINE
  5
145
100
AcDbEntity
  8
C00-00-00-BLACK
100
AcDbLine
 10
0.929199
 20
4.19883
 30
0.0
 11
0.862956
 21
4.17475
 31
0.0
  0
LINE
  5
146
100
AcDbEntity
  8
C00-00-00-BLACK
100
AcDbLine
 10
0.879775
 20
4.34451
 30
0.0
 11
0.812554
 21
4.32329
 31
0.0
  0
LINE
  5
147
100
AcDbEntity
  8
C00-00-00-BLACK
100
AcDbLine
 10
0.857422
 20
4.41808
 30
0.0
 11
0.789768
 21
4.39833
 31
0.0
  0
LINE
  5
148
100
AcDbEntity
  8
C00-00-00-BLACK
100
AcDbLine
 10
0.817654
 20
4.56662
 30
0.0
 11
0.749186
 21
4.54986
 31
0.0
  0
LINE
  5
149
100
AcDbEntity
  8
C00-00-00-BLACK
100
AcDbLine
 10
0.800185
 20
4.6415
 30
0.0
 11
0.731336
 21
4.62625
 31
0.0
  0
LINE
  5
14a
100
AcDbEntity
  8
C00-00-00-BLACK
100
AcDbLine
 10
0.770182
 20
4.79232
 30
0.0
 11
0.700737
 21
4.78006
 31
0.0
  0
LINE
  5
14b
100
AcDbEntity
  8
C00-00-00-BLACK
100
AcDbLine
 10
0.75765
 20
4.86817
 30
0.0
 11
0.687989
 21
4.85747
 31
0.0
  0
LINE
  5
14c
100
AcDbEntity
  8
C00-00-00-BLACK
100
AcDbLine
 10
0.737576
 20
5.02067
 30
0.0
 11
0.667481
 21
5.01297
 31
0.0
  0
LINE
  5
14d
100
AcDbEntity
  8
C00-00-00-BLACK
100
AcDbLine
 10
0.730035
 20
5.09717
 30
0.0
 11
0.659831
 21
5.09104
 31
0.0
  0
LINE
  5
14e
100
AcDbEntity
  8
C00-00-00-BLACK
100
AcDbLine
 10
0.719997
 20
5.25065
 30
0.0
 11
0.649522
 21
5.24756
 31
0.0
  0
LINE
  5
14f
100
AcDbEntity
  8
C00-00-00-BLACK
100
AcDbLine
 10
0.717447
 20
5.32747
 30
0.0
 11
0.646972
 21
5.32596
 31
0.0
  0
LINE
  5
150
100
AcDbEntity
  8
C00-00-00-BLACK
100
AcDbLine
 10
0.717447
 20
5.48122
 30
0.0
 11
0.646972
 21
5.48281
 31
0.0
  0
LINE
  5
151
100
AcDbEntity
  8
C00-00-00-BLACK
100
AcDbLine
 10
0.719997
 20
5.55811
 30
0.0
 11
0.649522
 21
5.56119
 31
0.0
  0
LINE
  5
152
100
AcDbEntity
  8
C00-00-00-BLACK
100
AcDbLine
 10
0.730035
 20
5.71153
 30
0.0
 11
0.659831
 21
5.71772
 31
0.0
  0
LINE
  5
153
100
AcDbEntity
  8
C00-00-00-BLACK
100
AcDbLine
 10
0.737576
 20
5.78808
 30
0.0
 11
0.667481
 21
5.79574
 31
0.0
  0
LINE
  5
154
100
AcDbEntity
  8
C00-00-00-BLACK
100
AcDbLine
 10
0.75765
 20
5.94054
 30
0.0
 11
0.687989
 21
5.95128
 31
0.0
  0
LINE
  5
155
100
AcDbEntity
  8
C00-00-00-BLACK
100
AcDbLine
 10
0.770182
 20
6.01644
 30
0.0
 11
0.700737
 21
6.02864
 31
0.0
  0
LINE
  5
156
100
AcDbEntity
  8
C00-00-00-BLACK
100
AcDbLine
 10
0.800185
 20
6.16721
 30
0.0
 11
0.731336
 21
6.18251
 31
0.0
  0
LINE
  5
157
100
AcDbEntity
  8
C00-00-00-BLACK
100
AcDbLine
 10
0.817654
 20
6.24214
 30
0.0
 11
0.749186
 21
6.2589
 31
0.0
  0
LINE
  5
158
100
AcDbEntity
  8
C00-00-00-BLACK
100
AcDbLine
 10
0.857422
 20
6.39068
 30
0.0
 11
0.789768
 21
6.41038
 31
0.0
  0
LINE
  5
159
100
AcDbEntity
  8
C00-00-00-BLACK
100
AcDbLine
 10
0.879775
 20
6.46425
 30
0.0
 11
0.812554
 21
6.48546
 31
0.0
  0
LINE
  5
15a
100
AcDbEntity
  8
C00-00-00-BLACK
100
AcDbLine
 10
0.929199
 20
6.60986
 30
0.0
 11
0.862956
 21
6.634
 31
0.0
  0
LINE
  5
15b
100
AcDbEntity
  8
C00-00-00-BLACK
100
AcDbLine
 10
0.956272
 20
6.68186
 30
0.0
 11
0.890571
 21
6.70736
 31
0.0
  0
LINE
  5
15c
100
AcDbEntity
  8
C00-00-00-BLACK
100
AcDbLine
 10
1.01514
 20
6.82389
 30
0.0
 11
0.950575
 21
6.85226
 31
0.0
  0
LINE
  5
15d
100
AcDbEntity
  8
C00-00-00-BLACK
100
AcDbLine
 10
1.04688
 20
6.89393
 30
0.0
 11
0.982964
 21
6.92372
 31
0.0
  0
LINE
  5
15e
100
AcDbEntity
  8
C00-00-00-BLACK
100
AcDbLine
 10
1.11485
 20
7.0319
 30
0.0
 11
1.05235
 21
7.06446
 31
0.0
  0
LINE
  5
15f
100
AcDbEntity
  8
C00-00-00-BLACK
100
AcDbLine
 10
1.1511
 20
7.09967
 30
0.0
 11
1.0893
 21
7.13357
 31
0.0
  0
LINE
  5
160
100
AcDbEntity
  8
C00-00-00-BLACK
100
AcDbLine
 10
1.22803
 20
7.23286
 30
0.0
 11
1.16775
 21
7.26942
 31
0.0
  0
LINE
  5
161
100
AcDbEntity
  8
C00-00-00-BLACK
100
AcDbLine
 10
1.26861
 20
7.29818
 30
0.0
 11
1.20915
 21
7.33604
 31
0.0
  0
LINE
  5
162
100
AcDbEntity
  8
C00-00-00-BLACK
100
AcDbLine
 10
1.35406
 20
7.42606
 30
0.0
 11
1.29633
 21
7.46647
 31
0.0
  0
LINE
  5
163
100
AcDbEntity
  8
C00-00-00-BLACK
100
AcDbLine
 10
1.39882
 20
7.48856
 30
0.0
 11
1.34196
 21
7.53022
 31
0.0
  0
LINE
  5
164
100
AcDbEntity
  8
C00-00-00-BLACK
100
AcDbLine
 10
1.49246
 20
7.61051
 30
0.0
 11
1.4375
 21
7.65468
 31
0.0
  0
LINE
  5
165
100
AcDbEntity
  8
C00-00-00-BLACK
100
AcDbLine
 10
1.54124
 20
7.66997
 30
0.0
 11
1.48725
 21
7.71528
 31
0.0
  0
LINE
  5
166
100
AcDbEntity
  8
C00-00-00-BLACK
100
AcDbLine
 10
1.64264
 20
7.78558
 30
0.0
 11
1.59065
 21
7.83322
 31
0.0
  0
LINE
  5
167
100
AcDbEntity
  8
C00-00-00-BLACK
100
AcDbLine
 10
1.69521
 20
7.84169
 30
0.0
 11
1.64426
 21
7.89046
 31
0.0
  0
LINE
  5
168
100
AcDbEntity
  8
C00-00-00-BLACK
100
AcDbLine
 10
1.80393
 20
7.95047
 30
0.0
 11
1.75515
 21
8.00136
 31
0.0
  0
LINE
  5
169
100
AcDbEntity
  8
C00-00-00-BLACK
100
AcDbLine
 10
1.86008
 20
8.00304
 30
0.0
 11
1.81244
 21
8.05496
 31
0.0
  0
LINE
  5
16a
100
AcDbEntity
  8
C00-00-00-BLACK
100
AcDbLine
 10
1.97564
 20
8.10444
 30
0.0
 11
1.93033
 21
8.15842
 31
0.0
  0
LINE
  5
16b
100
AcDbEntity
  8
C00-00-00-BLACK
100
AcDbLine
 10
2.0351
 20
8.15321
 30
0.0
 11
1.991
 21
8.20817
 31
0.0
  0
LINE
  5
16c
100
AcDbEntity
  8
C00-00-00-BLACK
100
AcDbLine
 10
2.15711
 20
8.24681
 30
0.0
 11
2.11544
 21
8.30365
 31
0.0
  0
LINE
  5
16d
100
AcDbEntity
  8
C00-00-00-BLACK
100
AcDbLine
 10
2.21961
 20
8.29161
 30
0.0
 11
2.17919
 21
8.34933
 31
0.0
  0
LINE
  5
16e
100
AcDbEntity
  8
C00-00-00-BLACK
100
AcDbLine
 10
2.3475
 20
8.37701
 30
0.0
 11
2.30963
 21
8.43647
 31
0.0
  0
LINE
  5
16f
100
AcDbEntity
  8
C00-00-00-BLACK
100
AcDbLine
 10
2.41276
 20
8.41764
 30
0.0
 11
2.37619
 21
8.47792
 31
0.0
  0
LINE
  5
170
100
AcDbEntity
  8
C00-00-00-BLACK
100
AcDbLine
 10
2.54596
 20
8.49451
 30
0.0
 11
2.51204
 21
8.55632
 31
0.0
  0
LINE
  5
171
100
AcDbEntity
  8
C00-00-00-BLACK
100
AcDbLine
 10
2.61376
 20
8.53076
 30
0.0
 11
2.58122
 21
8.59332
 31
0.0
  0
LINE
  5
172
100
AcDbEntity
  8
C00-00-00-BLACK
100
AcDbLine
 10
2.75168
 20
8.59879
 30
0.0
 11
2.7219
 21
8.66271
 31
0.0
  0
LINE
  5
173
100
AcDbEntity
  8
C00-00-00-BLACK
100
AcDbLine
 10
2.82172
 20
8.63053
 30
0.0
 11
2.79335
 21
8.69504
 31
0.0
  0
LINE
  5
174
100
AcDbEntity
  8
C00-00-00-BLACK
100
AcDbLine
 10
2.96382
 20
8.6894
 30
0.0
 11
2.93826
 21
8.75504
 31
0.0
  0
LINE
  5
175
100
AcDbEntity
  8
C00-00-00-BLACK
100
AcDbLine
 10
3.03575
 20
8.71647
 30
0.0
 11
3.01167
 21
8.78271
 31
0.0
  0
LINE
  5
176
100
AcDbEntity
  8
C00-00-00-BLACK
100
AcDbLine
 10
3.18142
 20
8.7659
 30
0.0
 11
3.16021
 21
8.83311
 31
0.0
  0
LINE
  5
177
100
AcDbEntity
  8
C00-00-00-BLACK
100
AcDbLine
 10
3.25499
 20
8.78819
 30
0.0
 11
3.23525
 21
8.8559
 31
0.0
  0
LINE
  5
178
100
AcDbEntity
  8
C00-00-00-BLACK
100
AcDbLine
 10
3.40354
 20
8.82801
 30
0.0
 11
3.38678
 21
8.89649
 31
0.0
  0
LINE
  5
179
100
AcDbEntity
  8
C00-00-00-BLACK
100
AcDbLine
 10
3.4784
 20
8.84549
 30
0.0
 11
3.46317
 21
8.91428
 31
0.0
  0
LINE
  5
17a
100
AcDbEntity
  8
C00-00-00-BLACK
100
AcDbLine
 10
3.62924
 20
8.87549
 30
0.0
 11
3.61697
 21
8.94488
 31
0.0
  0
LINE
  5
17b
100
AcDbEntity
  8
C00-00-00-BLACK
100
AcDbLine
 10
3.70508
 20
8.88803
 30
0.0
 11
3.69439
 21
8.95768
 31
0.0
  0
LINE
  5
17c
100
AcDbEntity
  8
C00-00-00-BLACK
100
AcDbLine
 10
3.85758
 20
8.9081
 30
0.0
 11
3.84988
 21
8.97814
 31
0.0
  0
LINE
  5
17d
100
AcDbEntity
  8
C00-00-00-BLACK
100
AcDbLine
 10
3.93408
 20
8.91564
 30
0.0
 11
3.92794
 21
8.98583
 31
0.0
  0
LINE
  5
17e
100
AcDbEntity
  8
C00-00-00-BLACK
100
AcDbLine
 10
4.08757
 20
8.92567
 30
0.0
 11
4.08447
 21
8.9961
 31
0.0
  0
LINE
  5
17f
100
AcDbEntity
  8
C00-00-00-BLACK
100
AcDbLine
 10
4.16439
 20
8.92817
 30
0.0
 11
4.16287
 21
8.99864
 31
0.0
  0
LINE
  5
180
100
AcDbEntity
  8
C00-00-00-BLACK
100
AcDbLine
 10
4.31814
 20
8.92817
 30
0.0
 11
4.31972
 21
8.99864
 31
0.0
  0
LINE
  5
181
100
AcDbEntity
  8
C00-00-00-BLACK
100
AcDbLine
 10
4.39501
 20
8.92567
 30
0.0
 11
4.39811
 21
8.9961
 31
0.0
  0
LINE
  5
182
100
AcDbEntity
  8
C00-00-00-BLACK
100
AcDbLine
 10
4.54844
 20
8.91564
 30
0.0
 11
4.55464
 21
8.98583
 31
0.0
  0
LINE
  5
183
100
AcDbEntity
  8
C00-00-00-BLACK
100
AcDbLine
 10
4.625
 20
8.9081
 30
0.0
 11
4.63265
 21
8.97814
 31
0.0
  0
LINE
  5
184
100
AcDbEntity
  8
C00-00-00-BLACK
100
AcDbLine
 10
4.77746
 20
8.88803
 30
0.0
 11
4.78819
 21
8.95768
 31
0.0
  0
LINE
  5
185
100
AcDbEntity
  8
C00-00-00-BLACK
100
AcDbLine
 10
4.85335
 20
8.87549
 30
0.0
 11
4.86556
 21
8.94488
 31
0.0
  0
LINE
  5
186
100
AcDbEntity
  8
C00-00-00-BLACK
100
AcDbLine
 10
5.00418
 20
8.84549
 30
0.0
 11
5.01942
 21
8.91428
 31
0.0
  0
LINE
  5
187
100
AcDbEntity
  8
C00-00-00-BLACK
100
AcDbLine
 10
5.07904
 20
8.82801
 30
0.0
 11
5.09581
 21
8.89649
 31
0.0
  0
LINE
  5
188
100
AcDbEntity
  8
C00-00-00-BLACK
100
AcDbLine
 10
5.2276
 20
8.78819
 30
0.0
 11
5.24729
 21
8.8559
 31
0.0
  0
LINE
  5
189
100
AcDbEntity
  8
C00-00-00-BLACK
100
AcDbLine
 10
5.30117
 20
8.7659
 30
0.0
 11
5.32238
 21
8.83311
 31
0.0
  0
LINE
  5
18a
100
AcDbEntity
  8
C00-00-00-BLACK
100
AcDbLine
 10
5.44678
 20
8.71647
 30
0.0
 11
5.47086
 21
8.78271
 31
0.0
  0
LINE
  5
18b
100
AcDbEntity
  8
C00-00-00-BLACK
100
AcDbLine
 10
5.51878
 20
8.6894
 30
0.0
 11
5.54428
 21
8.75504
 31
0.0
  0
LINE
  5
18c
100
AcDbEntity
  8
C00-00-00-BLACK
100
AcDbLine
 10
5.66081
 20
8.63053
 30
0.0
 11
5.68918
 21
8.69504
 31
0.0
  0
LINE
  5
18d
100
AcDbEntity
  8
C00-00-00-BLACK
100
AcDbLine
 10
5.73085
 20
8.59879
 30
0.0
 11
5.76064
 21
8.66271
 31
0.0
  0
LINE
  5
18e
100
AcDbEntity
  8
C00-00-00-BLACK
100
AcDbLine
 10
5.86876
 20
8.53076
 30
0.0
 11
5.90132
 21
8.59332
 31
0.0
  0
LINE
  5
18f
100
AcDbEntity
  8
C00-00-00-BLACK
100
AcDbLine
 10
5.93658
 20
8.49451
 30
0.0
 11
5.97049
 21
8.55632
 31
0.0
  0
LINE
  5
190
100
AcDbEntity
  8
C00-00-00-BLACK
100
AcDbLine
 10
6.06976
 20
8.41764
 30
0.0
 11
6.10633
 21
8.47792
 31
0.0
  0
LINE
  5
191
100
AcDbEntity
  8
C00-00-00-BLACK
100
AcDbLine
 10
6.1351
 20
8.37701
 30
0.0
 11
6.17296
 21
8.43647
 31
0.0
  0
LINE
  5
192
100
AcDbEntity
  8
C00-00-00-BLACK
100
AcDbLine
 10
6.26297
 20
8.29161
 30
0.0
 11
6.30339
 21
8.34933
 31
0.0
  0
LINE
  5
193
100
AcDbEntity
  8
C00-00-00-BLACK
100
AcDbLine
 10
6.32547
 20
8.24681
 30
0.0
 11
6.36714
 21
8.30365
 31
0.0
  0
LINE
  5
194
100
AcDbEntity
  8
C00-00-00-BLACK
100
AcDbLine
 10
6.44743
 20
8.15321
 30
0.0
 11
6.4916
 21
8.20817
 31
0.0
  0
LINE
  5
195
100
AcDbEntity
  8
C00-00-00-BLACK
100
AcDbLine
 10
6.50689
 20
8.10444
 30
0.0
 11
6.55219
 21
8.15842
 31
0.0
  0
LINE
  5
196
100
AcDbEntity
  8
C00-00-00-BLACK
100
AcDbLine
 10
6.6225
 20
8.00304
 30
0.0
 11
6.67014
 21
8.05496
 31
0.0
  0
LINE
  5
197
100
AcDbEntity
  8
C00-00-00-BLACK
100
AcDbLine
 10
6.6786
 20
7.95047
 30
0.0
 11
6.72738
 21
8.00136
 31
0.0
  0
LINE
  5
198
100
AcDbEntity
  8
C00-00-00-BLACK
100
AcDbLine
 10
6.78738
 20
7.84169
 30
0.0
 11
6.83826
 21
7.89046
 31
0.0
  0
LINE
  5
199
100
AcDbEntity
  8
C00-00-00-BLACK
100
AcDbLine
 10
6.83996
 20
7.78558
 30
0.0
 11
6.89193
 21
7.83322
 31
0.0
  0
LINE
  5
19a
100
AcDbEntity
  8
C00-00-00-BLACK
100
AcDbLine
 10
6.94129
 20
7.66997
 30
0.0
 11
6.99533
 21
7.71528
 31
0.0
  0
LINE
  5
19b
100
AcDbEntity
  8
C00-00-00-BLACK
100
AcDbLine
 10
6.99013
 20
7.61051
 30
0.0
 11
7.04508
 21
7.65468
 31
0.0
  0
LINE
  5
19c
100
AcDbEntity
  8
C00-00-00-BLACK
100
AcDbLine
 10
7.08371
 20
7.48856
 30
0.0
 11
7.14057
 21
7.53022
 31
0.0
  0
LINE
  5
19d
100
AcDbEntity
  8
C00-00-00-BLACK
100
AcDbLine
 10
7.12853
 20
7.42606
 30
0.0
 11
7.18625
 21
7.46647
 31
0.0
  0
LINE
  5
19e
100
AcDbEntity
  8
C00-00-00-BLACK
100
AcDbLine
 10
7.21392
 20
7.29818
 30
0.0
 11
7.27339
 21
7.33604
 31
0.0
  0
LINE
  5
19f
100
AcDbEntity
  8
C00-00-00-BLACK
100
AcDbLine
 10
7.25456
 20
7.23286
 30
0.0
 11
7.31483
 21
7.26942
 31
0.0
  0
LINE
  5
1a0
100
AcDbEntity
  8
C00-00-00-BLACK
100
AcDbLine
 10
7.33143
 20
7.09967
 30
0.0
 11
7.39322
 21
7.13357
 31
0.0
  0
LINE
  5
1a1
100
AcDbEntity
  8
C00-00-00-BLACK
100
AcDbLine
 10
7.36768
 20
7.0319
 30
0.0
 11
7.43024
 21
7.06446
 31
0.0
  0
LINE
  5
1a2
100
AcDbEntity
  8
C00-00-00-BLACK
100
AcDbLine
 10
7.43571
 20
6.89393
 30
0.0
 11
7.49963
 21
6.92372
 31
0.0
  0
LINE
  5
1a3
100
AcDbEntity
  8
C00-00-00-BLACK
100
AcDbLine
 10
7.46744
 20
6.82389
 30
0.0
 11
7.53196
 21
6.85226
 31
0.0
  0
LINE
  5
1a4
100
AcDbEntity
  8
C00-00-00-BLACK
100
AcDbLine
 10
7.52632
 20
6.68186
 30
0.0
 11
7.59196
 21
6.70736
 31
0.0
  0
LINE
  5
1a5
100
AcDbEntity
  8
C00-00-00-BLACK
100
AcDbLine
 10
7.55339
 20
6.60986
 30
0.0
 11
7.61962
 21
6.634
 31
0.0
  0
LINE
  5
1a6
100
AcDbEntity
  8
C00-00-00-BLACK
100
AcDbLine
 10
7.60281
 20
6.46425
 30
0.0
 11
7.67003
 21
6.48546
 31
0.0
  0
LINE
  5
1a7
100
AcDbEntity
  8
C00-00-00-BLACK
100
AcDbLine
 10
7.62511
 20
6.39068
 30
0.0
 11
7.69282
 21
6.41038
 31
0.0
  0
LINE
  5
1a8
100
AcDbEntity
  8
C00-00-00-BLACK
100
AcDbLine
 10
7.66493
 20
6.24214
 30
0.0
 11
7.7334
 21
6.2589
 31
0.0
  0
LINE
  5
1a9
100
AcDbEntity
  8
C00-00-00-BLACK
100
AcDbLine
 10
7.6824
 20
6.16721
 30
0.0
 11
7.75119
 21
6.18251
 31
0.0
  0
LINE
  5
1aa
100
AcDbEntity
  8
C00-00-00-BLACK
100
AcDbLine
 10
7.7124
 20
6.01644
 30
0.0
 11
7.78179
 21
6.02864
 31
0.0
  0
LINE
  5
1ab
100
AcDbEntity
  8
C00-00-00-BLACK
100
AcDbLine
 10
7.72493
 20
5.94054
 30
0.0
 11
7.7946
 21
5.95128
 31
0.0
  0
LINE
  5
1ac
100
AcDbEntity
  8
C00-00-00-BLACK
100
AcDbLine
 10
7.74501
 20
5.78808
 30
0.0
 11
7.81506
 21
5.79574
 31
0.0
  0
LINE
  5
1ad
100
AcDbEntity
  8
C00-00-00-BLACK
100
AcDbLine
 10
7.75256
 20
5.71153
 30
0.0
 11
7.82275
 21
5.71772
 31
0.0
  0
LINE
  5
1ae
100
AcDbEntity
  8
C00-00-00-BLACK
100
AcDbLine
 10
7.76258
 20
5.55811
 30
0.0
 11
7.83301
 21
5.56119
 31
0.0
  0
LINE
  5
1af
100
AcDbEntity
  8
C00-00-00-BLACK
100
AcDbLine
 10
7.76508
 20
5.48122
 30
0.0
 11
7.83556
 21
5.48281
 31
0.0
  0
LINE
  5
1b0
100
AcDbEntity
  8
C00-00-00-BLACK
100
AcDbLine
 10
7.76508
 20
5.32747
 30
0.0
 11
7.83556
 21
5.32596
 31
0.0
  0
LINE
  5
1b1
100
AcDbEntity
  8
C00-00-00-BLACK
100
AcDbLine
 10
7.76258
 20
5.25065
 30
0.0
 11
7.83301
 21
5.24756
 31
0.0
  0
LINE
  5
1b2
100
AcDbEntity
  8
C00-00-00-BLACK
100
AcDbLine
 10
7.75256
 20
5.09717
 30
0.0
 11
7.82275
 21
5.09104
 31
0.0
  0
LINE
  5
1b3
100
AcDbEntity
  8
C00-00-00-BLACK
100
AcDbLine
 10
7.74501
 20
5.02067
 30
0.0
 11
7.81506
 21
5.01297
 31
0.0
  0
LINE
  5
1b4
100
AcDbEntity
  8
C00-00-00-BLACK
100
AcDbLine
 10
7.72493
 20
4.86817
 30
0.0
 11
7.7946
 21
4.85747
 31
0.0
  0
LINE
  5
1b5
100
AcDbEntity
  8
C00-00-00-BLACK
100
AcDbLine
 10
7.7124
 20
4.79232
 30
0.0
 11
7.78179
 21
4.78006
 31
0.0
  0
LINE
  5
1b6
100
AcDbEntity
  8
C00-00-00-BLACK
100
AcDbLine
 10
7.6824
 20
4.6415
 30
0.0
 11
7.75119
 21
4.62625
 31
0.0
  0
LINE
  5
1b7
100
AcDbEntity
  8
C00-00-00-BLACK
100
AcDbLine
 10
7.66493
 20
4.56662
 30
0.0
 11
7.7334
 21
4.54986
 31
0.0
  0
LINE
  5
1b8
100
AcDbEntity
  8
C00-00-00-BLACK
100
AcDbLine
 10
7.62511
 20
4.41808
 30
0.0
 11
7.69282
 21
4.39833
 31
0.0
  0
LINE
  5
1b9
100
AcDbEntity
  8
C00-00-00-BLACK
100
AcDbLine
 10
7.60281
 20
4.34451
 30
0.0
 11
7.67003
 21
4.32329
 31
0.0
  0
LINE
  5
1ba
100
AcDbEntity
  8
C00-00-00-BLACK
100
AcDbLine
 10
7.55339
 20
4.19883
 30
0.0
 11
7.61962
 21
4.17475
 31
0.0
  0
LINE
  5
1bb
100
AcDbEntity
  8
C00-00-00-BLACK
100
AcDbLine
 10
7.52632
 20
4.1269
 30
0.0
 11
7.59196
 21
4.10135
 31
0.0
  0
LINE
  5
1bc
100
AcDbEntity
  8
C00-00-00-BLACK
100
AcDbLine
 10
7.46744
 20
3.98481
 30
0.0
 11
7.53196
 21
3.95643
 31
0.0
  0
LINE
  5
1bd
100
AcDbEntity
  8
C00-00-00-BLACK
100
AcDbLine
 10
7.43571
 20
3.91476
 30
0.0
 11
7.49963
 21
3.88499
 31
0.0
  0
LINE
  5
1be
100
AcDbEntity
  8
C00-00-00-BLACK
100
AcDbLine
 10
7.36768
 20
3.77686
 30
0.0
 11
7.43024
 21
3.74431
 31
0.0
  0
LINE
  5
1bf
100
AcDbEntity
  8
C00-00-00-BLACK
100
AcDbLine
 10
7.33143
 20
3.70904
 30
0.0
 11
7.39322
 21
3.67513
 31
0.0
  0
LINE
  5
1c0
100
AcDbEntity
  8
C00-00-00-BLACK
100
AcDbLine
 10
2.44988
 20
2.3016
 30
0.0
 11
2.41336
 21
2.23828
 31
0.0
  0
LINE
  5
1c1
100
AcDbEntity
  8
C00-00-00-BLACK
100
AcDbLine
 10
2.4866
 20
2.23882
 30
0.0
 11
2.46886
 21
2.20688
 31
0.0
  0
LINE
  5
1c2
100
AcDbEntity
  8
C00-00-00-BLACK
100
AcDbLine
 10
2.5421
 20
2.20865
 30
0.0
 11
2.52496
 21
2.17638
 31
0.0
  0
LINE
  5
1c3
100
AcDbEntity
  8
C00-00-00-BLACK
100
AcDbLine
 10
2.59814
 20
2.17953
 30
0.0
 11
2.58154
 21
2.14692
 31
0.0
  0
LINE
  5
1c4
100
AcDbEntity
  8
C00-00-00-BLACK
100
AcDbLine
 10
2.65468
 20
2.15132
 30
0.0
 11
2.63861
 21
2.11849
 31
0.0
  0
LINE
  5
1c5
100
AcDbEntity
  8
C00-00-00-BLACK
100
AcDbLine
 10
2.72715
 20
2.15728
 30
0.0
 11
2.69624
 21
2.09099
 31
0.0
  0
LINE
  5
1c6
100
AcDbEntity
  8
C00-00-00-BLACK
100
AcDbLine
 10
2.76915
 20
2.09793
 30
0.0
 11
2.75429
 21
2.06456
 31
0.0
  0
LINE
  5
1c7
100
AcDbEntity
  8
C00-00-00-BLACK
100
AcDbLine
 10
2.8271
 20
2.07275
 30
0.0
 11
2.81282
 21
2.03911
 31
0.0
  0
LINE
  5
1c8
100
AcDbEntity
  8
C00-00-00-BLACK
100
AcDbLine
 10
2.88547
 20
2.04856
 30
0.0
 11
2.87175
 21
2.01471
 31
0.0
  0
LINE
  5
1c9
100
AcDbEntity
  8
C00-00-00-BLACK
100
AcDbLine
 10
2.94422
 20
2.02539
 30
0.0
 11
2.9311
 21
1.99126
 31
0.0
  0
LINE
  5
1ca
100
AcDbEntity
  8
C00-00-00-BLACK
100
AcDbLine
 10
3.0159
 20
2.03765
 30
0.0
 11
2.99089
 21
1.96897
 31
0.0
  0
LINE
  5
1cb
100
AcDbEntity
  8
C00-00-00-BLACK
100
AcDbLine
 10
3.06293
 20
1.98221
 30
0.0
 11
3.05106
 21
1.94764
 31
0.0
  0
LINE
  5
1cc
100
AcDbEntity
  8
C00-00-00-BLACK
100
AcDbLine
 10
3.12283
 20
1.96218
 30
0.0
 11
3.11154
 21
1.9274
 31
0.0
  0
LINE
  5
1cd
100
AcDbEntity
  8
C00-00-00-BLACK
100
AcDbLine
 10
3.18311
 20
1.94319
 30
0.0
 11
3.17236
 21
1.90821
 31
0.0
  0
LINE
  5
1ce
100
AcDbEntity
  8
C00-00-00-BLACK
100
AcDbLine
 10
3.24365
 20
1.92524
 30
0.0
 11
3.23356
 21
1.89008
 31
0.0
  0
LINE
  5
1cf
100
AcDbEntity
  8
C00-00-00-BLACK
100
AcDbLine
 10
3.32346
 20
1.979
 30
0.0
 11
3.29508
 21
1.87304
 31
0.0
  0
LINE
  5
1d0
100
AcDbEntity
  8
C00-00-00-BLACK
100
AcDbLine
 10
3.36567
 20
1.89253
 30
0.0
 11
3.35682
 21
1.8571
 31
0.0
  0
LINE
  5
1d1
100
AcDbEntity
  8
C00-00-00-BLACK
100
AcDbLine
 10
3.42714
 20
1.87776
 30
0.0
 11
3.41889
 21
1.84218
 31
0.0
  0
LINE
  5
1d2
100
AcDbEntity
  8
C00-00-00-BLACK
100
AcDbLine
 10
3.48876
 20
1.86415
 30
0.0
 11
3.48118
 21
1.82835
 31
0.0
  0
LINE
  5
1d3
100
AcDbEntity
  8
C00-00-00-BLACK
100
AcDbLine
 10
3.55067
 20
1.85151
 30
0.0
 11
3.54372
 21
1.81565
 31
0.0
  0
LINE
  5
1d4
100
AcDbEntity
  8
C00-00-00-BLACK
100
AcDbLine
 10
3.61914
 20
1.87603
 30
0.0
 11
3.60644
 21
1.80404
 31
0.0
  0
LINE
  5
1d5
100
AcDbEntity
  8
C00-00-00-BLACK
100
AcDbLine
 10
3.67507
 20
1.82958
 30
0.0
 11
3.66938
 21
1.79346
 31
0.0
  0
LINE
  5
1d6
100
AcDbEntity
  8
C00-00-00-BLACK
100
AcDbLine
 10
3.73757
 20
1.82026
 30
0.0
 11
3.73247
 21
1.78401
 31
0.0
  0
LINE
  5
1d7
100
AcDbEntity
  8
C00-00-00-BLACK
100
AcDbLine
 10
3.80018
 20
1.81201
 30
0.0
 11
3.79574
 21
1.77572
 31
0.0
  0
LINE
  5
1d8
100
AcDbEntity
  8
C00-00-00-BLACK
100
AcDbLine
 10
3.86296
 20
1.80485
 30
0.0
 11
3.85915
 21
1.7685
 31
0.0
  0
LINE
  5
1d9
100
AcDbEntity
  8
C00-00-00-BLACK
100
AcDbLine
 10
3.92904
 20
1.83524
 30
0.0
 11
3.92264
 21
1.76237
 31
0.0
  0
LINE
  5
1da
100
AcDbEntity
  8
C00-00-00-BLACK
100
AcDbLine
 10
3.98882
 20
1.79383
 30
0.0
 11
3.98628
 21
1.75737
 31
0.0
  0
LINE
  5
1db
100
AcDbEntity
  8
C00-00-00-BLACK
100
AcDbLine
 10
4.05186
 20
1.78999
 30
0.0
 11
4.04997
 21
1.75347
 31
0.0
  0
LINE
  5
1dc
100
AcDbEntity
  8
C00-00-00-BLACK
100
AcDbLine
 10
4.11496
 20
1.78722
 30
0.0
 11
4.11372
 21
1.75071
 31
0.0
  0
LINE
  5
1dd
100
AcDbEntity
  8
C00-00-00-BLACK
100
AcDbLine
 10
4.17811
 20
1.78558
 30
0.0
 11
4.17746
 21
1.74903
 31
0.0
  0
LINE
  5
1de
100
AcDbEntity
  8
C00-00-00-BLACK
100
AcDbLine
 10
4.24126
 20
1.85813
 30
0.0
 11
4.24126
 21
1.74849
 31
0.0
  0
LINE
  5
1df
100
AcDbEntity
  8
C00-00-00-BLACK
100
AcDbLine
 10
4.30447
 20
1.78558
 30
0.0
 11
4.30507
 21
1.74903
 31
0.0
  0
LINE
  5
1e0
100
AcDbEntity
  8
C00-00-00-BLACK
100
AcDbLine
 10
4.36762
 20
1.78722
 30
0.0
 11
4.36887
 21
1.75071
 31
0.0
  0
LINE
  5
1e1
100
AcDbEntity
  8
C00-00-00-BLACK
100
AcDbLine
 10
4.43072
 20
1.78999
 30
0.0
 11
4.43261
 21
1.75347
 31
0.0
  0
LINE
  5
1e2
100
AcDbEntity
  8
C00-00-00-BLACK
100
AcDbLine
 10
4.49376
 20
1.79383
 30
0.0
 11
4.49631
 21
1.75737
 31
0.0
  0
LINE
  5
1e3
100
AcDbEntity
  8
C00-00-00-BLACK
100
AcDbLine
 10
4.55354
 20
1.83524
 30
0.0
 11
4.55989
 21
1.76237
 31
0.0
  0
LINE
  5
1e4
100
AcDbEntity
  8
C00-00-00-BLACK
100
AcDbLine
 10
4.61957
 20
1.80485
 30
0.0
 11
4.62343
 21
1.7685
 31
0.0
  0
LINE
  5
1e5
100
AcDbEntity
  8
C00-00-00-BLACK
100
AcDbLine
 10
4.68235
 20
1.81201
 30
0.0
 11
4.68679
 21
1.77572
 31
0.0
  0
LINE
  5
1e6
100
AcDbEntity
  8
C00-00-00-BLACK
100
AcDbLine
 10
4.74501
 20
1.82026
 30
0.0
 11
4.75006
 21
1.78401
 31
0.0
  0
LINE
  5
1e7
100
AcDbEntity
  8
C00-00-00-BLACK
100
AcDbLine
 10
4.80746
 20
1.82958
 30
0.0
 11
4.81321
 21
1.79346
 31
0.0
  0
LINE
  5
1e8
100
AcDbEntity
  8
C00-00-00-BLACK
100
AcDbLine
 10
4.86339
 20
1.87603
 30
0.0
 11
4.87608
 21
1.80404
 31
0.0
  0
LINE
  5
1e9
100
AcDbEntity
  8
C00-00-00-BLACK
100
AcDbLine
 10
4.93186
 20
1.85151
 30
0.0
 11
4.93886
 21
1.81565
 31
0.0
  0
LINE
  5
1ea
100
AcDbEntity
  8
C00-00-00-BLACK
100
AcDbLine
 10
4.99376
 20
1.86415
 30
0.0
 11
5.00136
 21
1.82835
 31
0.0
  0
LINE
  5
1eb
100
AcDbEntity
  8
C00-00-00-BLACK
100
AcDbLine
 10
5.05544
 20
1.87776
 30
0.0
 11
5.06369
 21
1.84218
 31
0.0
  0
LINE
  5
1ec
100
AcDbEntity
  8
C00-00-00-BLACK
100
AcDbLine
 10
5.11686
 20
1.89253
 30
0.0
 11
5.12571
 21
1.8571
 31
0.0
  0
LINE
  5
1ed
100
AcDbEntity
  8
C00-00-00-BLACK
100
AcDbLine
 10
5.16857
 20
1.94368
 30
0.0
 11
5.1875
 21
1.87304
 31
0.0
  0
LINE
  5
1ee
100
AcDbEntity
  8
C00-00-00-BLACK
100
AcDbLine
 10
5.23888
 20
1.92524
 30
0.0
 11
5.24897
 21
1.89008
 31
0.0
  0
LINE
  5
1ef
100
AcDbEntity
  8
C00-00-00-BLACK
100
AcDbLine
 10
5.29947
 20
1.94319
 30
0.0
 11
5.31017
 21
1.90821
 31
0.0
  0
LINE
  5
1f0
100
AcDbEntity
  8
C00-00-00-BLACK
100
AcDbLine
 10
5.35969
 20
1.96218
 30
0.0
 11
5.37104
 21
1.9274
 31
0.0
  0
LINE
  5
1f1
100
AcDbEntity
  8
C00-00-00-BLACK
100
AcDbLine
 10
5.41965
 20
1.98221
 30
0.0
 11
5.43153
 21
1.94764
 31
0.0
  0
LINE
  5
1f2
100
AcDbEntity
  8
C00-00-00-BLACK
100
AcDbLine
 10
5.46669
 20
2.03765
 30
0.0
 11
5.49164
 21
1.96897
 31
0.0
  0
LINE
  5
1f3
100
AcDbEntity
  8
C00-00-00-BLACK
100
AcDbLine
 10
5.53836
 20
2.02539
 30
0.0
 11
5.55143
 21
1.99126
 31
0.0
  0
LINE
  5
1f4
100
AcDbEntity
  8
C00-00-00-BLACK
100
AcDbLine
 10
5.59711
 20
2.04856
 30
0.0
 11
5.61079
 21
2.01471
 31
0.0
  0
LINE
  5
1f5
100
AcDbEntity
  8
C00-00-00-BLACK
100
AcDbLine
 10
5.65549
 20
2.07275
 30
0.0
 11
5.66976
 21
2.03911
 31
0.0
  0
LINE
  5
1f6
100
AcDbEntity
  8
C00-00-00-BLACK
100
AcDbLine
 10
5.71338
 20
2.09793
 30
0.0
 11
5.72825
 21
2.06456
 31
0.0
  0
LINE
  5
1f7
100
AcDbEntity
  8
C00-00-00-BLACK
100
AcDbLine
 10
5.75543
 20
2.15728
 30
0.0
 11
5.78635
 21
2.09099
 31
0.0
  0
LINE
  5
1f8
100
AcDbEntity
  8
C00-00-00-BLACK
100
AcDbLine
 10
5.8279
 20
2.15132
 30
0.0
 11
5.84392
 21
2.11849
 31
0.0
  0
LINE
  5
1f9
100
AcDbEntity
  8
C00-00-00-BLACK
100
AcDbLine
 10
5.88444
 20
2.17953
 30
0.0
 11
5.90104
 21
2.14692
 31
0.0
  0
LINE
  5
1fa
100
AcDbEntity
  8
C00-00-00-BLACK
100
AcDbLine
 10
5.94049
 20
2.20865
 30
0.0
 11
5.95763
 21
2.17638
 31
0.0
  0
LINE
  5
1fb
100
AcDbEntity
  8
C00-00-00-BLACK
100
AcDbLine
 10
5.99599
 20
2.23882
 30
0.0
 11
6.01367
 21
2.20688
 31
0.0
  0
LINE
  5
1fc
100
AcDbEntity
  8
C00-00-00-BLACK
100
AcDbLine
 10
6.03267
 20
2.3016
 30
0.0
 11
6.06922
 21
2.23828
 31
0.0
  0
SPLINE
  5
1fd
100
AcDbEntity
  8
C00-00-00-BLACK
100
AcDbSpline
210
0.0
220
0.0
230
1.0
 70
     0
 71
     3
 72
     8
 73
4
 40
0.0
 40
0.0
 40
0.0
 40
0.0
 40
1.0
 40
1.0
 40
1.0
 40
1.0
 10
0.985568
 20
3.57579
 30
0.0
 10
0.985081
 20
3.57889
 30
0.0
 10
0.984918
 20
3.57969
 30
0.0
 10
0.982639
 20
3.57937
 30
0.0
  0
SPLINE
  5
1fe
100
AcDbEntity
  8
C00-00-00-BLACK
100
AcDbSpline
210
0.0
220
0.0
230
1.0
 70
     0
 71
     3
 72
     8
 73
4
 40
0.0
 40
0.0
 40
0.0
 40
0.0
 40
1.0
 40
1.0
 40
1.0
 40
1.0
 10
0.982639
 20
3.57937
 30
0.0
 10
0.981336
 20
3.57915
 30
0.0
 10
0.980849
 20
3.5791
 30
0.0
 10
0.979818
 20
3.57688
 30
0.0
  0
LINE
  5
1ff
100
AcDbEntity
  8
C00-00-00-BLACK
100
AcDbLine
 10
0.979818
 20
3.57688
 30
0.0
 11
0.942437
 21
3.49257
 31
0.0
  0
LINE
  5
200
100
AcDbEntity
  8
C00-00-00-BLACK
100
AcDbLine
 10
0.942437
 20
3.49257
 30
0.0
 11
0.943197
 21
3.48779
 31
0.0
  0
LINE
  5
201
100
AcDbEntity
  8
C00-00-00-BLACK
100
AcDbLine
 10
0.943197
 20
3.48779
 30
0.0
 11
0.986328
 21
3.49457
 31
0.0
  0
LINE
  5
202
100
AcDbEntity
  8
C00-00-00-BLACK
100
AcDbLine
 10
0.986328
 20
3.49457
 30
0.0
 11
0.988661
 21
3.4796
 31
0.0
  0
SPLINE
  5
203
100
AcDbEntity
  8
C00-00-00-BLACK
100
AcDbSpline
210
0.0
220
0.0
230
1.0
 70
     0
 71
     3
 72
     8
 73
4
 40
0.0
 40
0.0
 40
0.0
 40
0.0
 40
1.0
 40
1.0
 40
1.0
 40
1.0
 10
0.988661
 20
3.4796
 30
0.0
 10
0.989637
 20
3.47358
 30
0.0
 10
0.989529
 20
3.47185
 30
0.0
 10
0.977593
 20
3.47
 30
0.0
  0
LINE
  5
204
100
AcDbEntity
  8
C00-00-00-BLACK
100
AcDbLine
 10
0.977593
 20
3.47
 30
0.0
 11
0.974283
 21
3.46946
 31
0.0
  0
LINE
  5
205
100
AcDbEntity
  8
C00-00-00-BLACK
100
AcDbLine
 10
0.974283
 20
3.46946
 30
0.0
 11
0.975043
 21
3.46474
 31
0.0
  0
SPLINE
  5
206
100
AcDbEntity
  8
C00-00-00-BLACK
100
AcDbSpline
210
0.0
220
0.0
230
1.0
 70
     0
 71
     3
 72
     8
 73
4
 40
0.0
 40
0.0
 40
0.0
 40
0.0
 40
1.0
 40
1.0
 40
1.0
 40
1.0
 10
0.975043
 20
3.46474
 30
0.0
 10
0.978788
 20
3.4656
 30
0.0
 10
0.991753
 20
3.46767
 30
0.0
 10
0.996311
 20
3.46838
 30
0.0
  0
SPLINE
  5
207
100
AcDbEntity
  8
C00-00-00-BLACK
100
AcDbSpline
210
0.0
220
0.0
230
1.0
 70
     0
 71
     3
 72
     8
 73
4
 40
0.0
 40
0.0
 40
0.0
 40
0.0
 40
1.0
 40
1.0
 40
1.0
 40
1.0
 10
0.996311
 20
3.46838
 30
0.0
 10
1.00092
 20
3.46907
 30
0.0
 10
1.01405
 20
3.47114
 30
0.0
 10
1.01785
 20
3.4714
 30
0.0
  0
LINE
  5
208
100
AcDbEntity
  8
C00-00-00-BLACK
100
AcDbLine
 10
1.01785
 20
3.4714
 30
0.0
 11
1.01714
 21
3.47618
 31
0.0
  0
LINE
  5
209
100
AcDbEntity
  8
C00-00-00-BLACK
100
AcDbLine
 10
1.01714
 20
3.47618
 30
0.0
 11
1.01383
 21
3.47564
 31
0.0
  0
SPLINE
  5
20a
100
AcDbEntity
  8
C00-00-00-BLACK
100
AcDbSpline
210
0.0
220
0.0
230
1.0
 70
     0
 71
     3
 72
     8
 73
4
 40
0.0
 40
0.0
 40
0.0
 40
0.0
 40
1.0
 40
1.0
 40
1.0
 40
1.0
 10
1.01383
 20
3.47564
 30
0.0
 10
1.00206
 20
3.47379
 30
0.0
 10
1.0013
 20
3.47538
 30
0.0
 10
1.00032
 20
3.48144
 30
0.0
  0
LINE
  5
20b
100
AcDbEntity
  8
C00-00-00-BLACK
100
AcDbLine
 10
1.00032
 20
3.48144
 30
0.0
 11
0.997993
 21
3.49636
 31
0.0
  0
LINE
  5
20c
100
AcDbEntity
  8
C00-00-00-BLACK
100
AcDbLine
 10
0.997993
 20
3.49636
 30
0.0
 11
1.01459
 21
3.49897
 31
0.0
  0
LINE
  5
20d
100
AcDbEntity
  8
C00-00-00-BLACK
100
AcDbLine
 10
1.01459
 20
3.49897
 30
0.0
 11
1.01383
 21
3.50375
 31
0.0
  0
LINE
  5
20e
100
AcDbEntity
  8
C00-00-00-BLACK
100
AcDbLine
 10
1.01383
 20
3.50375
 30
0.0
 11
0.997233
 21
3.50114
 31
0.0
  0
LINE
  5
20f
100
AcDbEntity
  8
C00-00-00-BLACK
100
AcDbLine
 10
0.997233
 20
3.50114
 30
0.0
 11
0.985568
 21
3.57579
 31
0.0
  0
LINE
  5
210
100
AcDbEntity
  8
C00-00-00-BLACK
100
AcDbLine
 10
0.976725
 20
3.56131
 30
0.0
 11
0.986436
 21
3.49946
 31
0.0
  0
LINE
  5
211
100
AcDbEntity
  8
C00-00-00-BLACK
100
AcDbLine
 10
0.986436
 20
3.49946
 30
0.0
 11
0.94656
 21
3.49322
 31
0.0
  0
LINE
  5
212
100
AcDbEntity
  8
C00-00-00-BLACK
100
AcDbLine
 10
0.94656
 20
3.49322
 30
0.0
 11
0.976725
 21
3.56131
 31
0.0
  0
SPLINE
  5
213
100
AcDbEntity
  8
C00-00-00-BLACK
100
AcDbSpline
210
0.0
220
0.0
230
1.0
 70
     0
 71
     3
 72
     8
 73
4
 40
0.0
 40
0.0
 40
0.0
 40
0.0
 40
1.0
 40
1.0
 40
1.0
 40
1.0
 10
0.572483
 20
4.46674
 30
0.0
 10
0.579915
 20
4.4656
 30
0.0
 10
0.585667
 20
4.46636
 30
0.0
 10
0.587511
 20
4.46664
 30
0.0
  0
SPLINE
  5
214
100
AcDbEntity
  8
C00-00-00-BLACK
100
AcDbSpline
210
0.0
220
0.0
230
1.0
 70
     0
 71
     3
 72
     8
 73
4
 40
0.0
 40
0.0
 40
0.0
 40
0.0
 40
1.0
 40
1.0
 40
1.0
 40
1.0
 10
0.587511
 20
4.46664
 30
0.0
 10
0.606011
 20
4.46961
 30
0.0
 10
0.615614
 20
4.48514
 30
0.0
 10
0.615235
 20
4.48747
 30
0.0
  0
SPLINE
  5
215
100
AcDbEntity
  8
C00-00-00-BLACK
100
AcDbSpline
210
0.0
220
0.0
230
1.0
 70
     0
 71
     3
 72
     8
 73
4
 40
0.0
 40
0.0
 40
0.0
 40
0.0
 40
1.0
 40
1.0
 40
1.0
 40
1.0
 10
0.615235
 20
4.48747
 30
0.0
 10
0.615126
 20
4.48812
 30
0.0
 10
0.614692
 20
4.48888
 30
0.0
 10
0.613715
 20
4.48872
 30
0.0
  0
SPLINE
  5
216
100
AcDbEntity
  8
C00-00-00-BLACK
100
AcDbSpline
210
0.0
220
0.0
230
1.0
 70
     0
 71
     3
 72
     8
 73
4
 40
0.0
 40
0.0
 40
0.0
 40
0.0
 40
1.0
 40
1.0
 40
1.0
 40
1.0
 10
0.613715
 20
4.48872
 30
0.0
 10
0.61339
 20
4.48867
 30
0.0
 10
0.613064
 20
4.48861
 30
0.0
 10
0.611654
 20
4.48768
 30
0.0
  0
SPLINE
  5
217
100
AcDbEntity
  8
C00-00-00-BLACK
100
AcDbSpline
210
0.0
220
0.0
230
1.0
 70
     0
 71
     3
 72
     8
 73
4
 40
0.0
 40
0.0
 40
0.0
 40
0.0
 40
1.0
 40
1.0
 40
1.0
 40
1.0
 10
0.611654
 20
4.48768
 30
0.0
 10
0.603136
 20
4.48232
 30
0.0
 10
0.595324
 20
4.48053
 30
0.0
 10
0.591092
 20
4.47987
 30
0.0
  0
SPLINE
  5
218
100
AcDbEntity
  8
C00-00-00-BLACK
100
AcDbSpline
210
0.0
220
0.0
230
1.0
 70
     0
 71
     3
 72
     8
 73
4
 40
0.0
 40
0.0
 40
0.0
 40
0.0
 40
1.0
 40
1.0
 40
1.0
 40
1.0
 10
0.591092
 20
4.47987
 30
0.0
 10
0.58024
 20
4.47814
 30
0.0
 10
0.572049
 20
4.48014
 30
0.0
 10
0.568685
 20
4.48096
 30
0.0
  0
SPLINE
  5
219
100
AcDbEntity
  8
C00-00-00-BLACK
100
AcDbSpline
210
0.0
220
0.0
230
1.0
 70
     0
 71
     3
 72
     8
 73
4
 40
0.0
 40
0.0
 40
0.0
 40
0.0
 40
1.0
 40
1.0
 40
1.0
 40
1.0
 10
0.568685
 20
4.48096
 30
0.0
 10
0.567492
 20
4.48122
 30
0.0
 10
0.567165
 20
4.48118
 30
0.0
 10
0.567003
 20
4.48118
 30
0.0
  0
SPLINE
  5
21a
100
AcDbEntity
  8
C00-00-00-BLACK
100
AcDbSpline
210
0.0
220
0.0
230
1.0
 70
     0
 71
     3
 72
     8
 73
4
 40
0.0
 40
0.0
 40
0.0
 40
0.0
 40
1.0
 40
1.0
 40
1.0
 40
1.0
 10
0.567003
 20
4.48118
 30
0.0
 10
0.565701
 20
4.48096
 30
0.0
 10
0.56581
 20
4.47999
 30
0.0
 10
0.566243
 20
4.47732
 30
0.0
  0
LINE
  5
21b
100
AcDbEntity
  8
C00-00-00-BLACK
100
AcDbLine
 10
0.566243
 20
4.47732
 30
0.0
 11
0.57411
 21
4.42865
 31
0.0
  0
SPLINE
  5
21c
100
AcDbEntity
  8
C00-00-00-BLACK
100
AcDbSpline
210
0.0
220
0.0
230
1.0
 70
     0
 71
     3
 72
     8
 73
4
 40
0.0
 40
0.0
 40
0.0
 40
0.0
 40
1.0
 40
1.0
 40
1.0
 40
1.0
 10
0.57411
 20
4.42865
 30
0.0
 10
0.574599
 20
4.42572
 30
0.0
 10
0.574761
 20
4.42475
 30
0.0
 10
0.576714
 20
4.42507
 30
0.0
  0
SPLINE
  5
21d
100
AcDbEntity
  8
C00-00-00-BLACK
100
AcDbSpline
210
0.0
220
0.0
230
1.0
 70
     0
 71
     3
 72
     8
 73
4
 40
0.0
 40
0.0
 40
0.0
 40
0.0
 40
1.0
 40
1.0
 40
1.0
 40
1.0
 10
0.576714
 20
4.42507
 30
0.0
 10
0.577528
 20
4.42518
 30
0.0
 10
0.577692
 20
4.4254
 30
0.0
 10
0.578993
 20
4.42763
 30
0.0
  0
SPLINE
  5
21e
100
AcDbEntity
  8
C00-00-00-BLACK
100
AcDbSpline
210
0.0
220
0.0
230
1.0
 70
     0
 71
     3
 72
     8
 73
4
 40
0.0
 40
0.0
 40
0.0
 40
0.0
 40
1.0
 40
1.0
 40
1.0
 40
1.0
 10
0.578993
 20
4.42763
 30
0.0
 10
0.582519
 20
4.43506
 30
0.0
 10
0.589572
 20
4.44026
 30
0.0
 10
0.597765
 20
4.44157
 30
0.0
  0
SPLINE
  5
21f
100
AcDbEntity
  8
C00-00-00-BLACK
100
AcDbSpline
210
0.0
220
0.0
230
1.0
 70
     0
 71
     3
 72
     8
 73
4
 40
0.0
 40
0.0
 40
0.0
 40
0.0
 40
1.0
 40
1.0
 40
1.0
 40
1.0
 10
0.597765
 20
4.44157
 30
0.0
 10
0.606446
 20
4.44299
 30
0.0
 10
0.612033
 20
4.4356
 30
0.0
 10
0.613769
 20
4.43306
 30
0.0
  0
SPLINE
  5
220
100
AcDbEntity
  8
C00-00-00-BLACK
100
AcDbSpline
210
0.0
220
0.0
230
1.0
 70
     0
 71
     3
 72
     8
 73
4
 40
0.0
 40
0.0
 40
0.0
 40
0.0
 40
1.0
 40
1.0
 40
1.0
 40
1.0
 10
0.613769
 20
4.43306
 30
0.0
 10
0.617622
 20
4.42708
 30
0.0
 10
0.619032
 20
4.41911
 30
0.0
 10
0.620063
 20
4.41287
 30
0.0
  0
SPLINE
  5
221
100
AcDbEntity
  8
C00-00-00-BLACK
100
AcDbSpline
210
0.0
220
0.0
230
1.0
 70
     0
 71
     3
 72
     8
 73
4
 40
0.0
 40
0.0
 40
0.0
 40
0.0
 40
1.0
 40
1.0
 40
1.0
 40
1.0
 10
0.620063
 20
4.41287
 30
0.0
 10
0.621039
 20
4.40663
 30
0.0
 10
0.622558
 20
4.39729
 30
0.0
 10
0.61914
 20
4.38917
 30
0.0
  0
SPLINE
  5
222
100
AcDbEntity
  8
C00-00-00-BLACK
100
AcDbSpline
210
0.0
220
0.0
230
1.0
 70
     0
 71
     3
 72
     8
 73
4
 40
0.0
 40
0.0
 40
0.0
 40
0.0
 40
1.0
 40
1.0
 40
1.0
 40
1.0
 10
0.61914
 20
4.38917
 30
0.0
 10
0.616536
 20
4.38271
 30
0.0
 10
0.610786
 20
4.37756
 30
0.0
 10
0.603569
 20
4.37642
 30
0.0
  0
SPLINE
  5
223
100
AcDbEntity
  8
C00-00-00-BLACK
100
AcDbSpline
210
0.0
220
0.0
230
1.0
 70
     0
 71
     3
 72
     8
 73
4
 40
0.0
 40
0.0
 40
0.0
 40
0.0
 40
1.0
 40
1.0
 40
1.0
 40
1.0
 10
0.603569
 20
4.37642
 30
0.0
 10
0.592774
 20
4.37468
 30
0.0
 10
0.580892
 20
4.38032
 30
0.0
 10
0.57601
 20
4.39182
 30
0.0
  0
SPLINE
  5
224
100
AcDbEntity
  8
C00-00-00-BLACK
100
AcDbSpline
210
0.0
220
0.0
230
1.0
 70
     0
 71
     3
 72
     8
 73
4
 40
0.0
 40
0.0
 40
0.0
 40
0.0
 40
1.0
 40
1.0
 40
1.0
 40
1.0
 10
0.57601
 20
4.39182
 30
0.0
 10
0.576878
 20
4.3916
 30
0.0
 10
0.577908
 20
4.3916
 30
0.0
 10
0.578722
 20
4.39171
 30
0.0
  0
SPLINE
  5
225
100
AcDbEntity
  8
C00-00-00-BLACK
100
AcDbSpline
210
0.0
220
0.0
230
1.0
 70
     0
 71
     3
 72
     8
 73
4
 40
0.0
 40
0.0
 40
0.0
 40
0.0
 40
1.0
 40
1.0
 40
1.0
 40
1.0
 10
0.578722
 20
4.39171
 30
0.0
 10
0.581543
 20
4.39219
 30
0.0
 10
0.585667
 20
4.39453
 30
0.0
 10
0.584799
 20
4.40012
 30
0.0
  0
SPLINE
  5
226
100
AcDbEntity
  8
C00-00-00-BLACK
100
AcDbSpline
210
0.0
220
0.0
230
1.0
 70
     0
 71
     3
 72
     8
 73
4
 40
0.0
 40
0.0
 40
0.0
 40
0.0
 40
1.0
 40
1.0
 40
1.0
 40
1.0
 10
0.584799
 20
4.40012
 30
0.0
 10
0.584039
 20
4.40468
 30
0.0
 10
0.580513
 20
4.40685
 30
0.0
 10
0.576443
 20
4.40614
 30
0.0
  0
SPLINE
  5
227
100
AcDbEntity
  8
C00-00-00-BLACK
100
AcDbSpline
210
0.0
220
0.0
230
1.0
 70
     0
 71
     3
 72
     8
 73
4
 40
0.0
 40
0.0
 40
0.0
 40
0.0
 40
1.0
 40
1.0
 40
1.0
 40
1.0
 10
0.576443
 20
4.40614
 30
0.0
 10
0.57346
 20
4.40571
 30
0.0
 10
0.569444
 20
4.40354
 30
0.0
 10
0.570475
 20
4.39714
 30
0.0
  0
SPLINE
  5
228
100
AcDbEntity
  8
C00-00-00-BLACK
100
AcDbSpline
210
0.0
220
0.0
230
1.0
 70
     0
 71
     3
 72
     8
 73
4
 40
0.0
 40
0.0
 40
0.0
 40
0.0
 40
1.0
 40
1.0
 40
1.0
 40
1.0
 10
0.570475
 20
4.39714
 30
0.0
 10
0.5727
 20
4.38319
 30
0.0
 10
0.586426
 20
4.36908
 30
0.0
 10
0.6046
 20
4.37201
 30
0.0
  0
SPLINE
  5
229
100
AcDbEntity
  8
C00-00-00-BLACK
100
AcDbSpline
210
0.0
220
0.0
230
1.0
 70
     0
 71
     3
 72
     8
 73
4
 40
0.0
 40
0.0
 40
0.0
 40
0.0
 40
1.0
 40
1.0
 40
1.0
 40
1.0
 10
0.6046
 20
4.37201
 30
0.0
 10
0.623156
 20
4.37506
 30
0.0
 10
0.636882
 20
4.39322
 30
0.0
 10
0.633518
 20
4.41406
 30
0.0
  0
SPLINE
  5
22a
100
AcDbEntity
  8
C00-00-00-BLACK
100
AcDbSpline
210
0.0
220
0.0
230
1.0
 70
     0
 71
     3
 72
     8
 73
4
 40
0.0
 40
0.0
 40
0.0
 40
0.0
 40
1.0
 40
1.0
 40
1.0
 40
1.0
 10
0.633518
 20
4.41406
 30
0.0
 10
0.630371
 20
4.43354
 30
0.0
 10
0.614637
 20
4.44764
 30
0.0
 10
0.597439
 20
4.44488
 30
0.0
  0
SPLINE
  5
22b
100
AcDbEntity
  8
C00-00-00-BLACK
100
AcDbSpline
210
0.0
220
0.0
230
1.0
 70
     0
 71
     3
 72
     8
 73
4
 40
0.0
 40
0.0
 40
0.0
 40
0.0
 40
1.0
 40
1.0
 40
1.0
 40
1.0
 10
0.597439
 20
4.44488
 30
0.0
 10
0.588108
 20
4.44336
 30
0.0
 10
0.581543
 20
4.43815
 30
0.0
 10
0.578017
 20
4.43283
 30
0.0
  0
LINE
  5
22c
100
AcDbEntity
  8
C00-00-00-BLACK
100
AcDbLine
 10
0.578017
 20
4.43283
 30
0.0
 11
0.572483
 21
4.46674
 31
0.0
  0
SPLINE
  5
22d
100
AcDbEntity
  8
C00-00-00-BLACK
100
AcDbSpline
210
0.0
220
0.0
230
1.0
 70
     0
 71
     3
 72
     8
 73
4
 40
0.0
 40
0.0
 40
0.0
 40
0.0
 40
1.0
 40
1.0
 40
1.0
 40
1.0
 10
0.449599
 20
5.40479
 30
0.0
 10
0.442708
 20
5.44624
 30
0.0
 10
0.461751
 20
5.45611
 30
0.0
 10
0.470594
 20
5.45757
 30
0.0
  0
SPLINE
  5
22e
100
AcDbEntity
  8
C00-00-00-BLACK
100
AcDbSpline
210
0.0
220
0.0
230
1.0
 70
     0
 71
     3
 72
     8
 73
4
 40
0.0
 40
0.0
 40
0.0
 40
0.0
 40
1.0
 40
1.0
 40
1.0
 40
1.0
 10
0.470594
 20
5.45757
 30
0.0
 10
0.476508
 20
5.45856
 30
0.0
 10
0.482693
 20
5.45774
 30
0.0
 10
0.486654
 20
5.45335
 30
0.0
  0
SPLINE
  5
22f
100
AcDbEntity
  8
C00-00-00-BLACK
100
AcDbSpline
210
0.0
220
0.0
230
1.0
 70
     0
 71
     3
 72
     8
 73
4
 40
0.0
 40
0.0
 40
0.0
 40
0.0
 40
1.0
 40
1.0
 40
1.0
 40
1.0
 10
0.486654
 20
5.45335
 30
0.0
 10
0.4847
 20
5.45301
 30
0.0
 10
0.478461
 20
5.45199
 30
0.0
 10
0.479546
 20
5.44526
 30
0.0
  0
SPLINE
  5
230
100
AcDbEntity
  8
C00-00-00-BLACK
100
AcDbSpline
210
0.0
220
0.0
230
1.0
 70
     0
 71
     3
 72
     8
 73
4
 40
0.0
 40
0.0
 40
0.0
 40
0.0
 40
1.0
 40
1.0
 40
1.0
 40
1.0
 10
0.479546
 20
5.44526
 30
0.0
 10
0.480143
 20
5.44168
 30
0.0
 10
0.483128
 20
5.43896
 30
0.0
 10
0.487414
 20
5.43967
 30
0.0
  0
SPLINE
  5
231
100
AcDbEntity
  8
C00-00-00-BLACK
100
AcDbSpline
210
0.0
220
0.0
230
1.0
 70
     0
 71
     3
 72
     8
 73
4
 40
0.0
 40
0.0
 40
0.0
 40
0.0
 40
1.0
 40
1.0
 40
1.0
 40
1.0
 10
0.487414
 20
5.43967
 30
0.0
 10
0.491482
 20
5.44038
 30
0.0
 10
0.493869
 20
5.44325
 30
0.0
 10
0.49311
 20
5.44803
 30
0.0
  0
SPLINE
  5
232
100
AcDbEntity
  8
C00-00-00-BLACK
100
AcDbSpline
210
0.0
220
0.0
230
1.0
 70
     0
 71
     3
 72
     8
 73
4
 40
0.0
 40
0.0
 40
0.0
 40
0.0
 40
1.0
 40
1.0
 40
1.0
 40
1.0
 10
0.49311
 20
5.44803
 30
0.0
 10
0.491644
 20
5.45654
 30
0.0
 10
0.48405
 20
5.46386
 30
0.0
 10
0.469781
 20
5.46149
 30
0.0
  0
SPLINE
  5
233
100
AcDbEntity
  8
C00-00-00-BLACK
100
AcDbSpline
210
0.0
220
0.0
230
1.0
 70
     0
 71
     3
 72
     8
 73
4
 40
0.0
 40
0.0
 40
0.0
 40
0.0
 40
1.0
 40
1.0
 40
1.0
 40
1.0
 10
0.469781
 20
5.46149
 30
0.0
 10
0.449164
 20
5.45806
 30
0.0
 10
0.431044
 20
5.43332
 30
0.0
 10
0.437011
 20
5.39729
 30
0.0
  0
SPLINE
  5
234
100
AcDbEntity
  8
C00-00-00-BLACK
100
AcDbSpline
210
0.0
220
0.0
230
1.0
 70
     0
 71
     3
 72
     8
 73
4
 40
0.0
 40
0.0
 40
0.0
 40
0.0
 40
1.0
 40
1.0
 40
1.0
 40
1.0
 10
0.437011
 20
5.39729
 30
0.0
 10
0.444499
 20
5.35226
 30
0.0
 10
0.465821
 20
5.34538
 30
0.0
 10
0.479764
 20
5.34771
 30
0.0
  0
SPLINE
  5
235
100
AcDbEntity
  8
C00-00-00-BLACK
100
AcDbSpline
210
0.0
220
0.0
230
1.0
 70
     0
 71
     3
 72
     8
 73
4
 40
0.0
 40
0.0
 40
0.0
 40
0.0
 40
1.0
 40
1.0
 40
1.0
 40
1.0
 10
0.479764
 20
5.34771
 30
0.0
 10
0.497612
 20
5.35064
 30
0.0
 10
0.510254
 20
5.36876
 30
0.0
 10
0.506728
 20
5.39003
 30
0.0
  0
SPLINE
  5
236
100
AcDbEntity
  8
C00-00-00-BLACK
100
AcDbSpline
210
0.0
220
0.0
230
1.0
 70
     0
 71
     3
 72
     8
 73
4
 40
0.0
 40
0.0
 40
0.0
 40
0.0
 40
1.0
 40
1.0
 40
1.0
 40
1.0
 10
0.506728
 20
5.39003
 30
0.0
 10
0.503147
 20
5.41183
 30
0.0
 10
0.48546
 20
5.42389
 30
0.0
 10
0.469075
 20
5.42117
 30
0.0
  0
SPLINE
  5
237
100
AcDbEntity
  8
C00-00-00-BLACK
100
AcDbSpline
210
0.0
220
0.0
230
1.0
 70
     0
 71
     3
 72
     8
 73
4
 40
0.0
 40
0.0
 40
0.0
 40
0.0
 40
1.0
 40
1.0
 40
1.0
 40
1.0
 10
0.469075
 20
5.42117
 30
0.0
 10
0.454536
 20
5.41872
 30
0.0
 10
0.451226
 20
5.40522
 30
0.0
 10
0.450358
 20
5.40039
 30
0.0
  0
LINE
  5
238
100
AcDbEntity
  8
C00-00-00-BLACK
100
AcDbLine
 10
0.450358
 20
5.40039
 30
0.0
 11
0.449599
 21
5.40479
 31
0.0
  0
SPLINE
  5
239
100
AcDbEntity
  8
C00-00-00-BLACK
100
AcDbSpline
210
0.0
220
0.0
230
1.0
 70
     0
 71
     3
 72
     8
 73
4
 40
0.0
 40
0.0
 40
0.0
 40
0.0
 40
1.0
 40
1.0
 40
1.0
 40
1.0
 10
0.479004
 20
5.35211
 30
0.0
 10
0.468696
 20
5.35042
 30
0.0
 10
0.462239
 20
5.35878
 30
0.0
 10
0.460232
 20
5.36197
 30
0.0
  0
SPLINE
  5
23a
100
AcDbEntity
  8
C00-00-00-BLACK
100
AcDbSpline
210
0.0
220
0.0
230
1.0
 70
     0
 71
     3
 72
     8
 73
4
 40
0.0
 40
0.0
 40
0.0
 40
0.0
 40
1.0
 40
1.0
 40
1.0
 40
1.0
 10
0.460232
 20
5.36197
 30
0.0
 10
0.458008
 20
5.366
 30
0.0
 10
0.455078
 20
5.37369
 30
0.0
 10
0.453179
 20
5.38519
 30
0.0
  0
SPLINE
  5
23b
100
AcDbEntity
  8
C00-00-00-BLACK
100
AcDbSpline
210
0.0
220
0.0
230
1.0
 70
     0
 71
     3
 72
     8
 73
4
 40
0.0
 40
0.0
 40
0.0
 40
0.0
 40
1.0
 40
1.0
 40
1.0
 40
1.0
 10
0.453179
 20
5.38519
 30
0.0
 10
0.45101
 20
5.39817
 30
0.0
 10
0.45421
 20
5.41531
 30
0.0
 10
0.468967
 20
5.41775
 30
0.0
  0
SPLINE
  5
23c
100
AcDbEntity
  8
C00-00-00-BLACK
100
AcDbSpline
210
0.0
220
0.0
230
1.0
 70
     0
 71
     3
 72
     8
 73
4
 40
0.0
 40
0.0
 40
0.0
 40
0.0
 40
1.0
 40
1.0
 40
1.0
 40
1.0
 10
0.468967
 20
5.41775
 30
0.0
 10
0.477974
 20
5.41928
 30
0.0
 10
0.483724
 20
5.41401
 30
0.0
 10
0.487088
 20
5.40886
 30
0.0
  0
SPLINE
  5
23d
100
AcDbEntity
  8
C00-00-00-BLACK
100
AcDbSpline
210
0.0
220
0.0
230
1.0
 70
     0
 71
     3
 72
     8
 73
4
 40
0.0
 40
0.0
 40
0.0
 40
0.0
 40
1.0
 40
1.0
 40
1.0
 40
1.0
 10
0.487088
 20
5.40886
 30
0.0
 10
0.490722
 20
5.40321
 30
0.0
 10
0.492079
 20
5.39501
 30
0.0
 10
0.493272
 20
5.38797
 30
0.0
  0
SPLINE
  5
23e
100
AcDbEntity
  8
C00-00-00-BLACK
100
AcDbSpline
210
0.0
220
0.0
230
1.0
 70
     0
 71
     3
 72
     8
 73
4
 40
0.0
 40
0.0
 40
0.0
 40
0.0
 40
1.0
 40
1.0
 40
1.0
 40
1.0
 10
0.493272
 20
5.38797
 30
0.0
 10
0.494629
 20
5.37961
 30
0.0
 10
0.495876
 20
5.37224
 30
0.0
 10
0.493761
 20
5.3655
 30
0.0
  0
SPLINE
  5
23f
100
AcDbEntity
  8
C00-00-00-BLACK
100
AcDbSpline
210
0.0
220
0.0
230
1.0
 70
     0
 71
     3
 72
     8
 73
4
 40
0.0
 40
0.0
 40
0.0
 40
0.0
 40
1.0
 40
1.0
 40
1.0
 40
1.0
 10
0.493761
 20
5.3655
 30
0.0
 10
0.490994
 20
5.35693
 30
0.0
 10
0.485568
 20
5.35319
 30
0.0
 10
0.479004
 20
5.35211
 30
0.0
  0
LINE
  5
240
100
AcDbEntity
  8
C00-00-00-BLACK
100
AcDbLine
 10
0.479004
 20
5.35211
 30
0.0
 11
0.479004
 21
5.35211
 31
0.0
  0
LINE
  5
241
100
AcDbEntity
  8
C00-00-00-BLACK
100
AcDbLine
 10
0.628418
 20
6.43576
 30
0.0
 11
0.627821
 21
6.43951
 31
0.0
  0
LINE
  5
242
100
AcDbEntity
  8
C00-00-00-BLACK
100
AcDbLine
 10
0.627821
 20
6.43951
 30
0.0
 11
0.588379
 21
6.43278
 31
0.0
  0
SPLINE
  5
243
100
AcDbEntity
  8
C00-00-00-BLACK
100
AcDbSpline
210
0.0
220
0.0
230
1.0
 70
     0
 71
     3
 72
     8
 73
4
 40
0.0
 40
0.0
 40
0.0
 40
0.0
 40
1.0
 40
1.0
 40
1.0
 40
1.0
 10
0.588379
 20
6.43278
 30
0.0
 10
0.568576
 20
6.42942
 30
0.0
 10
0.567871
 20
6.43147
 30
0.0
 10
0.566678
 20
6.43446
 30
0.0
  0
LINE
  5
244
100
AcDbEntity
  8
C00-00-00-BLACK
100
AcDbLine
 10
0.566678
 20
6.43446
 30
0.0
 11
0.563097
 21
6.43386
 31
0.0
  0
LINE
  5
245
100
AcDbEntity
  8
C00-00-00-BLACK
100
AcDbLine
 10
0.563097
 20
6.43386
 30
0.0
 11
0.563585
 21
6.40022
 31
0.0
  0
LINE
  5
246
100
AcDbEntity
  8
C00-00-00-BLACK
100
AcDbLine
 10
0.563585
 20
6.40022
 30
0.0
 11
0.567219
 21
6.40088
 31
0.0
  0
SPLINE
  5
247
100
AcDbEntity
  8
C00-00-00-BLACK
100
AcDbSpline
210
0.0
220
0.0
230
1.0
 70
     0
 71
     3
 72
     8
 73
4
 40
0.0
 40
0.0
 40
0.0
 40
0.0
 40
1.0
 40
1.0
 40
1.0
 40
1.0
 10
0.567219
 20
6.40088
 30
0.0
 10
0.567165
 20
6.40386
 30
0.0
 10
0.566894
 20
6.41428
 30
0.0
 10
0.568739
 20
6.41644
 30
0.0
  0
SPLINE
  5
248
100
AcDbEntity
  8
C00-00-00-BLACK
100
AcDbSpline
210
0.0
220
0.0
230
1.0
 70
     0
 71
     3
 72
     8
 73
4
 40
0.0
 40
0.0
 40
0.0
 40
0.0
 40
1.0
 40
1.0
 40
1.0
 40
1.0
 10
0.568739
 20
6.41644
 30
0.0
 10
0.569878
 20
6.41764
 30
0.0
 10
0.58214
 20
6.41976
 30
0.0
 10
0.584418
 20
6.42014
 30
0.0
  0
LINE
  5
249
100
AcDbEntity
  8
C00-00-00-BLACK
100
AcDbLine
 10
0.584418
 20
6.42014
 30
0.0
 11
0.61914
 21
6.42611
 31
0.0
  0
LINE
  5
24a
100
AcDbEntity
  8
C00-00-00-BLACK
100
AcDbLine
 10
0.61914
 20
6.42611
 30
0.0
 11
0.606011
 21
6.39828
 31
0.0
  0
SPLINE
  5
24b
100
AcDbEntity
  8
C00-00-00-BLACK
100
AcDbSpline
210
0.0
220
0.0
230
1.0
 70
     0
 71
     3
 72
     8
 73
4
 40
0.0
 40
0.0
 40
0.0
 40
0.0
 40
1.0
 40
1.0
 40
1.0
 40
1.0
 10
0.606011
 20
6.39828
 30
0.0
 10
0.602701
 20
6.39111
 30
0.0
 10
0.590767
 20
6.36143
 30
0.0
 10
0.595975
 20
6.33068
 30
0.0
  0
SPLINE
  5
24c
100
AcDbEntity
  8
C00-00-00-BLACK
100
AcDbSpline
210
0.0
220
0.0
230
1.0
 70
     0
 71
     3
 72
     8
 73
4
 40
0.0
 40
0.0
 40
0.0
 40
0.0
 40
1.0
 40
1.0
 40
1.0
 40
1.0
 10
0.595975
 20
6.33068
 30
0.0
 10
0.5963
 20
6.32889
 30
0.0
 10
0.597439
 20
6.32232
 30
0.0
 10
0.604113
 20
6.32346
 30
0.0
  0
SPLINE
  5
24d
100
AcDbEntity
  8
C00-00-00-BLACK
100
AcDbSpline
210
0.0
220
0.0
230
1.0
 70
     0
 71
     3
 72
     8
 73
4
 40
0.0
 40
0.0
 40
0.0
 40
0.0
 40
1.0
 40
1.0
 40
1.0
 40
1.0
 10
0.604113
 20
6.32346
 30
0.0
 10
0.611003
 20
6.32465
 30
0.0
 10
0.609918
 20
6.33106
 30
0.0
 10
0.609538
 20
6.33317
 30
0.0
  0
LINE
  5
24e
100
AcDbEntity
  8
C00-00-00-BLACK
100
AcDbLine
 10
0.609538
 20
6.33317
 30
0.0
 11
0.608182
 21
6.34131
 31
0.0
  0
SPLINE
  5
24f
100
AcDbEntity
  8
C00-00-00-BLACK
100
AcDbSpline
210
0.0
220
0.0
230
1.0
 70
     0
 71
     3
 72
     8
 73
4
 40
0.0
 40
0.0
 40
0.0
 40
0.0
 40
1.0
 40
1.0
 40
1.0
 40
1.0
 10
0.608182
 20
6.34131
 30
0.0
 10
0.604004
 20
6.36572
 30
0.0
 10
0.60471
 20
6.38536
 30
0.0
 10
0.610514
 20
6.39768
 30
0.0
  0
LINE
  5
250
100
AcDbEntity
  8
C00-00-00-BLACK
100
AcDbLine
 10
0.610514
 20
6.39768
 30
0.0
 11
0.628418
 21
6.43576
 31
0.0
  0
SPLINE
  5
251
100
AcDbEntity
  8
C00-00-00-BLACK
100
AcDbSpline
210
0.0
220
0.0
230
1.0
 70
     0
 71
     3
 72
     8
 73
4
 40
0.0
 40
0.0
 40
0.0
 40
0.0
 40
1.0
 40
1.0
 40
1.0
 40
1.0
 10
0.982856
 20
7.29813
 30
0.0
 10
0.990235
 20
7.30399
 30
0.0
 10
1.00087
 20
7.31358
 30
0.0
 10
0.998426
 20
7.32736
 30
0.0
  0
SPLINE
  5
252
100
AcDbEntity
  8
C00-00-00-BLACK
100
AcDbSpline
210
0.0
220
0.0
230
1.0
 70
     0
 71
     3
 72
     8
 73
4
 40
0.0
 40
0.0
 40
0.0
 40
0.0
 40
1.0
 40
1.0
 40
1.0
 40
1.0
 10
0.998426
 20
7.32736
 30
0.0
 10
0.995931
 20
7.34158
 30
0.0
 10
0.980469
 20
7.34896
 30
0.0
 10
0.96544
 20
7.34636
 30
0.0
  0
SPLINE
  5
253
100
AcDbEntity
  8
C00-00-00-BLACK
100
AcDbSpline
210
0.0
220
0.0
230
1.0
 70
     0
 71
     3
 72
     8
 73
4
 40
0.0
 40
0.0
 40
0.0
 40
0.0
 40
1.0
 40
1.0
 40
1.0
 40
1.0
 10
0.96544
 20
7.34636
 30
0.0
 10
0.949274
 20
7.34347
 30
0.0
 10
0.938585
 20
7.32932
 30
0.0
 10
0.941189
 20
7.31446
 30
0.0
  0
SPLINE
  5
254
100
AcDbEntity
  8
C00-00-00-BLACK
100
AcDbSpline
210
0.0
220
0.0
230
1.0
 70
     0
 71
     3
 72
     8
 73
4
 40
0.0
 40
0.0
 40
0.0
 40
0.0
 40
1.0
 40
1.0
 40
1.0
 40
1.0
 10
0.941189
 20
7.31446
 30
0.0
 10
0.942165
 20
7.30886
 30
0.0
 10
0.944769
 20
7.3036
 30
0.0
 10
0.950358
 20
7.29883
 30
0.0
  0
SPLINE
  5
255
100
AcDbEntity
  8
C00-00-00-BLACK
100
AcDbSpline
210
0.0
220
0.0
230
1.0
 70
     0
 71
     3
 72
     8
 73
4
 40
0.0
 40
0.0
 40
0.0
 40
0.0
 40
1.0
 40
1.0
 40
1.0
 40
1.0
 10
0.950358
 20
7.29883
 30
0.0
 10
0.952474
 20
7.29704
 30
0.0
 10
0.952692
 20
7.29693
 30
0.0
 10
0.965549
 20
7.2909
 30
0.0
  0
SPLINE
  5
256
100
AcDbEntity
  8
C00-00-00-BLACK
100
AcDbSpline
210
0.0
220
0.0
230
1.0
 70
     0
 71
     3
 72
     8
 73
4
 40
0.0
 40
0.0
 40
0.0
 40
0.0
 40
1.0
 40
1.0
 40
1.0
 40
1.0
 10
0.965549
 20
7.2909
 30
0.0
 10
0.95101
 20
7.28076
 30
0.0
 10
0.944715
 20
7.26833
 30
0.0
 10
0.946832
 20
7.25646
 30
0.0
  0
SPLINE
  5
257
100
AcDbEntity
  8
C00-00-00-BLACK
100
AcDbSpline
210
0.0
220
0.0
230
1.0
 70
     0
 71
     3
 72
     8
 73
4
 40
0.0
 40
0.0
 40
0.0
 40
0.0
 40
1.0
 40
1.0
 40
1.0
 40
1.0
 10
0.946832
 20
7.25646
 30
0.0
 10
0.949869
 20
7.2391
 30
0.0
 10
0.968261
 20
7.23118
 30
0.0
 10
0.984918
 20
7.2341
 30
0.0
  0
SPLINE
  5
258
100
AcDbEntity
  8
C00-00-00-BLACK
100
AcDbSpline
210
0.0
220
0.0
230
1.0
 70
     0
 71
     3
 72
     8
 73
4
 40
0.0
 40
0.0
 40
0.0
 40
0.0
 40
1.0
 40
1.0
 40
1.0
 40
1.0
 10
0.984918
 20
7.2341
 30
0.0
 10
1.00309
 20
7.23731
 30
0.0
 10
1.01595
 20
7.25336
 30
0.0
 10
1.01297
 20
7.27056
 30
0.0
  0
SPLINE
  5
259
100
AcDbEntity
  8
C00-00-00-BLACK
100
AcDbSpline
210
0.0
220
0.0
230
1.0
 70
     0
 71
     3
 72
     8
 73
4
 40
0.0
 40
0.0
 40
0.0
 40
0.0
 40
1.0
 40
1.0
 40
1.0
 40
1.0
 10
1.01297
 20
7.27056
 30
0.0
 10
1.01004
 20
7.28722
 30
0.0
 10
0.996961
 20
7.29253
 30
0.0
 10
0.982801
 20
7.29813
 30
0.0
  0
LINE
  5
25a
100
AcDbEntity
  8
C00-00-00-BLACK
100
AcDbLine
 10
0.982801
 20
7.29813
 30
0.0
 11
0.982856
 21
7.29813
 31
0.0
  0
SPLINE
  5
25b
100
AcDbEntity
  8
C00-00-00-BLACK
100
AcDbSpline
210
0.0
220
0.0
230
1.0
 70
     0
 71
     3
 72
     8
 73
4
 40
0.0
 40
0.0
 40
0.0
 40
0.0
 40
1.0
 40
1.0
 40
1.0
 40
1.0
 10
0.958008
 20
7.30897
 30
0.0
 10
0.955621
 20
7.31006
 30
0.0
 10
0.94835
 20
7.31315
 30
0.0
 10
0.94694
 20
7.32118
 30
0.0
  0
SPLINE
  5
25c
100
AcDbEntity
  8
C00-00-00-BLACK
100
AcDbSpline
210
0.0
220
0.0
230
1.0
 70
     0
 71
     3
 72
     8
 73
4
 40
0.0
 40
0.0
 40
0.0
 40
0.0
 40
1.0
 40
1.0
 40
1.0
 40
1.0
 10
0.94694
 20
7.32118
 30
0.0
 10
0.945042
 20
7.33182
 30
0.0
 10
0.955024
 20
7.3405
 30
0.0
 10
0.965983
 20
7.34239
 30
0.0
  0
SPLINE
  5
25d
100
AcDbEntity
  8
C00-00-00-BLACK
100
AcDbSpline
210
0.0
220
0.0
230
1.0
 70
     0
 71
     3
 72
     8
 73
4
 40
0.0
 40
0.0
 40
0.0
 40
0.0
 40
1.0
 40
1.0
 40
1.0
 40
1.0
 10
0.965983
 20
7.34239
 30
0.0
 10
0.977756
 20
7.34446
 30
0.0
 10
0.989692
 20
7.33778
 30
0.0
 10
0.991753
 20
7.32601
 30
0.0
  0
SPLINE
  5
25e
100
AcDbEntity
  8
C00-00-00-BLACK
100
AcDbSpline
210
0.0
220
0.0
230
1.0
 70
     0
 71
     3
 72
     8
 73
4
 40
0.0
 40
0.0
 40
0.0
 40
0.0
 40
1.0
 40
1.0
 40
1.0
 40
1.0
 10
0.991753
 20
7.32601
 30
0.0
 10
0.993489
 20
7.31603
 30
0.0
 10
0.987739
 20
7.30675
 30
0.0
 10
0.979167
 20
7.29986
 30
0.0
  0
LINE
  5
25f
100
AcDbEntity
  8
C00-00-00-BLACK
100
AcDbLine
 10
0.979167
 20
7.29986
 30
0.0
 11
0.958008
 21
7.30897
 31
0.0
  0
SPLINE
  5
260
100
AcDbEntity
  8
C00-00-00-BLACK
100
AcDbSpline
210
0.0
220
0.0
230
1.0
 70
     0
 71
     3
 72
     8
 73
4
 40
0.0
 40
0.0
 40
0.0
 40
0.0
 40
1.0
 40
1.0
 40
1.0
 40
1.0
 10
0.969401
 20
7.28922
 30
0.0
 10
0.974337
 20
7.28706
 30
0.0
 10
0.98649
 20
7.28196
 30
0.0
 10
0.991428
 20
7.27979
 30
0.0
  0
SPLINE
  5
261
100
AcDbEntity
  8
C00-00-00-BLACK
100
AcDbSpline
210
0.0
220
0.0
230
1.0
 70
     0
 71
     3
 72
     8
 73
4
 40
0.0
 40
0.0
 40
0.0
 40
0.0
 40
1.0
 40
1.0
 40
1.0
 40
1.0
 10
0.991428
 20
7.27979
 30
0.0
 10
0.996203
 20
7.27772
 30
0.0
 10
1.00461
 20
7.27399
 30
0.0
 10
1.00635
 20
7.264
 30
0.0
  0
SPLINE
  5
262
100
AcDbEntity
  8
C00-00-00-BLACK
100
AcDbSpline
210
0.0
220
0.0
230
1.0
 70
     0
 71
     3
 72
     8
 73
4
 40
0.0
 40
0.0
 40
0.0
 40
0.0
 40
1.0
 40
1.0
 40
1.0
 40
1.0
 10
1.00635
 20
7.264
 30
0.0
 10
1.00852
 20
7.25157
 30
0.0
 10
0.997396
 20
7.24089
 30
0.0
 10
0.984321
 20
7.23856
 30
0.0
  0
SPLINE
  5
263
100
AcDbEntity
  8
C00-00-00-BLACK
100
AcDbSpline
210
0.0
220
0.0
230
1.0
 70
     0
 71
     3
 72
     8
 73
4
 40
0.0
 40
0.0
 40
0.0
 40
0.0
 40
1.0
 40
1.0
 40
1.0
 40
1.0
 10
0.984321
 20
7.23856
 30
0.0
 10
0.970432
 20
7.23611
 30
0.0
 10
0.956706
 20
7.24414
 30
0.0
 10
0.954372
 20
7.25776
 30
0.0
  0
SPLINE
  5
264
100
AcDbEntity
  8
C00-00-00-BLACK
100
AcDbSpline
210
0.0
220
0.0
230
1.0
 70
     0
 71
     3
 72
     8
 73
4
 40
0.0
 40
0.0
 40
0.0
 40
0.0
 40
1.0
 40
1.0
 40
1.0
 40
1.0
 10
0.954372
 20
7.25776
 30
0.0
 10
0.952094
 20
7.27051
 30
0.0
 10
0.959636
 20
7.28244
 30
0.0
 10
0.969401
 20
7.28922
 30
0.0
  0
LINE
  5
265
100
AcDbEntity
  8
C00-00-00-BLACK
100
AcDbLine
 10
0.969401
 20
7.28922
 30
0.0
 11
0.969401
 21
7.28922
 31
0.0
  0
SPLINE
  5
266
100
AcDbEntity
  8
C00-00-00-BLACK
100
AcDbSpline
210
0.0
220
0.0
230
1.0
 70
     0
 71
     3
 72
     8
 73
4
 40
0.0
 40
0.0
 40
0.0
 40
0.0
 40
1.0
 40
1.0
 40
1.0
 40
1.0
 10
1.59571
 20
8.07086
 30
0.0
 10
1.60265
 20
8.03228
 30
0.0
 10
1.58692
 20
8.02115
 30
0.0
 10
1.5771
 20
8.01942
 30
0.0
  0
SPLINE
  5
267
100
AcDbEntity
  8
C00-00-00-BLACK
100
AcDbSpline
210
0.0
220
0.0
230
1.0
 70
     0
 71
     3
 72
     8
 73
4
 40
0.0
 40
0.0
 40
0.0
 40
0.0
 40
1.0
 40
1.0
 40
1.0
 40
1.0
 10
1.5771
 20
8.01942
 30
0.0
 10
1.57319
 20
8.01872
 30
0.0
 10
1.56446
 20
8.01764
 30
0.0
 10
1.55931
 20
8.02263
 30
0.0
  0
LINE
  5
268
100
AcDbEntity
  8
C00-00-00-BLACK
100
AcDbLine
 10
1.55931
 20
8.02263
 30
0.0
 11
1.56033
 21
8.02279
 31
0.0
  0
SPLINE
  5
269
100
AcDbEntity
  8
C00-00-00-BLACK
100
AcDbSpline
210
0.0
220
0.0
230
1.0
 70
     0
 71
     3
 72
     8
 73
4
 40
0.0
 40
0.0
 40
0.0
 40
0.0
 40
1.0
 40
1.0
 40
1.0
 40
1.0
 10
1.56033
 20
8.02279
 30
0.0
 10
1.56153
 20
8.02268
 30
0.0
 10
1.56722
 20
8.02468
 30
0.0
 10
1.56614
 20
8.03076
 30
0.0
  0
SPLINE
  5
26a
100
AcDbEntity
  8
C00-00-00-BLACK
100
AcDbSpline
210
0.0
220
0.0
230
1.0
 70
     0
 71
     3
 72
     8
 73
4
 40
0.0
 40
0.0
 40
0.0
 40
0.0
 40
1.0
 40
1.0
 40
1.0
 40
1.0
 10
1.56614
 20
8.03076
 30
0.0
 10
1.56549
 20
8.03435
 30
0.0
 10
1.56244
 20
8.037
 30
0.0
 10
1.55821
 20
8.03624
 30
0.0
  0
SPLINE
  5
26b
100
AcDbEntity
  8
C00-00-00-BLACK
100
AcDbSpline
210
0.0
220
0.0
230
1.0
 70
     0
 71
     3
 72
     8
 73
4
 40
0.0
 40
0.0
 40
0.0
 40
0.0
 40
1.0
 40
1.0
 40
1.0
 40
1.0
 10
1.55821
 20
8.03624
 30
0.0
 10
1.55399
 20
8.03549
 30
0.0
 10
1.55186
 20
8.03222
 30
0.0
 10
1.55263
 20
8.028
 30
0.0
  0
SPLINE
  5
26c
100
AcDbEntity
  8
C00-00-00-BLACK
100
AcDbSpline
210
0.0
220
0.0
230
1.0
 70
     0
 71
     3
 72
     8
 73
4
 40
0.0
 40
0.0
 40
0.0
 40
0.0
 40
1.0
 40
1.0
 40
1.0
 40
1.0
 10
1.55263
 20
8.028
 30
0.0
 10
1.55442
 20
8.01785
 30
0.0
 10
1.56386
 20
8.01247
 30
0.0
 10
1.57807
 20
8.01503
 30
0.0
  0
SPLINE
  5
26d
100
AcDbEntity
  8
C00-00-00-BLACK
100
AcDbSpline
210
0.0
220
0.0
230
1.0
 70
     0
 71
     3
 72
     8
 73
4
 40
0.0
 40
0.0
 40
0.0
 40
0.0
 40
1.0
 40
1.0
 40
1.0
 40
1.0
 10
1.57807
 20
8.01503
 30
0.0
 10
1.59847
 20
8.01872
 30
0.0
 10
1.61436
 20
8.044
 30
0.0
 10
1.60796
 20
8.07943
 30
0.0
  0
SPLINE
  5
26e
100
AcDbEntity
  8
C00-00-00-BLACK
100
AcDbSpline
210
0.0
220
0.0
230
1.0
 70
     0
 71
     3
 72
     8
 73
4
 40
0.0
 40
0.0
 40
0.0
 40
0.0
 40
1.0
 40
1.0
 40
1.0
 40
1.0
 10
1.60796
 20
8.07943
 30
0.0
 10
1.60004
 20
8.12343
 30
0.0
 10
1.57975
 20
8.13108
 30
0.0
 10
1.56538
 20
8.12847
 30
0.0
  0
SPLINE
  5
26f
100
AcDbEntity
  8
C00-00-00-BLACK
100
AcDbSpline
210
0.0
220
0.0
230
1.0
 70
     0
 71
     3
 72
     8
 73
4
 40
0.0
 40
0.0
 40
0.0
 40
0.0
 40
1.0
 40
1.0
 40
1.0
 40
1.0
 10
1.56538
 20
8.12847
 30
0.0
 10
1.54742
 20
8.12522
 30
0.0
 10
1.53429
 20
8.10736
 30
0.0
 10
1.53814
 20
8.08578
 30
0.0
  0
SPLINE
  5
270
100
AcDbEntity
  8
C00-00-00-BLACK
100
AcDbSpline
210
0.0
220
0.0
230
1.0
 70
     0
 71
     3
 72
     8
 73
4
 40
0.0
 40
0.0
 40
0.0
 40
0.0
 40
1.0
 40
1.0
 40
1.0
 40
1.0
 10
1.53814
 20
8.08578
 30
0.0
 10
1.54204
 20
8.06418
 30
0.0
 10
1.55989
 20
8.05225
 30
0.0
 10
1.57622
 20
8.05518
 30
0.0
  0
SPLINE
  5
271
100
AcDbEntity
  8
C00-00-00-BLACK
100
AcDbSpline
210
0.0
220
0.0
230
1.0
 70
     0
 71
     3
 72
     8
 73
4
 40
0.0
 40
0.0
 40
0.0
 40
0.0
 40
1.0
 40
1.0
 40
1.0
 40
1.0
 10
1.57622
 20
8.05518
 30
0.0
 10
1.58832
 20
8.05735
 30
0.0
 10
1.59293
 20
8.06733
 30
0.0
 10
1.59467
 20
8.07622
 30
0.0
  0
LINE
  5
272
100
AcDbEntity
  8
C00-00-00-BLACK
100
AcDbLine
 10
1.59467
 20
8.07622
 30
0.0
 11
1.59571
 21
8.07086
 31
0.0
  0
SPLINE
  5
273
100
AcDbEntity
  8
C00-00-00-BLACK
100
AcDbSpline
210
0.0
220
0.0
230
1.0
 70
     0
 71
     3
 72
     8
 73
4
 40
0.0
 40
0.0
 40
0.0
 40
0.0
 40
1.0
 40
1.0
 40
1.0
 40
1.0
 10
1.57628
 20
8.05854
 30
0.0
 10
1.56603
 20
8.05669
 30
0.0
 10
1.56011
 20
8.06424
 30
0.0
 10
1.55806
 20
8.06706
 30
0.0
  0
SPLINE
  5
274
100
AcDbEntity
  8
C00-00-00-BLACK
100
AcDbSpline
210
0.0
220
0.0
230
1.0
 70
     0
 71
     3
 72
     8
 73
4
 40
0.0
 40
0.0
 40
0.0
 40
0.0
 40
1.0
 40
1.0
 40
1.0
 40
1.0
 10
1.55806
 20
8.06706
 30
0.0
 10
1.55431
 20
8.07281
 30
0.0
 10
1.55294
 20
8.08068
 30
0.0
 10
1.5516
 20
8.088
 30
0.0
  0
SPLINE
  5
275
100
AcDbEntity
  8
C00-00-00-BLACK
100
AcDbSpline
210
0.0
220
0.0
230
1.0
 70
     0
 71
     3
 72
     8
 73
4
 40
0.0
 40
0.0
 40
0.0
 40
0.0
 40
1.0
 40
1.0
 40
1.0
 40
1.0
 10
1.5516
 20
8.088
 30
0.0
 10
1.54997
 20
8.09717
 30
0.0
 10
1.54856
 20
8.10503
 30
0.0
 10
1.5516
 20
8.11247
 30
0.0
  0
SPLINE
  5
276
100
AcDbEntity
  8
C00-00-00-BLACK
100
AcDbSpline
210
0.0
220
0.0
230
1.0
 70
     0
 71
     3
 72
     8
 73
4
 40
0.0
 40
0.0
 40
0.0
 40
0.0
 40
1.0
 40
1.0
 40
1.0
 40
1.0
 10
1.5516
 20
8.11247
 30
0.0
 10
1.55371
 20
8.1174
 30
0.0
 10
1.55729
 20
8.12294
 30
0.0
 10
1.56608
 20
8.12457
 30
0.0
  0
SPLINE
  5
277
100
AcDbEntity
  8
C00-00-00-BLACK
100
AcDbSpline
210
0.0
220
0.0
230
1.0
 70
     0
 71
     3
 72
     8
 73
4
 40
0.0
 40
0.0
 40
0.0
 40
0.0
 40
1.0
 40
1.0
 40
1.0
 40
1.0
 10
1.56608
 20
8.12457
 30
0.0
 10
1.57542
 20
8.12625
 30
0.0
 10
1.58165
 20
8.11892
 30
0.0
 10
1.58393
 20
8.11544
 30
0.0
  0
SPLINE
  5
278
100
AcDbEntity
  8
C00-00-00-BLACK
100
AcDbSpline
210
0.0
220
0.0
230
1.0
 70
     0
 71
     3
 72
     8
 73
4
 40
0.0
 40
0.0
 40
0.0
 40
0.0
 40
1.0
 40
1.0
 40
1.0
 40
1.0
 10
1.58393
 20
8.11544
 30
0.0
 10
1.58865
 20
8.10801
 30
0.0
 10
1.59114
 20
8.09412
 30
0.0
 10
1.59158
 20
8.09169
 30
0.0
  0
SPLINE
  5
279
100
AcDbEntity
  8
C00-00-00-BLACK
100
AcDbSpline
210
0.0
220
0.0
230
1.0
 70
     0
 71
     3
 72
     8
 73
4
 40
0.0
 40
0.0
 40
0.0
 40
0.0
 40
1.0
 40
1.0
 40
1.0
 40
1.0
 10
1.59158
 20
8.09169
 30
0.0
 10
1.59407
 20
8.07796
 30
0.0
 10
1.59065
 20
8.06114
 30
0.0
 10
1.57628
 20
8.05854
 30
0.0
  0
LINE
  5
27a
100
AcDbEntity
  8
C00-00-00-BLACK
100
AcDbLine
 10
1.57628
 20
8.05854
 30
0.0
 11
1.57628
 21
8.05854
 31
0.0
  0
SPLINE
  5
27b
100
AcDbEntity
  8
C00-00-00-BLACK
100
AcDbSpline
210
0.0
220
0.0
230
1.0
 70
     0
 71
     3
 72
     8
 73
4
 40
0.0
 40
0.0
 40
0.0
 40
0.0
 40
1.0
 40
1.0
 40
1.0
 40
1.0
 10
2.31381
 20
8.71614
 30
0.0
 10
2.3131
 20
8.71989
 30
0.0
 10
2.31304
 20
8.72006
 30
0.0
 10
2.30979
 20
8.71946
 30
0.0
  0
SPLINE
  5
27c
100
AcDbEntity
  8
C00-00-00-BLACK
100
AcDbSpline
210
0.0
220
0.0
230
1.0
 70
     0
 71
     3
 72
     8
 73
4
 40
0.0
 40
0.0
 40
0.0
 40
0.0
 40
1.0
 40
1.0
 40
1.0
 40
1.0
 10
2.30979
 20
8.71946
 30
0.0
 10
2.30669
 20
8.71431
 30
0.0
 10
2.29964
 20
8.70676
 30
0.0
 10
2.28282
 20
8.70367
 30
0.0
  0
LINE
  5
27d
100
AcDbEntity
  8
C00-00-00-BLACK
100
AcDbLine
 10
2.28282
 20
8.70367
 30
0.0
 11
2.28369
 21
8.69889
 31
0.0
  0
SPLINE
  5
27e
100
AcDbEntity
  8
C00-00-00-BLACK
100
AcDbSpline
210
0.0
220
0.0
230
1.0
 70
     0
 71
     3
 72
     8
 73
4
 40
0.0
 40
0.0
 40
0.0
 40
0.0
 40
1.0
 40
1.0
 40
1.0
 40
1.0
 10
2.28369
 20
8.69889
 30
0.0
 10
2.28743
 20
8.6996
 30
0.0
 10
2.29563
 20
8.70111
 30
0.0
 10
2.30382
 20
8.70703
 30
0.0
  0
LINE
  5
27f
100
AcDbEntity
  8
C00-00-00-BLACK
100
AcDbLine
 10
2.30382
 20
8.70703
 30
0.0
 11
2.31956
 21
8.62196
 31
0.0
  0
SPLINE
  5
280
100
AcDbEntity
  8
C00-00-00-BLACK
100
AcDbSpline
210
0.0
220
0.0
230
1.0
 70
     0
 71
     3
 72
     8
 73
4
 40
0.0
 40
0.0
 40
0.0
 40
0.0
 40
1.0
 40
1.0
 40
1.0
 40
1.0
 10
2.31956
 20
8.62196
 30
0.0
 10
2.32064
 20
8.6161
 30
0.0
 10
2.32047
 20
8.61404
 30
0.0
 10
2.3061
 20
8.61139
 30
0.0
  0
LINE
  5
281
100
AcDbEntity
  8
C00-00-00-BLACK
100
AcDbLine
 10
2.3061
 20
8.61139
 30
0.0
 11
2.30106
 21
8.6104
 31
0.0
  0
LINE
  5
282
100
AcDbEntity
  8
C00-00-00-BLACK
100
AcDbLine
 10
2.30106
 20
8.6104
 30
0.0
 11
2.30192
 21
8.60568
 31
0.0
  0
SPLINE
  5
283
100
AcDbEntity
  8
C00-00-00-BLACK
100
AcDbSpline
210
0.0
220
0.0
230
1.0
 70
     0
 71
     3
 72
     8
 73
4
 40
0.0
 40
0.0
 40
0.0
 40
0.0
 40
1.0
 40
1.0
 40
1.0
 40
1.0
 10
2.30192
 20
8.60568
 30
0.0
 10
2.30632
 20
8.60682
 30
0.0
 10
2.32215
 20
8.60975
 30
0.0
 10
2.32753
 20
8.61074
 30
0.0
  0
SPLINE
  5
284
100
AcDbEntity
  8
C00-00-00-BLACK
100
AcDbSpline
210
0.0
220
0.0
230
1.0
 70
     0
 71
     3
 72
     8
 73
4
 40
0.0
 40
0.0
 40
0.0
 40
0.0
 40
1.0
 40
1.0
 40
1.0
 40
1.0
 10
2.32753
 20
8.61074
 30
0.0
 10
2.3329
 20
8.61176
 30
0.0
 10
2.34858
 20
8.61464
 30
0.0
 10
2.35303
 20
8.61513
 30
0.0
  0
LINE
  5
285
100
AcDbEntity
  8
C00-00-00-BLACK
100
AcDbLine
 10
2.35303
 20
8.61513
 30
0.0
 11
2.35215
 21
8.6199
 31
0.0
  0
LINE
  5
286
100
AcDbEntity
  8
C00-00-00-BLACK
100
AcDbLine
 10
2.35215
 20
8.6199
 30
0.0
 11
2.34711
 21
8.61892
 31
0.0
  0
SPLINE
  5
287
100
AcDbEntity
  8
C00-00-00-BLACK
100
AcDbSpline
210
0.0
220
0.0
230
1.0
 70
     0
 71
     3
 72
     8
 73
4
 40
0.0
 40
0.0
 40
0.0
 40
0.0
 40
1.0
 40
1.0
 40
1.0
 40
1.0
 10
2.34711
 20
8.61892
 30
0.0
 10
2.33274
 20
8.61626
 30
0.0
 10
2.33188
 20
8.61817
 30
0.0
 10
2.33078
 20
8.62403
 30
0.0
  0
LINE
  5
288
100
AcDbEntity
  8
C00-00-00-BLACK
100
AcDbLine
 10
2.33078
 20
8.62403
 30
0.0
 11
2.31381
 21
8.71614
 31
0.0
  0
SPLINE
  5
289
100
AcDbEntity
  8
C00-00-00-BLACK
100
AcDbSpline
210
0.0
220
0.0
230
1.0
 70
     0
 71
     3
 72
     8
 73
4
 40
0.0
 40
0.0
 40
0.0
 40
0.0
 40
1.0
 40
1.0
 40
1.0
 40
1.0
 10
2.43018
 20
8.68381
 30
0.0
 10
2.42763
 20
8.69738
 30
0.0
 10
2.42437
 20
8.71044
 30
0.0
 10
2.41624
 20
8.72179
 30
0.0
  0
SPLINE
  5
28a
100
AcDbEntity
  8
C00-00-00-BLACK
100
AcDbSpline
210
0.0
220
0.0
230
1.0
 70
     0
 71
     3
 72
     8
 73
4
 40
0.0
 40
0.0
 40
0.0
 40
0.0
 40
1.0
 40
1.0
 40
1.0
 40
1.0
 10
2.41624
 20
8.72179
 30
0.0
 10
2.40701
 20
8.7341
 30
0.0
 10
2.39458
 20
8.73551
 30
0.0
 10
2.38661
 20
8.73406
 30
0.0
  0
SPLINE
  5
28b
100
AcDbEntity
  8
C00-00-00-BLACK
100
AcDbSpline
210
0.0
220
0.0
230
1.0
 70
     0
 71
     3
 72
     8
 73
4
 40
0.0
 40
0.0
 40
0.0
 40
0.0
 40
1.0
 40
1.0
 40
1.0
 40
1.0
 10
2.38661
 20
8.73406
 30
0.0
 10
2.37711
 20
8.73226
 30
0.0
 10
2.36637
 20
8.72542
 30
0.0
 10
2.36285
 20
8.71072
 30
0.0
  0
SPLINE
  5
28c
100
AcDbEntity
  8
C00-00-00-BLACK
100
AcDbSpline
210
0.0
220
0.0
230
1.0
 70
     0
 71
     3
 72
     8
 73
4
 40
0.0
 40
0.0
 40
0.0
 40
0.0
 40
1.0
 40
1.0
 40
1.0
 40
1.0
 10
2.36285
 20
8.71072
 30
0.0
 10
2.36019
 20
8.6996
 30
0.0
 10
2.3604
 20
8.68918
 30
0.0
 10
2.36372
 20
8.67156
 30
0.0
  0
SPLINE
  5
28d
100
AcDbEntity
  8
C00-00-00-BLACK
100
AcDbSpline
210
0.0
220
0.0
230
1.0
 70
     0
 71
     3
 72
     8
 73
4
 40
0.0
 40
0.0
 40
0.0
 40
0.0
 40
1.0
 40
1.0
 40
1.0
 40
1.0
 10
2.36372
 20
8.67156
 30
0.0
 10
2.36664
 20
8.65571
 30
0.0
 10
2.36996
 20
8.64399
 30
0.0
 10
2.37799
 20
8.63351
 30
0.0
  0
SPLINE
  5
28e
100
AcDbEntity
  8
C00-00-00-BLACK
100
AcDbSpline
210
0.0
220
0.0
230
1.0
 70
     0
 71
     3
 72
     8
 73
4
 40
0.0
 40
0.0
 40
0.0
 40
0.0
 40
1.0
 40
1.0
 40
1.0
 40
1.0
 10
2.37799
 20
8.63351
 30
0.0
 10
2.38667
 20
8.62229
 30
0.0
 10
2.39865
 20
8.62044
 30
0.0
 10
2.40711
 20
8.62201
 30
0.0
  0
SPLINE
  5
28f
100
AcDbEntity
  8
C00-00-00-BLACK
100
AcDbSpline
210
0.0
220
0.0
230
1.0
 70
     0
 71
     3
 72
     8
 73
4
 40
0.0
 40
0.0
 40
0.0
 40
0.0
 40
1.0
 40
1.0
 40
1.0
 40
1.0
 10
2.40711
 20
8.62201
 30
0.0
 10
2.42133
 20
8.62463
 30
0.0
 10
2.42794
 20
8.6346
 30
0.0
 10
2.43093
 20
8.64497
 30
0.0
  0
SPLINE
  5
290
100
AcDbEntity
  8
C00-00-00-BLACK
100
AcDbSpline
210
0.0
220
0.0
230
1.0
 70
     0
 71
     3
 72
     8
 73
4
 40
0.0
 40
0.0
 40
0.0
 40
0.0
 40
1.0
 40
1.0
 40
1.0
 40
1.0
 10
2.43093
 20
8.64497
 30
0.0
 10
2.43451
 20
8.65831
 30
0.0
 10
2.43192
 20
8.67437
 30
0.0
 10
2.43018
 20
8.68381
 30
0.0
  0
LINE
  5
291
100
AcDbEntity
  8
C00-00-00-BLACK
100
AcDbLine
 10
2.43018
 20
8.68381
 30
0.0
 11
2.43018
 21
8.68381
 31
0.0
  0
SPLINE
  5
292
100
AcDbEntity
  8
C00-00-00-BLACK
100
AcDbSpline
210
0.0
220
0.0
230
1.0
 70
     0
 71
     3
 72
     8
 73
4
 40
0.0
 40
0.0
 40
0.0
 40
0.0
 40
1.0
 40
1.0
 40
1.0
 40
1.0
 10
2.40653
 20
8.62528
 30
0.0
 10
2.40132
 20
8.62429
 30
0.0
 10
2.39014
 20
8.62528
 30
0.0
 10
2.38379
 20
8.64247
 30
0.0
  0
SPLINE
  5
293
100
AcDbEntity
  8
C00-00-00-BLACK
100
AcDbSpline
210
0.0
220
0.0
230
1.0
 70
     0
 71
     3
 72
     8
 73
4
 40
0.0
 40
0.0
 40
0.0
 40
0.0
 40
1.0
 40
1.0
 40
1.0
 40
1.0
 10
2.38379
 20
8.64247
 30
0.0
 10
2.38015
 20
8.65196
 30
0.0
 10
2.37788
 20
8.66439
 30
0.0
 10
2.37576
 20
8.67578
 30
0.0
  0
SPLINE
  5
294
100
AcDbEntity
  8
C00-00-00-BLACK
100
AcDbSpline
210
0.0
220
0.0
230
1.0
 70
     0
 71
     3
 72
     8
 73
4
 40
0.0
 40
0.0
 40
0.0
 40
0.0
 40
1.0
 40
1.0
 40
1.0
 40
1.0
 10
2.37576
 20
8.67578
 30
0.0
 10
2.37326
 20
8.68918
 30
0.0
 10
2.37104
 20
8.70128
 30
0.0
 10
2.37185
 20
8.71137
 30
0.0
  0
SPLINE
  5
295
100
AcDbEntity
  8
C00-00-00-BLACK
100
AcDbSpline
210
0.0
220
0.0
230
1.0
 70
     0
 71
     3
 72
     8
 73
4
 40
0.0
 40
0.0
 40
0.0
 40
0.0
 40
1.0
 40
1.0
 40
1.0
 40
1.0
 10
2.37185
 20
8.71137
 30
0.0
 10
2.37261
 20
8.72282
 30
0.0
 10
2.37999
 20
8.72944
 30
0.0
 10
2.38704
 20
8.73074
 30
0.0
  0
SPLINE
  5
296
100
AcDbEntity
  8
C00-00-00-BLACK
100
AcDbSpline
210
0.0
220
0.0
230
1.0
 70
     0
 71
     3
 72
     8
 73
4
 40
0.0
 40
0.0
 40
0.0
 40
0.0
 40
1.0
 40
1.0
 40
1.0
 40
1.0
 10
2.38704
 20
8.73074
 30
0.0
 10
2.39322
 20
8.73188
 30
0.0
 10
2.40343
 20
8.72988
 30
0.0
 10
2.40913
 20
8.71636
 30
0.0
  0
SPLINE
  5
297
100
AcDbEntity
  8
C00-00-00-BLACK
100
AcDbSpline
210
0.0
220
0.0
230
1.0
 70
     0
 71
     3
 72
     8
 73
4
 40
0.0
 40
0.0
 40
0.0
 40
0.0
 40
1.0
 40
1.0
 40
1.0
 40
1.0
 10
2.40913
 20
8.71636
 30
0.0
 10
2.41297
 20
8.70747
 30
0.0
 10
2.41531
 20
8.69456
 30
0.0
 10
2.41737
 20
8.68349
 30
0.0
  0
SPLINE
  5
298
100
AcDbEntity
  8
C00-00-00-BLACK
100
AcDbSpline
210
0.0
220
0.0
230
1.0
 70
     0
 71
     3
 72
     8
 73
4
 40
0.0
 40
0.0
 40
0.0
 40
0.0
 40
1.0
 40
1.0
 40
1.0
 40
1.0
 10
2.41737
 20
8.68349
 30
0.0
 10
2.41938
 20
8.67253
 30
0.0
 10
2.42171
 20
8.6601
 30
0.0
 10
2.42176
 20
8.64985
 30
0.0
  0
SPLINE
  5
299
100
AcDbEntity
  8
C00-00-00-BLACK
100
AcDbSpline
210
0.0
220
0.0
230
1.0
 70
     0
 71
     3
 72
     8
 73
4
 40
0.0
 40
0.0
 40
0.0
 40
0.0
 40
1.0
 40
1.0
 40
1.0
 40
1.0
 10
2.42176
 20
8.64985
 30
0.0
 10
2.42199
 20
8.63129
 30
0.0
 10
2.41228
 20
8.62631
 30
0.0
 10
2.40653
 20
8.62522
 30
0.0
  0
LINE
  5
29a
100
AcDbEntity
  8
C00-00-00-BLACK
100
AcDbLine
 10
2.40653
 20
8.62522
 30
0.0
 11
2.40653
 21
8.62528
 31
0.0
  0
SPLINE
  5
29b
100
AcDbEntity
  8
C00-00-00-BLACK
100
AcDbSpline
210
0.0
220
0.0
230
1.0
 70
     0
 71
     3
 72
     8
 73
4
 40
0.0
 40
0.0
 40
0.0
 40
0.0
 40
1.0
 40
1.0
 40
1.0
 40
1.0
 10
3.22157
 20
9.09267
 30
0.0
 10
3.22086
 20
9.0964
 30
0.0
 10
3.22086
 20
9.09657
 30
0.0
 10
3.21761
 20
9.09592
 30
0.0
  0
SPLINE
  5
29c
100
AcDbEntity
  8
C00-00-00-BLACK
100
AcDbSpline
210
0.0
220
0.0
230
1.0
 70
     0
 71
     3
 72
     8
 73
4
 40
0.0
 40
0.0
 40
0.0
 40
0.0
 40
1.0
 40
1.0
 40
1.0
 40
1.0
 10
3.21761
 20
9.09592
 30
0.0
 10
3.21451
 20
9.09076
 30
0.0
 10
3.20751
 20
9.08322
 30
0.0
 10
3.19069
 20
9.08003
 30
0.0
  0
LINE
  5
29d
100
AcDbEntity
  8
C00-00-00-BLACK
100
AcDbLine
 10
3.19069
 20
9.08003
 30
0.0
 11
3.19162
 21
9.07531
 31
0.0
  0
SPLINE
  5
29e
100
AcDbEntity
  8
C00-00-00-BLACK
100
AcDbSpline
210
0.0
220
0.0
230
1.0
 70
     0
 71
     3
 72
     8
 73
4
 40
0.0
 40
0.0
 40
0.0
 40
0.0
 40
1.0
 40
1.0
 40
1.0
 40
1.0
 10
3.19162
 20
9.07531
 30
0.0
 10
3.19536
 20
9.07601
 30
0.0
 10
3.2035
 20
9.07758
 30
0.0
 10
3.21169
 20
9.0835
 30
0.0
  0
LINE
  5
29f
100
AcDbEntity
  8
C00-00-00-BLACK
100
AcDbLine
 10
3.21169
 20
9.0835
 30
0.0
 11
3.22781
 21
8.99849
 31
0.0
  0
SPLINE
  5
2a0
100
AcDbEntity
  8
C00-00-00-BLACK
100
AcDbSpline
210
0.0
220
0.0
230
1.0
 70
     0
 71
     3
 72
     8
 73
4
 40
0.0
 40
0.0
 40
0.0
 40
0.0
 40
1.0
 40
1.0
 40
1.0
 40
1.0
 10
3.22781
 20
8.99849
 30
0.0
 10
3.22889
 20
8.99262
 30
0.0
 10
3.22879
 20
8.99056
 30
0.0
 10
3.21442
 20
8.98785
 30
0.0
  0
LINE
  5
2a1
100
AcDbEntity
  8
C00-00-00-BLACK
100
AcDbLine
 10
3.21442
 20
8.98785
 30
0.0
 11
3.20936
 21
8.98687
 31
0.0
  0
LINE
  5
2a2
100
AcDbEntity
  8
C00-00-00-BLACK
100
AcDbLine
 10
3.20936
 20
8.98687
 30
0.0
 11
3.21029
 21
8.98215
 31
0.0
  0
SPLINE
  5
2a3
100
AcDbEntity
  8
C00-00-00-BLACK
100
AcDbSpline
210
0.0
220
0.0
230
1.0
 70
     0
 71
     3
 72
     8
 73
4
 40
0.0
 40
0.0
 40
0.0
 40
0.0
 40
1.0
 40
1.0
 40
1.0
 40
1.0
 10
3.21029
 20
8.98215
 30
0.0
 10
3.21463
 20
8.98335
 30
0.0
 10
3.23047
 20
8.98633
 30
0.0
 10
3.23583
 20
8.98736
 30
0.0
  0
SPLINE
  5
2a4
100
AcDbEntity
  8
C00-00-00-BLACK
100
AcDbSpline
210
0.0
220
0.0
230
1.0
 70
     0
 71
     3
 72
     8
 73
4
 40
0.0
 40
0.0
 40
0.0
 40
0.0
 40
1.0
 40
1.0
 40
1.0
 40
1.0
 10
3.23583
 20
8.98736
 30
0.0
 10
3.24121
 20
8.98833
 30
0.0
 10
3.25683
 20
8.99132
 30
0.0
 10
3.26133
 20
8.99181
 30
0.0
  0
LINE
  5
2a5
100
AcDbEntity
  8
C00-00-00-BLACK
100
AcDbLine
 10
3.26133
 20
8.99181
 30
0.0
 11
3.26042
 21
8.99658
 31
0.0
  0
LINE
  5
2a6
100
AcDbEntity
  8
C00-00-00-BLACK
100
AcDbLine
 10
3.26042
 20
8.99658
 30
0.0
 11
3.25537
 21
8.99561
 31
0.0
  0
SPLINE
  5
2a7
100
AcDbEntity
  8
C00-00-00-BLACK
100
AcDbSpline
210
0.0
220
0.0
230
1.0
 70
     0
 71
     3
 72
     8
 73
4
 40
0.0
 40
0.0
 40
0.0
 40
0.0
 40
1.0
 40
1.0
 40
1.0
 40
1.0
 10
3.25537
 20
8.99561
 30
0.0
 10
3.241
 20
8.99289
 30
0.0
 10
3.24013
 20
8.99474
 30
0.0
 10
3.23904
 20
9.00065
 30
0.0
  0
LINE
  5
2a8
100
AcDbEntity
  8
C00-00-00-BLACK
100
AcDbLine
 10
3.23904
 20
9.00065
 30
0.0
 11
3.22157
 21
9.09267
 31
0.0
  0
SPLINE
  5
2a9
100
AcDbEntity
  8
C00-00-00-BLACK
100
AcDbSpline
210
0.0
220
0.0
230
1.0
 70
     0
 71
     3
 72
     8
 73
4
 40
0.0
 40
0.0
 40
0.0
 40
0.0
 40
1.0
 40
1.0
 40
1.0
 40
1.0
 10
3.30214
 20
9.10792
 30
0.0
 10
3.30143
 20
9.11165
 30
0.0
 10
3.30143
 20
9.11182
 30
0.0
 10
3.29818
 20
9.11122
 30
0.0
  0
SPLINE
  5
2aa
100
AcDbEntity
  8
C00-00-00-BLACK
100
AcDbSpline
210
0.0
220
0.0
230
1.0
 70
     0
 71
     3
 72
     8
 73
4
 40
0.0
 40
0.0
 40
0.0
 40
0.0
 40
1.0
 40
1.0
 40
1.0
 40
1.0
 10
3.29818
 20
9.11122
 30
0.0
 10
3.29508
 20
9.10607
 30
0.0
 10
3.28803
 20
9.09853
 30
0.0
 10
3.27126
 20
9.09532
 30
0.0
  0
LINE
  5
2ab
100
AcDbEntity
  8
C00-00-00-BLACK
100
AcDbLine
 10
3.27126
 20
9.09532
 30
0.0
 11
3.27214
 21
9.09056
 31
0.0
  0
SPLINE
  5
2ac
100
AcDbEntity
  8
C00-00-00-BLACK
100
AcDbSpline
210
0.0
220
0.0
230
1.0
 70
     0
 71
     3
 72
     8
 73
4
 40
0.0
 40
0.0
 40
0.0
 40
0.0
 40
1.0
 40
1.0
 40
1.0
 40
1.0
 10
3.27214
 20
9.09056
 30
0.0
 10
3.27588
 20
9.09125
 30
0.0
 10
3.28407
 20
9.09283
 30
0.0
 10
3.29221
 20
9.09874
 30
0.0
  0
LINE
  5
2ad
100
AcDbEntity
  8
C00-00-00-BLACK
100
AcDbLine
 10
3.29221
 20
9.09874
 30
0.0
 11
3.30832
 21
9.01378
 31
0.0
  0
SPLINE
  5
2ae
100
AcDbEntity
  8
C00-00-00-BLACK
100
AcDbSpline
210
0.0
220
0.0
230
1.0
 70
     0
 71
     3
 72
     8
 73
4
 40
0.0
 40
0.0
 40
0.0
 40
0.0
 40
1.0
 40
1.0
 40
1.0
 40
1.0
 10
3.30832
 20
9.01378
 30
0.0
 10
3.30946
 20
9.00786
 30
0.0
 10
3.30935
 20
9.00586
 30
0.0
 10
3.29497
 20
9.00315
 30
0.0
  0
LINE
  5
2af
100
AcDbEntity
  8
C00-00-00-BLACK
100
AcDbLine
 10
3.29497
 20
9.00315
 30
0.0
 11
3.28993
 21
9.00217
 31
0.0
  0
LINE
  5
2b0
100
AcDbEntity
  8
C00-00-00-BLACK
100
AcDbLine
 10
3.28993
 20
9.00217
 30
0.0
 11
3.29085
 21
8.99744
 31
0.0
  0
SPLINE
  5
2b1
100
AcDbEntity
  8
C00-00-00-BLACK
100
AcDbSpline
210
0.0
220
0.0
230
1.0
 70
     0
 71
     3
 72
     8
 73
4
 40
0.0
 40
0.0
 40
0.0
 40
0.0
 40
1.0
 40
1.0
 40
1.0
 40
1.0
 10
3.29085
 20
8.99744
 30
0.0
 10
3.29519
 20
8.99858
 30
0.0
 10
3.31099
 20
9.00157
 30
0.0
 10
3.31635
 20
9.00261
 30
0.0
  0
SPLINE
  5
2b2
100
AcDbEntity
  8
C00-00-00-BLACK
100
AcDbSpline
210
0.0
220
0.0
230
1.0
 70
     0
 71
     3
 72
     8
 73
4
 40
0.0
 40
0.0
 40
0.0
 40
0.0
 40
1.0
 40
1.0
 40
1.0
 40
1.0
 10
3.31635
 20
9.00261
 30
0.0
 10
3.32178
 20
9.00364
 30
0.0
 10
3.3374
 20
9.00662
 30
0.0
 10
3.3419
 20
9.00711
 30
0.0
  0
LINE
  5
2b3
100
AcDbEntity
  8
C00-00-00-BLACK
100
AcDbLine
 10
3.3419
 20
9.00711
 30
0.0
 11
3.34099
 21
9.01183
 31
0.0
  0
LINE
  5
2b4
100
AcDbEntity
  8
C00-00-00-BLACK
100
AcDbLine
 10
3.34099
 20
9.01183
 30
0.0
 11
3.33594
 21
9.0109
 31
0.0
  0
SPLINE
  5
2b5
100
AcDbEntity
  8
C00-00-00-BLACK
100
AcDbSpline
210
0.0
220
0.0
230
1.0
 70
     0
 71
     3
 72
     8
 73
4
 40
0.0
 40
0.0
 40
0.0
 40
0.0
 40
1.0
 40
1.0
 40
1.0
 40
1.0
 10
3.33594
 20
9.0109
 30
0.0
 10
3.32156
 20
9.00819
 30
0.0
 10
3.32069
 20
9.01004
 30
0.0
 10
3.31961
 20
9.0159
 30
0.0
  0
LINE
  5
2b6
100
AcDbEntity
  8
C00-00-00-BLACK
100
AcDbLine
 10
3.31961
 20
9.0159
 30
0.0
 11
3.30214
 21
9.10792
 31
0.0
  0
SPLINE
  5
2b7
100
AcDbEntity
  8
C00-00-00-BLACK
100
AcDbSpline
210
0.0
220
0.0
230
1.0
 70
     0
 71
     3
 72
     8
 73
4
 40
0.0
 40
0.0
 40
0.0
 40
0.0
 40
1.0
 40
1.0
 40
1.0
 40
1.0
 10
4.20692
 20
9.22928
 30
0.0
 10
4.20692
 20
9.23318
 30
0.0
 10
4.20692
 20
9.23335
 30
0.0
 10
4.20367
 20
9.23335
 30
0.0
  0
SPLINE
  5
2b8
100
AcDbEntity
  8
C00-00-00-BLACK
100
AcDbSpline
210
0.0
220
0.0
230
1.0
 70
     0
 71
     3
 72
     8
 73
4
 40
0.0
 40
0.0
 40
0.0
 40
0.0
 40
1.0
 40
1.0
 40
1.0
 40
1.0
 10
4.20367
 20
9.23335
 30
0.0
 10
4.19976
 20
9.22863
 30
0.0
 10
4.19162
 20
9.22222
 30
0.0
 10
4.17486
 20
9.22222
 30
0.0
  0
LINE
  5
2b9
100
AcDbEntity
  8
C00-00-00-BLACK
100
AcDbLine
 10
4.17486
 20
9.22222
 30
0.0
 11
4.17486
 21
9.21804
 31
0.0
  0
SPLINE
  5
2ba
100
AcDbEntity
  8
C00-00-00-BLACK
100
AcDbSpline
210
0.0
220
0.0
230
1.0
 70
     0
 71
     3
 72
     8
 73
4
 40
0.0
 40
0.0
 40
0.0
 40
0.0
 40
1.0
 40
1.0
 40
1.0
 40
1.0
 10
4.17486
 20
9.21804
 30
0.0
 10
4.1786
 20
9.21804
 30
0.0
 10
4.18679
 20
9.21804
 30
0.0
 10
4.19586
 20
9.22151
 30
0.0
  0
LINE
  5
2bb
100
AcDbEntity
  8
C00-00-00-BLACK
100
AcDbLine
 10
4.19586
 20
9.22151
 30
0.0
 11
4.19586
 21
9.13444
 31
0.0
  0
SPLINE
  5
2bc
100
AcDbEntity
  8
C00-00-00-BLACK
100
AcDbSpline
210
0.0
220
0.0
230
1.0
 70
     0
 71
     3
 72
     8
 73
4
 40
0.0
 40
0.0
 40
0.0
 40
0.0
 40
1.0
 40
1.0
 40
1.0
 40
1.0
 10
4.19586
 20
9.13444
 30
0.0
 10
4.19586
 20
9.12842
 30
0.0
 10
4.19536
 20
9.12642
 30
0.0
 10
4.18093
 20
9.12642
 30
0.0
  0
LINE
  5
2bd
100
AcDbEntity
  8
C00-00-00-BLACK
100
AcDbLine
 10
4.18093
 20
9.12642
 30
0.0
 11
4.17583
 21
9.12642
 31
0.0
  0
LINE
  5
2be
100
AcDbEntity
  8
C00-00-00-BLACK
100
AcDbLine
 10
4.17583
 20
9.12642
 30
0.0
 11
4.17583
 21
9.12224
 31
0.0
  0
SPLINE
  5
2bf
100
AcDbEntity
  8
C00-00-00-BLACK
100
AcDbSpline
210
0.0
220
0.0
230
1.0
 70
     0
 71
     3
 72
     8
 73
4
 40
0.0
 40
0.0
 40
0.0
 40
0.0
 40
1.0
 40
1.0
 40
1.0
 40
1.0
 10
4.17583
 20
9.12224
 30
0.0
 10
4.18033
 20
9.12256
 30
0.0
 10
4.1964
 20
9.12256
 30
0.0
 10
4.20188
 20
9.12256
 30
0.0
  0
SPLINE
  5
2c0
100
AcDbEntity
  8
C00-00-00-BLACK
100
AcDbSpline
210
0.0
220
0.0
230
1.0
 70
     0
 71
     3
 72
     8
 73
4
 40
0.0
 40
0.0
 40
0.0
 40
0.0
 40
1.0
 40
1.0
 40
1.0
 40
1.0
 10
4.20188
 20
9.12256
 30
0.0
 10
4.20742
 20
9.12256
 30
0.0
 10
4.22331
 20
9.12256
 30
0.0
 10
4.22781
 20
9.12224
 30
0.0
  0
LINE
  5
2c1
100
AcDbEntity
  8
C00-00-00-BLACK
100
AcDbLine
 10
4.22781
 20
9.12224
 30
0.0
 11
4.22781
 21
9.12642
 31
0.0
  0
LINE
  5
2c2
100
AcDbEntity
  8
C00-00-00-BLACK
100
AcDbLine
 10
4.22781
 20
9.12642
 30
0.0
 11
4.2225
 21
9.12642
 31
0.0
  0
SPLINE
  5
2c3
100
AcDbEntity
  8
C00-00-00-BLACK
100
AcDbSpline
210
0.0
220
0.0
230
1.0
 70
     0
 71
     3
 72
     8
 73
4
 40
0.0
 40
0.0
 40
0.0
 40
0.0
 40
1.0
 40
1.0
 40
1.0
 40
1.0
 10
4.2225
 20
9.12642
 30
0.0
 10
4.20747
 20
9.12642
 30
0.0
 10
4.20692
 20
9.12842
 30
0.0
 10
4.20692
 20
9.13444
 30
0.0
  0
LINE
  5
2c4
100
AcDbEntity
  8
C00-00-00-BLACK
100
AcDbLine
 10
4.20692
 20
9.13444
 30
0.0
 11
4.20692
 21
9.22928
 31
0.0
  0
LINE
  5
2c5
100
AcDbEntity
  8
C00-00-00-BLACK
100
AcDbLine
 10
4.31526
 20
9.15013
 30
0.0
 11
4.31158
 21
9.15013
 31
0.0
  0
SPLINE
  5
2c6
100
AcDbEntity
  8
C00-00-00-BLACK
100
AcDbSpline
210
0.0
220
0.0
230
1.0
 70
     0
 71
     3
 72
     8
 73
4
 40
0.0
 40
0.0
 40
0.0
 40
0.0
 40
1.0
 40
1.0
 40
1.0
 40
1.0
 10
4.31158
 20
9.15013
 30
0.0
 10
4.31108
 20
9.14719
 30
0.0
 10
4.30974
 20
9.13764
 30
0.0
 10
4.30806
 20
9.13493
 30
0.0
  0
SPLINE
  5
2c7
100
AcDbEntity
  8
C00-00-00-BLACK
100
AcDbSpline
210
0.0
220
0.0
230
1.0
 70
     0
 71
     3
 72
     8
 73
4
 40
0.0
 40
0.0
 40
0.0
 40
0.0
 40
1.0
 40
1.0
 40
1.0
 40
1.0
 10
4.30806
 20
9.13493
 30
0.0
 10
4.30686
 20
9.13336
 30
0.0
 10
4.29731
 20
9.13336
 30
0.0
 10
4.29226
 20
9.13336
 30
0.0
  0
LINE
  5
2c8
100
AcDbEntity
  8
C00-00-00-BLACK
100
AcDbLine
 10
4.29226
 20
9.13336
 30
0.0
 11
4.26124
 21
9.13336
 31
0.0
  0
SPLINE
  5
2c9
100
AcDbEntity
  8
C00-00-00-BLACK
100
AcDbSpline
210
0.0
220
0.0
230
1.0
 70
     0
 71
     3
 72
     8
 73
4
 40
0.0
 40
0.0
 40
0.0
 40
0.0
 40
1.0
 40
1.0
 40
1.0
 40
1.0
 10
4.26124
 20
9.13336
 30
0.0
 10
4.26579
 20
9.13721
 30
0.0
 10
4.27599
 20
9.148
 30
0.0
 10
4.28039
 20
9.15201
 30
0.0
  0
SPLINE
  5
2ca
100
AcDbEntity
  8
C00-00-00-BLACK
100
AcDbSpline
210
0.0
220
0.0
230
1.0
 70
     0
 71
     3
 72
     8
 73
4
 40
0.0
 40
0.0
 40
0.0
 40
0.0
 40
1.0
 40
1.0
 40
1.0
 40
1.0
 10
4.28039
 20
9.15201
 30
0.0
 10
4.30588
 20
9.17563
 30
0.0
 10
4.31526
 20
9.18435
 30
0.0
 10
4.31526
 20
9.20101
 30
0.0
  0
SPLINE
  5
2cb
100
AcDbEntity
  8
C00-00-00-BLACK
100
AcDbSpline
210
0.0
220
0.0
230
1.0
 70
     0
 71
     3
 72
     8
 73
4
 40
0.0
 40
0.0
 40
0.0
 40
0.0
 40
1.0
 40
1.0
 40
1.0
 40
1.0
 10
4.31526
 20
9.20101
 30
0.0
 10
4.31526
 20
9.22038
 30
0.0
 10
4.30007
 20
9.23335
 30
0.0
 10
4.28071
 20
9.23335
 30
0.0
  0
SPLINE
  5
2cc
100
AcDbEntity
  8
C00-00-00-BLACK
100
AcDbSpline
210
0.0
220
0.0
230
1.0
 70
     0
 71
     3
 72
     8
 73
4
 40
0.0
 40
0.0
 40
0.0
 40
0.0
 40
1.0
 40
1.0
 40
1.0
 40
1.0
 10
4.28071
 20
9.23335
 30
0.0
 10
4.26133
 20
9.23335
 30
0.0
 10
4.25
 20
9.21647
 30
0.0
 10
4.25
 20
9.20176
 30
0.0
  0
SPLINE
  5
2cd
100
AcDbEntity
  8
C00-00-00-BLACK
100
AcDbSpline
210
0.0
220
0.0
230
1.0
 70
     0
 71
     3
 72
     8
 73
4
 40
0.0
 40
0.0
 40
0.0
 40
0.0
 40
1.0
 40
1.0
 40
1.0
 40
1.0
 10
4.25
 20
9.20176
 30
0.0
 10
4.25
 20
9.19303
 30
0.0
 10
4.25717
 20
9.19303
 30
0.0
 10
4.25765
 20
9.19303
 30
0.0
  0
SPLINE
  5
2ce
100
AcDbEntity
  8
C00-00-00-BLACK
100
AcDbSpline
210
0.0
220
0.0
230
1.0
 70
     0
 71
     3
 72
     8
 73
4
 40
0.0
 40
0.0
 40
0.0
 40
0.0
 40
1.0
 40
1.0
 40
1.0
 40
1.0
 10
4.25765
 20
9.19303
 30
0.0
 10
4.26107
 20
9.19303
 30
0.0
 10
4.26531
 20
9.19547
 30
0.0
 10
4.26531
 20
9.20068
 30
0.0
  0
SPLINE
  5
2cf
100
AcDbEntity
  8
C00-00-00-BLACK
100
AcDbSpline
210
0.0
220
0.0
230
1.0
 70
     0
 71
     3
 72
     8
 73
4
 40
0.0
 40
0.0
 40
0.0
 40
0.0
 40
1.0
 40
1.0
 40
1.0
 40
1.0
 10
4.26531
 20
9.20068
 30
0.0
 10
4.26531
 20
9.20524
 30
0.0
 10
4.26215
 20
9.20833
 30
0.0
 10
4.2576
 20
9.20833
 30
0.0
  0
SPLINE
  5
2d0
100
AcDbEntity
  8
C00-00-00-BLACK
100
AcDbSpline
210
0.0
220
0.0
230
1.0
 70
     0
 71
     3
 72
     8
 73
4
 40
0.0
 40
0.0
 40
0.0
 40
0.0
 40
1.0
 40
1.0
 40
1.0
 40
1.0
 10
4.2576
 20
9.20833
 30
0.0
 10
4.25608
 20
9.20833
 30
0.0
 10
4.25575
 20
9.20833
 30
0.0
 10
4.25526
 20
9.20833
 30
0.0
  0
SPLINE
  5
2d1
100
AcDbEntity
  8
C00-00-00-BLACK
100
AcDbSpline
210
0.0
220
0.0
230
1.0
 70
     0
 71
     3
 72
     8
 73
4
 40
0.0
 40
0.0
 40
0.0
 40
0.0
 40
1.0
 40
1.0
 40
1.0
 40
1.0
 10
4.25526
 20
9.20833
 30
0.0
 10
4.25846
 20
9.22076
 30
0.0
 10
4.26753
 20
9.22917
 30
0.0
 10
4.27843
 20
9.22917
 30
0.0
  0
SPLINE
  5
2d2
100
AcDbEntity
  8
C00-00-00-BLACK
100
AcDbSpline
210
0.0
220
0.0
230
1.0
 70
     0
 71
     3
 72
     8
 73
4
 40
0.0
 40
0.0
 40
0.0
 40
0.0
 40
1.0
 40
1.0
 40
1.0
 40
1.0
 10
4.27843
 20
9.22917
 30
0.0
 10
4.29264
 20
9.22917
 30
0.0
 10
4.30138
 20
9.21724
 30
0.0
 10
4.30138
 20
9.20176
 30
0.0
  0
SPLINE
  5
2d3
100
AcDbEntity
  8
C00-00-00-BLACK
100
AcDbSpline
210
0.0
220
0.0
230
1.0
 70
     0
 71
     3
 72
     8
 73
4
 40
0.0
 40
0.0
 40
0.0
 40
0.0
 40
1.0
 40
1.0
 40
1.0
 40
1.0
 10
4.30138
 20
9.20176
 30
0.0
 10
4.30138
 20
9.18744
 30
0.0
 10
4.29318
 20
9.17503
 30
0.0
 10
4.28369
 20
9.16428
 30
0.0
  0
LINE
  5
2d4
100
AcDbEntity
  8
C00-00-00-BLACK
100
AcDbLine
 10
4.28369
 20
9.16428
 30
0.0
 11
4.25
 21
9.12625
 31
0.0
  0
LINE
  5
2d5
100
AcDbEntity
  8
C00-00-00-BLACK
100
AcDbLine
 10
4.25
 20
9.12625
 30
0.0
 11
4.25
 21
9.12224
 31
0.0
  0
LINE
  5
2d6
100
AcDbEntity
  8
C00-00-00-BLACK
100
AcDbLine
 10
4.25
 20
9.12224
 30
0.0
 11
4.31093
 21
9.12224
 31
0.0
  0
LINE
  5
2d7
100
AcDbEntity
  8
C00-00-00-BLACK
100
AcDbLine
 10
4.31093
 20
9.12224
 30
0.0
 11
4.31526
 21
9.15013
 31
0.0
  0
SPLINE
  5
2d8
100
AcDbEntity
  8
C00-00-00-BLACK
100
AcDbSpline
210
0.0
220
0.0
230
1.0
 70
     0
 71
     3
 72
     8
 73
4
 40
0.0
 40
0.0
 40
0.0
 40
0.0
 40
1.0
 40
1.0
 40
1.0
 40
1.0
 10
5.23574
 20
9.09782
 30
0.0
 10
5.23649
 20
9.10156
 30
0.0
 10
5.23649
 20
9.10172
 30
0.0
 10
5.23329
 20
9.10237
 30
0.0
  0
SPLINE
  5
2d9
100
AcDbEntity
  8
C00-00-00-BLACK
100
AcDbSpline
210
0.0
220
0.0
230
1.0
 70
     0
 71
     3
 72
     8
 73
4
 40
0.0
 40
0.0
 40
0.0
 40
0.0
 40
1.0
 40
1.0
 40
1.0
 40
1.0
 10
5.23329
 20
9.10237
 30
0.0
 10
5.22846
 20
9.09874
 30
0.0
 10
5.21913
 20
9.09435
 30
0.0
 10
5.20236
 20
9.09771
 30
0.0
  0
LINE
  5
2da
100
AcDbEntity
  8
C00-00-00-BLACK
100
AcDbLine
 10
5.20236
 20
9.09771
 30
0.0
 11
5.20144
 21
9.09299
 31
0.0
  0
SPLINE
  5
2db
100
AcDbEntity
  8
C00-00-00-BLACK
100
AcDbSpline
210
0.0
220
0.0
230
1.0
 70
     0
 71
     3
 72
     8
 73
4
 40
0.0
 40
0.0
 40
0.0
 40
0.0
 40
1.0
 40
1.0
 40
1.0
 40
1.0
 10
5.20144
 20
9.09299
 30
0.0
 10
5.20518
 20
9.09224
 30
0.0
 10
5.21332
 20
9.0906
 30
0.0
 10
5.22308
 20
9.09304
 30
0.0
  0
LINE
  5
2dc
100
AcDbEntity
  8
C00-00-00-BLACK
100
AcDbLine
 10
5.22308
 20
9.09304
 30
0.0
 11
5.20622
 21
9.00825
 31
0.0
  0
SPLINE
  5
2dd
100
AcDbEntity
  8
C00-00-00-BLACK
100
AcDbSpline
210
0.0
220
0.0
230
1.0
 70
     0
 71
     3
 72
     8
 73
4
 40
0.0
 40
0.0
 40
0.0
 40
0.0
 40
1.0
 40
1.0
 40
1.0
 40
1.0
 10
5.20622
 20
9.00825
 30
0.0
 10
5.20503
 20
9.00239
 30
0.0
 10
5.20415
 20
9.00049
 30
0.0
 10
5.18983
 20
9.00336
 30
0.0
  0
LINE
  5
2de
100
AcDbEntity
  8
C00-00-00-BLACK
100
AcDbLine
 10
5.18983
 20
9.00336
 30
0.0
 11
5.18479
 21
9.00433
 31
0.0
  0
LINE
  5
2df
100
AcDbEntity
  8
C00-00-00-BLACK
100
AcDbLine
 10
5.18479
 20
9.00433
 30
0.0
 11
5.18386
 21
8.99963
 31
0.0
  0
SPLINE
  5
2e0
100
AcDbEntity
  8
C00-00-00-BLACK
100
AcDbSpline
210
0.0
220
0.0
230
1.0
 70
     0
 71
     3
 72
     8
 73
4
 40
0.0
 40
0.0
 40
0.0
 40
0.0
 40
1.0
 40
1.0
 40
1.0
 40
1.0
 10
5.18386
 20
8.99963
 30
0.0
 10
5.18832
 20
8.99908
 30
0.0
 10
5.2041
 20
8.99593
 30
0.0
 10
5.20947
 20
8.9949
 30
0.0
  0
SPLINE
  5
2e1
100
AcDbEntity
  8
C00-00-00-BLACK
100
AcDbSpline
210
0.0
220
0.0
230
1.0
 70
     0
 71
     3
 72
     8
 73
4
 40
0.0
 40
0.0
 40
0.0
 40
0.0
 40
1.0
 40
1.0
 40
1.0
 40
1.0
 10
5.20947
 20
8.9949
 30
0.0
 10
5.21485
 20
8.99382
 30
0.0
 10
5.23047
 20
8.99067
 30
0.0
 10
5.23481
 20
8.98947
 30
0.0
  0
LINE
  5
2e2
100
AcDbEntity
  8
C00-00-00-BLACK
100
AcDbLine
 10
5.23481
 20
8.98947
 30
0.0
 11
5.23579
 21
8.99419
 31
0.0
  0
LINE
  5
2e3
100
AcDbEntity
  8
C00-00-00-BLACK
100
AcDbLine
 10
5.23579
 20
8.99419
 30
0.0
 11
5.23068
 21
8.99522
 31
0.0
  0
SPLINE
  5
2e4
100
AcDbEntity
  8
C00-00-00-BLACK
100
AcDbSpline
210
0.0
220
0.0
230
1.0
 70
     0
 71
     3
 72
     8
 73
4
 40
0.0
 40
0.0
 40
0.0
 40
0.0
 40
1.0
 40
1.0
 40
1.0
 40
1.0
 10
5.23068
 20
8.99522
 30
0.0
 10
5.21636
 20
8.99804
 30
0.0
 10
5.21625
 20
9.00011
 30
0.0
 10
5.21744
 20
9.00597
 30
0.0
  0
LINE
  5
2e5
100
AcDbEntity
  8
C00-00-00-BLACK
100
AcDbLine
 10
5.21744
 20
9.00597
 30
0.0
 11
5.23574
 21
9.09782
 31
0.0
  0
LINE
  5
2e6
100
AcDbEntity
  8
C00-00-00-BLACK
100
AcDbLine
 10
6.15631
 20
8.63917
 30
0.0
 11
6.15272
 21
8.63986
 31
0.0
  0
SPLINE
  5
2e7
100
AcDbEntity
  8
C00-00-00-BLACK
100
AcDbSpline
210
0.0
220
0.0
230
1.0
 70
     0
 71
     3
 72
     8
 73
4
 40
0.0
 40
0.0
 40
0.0
 40
0.0
 40
1.0
 40
1.0
 40
1.0
 40
1.0
 10
6.15272
 20
8.63986
 30
0.0
 10
6.15169
 20
8.63721
 30
0.0
 10
6.14854
 20
8.62853
 30
0.0
 10
6.14638
 20
8.62625
 30
0.0
  0
SPLINE
  5
2e8
100
AcDbEntity
  8
C00-00-00-BLACK
100
AcDbSpline
210
0.0
220
0.0
230
1.0
 70
     0
 71
     3
 72
     8
 73
4
 40
0.0
 40
0.0
 40
0.0
 40
0.0
 40
1.0
 40
1.0
 40
1.0
 40
1.0
 10
6.14638
 20
8.62625
 30
0.0
 10
6.14497
 20
8.625
 30
0.0
 10
6.13569
 20
8.6269
 30
0.0
 10
6.13081
 20
8.62793
 30
0.0
  0
LINE
  5
2e9
100
AcDbEntity
  8
C00-00-00-BLACK
100
AcDbLine
 10
6.13081
 20
8.62793
 30
0.0
 11
6.10075
 21
8.63406
 31
0.0
  0
SPLINE
  5
2ea
100
AcDbEntity
  8
C00-00-00-BLACK
100
AcDbSpline
210
0.0
220
0.0
230
1.0
 70
     0
 71
     3
 72
     8
 73
4
 40
0.0
 40
0.0
 40
0.0
 40
0.0
 40
1.0
 40
1.0
 40
1.0
 40
1.0
 10
6.10075
 20
8.63406
 30
0.0
 10
6.10585
 20
8.63687
 30
0.0
 10
6.11789
 20
8.64529
 30
0.0
 10
6.12294
 20
8.64833
 30
0.0
  0
SPLINE
  5
2eb
100
AcDbEntity
  8
C00-00-00-BLACK
100
AcDbSpline
210
0.0
220
0.0
230
1.0
 70
     0
 71
     3
 72
     8
 73
4
 40
0.0
 40
0.0
 40
0.0
 40
0.0
 40
1.0
 40
1.0
 40
1.0
 40
1.0
 10
6.12294
 20
8.64833
 30
0.0
 10
6.15235
 20
8.66607
 30
0.0
 10
6.16314
 20
8.67269
 30
0.0
 10
6.16644
 20
8.68881
 30
0.0
  0
SPLINE
  5
2ec
100
AcDbEntity
  8
C00-00-00-BLACK
100
AcDbSpline
210
0.0
220
0.0
230
1.0
 70
     0
 71
     3
 72
     8
 73
4
 40
0.0
 40
0.0
 40
0.0
 40
0.0
 40
1.0
 40
1.0
 40
1.0
 40
1.0
 10
6.16644
 20
8.68881
 30
0.0
 10
6.17025
 20
8.70747
 30
0.0
 10
6.15799
 20
8.72304
 30
0.0
 10
6.13911
 20
8.72689
 30
0.0
  0
SPLINE
  5
2ed
100
AcDbEntity
  8
C00-00-00-BLACK
100
AcDbSpline
210
0.0
220
0.0
230
1.0
 70
     0
 71
     3
 72
     8
 73
4
 40
0.0
 40
0.0
 40
0.0
 40
0.0
 40
1.0
 40
1.0
 40
1.0
 40
1.0
 10
6.13911
 20
8.72689
 30
0.0
 10
6.12022
 20
8.73074
 30
0.0
 10
6.1059
 20
8.71685
 30
0.0
 10
6.10308
 20
8.70285
 30
0.0
  0
SPLINE
  5
2ee
100
AcDbEntity
  8
C00-00-00-BLACK
100
AcDbSpline
210
0.0
220
0.0
230
1.0
 70
     0
 71
     3
 72
     8
 73
4
 40
0.0
 40
0.0
 40
0.0
 40
0.0
 40
1.0
 40
1.0
 40
1.0
 40
1.0
 10
6.10308
 20
8.70285
 30
0.0
 10
6.10135
 20
8.69461
 30
0.0
 10
6.1085
 20
8.69314
 30
0.0
 10
6.109
 20
8.69303
 30
0.0
  0
SPLINE
  5
2ef
100
AcDbEntity
  8
C00-00-00-BLACK
100
AcDbSpline
210
0.0
220
0.0
230
1.0
 70
     0
 71
     3
 72
     8
 73
4
 40
0.0
 40
0.0
 40
0.0
 40
0.0
 40
1.0
 40
1.0
 40
1.0
 40
1.0
 10
6.109
 20
8.69303
 30
0.0
 10
6.11242
 20
8.69233
 30
0.0
 10
6.11714
 20
8.6939
 30
0.0
 10
6.11822
 20
8.69911
 30
0.0
  0
SPLINE
  5
2f0
100
AcDbEntity
  8
C00-00-00-BLACK
100
AcDbSpline
210
0.0
220
0.0
230
1.0
 70
     0
 71
     3
 72
     8
 73
4
 40
0.0
 40
0.0
 40
0.0
 40
0.0
 40
1.0
 40
1.0
 40
1.0
 40
1.0
 10
6.11822
 20
8.69911
 30
0.0
 10
6.11914
 20
8.70367
 30
0.0
 10
6.11669
 20
8.70742
 30
0.0
 10
6.11214
 20
8.70833
 30
0.0
  0
SPLINE
  5
2f1
100
AcDbEntity
  8
C00-00-00-BLACK
100
AcDbSpline
210
0.0
220
0.0
230
1.0
 70
     0
 71
     3
 72
     8
 73
4
 40
0.0
 40
0.0
 40
0.0
 40
0.0
 40
1.0
 40
1.0
 40
1.0
 40
1.0
 10
6.11214
 20
8.70833
 30
0.0
 10
6.11068
 20
8.70861
 30
0.0
 10
6.11035
 20
8.70871
 30
0.0
 10
6.10981
 20
8.70861
 30
0.0
  0
SPLINE
  5
2f2
100
AcDbEntity
  8
C00-00-00-BLACK
100
AcDbSpline
210
0.0
220
0.0
230
1.0
 70
     0
 71
     3
 72
     8
 73
4
 40
0.0
 40
0.0
 40
0.0
 40
0.0
 40
1.0
 40
1.0
 40
1.0
 40
1.0
 10
6.10981
 20
8.70861
 30
0.0
 10
6.11518
 20
8.71907
 30
0.0
 10
6.12549
 20
8.72478
 30
0.0
 10
6.13607
 20
8.7226
 30
0.0
  0
SPLINE
  5
2f3
100
AcDbEntity
  8
C00-00-00-BLACK
100
AcDbSpline
210
0.0
220
0.0
230
1.0
 70
     0
 71
     3
 72
     8
 73
4
 40
0.0
 40
0.0
 40
0.0
 40
0.0
 40
1.0
 40
1.0
 40
1.0
 40
1.0
 10
6.13607
 20
8.7226
 30
0.0
 10
6.1499
 20
8.71978
 30
0.0
 10
6.15597
 20
8.70649
 30
0.0
 10
6.15294
 20
8.69151
 30
0.0
  0
SPLINE
  5
2f4
100
AcDbEntity
  8
C00-00-00-BLACK
100
AcDbSpline
210
0.0
220
0.0
230
1.0
 70
     0
 71
     3
 72
     8
 73
4
 40
0.0
 40
0.0
 40
0.0
 40
0.0
 40
1.0
 40
1.0
 40
1.0
 40
1.0
 10
6.15294
 20
8.69151
 30
0.0
 10
6.15012
 20
8.67774
 30
0.0
 10
6.13971
 20
8.66732
 30
0.0
 10
6.12831
 20
8.65881
 30
0.0
  0
LINE
  5
2f5
100
AcDbEntity
  8
C00-00-00-BLACK
100
AcDbLine
 10
6.12831
 20
8.65881
 30
0.0
 11
6.08794
 21
8.62869
 31
0.0
  0
LINE
  5
2f6
100
AcDbEntity
  8
C00-00-00-BLACK
100
AcDbLine
 10
6.08794
 20
8.62869
 30
0.0
 11
6.08713
 21
8.62478
 31
0.0
  0
LINE
  5
2f7
100
AcDbEntity
  8
C00-00-00-BLACK
100
AcDbLine
 10
6.08713
 20
8.62478
 30
0.0
 11
6.14654
 21
8.61268
 31
0.0
  0
LINE
  5
2f8
100
AcDbEntity
  8
C00-00-00-BLACK
100
AcDbLine
 10
6.14654
 20
8.61268
 30
0.0
 11
6.15631
 21
8.63917
 31
0.0
  0
SPLINE
  5
2f9
100
AcDbEntity
  8
C00-00-00-BLACK
100
AcDbSpline
210
0.0
220
0.0
230
1.0
 70
     0
 71
     3
 72
     8
 73
4
 40
0.0
 40
0.0
 40
0.0
 40
0.0
 40
1.0
 40
1.0
 40
1.0
 40
1.0
 10
6.90039
 20
8.07992
 30
0.0
 10
6.89763
 20
8.08029
 30
0.0
 10
6.89692
 20
8.08029
 30
0.0
 10
6.89665
 20
8.07883
 30
0.0
  0
SPLINE
  5
2fa
100
AcDbEntity
  8
C00-00-00-BLACK
100
AcDbSpline
210
0.0
220
0.0
230
1.0
 70
     0
 71
     3
 72
     8
 73
4
 40
0.0
 40
0.0
 40
0.0
 40
0.0
 40
1.0
 40
1.0
 40
1.0
 40
1.0
 10
6.89665
 20
8.07883
 30
0.0
 10
6.89626
 20
8.07721
 30
0.0
 10
6.89708
 20
8.07704
 30
0.0
 10
6.90001
 20
8.07644
 30
0.0
  0
LINE
  5
2fb
100
AcDbEntity
  8
C00-00-00-BLACK
100
AcDbLine
 10
6.90001
 20
8.07644
 30
0.0
 11
6.9075
 21
8.07487
 31
0.0
  0
SPLINE
  5
2fc
100
AcDbEntity
  8
C00-00-00-BLACK
100
AcDbSpline
210
0.0
220
0.0
230
1.0
 70
     0
 71
     3
 72
     8
 73
4
 40
0.0
 40
0.0
 40
0.0
 40
0.0
 40
1.0
 40
1.0
 40
1.0
 40
1.0
 10
6.9075
 20
8.07487
 30
0.0
 10
6.92133
 20
8.072
 30
0.0
 10
6.92513
 20
8.05931
 30
0.0
 10
6.92188
 20
8.04372
 30
0.0
  0
SPLINE
  5
2fd
100
AcDbEntity
  8
C00-00-00-BLACK
100
AcDbSpline
210
0.0
220
0.0
230
1.0
 70
     0
 71
     3
 72
     8
 73
4
 40
0.0
 40
0.0
 40
0.0
 40
0.0
 40
1.0
 40
1.0
 40
1.0
 40
1.0
 10
6.92188
 20
8.04372
 30
0.0
 10
6.91743
 20
8.0224
 30
0.0
 10
6.90517
 20
8.01904
 30
0.0
 10
6.89719
 20
8.02067
 30
0.0
  0
SPLINE
  5
2fe
100
AcDbEntity
  8
C00-00-00-BLACK
100
AcDbSpline
210
0.0
220
0.0
230
1.0
 70
     0
 71
     3
 72
     8
 73
4
 40
0.0
 40
0.0
 40
0.0
 40
0.0
 40
1.0
 40
1.0
 40
1.0
 40
1.0
 10
6.89719
 20
8.02067
 30
0.0
 10
6.88938
 20
8.02229
 30
0.0
 10
6.87685
 20
8.02881
 30
0.0
 10
6.8744
 20
8.04058
 30
0.0
  0
SPLINE
  5
2ff
100
AcDbEntity
  8
C00-00-00-BLACK
100
AcDbSpline
210
0.0
220
0.0
230
1.0
 70
     0
 71
     3
 72
     8
 73
4
 40
0.0
 40
0.0
 40
0.0
 40
0.0
 40
1.0
 40
1.0
 40
1.0
 40
1.0
 10
6.8744
 20
8.04058
 30
0.0
 10
6.87939
 20
8.03863
 30
0.0
 10
6.88471
 20
8.04058
 30
0.0
 10
6.88596
 20
8.04644
 30
0.0
  0
SPLINE
  5
300
100
AcDbEntity
  8
C00-00-00-BLACK
100
AcDbSpline
210
0.0
220
0.0
230
1.0
 70
     0
 71
     3
 72
     8
 73
4
 40
0.0
 40
0.0
 40
0.0
 40
0.0
 40
1.0
 40
1.0
 40
1.0
 40
1.0
 10
6.88596
 20
8.04644
 30
0.0
 10
6.88693
 20
8.05117
 30
0.0
 10
6.88422
 20
8.05512
 30
0.0
 10
6.87967
 20
8.0561
 30
0.0
  0
SPLINE
  5
301
100
AcDbEntity
  8
C00-00-00-BLACK
100
AcDbSpline
210
0.0
220
0.0
230
1.0
 70
     0
 71
     3
 72
     8
 73
4
 40
0.0
 40
0.0
 40
0.0
 40
0.0
 40
1.0
 40
1.0
 40
1.0
 40
1.0
 10
6.87967
 20
8.0561
 30
0.0
 10
6.87576
 20
8.05692
 30
0.0
 10
6.87104
 20
8.0555
 30
0.0
 10
6.86974
 20
8.04932
 30
0.0
  0
SPLINE
  5
302
100
AcDbEntity
  8
C00-00-00-BLACK
100
AcDbSpline
210
0.0
220
0.0
230
1.0
 70
     0
 71
     3
 72
     8
 73
4
 40
0.0
 40
0.0
 40
0.0
 40
0.0
 40
1.0
 40
1.0
 40
1.0
 40
1.0
 10
6.86974
 20
8.04932
 30
0.0
 10
6.86675
 20
8.03489
 30
0.0
 10
6.87875
 20
8.01997
 30
0.0
 10
6.89675
 20
8.01622
 30
0.0
  0
SPLINE
  5
303
100
AcDbEntity
  8
C00-00-00-BLACK
100
AcDbSpline
210
0.0
220
0.0
230
1.0
 70
     0
 71
     3
 72
     8
 73
4
 40
0.0
 40
0.0
 40
0.0
 40
0.0
 40
1.0
 40
1.0
 40
1.0
 40
1.0
 10
6.89675
 20
8.01622
 30
0.0
 10
6.91613
 20
8.01215
 30
0.0
 10
6.93354
 20
8.02399
 30
0.0
 10
6.93696
 20
8.04042
 30
0.0
  0
SPLINE
  5
304
100
AcDbEntity
  8
C00-00-00-BLACK
100
AcDbSpline
210
0.0
220
0.0
230
1.0
 70
     0
 71
     3
 72
     8
 73
4
 40
0.0
 40
0.0
 40
0.0
 40
0.0
 40
1.0
 40
1.0
 40
1.0
 40
1.0
 10
6.93696
 20
8.04042
 30
0.0
 10
6.94006
 20
8.05533
 30
0.0
 10
6.93044
 20
8.06956
 30
0.0
 10
6.91542
 20
8.07557
 30
0.0
  0
SPLINE
  5
305
100
AcDbEntity
  8
C00-00-00-BLACK
100
AcDbSpline
210
0.0
220
0.0
230
1.0
 70
     0
 71
     3
 72
     8
 73
4
 40
0.0
 40
0.0
 40
0.0
 40
0.0
 40
1.0
 40
1.0
 40
1.0
 40
1.0
 10
6.91542
 20
8.07557
 30
0.0
 10
6.93039
 20
8.07671
 30
0.0
 10
6.942
 20
8.08664
 30
0.0
 10
6.94467
 20
8.09933
 30
0.0
  0
SPLINE
  5
306
100
AcDbEntity
  8
C00-00-00-BLACK
100
AcDbSpline
210
0.0
220
0.0
230
1.0
 70
     0
 71
     3
 72
     8
 73
4
 40
0.0
 40
0.0
 40
0.0
 40
0.0
 40
1.0
 40
1.0
 40
1.0
 40
1.0
 10
6.94467
 20
8.09933
 30
0.0
 10
6.94732
 20
8.11219
 30
0.0
 10
6.93599
 20
8.1244
 30
0.0
 10
6.92019
 20
8.12765
 30
0.0
  0
SPLINE
  5
307
100
AcDbEntity
  8
C00-00-00-BLACK
100
AcDbSpline
210
0.0
220
0.0
230
1.0
 70
     0
 71
     3
 72
     8
 73
4
 40
0.0
 40
0.0
 40
0.0
 40
0.0
 40
1.0
 40
1.0
 40
1.0
 40
1.0
 10
6.92019
 20
8.12765
 30
0.0
 10
6.90392
 20
8.13108
 30
0.0
 10
6.88981
 20
8.12364
 30
0.0
 10
6.88737
 20
8.11182
 30
0.0
  0
SPLINE
  5
308
100
AcDbEntity
  8
C00-00-00-BLACK
100
AcDbSpline
210
0.0
220
0.0
230
1.0
 70
     0
 71
     3
 72
     8
 73
4
 40
0.0
 40
0.0
 40
0.0
 40
0.0
 40
1.0
 40
1.0
 40
1.0
 40
1.0
 10
6.88737
 20
8.11182
 30
0.0
 10
6.88596
 20
8.10531
 30
0.0
 10
6.89079
 20
8.10292
 30
0.0
 10
6.89318
 20
8.10243
 30
0.0
  0
SPLINE
  5
309
100
AcDbEntity
  8
C00-00-00-BLACK
100
AcDbSpline
210
0.0
220
0.0
230
1.0
 70
     0
 71
     3
 72
     8
 73
4
 40
0.0
 40
0.0
 40
0.0
 40
0.0
 40
1.0
 40
1.0
 40
1.0
 40
1.0
 10
6.89318
 20
8.10243
 30
0.0
 10
6.8966
 20
8.10172
 30
0.0
 10
6.90099
 20
8.10335
 30
0.0
 10
6.90201
 20
8.10824
 30
0.0
  0
SPLINE
  5
30a
100
AcDbEntity
  8
C00-00-00-BLACK
100
AcDbSpline
210
0.0
220
0.0
230
1.0
 70
     0
 71
     3
 72
     8
 73
4
 40
0.0
 40
0.0
 40
0.0
 40
0.0
 40
1.0
 40
1.0
 40
1.0
 40
1.0
 10
6.90201
 20
8.10824
 30
0.0
 10
6.9031
 20
8.11339
 30
0.0
 10
6.89968
 20
8.11654
 30
0.0
 10
6.89611
 20
8.11724
 30
0.0
  0
SPLINE
  5
30b
100
AcDbEntity
  8
C00-00-00-BLACK
100
AcDbSpline
210
0.0
220
0.0
230
1.0
 70
     0
 71
     3
 72
     8
 73
4
 40
0.0
 40
0.0
 40
0.0
 40
0.0
 40
1.0
 40
1.0
 40
1.0
 40
1.0
 10
6.89611
 20
8.11724
 30
0.0
 10
6.89513
 20
8.11746
 30
0.0
 10
6.89481
 20
8.11751
 30
0.0
 10
6.89432
 20
8.11746
 30
0.0
  0
SPLINE
  5
30c
100
AcDbEntity
  8
C00-00-00-BLACK
100
AcDbSpline
210
0.0
220
0.0
230
1.0
 70
     0
 71
     3
 72
     8
 73
4
 40
0.0
 40
0.0
 40
0.0
 40
0.0
 40
1.0
 40
1.0
 40
1.0
 40
1.0
 10
6.89432
 20
8.11746
 30
0.0
 10
6.90278
 20
8.12722
 30
0.0
 10
6.91808
 20
8.12403
 30
0.0
 10
6.91889
 20
8.12386
 30
0.0
  0
SPLINE
  5
30d
100
AcDbEntity
  8
C00-00-00-BLACK
100
AcDbSpline
210
0.0
220
0.0
230
1.0
 70
     0
 71
     3
 72
     8
 73
4
 40
0.0
 40
0.0
 40
0.0
 40
0.0
 40
1.0
 40
1.0
 40
1.0
 40
1.0
 10
6.91889
 20
8.12386
 30
0.0
 10
6.92426
 20
8.12278
 30
0.0
 10
6.93431
 20
8.11811
 30
0.0
 10
6.93099
 20
8.10215
 30
0.0
  0
SPLINE
  5
30e
100
AcDbEntity
  8
C00-00-00-BLACK
100
AcDbSpline
210
0.0
220
0.0
230
1.0
 70
     0
 71
     3
 72
     8
 73
4
 40
0.0
 40
0.0
 40
0.0
 40
0.0
 40
1.0
 40
1.0
 40
1.0
 40
1.0
 10
6.93099
 20
8.10215
 30
0.0
 10
6.93033
 20
8.09907
 30
0.0
 10
6.92794
 20
8.09006
 30
0.0
 10
6.92176
 20
8.0841
 30
0.0
  0
SPLINE
  5
30f
100
AcDbEntity
  8
C00-00-00-BLACK
100
AcDbSpline
210
0.0
220
0.0
230
1.0
 70
     0
 71
     3
 72
     8
 73
4
 40
0.0
 40
0.0
 40
0.0
 40
0.0
 40
1.0
 40
1.0
 40
1.0
 40
1.0
 10
6.92176
 20
8.0841
 30
0.0
 10
6.91542
 20
8.0779
 30
0.0
 10
6.90978
 20
8.07861
 30
0.0
 10
6.90539
 20
8.07938
 30
0.0
  0
LINE
  5
310
100
AcDbEntity
  8
C00-00-00-BLACK
100
AcDbLine
 10
6.90539
 20
8.07938
 30
0.0
 11
6.90039
 21
8.07992
 31
0.0
  0
SPLINE
  5
311
100
AcDbEntity
  8
C00-00-00-BLACK
100
AcDbSpline
210
0.0
220
0.0
230
1.0
 70
     0
 71
     3
 72
     8
 73
4
 40
0.0
 40
0.0
 40
0.0
 40
0.0
 40
1.0
 40
1.0
 40
1.0
 40
1.0
 10
7.5395
 20
7.33903
 30
0.0
 10
7.54021
 20
7.34212
 30
0.0
 10
7.54036
 20
7.34293
 30
0.0
 10
7.53808
 20
7.34343
 30
0.0
  0
SPLINE
  5
312
100
AcDbEntity
  8
C00-00-00-BLACK
100
AcDbSpline
210
0.0
220
0.0
230
1.0
 70
     0
 71
     3
 72
     8
 73
4
 40
0.0
 40
0.0
 40
0.0
 40
0.0
 40
1.0
 40
1.0
 40
1.0
 40
1.0
 10
7.53808
 20
7.34343
 30
0.0
 10
7.53678
 20
7.34369
 30
0.0
 10
7.53629
 20
7.34381
 30
0.0
 10
7.53456
 20
7.34212
 30
0.0
  0
LINE
  5
313
100
AcDbEntity
  8
C00-00-00-BLACK
100
AcDbLine
 10
7.53456
 20
7.34212
 30
0.0
 11
7.46951
 21
7.27675
 31
0.0
  0
LINE
  5
314
100
AcDbEntity
  8
C00-00-00-BLACK
100
AcDbLine
 10
7.46951
 20
7.27675
 30
0.0
 11
7.46853
 21
7.27203
 31
0.0
  0
LINE
  5
315
100
AcDbEntity
  8
C00-00-00-BLACK
100
AcDbLine
 10
7.46853
 20
7.27203
 30
0.0
 11
7.51124
 21
7.26292
 31
0.0
  0
LINE
  5
316
100
AcDbEntity
  8
C00-00-00-BLACK
100
AcDbLine
 10
7.51124
 20
7.26292
 30
0.0
 11
7.50808
 21
7.24815
 31
0.0
  0
SPLINE
  5
317
100
AcDbEntity
  8
C00-00-00-BLACK
100
AcDbSpline
210
0.0
220
0.0
230
1.0
 70
     0
 71
     3
 72
     8
 73
4
 40
0.0
 40
0.0
 40
0.0
 40
0.0
 40
1.0
 40
1.0
 40
1.0
 40
1.0
 10
7.50808
 20
7.24815
 30
0.0
 10
7.50678
 20
7.24214
 30
0.0
 10
7.50612
 20
7.24056
 30
0.0
 10
7.49425
 20
7.24311
 30
0.0
  0
LINE
  5
318
100
AcDbEntity
  8
C00-00-00-BLACK
100
AcDbLine
 10
7.49425
 20
7.24311
 30
0.0
 11
7.491
 21
7.24382
 31
0.0
  0
LINE
  5
319
100
AcDbEntity
  8
C00-00-00-BLACK
100
AcDbLine
 10
7.491
 20
7.24382
 30
0.0
 11
7.49001
 21
7.2391
 31
0.0
  0
SPLINE
  5
31a
100
AcDbEntity
  8
C00-00-00-BLACK
100
AcDbSpline
210
0.0
220
0.0
230
1.0
 70
     0
 71
     3
 72
     8
 73
4
 40
0.0
 40
0.0
 40
0.0
 40
0.0
 40
1.0
 40
1.0
 40
1.0
 40
1.0
 10
7.49001
 20
7.2391
 30
0.0
 10
7.49382
 20
7.23861
 30
0.0
 10
7.50662
 20
7.23589
 30
0.0
 10
7.51118
 20
7.23492
 30
0.0
  0
SPLINE
  5
31b
100
AcDbEntity
  8
C00-00-00-BLACK
100
AcDbSpline
210
0.0
220
0.0
230
1.0
 70
     0
 71
     3
 72
     8
 73
4
 40
0.0
 40
0.0
 40
0.0
 40
0.0
 40
1.0
 40
1.0
 40
1.0
 40
1.0
 10
7.51118
 20
7.23492
 30
0.0
 10
7.51574
 20
7.23394
 30
0.0
 10
7.52875
 20
7.23118
 30
0.0
 10
7.53239
 20
7.23003
 30
0.0
  0
LINE
  5
31c
100
AcDbEntity
  8
C00-00-00-BLACK
100
AcDbLine
 10
7.53239
 20
7.23003
 30
0.0
 11
7.53342
 21
7.23475
 31
0.0
  0
LINE
  5
31d
100
AcDbEntity
  8
C00-00-00-BLACK
100
AcDbLine
 10
7.53342
 20
7.23475
 30
0.0
 11
7.53017
 21
7.23546
 31
0.0
  0
SPLINE
  5
31e
100
AcDbEntity
  8
C00-00-00-BLACK
100
AcDbSpline
210
0.0
220
0.0
230
1.0
 70
     0
 71
     3
 72
     8
 73
4
 40
0.0
 40
0.0
 40
0.0
 40
0.0
 40
1.0
 40
1.0
 40
1.0
 40
1.0
 10
7.53017
 20
7.23546
 30
0.0
 10
7.51844
 20
7.23796
 30
0.0
 10
7.51833
 20
7.23969
 30
0.0
 10
7.51958
 20
7.24571
 30
0.0
  0
LINE
  5
31f
100
AcDbEntity
  8
C00-00-00-BLACK
100
AcDbLine
 10
7.51958
 20
7.24571
 30
0.0
 11
7.52279
 21
7.26047
 31
0.0
  0
LINE
  5
320
100
AcDbEntity
  8
C00-00-00-BLACK
100
AcDbLine
 10
7.52279
 20
7.26047
 30
0.0
 11
7.53917
 21
7.257
 31
0.0
  0
LINE
  5
321
100
AcDbEntity
  8
C00-00-00-BLACK
100
AcDbLine
 10
7.53917
 20
7.257
 30
0.0
 11
7.54015
 21
7.26167
 31
0.0
  0
LINE
  5
322
100
AcDbEntity
  8
C00-00-00-BLACK
100
AcDbLine
 10
7.54015
 20
7.26167
 30
0.0
 11
7.52376
 21
7.26519
 31
0.0
  0
LINE
  5
323
100
AcDbEntity
  8
C00-00-00-BLACK
100
AcDbLine
 10
7.52376
 20
7.26519
 30
0.0
 11
7.5395
 21
7.33903
 31
0.0
  0
LINE
  5
324
100
AcDbEntity
  8
C00-00-00-BLACK
100
AcDbLine
 10
7.5261
 20
7.32867
 30
0.0
 11
7.51303
 21
7.26747
 31
0.0
  0
LINE
  5
325
100
AcDbEntity
  8
C00-00-00-BLACK
100
AcDbLine
 10
7.51303
 20
7.26747
 30
0.0
 11
7.47358
 21
7.27587
 31
0.0
  0
LINE
  5
326
100
AcDbEntity
  8
C00-00-00-BLACK
100
AcDbLine
 10
7.47358
 20
7.27587
 30
0.0
 11
7.5261
 21
7.32867
 31
0.0
  0
SPLINE
  5
327
100
AcDbEntity
  8
C00-00-00-BLACK
100
AcDbSpline
210
0.0
220
0.0
230
1.0
 70
     0
 71
     3
 72
     8
 73
4
 40
0.0
 40
0.0
 40
0.0
 40
0.0
 40
1.0
 40
1.0
 40
1.0
 40
1.0
 10
7.87576
 20
6.42453
 30
0.0
 10
7.88222
 20
6.42074
 30
0.0
 10
7.88792
 20
6.41932
 30
0.0
 10
7.88965
 20
6.41894
 30
0.0
  0
SPLINE
  5
328
100
AcDbEntity
  8
C00-00-00-BLACK
100
AcDbSpline
210
0.0
220
0.0
230
1.0
 70
     0
 71
     3
 72
     8
 73
4
 40
0.0
 40
0.0
 40
0.0
 40
0.0
 40
1.0
 40
1.0
 40
1.0
 40
1.0
 10
7.88965
 20
6.41894
 30
0.0
 10
7.90799
 20
6.41499
 30
0.0
 10
7.92264
 20
6.42589
 30
0.0
 10
7.92313
 20
6.42817
 30
0.0
  0
SPLINE
  5
329
100
AcDbEntity
  8
C00-00-00-BLACK
100
AcDbSpline
210
0.0
220
0.0
230
1.0
 70
     0
 71
     3
 72
     8
 73
4
 40
0.0
 40
0.0
 40
0.0
 40
0.0
 40
1.0
 40
1.0
 40
1.0
 40
1.0
 10
7.92313
 20
6.42817
 30
0.0
 10
7.92324
 20
6.42882
 30
0.0
 10
7.92313
 20
6.42969
 30
0.0
 10
7.92215
 20
6.4299
 30
0.0
  0
SPLINE
  5
32a
100
AcDbEntity
  8
C00-00-00-BLACK
100
AcDbSpline
210
0.0
220
0.0
230
1.0
 70
     0
 71
     3
 72
     8
 73
4
 40
0.0
 40
0.0
 40
0.0
 40
0.0
 40
1.0
 40
1.0
 40
1.0
 40
1.0
 10
7.92215
 20
6.4299
 30
0.0
 10
7.92182
 20
6.42996
 30
0.0
 10
7.9215
 20
6.43001
 30
0.0
 10
7.91986
 20
6.42969
 30
0.0
  0
SPLINE
  5
32b
100
AcDbEntity
  8
C00-00-00-BLACK
100
AcDbSpline
210
0.0
220
0.0
230
1.0
 70
     0
 71
     3
 72
     8
 73
4
 40
0.0
 40
0.0
 40
0.0
 40
0.0
 40
1.0
 40
1.0
 40
1.0
 40
1.0
 10
7.91986
 20
6.42969
 30
0.0
 10
7.90994
 20
6.42779
 30
0.0
 10
7.90201
 20
6.42899
 30
0.0
 10
7.89785
 20
6.4299
 30
0.0
  0
SPLINE
  5
32c
100
AcDbEntity
  8
C00-00-00-BLACK
100
AcDbSpline
210
0.0
220
0.0
230
1.0
 70
     0
 71
     3
 72
     8
 73
4
 40
0.0
 40
0.0
 40
0.0
 40
0.0
 40
1.0
 40
1.0
 40
1.0
 40
1.0
 10
7.89785
 20
6.4299
 30
0.0
 10
7.8871
 20
6.43224
 30
0.0
 10
7.88021
 20
6.43718
 30
0.0
 10
7.87744
 20
6.43913
 30
0.0
  0
SPLINE
  5
32d
100
AcDbEntity
  8
C00-00-00-BLACK
100
AcDbSpline
210
0.0
220
0.0
230
1.0
 70
     0
 71
     3
 72
     8
 73
4
 40
0.0
 40
0.0
 40
0.0
 40
0.0
 40
1.0
 40
1.0
 40
1.0
 40
1.0
 10
7.87744
 20
6.43913
 30
0.0
 10
7.87642
 20
6.43989
 30
0.0
 10
7.87603
 20
6.43994
 30
0.0
 10
7.87592
 20
6.44
 30
0.0
  0
SPLINE
  5
32e
100
AcDbEntity
  8
C00-00-00-BLACK
100
AcDbSpline
210
0.0
220
0.0
230
1.0
 70
     0
 71
     3
 72
     8
 73
4
 40
0.0
 40
0.0
 40
0.0
 40
0.0
 40
1.0
 40
1.0
 40
1.0
 40
1.0
 10
7.87592
 20
6.44
 30
0.0
 10
7.87463
 20
6.44026
 30
0.0
 10
7.8744
 20
6.43929
 30
0.0
 10
7.87381
 20
6.43668
 30
0.0
  0
LINE
  5
32f
100
AcDbEntity
  8
C00-00-00-BLACK
100
AcDbLine
 10
7.87381
 20
6.43668
 30
0.0
 11
7.86328
 21
6.38851
 31
0.0
  0
SPLINE
  5
330
100
AcDbEntity
  8
C00-00-00-BLACK
100
AcDbSpline
210
0.0
220
0.0
230
1.0
 70
     0
 71
     3
 72
     8
 73
4
 40
0.0
 40
0.0
 40
0.0
 40
0.0
 40
1.0
 40
1.0
 40
1.0
 40
1.0
 10
7.86328
 20
6.38851
 30
0.0
 10
7.86268
 20
6.38558
 30
0.0
 10
7.86247
 20
6.3846
 30
0.0
 10
7.86442
 20
6.38417
 30
0.0
  0
SPLINE
  5
331
100
AcDbEntity
  8
C00-00-00-BLACK
100
AcDbSpline
210
0.0
220
0.0
230
1.0
 70
     0
 71
     3
 72
     8
 73
4
 40
0.0
 40
0.0
 40
0.0
 40
0.0
 40
1.0
 40
1.0
 40
1.0
 40
1.0
 10
7.86442
 20
6.38417
 30
0.0
 10
7.86524
 20
6.384
 30
0.0
 10
7.8654
 20
6.38411
 30
0.0
 10
7.86746
 20
6.38574
 30
0.0
  0
SPLINE
  5
332
100
AcDbEntity
  8
C00-00-00-BLACK
100
AcDbSpline
210
0.0
220
0.0
230
1.0
 70
     0
 71
     3
 72
     8
 73
4
 40
0.0
 40
0.0
 40
0.0
 40
0.0
 40
1.0
 40
1.0
 40
1.0
 40
1.0
 10
7.86746
 20
6.38574
 30
0.0
 10
7.87343
 20
6.39139
 30
0.0
 10
7.88189
 20
6.39361
 30
0.0
 10
7.89003
 20
6.39187
 30
0.0
  0
SPLINE
  5
333
100
AcDbEntity
  8
C00-00-00-BLACK
100
AcDbSpline
210
0.0
220
0.0
230
1.0
 70
     0
 71
     3
 72
     8
 73
4
 40
0.0
 40
0.0
 40
0.0
 40
0.0
 40
1.0
 40
1.0
 40
1.0
 40
1.0
 10
7.89003
 20
6.39187
 30
0.0
 10
7.89865
 20
6.38997
 30
0.0
 10
7.90115
 20
6.38113
 30
0.0
 10
7.90181
 20
6.3781
 30
0.0
  0
SPLINE
  5
334
100
AcDbEntity
  8
C00-00-00-BLACK
100
AcDbSpline
210
0.0
220
0.0
230
1.0
 70
     0
 71
     3
 72
     8
 73
4
 40
0.0
 40
0.0
 40
0.0
 40
0.0
 40
1.0
 40
1.0
 40
1.0
 40
1.0
 10
7.90181
 20
6.3781
 30
0.0
 10
7.90321
 20
6.37115
 30
0.0
 10
7.90164
 20
6.36317
 30
0.0
 10
7.90028
 20
6.35699
 30
0.0
  0
SPLINE
  5
335
100
AcDbEntity
  8
C00-00-00-BLACK
100
AcDbSpline
210
0.0
220
0.0
230
1.0
 70
     0
 71
     3
 72
     8
 73
4
 40
0.0
 40
0.0
 40
0.0
 40
0.0
 40
1.0
 40
1.0
 40
1.0
 40
1.0
 10
7.90028
 20
6.35699
 30
0.0
 10
7.89893
 20
6.35081
 30
0.0
 10
7.89692
 20
6.34158
 30
0.0
 10
7.89079
 20
6.33529
 30
0.0
  0
SPLINE
  5
336
100
AcDbEntity
  8
C00-00-00-BLACK
100
AcDbSpline
210
0.0
220
0.0
230
1.0
 70
     0
 71
     3
 72
     8
 73
4
 40
0.0
 40
0.0
 40
0.0
 40
0.0
 40
1.0
 40
1.0
 40
1.0
 40
1.0
 10
7.89079
 20
6.33529
 30
0.0
 10
7.8859
 20
6.33018
 30
0.0
 10
7.87875
 20
6.32753
 30
0.0
 10
7.87158
 20
6.3291
 30
0.0
  0
SPLINE
  5
337
100
AcDbEntity
  8
C00-00-00-BLACK
100
AcDbSpline
210
0.0
220
0.0
230
1.0
 70
     0
 71
     3
 72
     8
 73
4
 40
0.0
 40
0.0
 40
0.0
 40
0.0
 40
1.0
 40
1.0
 40
1.0
 40
1.0
 10
7.87158
 20
6.3291
 30
0.0
 10
7.86089
 20
6.33143
 30
0.0
 10
7.85194
 20
6.34104
 30
0.0
 10
7.85156
 20
6.35351
 30
0.0
  0
SPLINE
  5
338
100
AcDbEntity
  8
C00-00-00-BLACK
100
AcDbSpline
210
0.0
220
0.0
230
1.0
 70
     0
 71
     3
 72
     8
 73
4
 40
0.0
 40
0.0
 40
0.0
 40
0.0
 40
1.0
 40
1.0
 40
1.0
 40
1.0
 10
7.85156
 20
6.35351
 30
0.0
 10
7.85232
 20
6.35297
 30
0.0
 10
7.85325
 20
6.35265
 30
0.0
 10
7.85406
 20
6.35243
 30
0.0
  0
SPLINE
  5
339
100
AcDbEntity
  8
C00-00-00-BLACK
100
AcDbSpline
210
0.0
220
0.0
230
1.0
 70
     0
 71
     3
 72
     8
 73
4
 40
0.0
 40
0.0
 40
0.0
 40
0.0
 40
1.0
 40
1.0
 40
1.0
 40
1.0
 10
7.85406
 20
6.35243
 30
0.0
 10
7.85682
 20
6.35183
 30
0.0
 10
7.86154
 20
6.35254
 30
0.0
 10
7.86274
 20
6.35801
 30
0.0
  0
SPLINE
  5
33a
100
AcDbEntity
  8
C00-00-00-BLACK
100
AcDbSpline
210
0.0
220
0.0
230
1.0
 70
     0
 71
     3
 72
     8
 73
4
 40
0.0
 40
0.0
 40
0.0
 40
0.0
 40
1.0
 40
1.0
 40
1.0
 40
1.0
 10
7.86274
 20
6.35801
 30
0.0
 10
7.86376
 20
6.36257
 30
0.0
 10
7.86122
 20
6.36583
 30
0.0
 10
7.85721
 20
6.36669
 30
0.0
  0
SPLINE
  5
33b
100
AcDbEntity
  8
C00-00-00-BLACK
100
AcDbSpline
210
0.0
220
0.0
230
1.0
 70
     0
 71
     3
 72
     8
 73
4
 40
0.0
 40
0.0
 40
0.0
 40
0.0
 40
1.0
 40
1.0
 40
1.0
 40
1.0
 10
7.85721
 20
6.36669
 30
0.0
 10
7.85428
 20
6.36735
 30
0.0
 10
7.84972
 20
6.36681
 30
0.0
 10
7.84836
 20
6.36051
 30
0.0
  0
SPLINE
  5
33c
100
AcDbEntity
  8
C00-00-00-BLACK
100
AcDbSpline
210
0.0
220
0.0
230
1.0
 70
     0
 71
     3
 72
     8
 73
4
 40
0.0
 40
0.0
 40
0.0
 40
0.0
 40
1.0
 40
1.0
 40
1.0
 40
1.0
 10
7.84836
 20
6.36051
 30
0.0
 10
7.84532
 20
6.34674
 30
0.0
 10
7.85292
 20
6.32856
 30
0.0
 10
7.87093
 20
6.32465
 30
0.0
  0
SPLINE
  5
33d
100
AcDbEntity
  8
C00-00-00-BLACK
100
AcDbSpline
210
0.0
220
0.0
230
1.0
 70
     0
 71
     3
 72
     8
 73
4
 40
0.0
 40
0.0
 40
0.0
 40
0.0
 40
1.0
 40
1.0
 40
1.0
 40
1.0
 10
7.87093
 20
6.32465
 30
0.0
 10
7.88926
 20
6.32064
 30
0.0
 10
7.90869
 20
6.33257
 30
0.0
 10
7.91319
 20
6.35314
 30
0.0
  0
SPLINE
  5
33e
100
AcDbEntity
  8
C00-00-00-BLACK
100
AcDbSpline
210
0.0
220
0.0
230
1.0
 70
     0
 71
     3
 72
     8
 73
4
 40
0.0
 40
0.0
 40
0.0
 40
0.0
 40
1.0
 40
1.0
 40
1.0
 40
1.0
 10
7.91319
 20
6.35314
 30
0.0
 10
7.91743
 20
6.37244
 30
0.0
 10
7.90793
 20
6.39133
 30
0.0
 10
7.8909
 20
6.39507
 30
0.0
  0
SPLINE
  5
33f
100
AcDbEntity
  8
C00-00-00-BLACK
100
AcDbSpline
210
0.0
220
0.0
230
1.0
 70
     0
 71
     3
 72
     8
 73
4
 40
0.0
 40
0.0
 40
0.0
 40
0.0
 40
1.0
 40
1.0
 40
1.0
 40
1.0
 10
7.8909
 20
6.39507
 30
0.0
 10
7.88167
 20
6.39708
 30
0.0
 10
7.87364
 20
6.39458
 30
0.0
 10
7.86843
 20
6.39094
 30
0.0
  0
LINE
  5
340
100
AcDbEntity
  8
C00-00-00-BLACK
100
AcDbLine
 10
7.86843
 20
6.39094
 30
0.0
 11
7.87576
 21
6.42453
 31
0.0
  0
SPLINE
  5
341
100
AcDbEntity
  8
C00-00-00-BLACK
100
AcDbSpline
210
0.0
220
0.0
230
1.0
 70
     0
 71
     3
 72
     8
 73
4
 40
0.0
 40
0.0
 40
0.0
 40
0.0
 40
1.0
 40
1.0
 40
1.0
 40
1.0
 10
7.99501
 20
5.41168
 30
0.0
 10
8.00418
 20
5.45269
 30
0.0
 10
8.02556
 20
5.45469
 30
0.0
 10
8.03429
 20
5.45281
 30
0.0
  0
SPLINE
  5
342
100
AcDbEntity
  8
C00-00-00-BLACK
100
AcDbSpline
210
0.0
220
0.0
230
1.0
 70
     0
 71
     3
 72
     8
 73
4
 40
0.0
 40
0.0
 40
0.0
 40
0.0
 40
1.0
 40
1.0
 40
1.0
 40
1.0
 10
8.03429
 20
5.45281
 30
0.0
 10
8.0401
 20
5.4515
 30
0.0
 10
8.04551
 20
5.4484
 30
0.0
 10
8.04753
 20
5.44287
 30
0.0
  0
SPLINE
  5
343
100
AcDbEntity
  8
C00-00-00-BLACK
100
AcDbSpline
210
0.0
220
0.0
230
1.0
 70
     0
 71
     3
 72
     8
 73
4
 40
0.0
 40
0.0
 40
0.0
 40
0.0
 40
1.0
 40
1.0
 40
1.0
 40
1.0
 10
8.04753
 20
5.44287
 30
0.0
 10
8.04557
 20
5.44325
 30
0.0
 10
8.03944
 20
5.44467
 30
0.0
 10
8.03797
 20
5.43799
 30
0.0
  0
SPLINE
  5
344
100
AcDbEntity
  8
C00-00-00-BLACK
100
AcDbSpline
210
0.0
220
0.0
230
1.0
 70
     0
 71
     3
 72
     8
 73
4
 40
0.0
 40
0.0
 40
0.0
 40
0.0
 40
1.0
 40
1.0
 40
1.0
 40
1.0
 10
8.03797
 20
5.43799
 30
0.0
 10
8.03717
 20
5.43446
 30
0.0
 10
8.0389
 20
5.43083
 30
0.0
 10
8.04312
 20
5.4299
 30
0.0
  0
SPLINE
  5
345
100
AcDbEntity
  8
C00-00-00-BLACK
100
AcDbSpline
210
0.0
220
0.0
230
1.0
 70
     0
 71
     3
 72
     8
 73
4
 40
0.0
 40
0.0
 40
0.0
 40
0.0
 40
1.0
 40
1.0
 40
1.0
 40
1.0
 10
8.04312
 20
5.4299
 30
0.0
 10
8.04715
 20
5.42899
 30
0.0
 10
8.05046
 20
5.43083
 30
0.0
 10
8.05154
 20
5.43549
 30
0.0
  0
SPLINE
  5
346
100
AcDbEntity
  8
C00-00-00-BLACK
100
AcDbSpline
210
0.0
220
0.0
230
1.0
 70
     0
 71
     3
 72
     8
 73
4
 40
0.0
 40
0.0
 40
0.0
 40
0.0
 40
1.0
 40
1.0
 40
1.0
 40
1.0
 10
8.05154
 20
5.43549
 30
0.0
 10
8.05339
 20
5.44396
 30
0.0
 10
8.0491
 20
5.45356
 30
0.0
 10
8.035
 20
5.45671
 30
0.0
  0
SPLINE
  5
347
100
AcDbEntity
  8
C00-00-00-BLACK
100
AcDbSpline
210
0.0
220
0.0
230
1.0
 70
     0
 71
     3
 72
     8
 73
4
 40
0.0
 40
0.0
 40
0.0
 40
0.0
 40
1.0
 40
1.0
 40
1.0
 40
1.0
 10
8.035
 20
5.45671
 30
0.0
 10
8.01454
 20
5.46126
 30
0.0
 10
7.9885
 20
5.44515
 30
0.0
 10
7.98058
 20
5.40944
 30
0.0
  0
SPLINE
  5
348
100
AcDbEntity
  8
C00-00-00-BLACK
100
AcDbSpline
210
0.0
220
0.0
230
1.0
 70
     0
 71
     3
 72
     8
 73
4
 40
0.0
 40
0.0
 40
0.0
 40
0.0
 40
1.0
 40
1.0
 40
1.0
 40
1.0
 10
7.98058
 20
5.40944
 30
0.0
 10
7.97065
 20
5.3649
 30
0.0
 10
7.98785
 20
5.35053
 30
0.0
 10
8.00163
 20
5.34744
 30
0.0
  0
SPLINE
  5
349
100
AcDbEntity
  8
C00-00-00-BLACK
100
AcDbSpline
210
0.0
220
0.0
230
1.0
 70
     0
 71
     3
 72
     8
 73
4
 40
0.0
 40
0.0
 40
0.0
 40
0.0
 40
1.0
 40
1.0
 40
1.0
 40
1.0
 10
8.00163
 20
5.34744
 30
0.0
 10
8.01926
 20
5.34347
 30
0.0
 10
8.03776
 20
5.35553
 30
0.0
 10
8.04249
 20
5.37663
 30
0.0
  0
SPLINE
  5
34a
100
AcDbEntity
  8
C00-00-00-BLACK
100
AcDbSpline
210
0.0
220
0.0
230
1.0
 70
     0
 71
     3
 72
     8
 73
4
 40
0.0
 40
0.0
 40
0.0
 40
0.0
 40
1.0
 40
1.0
 40
1.0
 40
1.0
 10
8.04249
 20
5.37663
 30
0.0
 10
8.04725
 20
5.39817
 30
0.0
 10
8.03543
 20
5.41596
 30
0.0
 10
8.01921
 20
5.4196
 30
0.0
  0
SPLINE
  5
34b
100
AcDbEntity
  8
C00-00-00-BLACK
100
AcDbSpline
210
0.0
220
0.0
230
1.0
 70
     0
 71
     3
 72
     8
 73
4
 40
0.0
 40
0.0
 40
0.0
 40
0.0
 40
1.0
 40
1.0
 40
1.0
 40
1.0
 10
8.01921
 20
5.4196
 30
0.0
 10
8.00478
 20
5.42279
 30
0.0
 10
7.99664
 20
5.41151
 30
0.0
 10
7.99403
 20
5.40733
 30
0.0
  0
LINE
  5
34c
100
AcDbEntity
  8
C00-00-00-BLACK
100
AcDbLine
 10
7.99403
 20
5.40733
 30
0.0
 11
7.99501
 21
5.41168
 31
0.0
  0
SPLINE
  5
34d
100
AcDbEntity
  8
C00-00-00-BLACK
100
AcDbSpline
210
0.0
220
0.0
230
1.0
 70
     0
 71
     3
 72
     8
 73
4
 40
0.0
 40
0.0
 40
0.0
 40
0.0
 40
1.0
 40
1.0
 40
1.0
 40
1.0
 10
8.00261
 20
5.35178
 30
0.0
 10
7.99235
 20
5.35406
 30
0.0
 10
7.98953
 20
5.36426
 30
0.0
 10
7.98882
 20
5.36794
 30
0.0
  0
SPLINE
  5
34e
100
AcDbEntity
  8
C00-00-00-BLACK
100
AcDbSpline
210
0.0
220
0.0
230
1.0
 70
     0
 71
     3
 72
     8
 73
4
 40
0.0
 40
0.0
 40
0.0
 40
0.0
 40
1.0
 40
1.0
 40
1.0
 40
1.0
 10
7.98882
 20
5.36794
 30
0.0
 10
7.98833
 20
5.3725
 30
0.0
 10
7.98844
 20
5.38081
 30
0.0
 10
7.991
 20
5.39214
 30
0.0
  0
SPLINE
  5
34f
100
AcDbEntity
  8
C00-00-00-BLACK
100
AcDbSpline
210
0.0
220
0.0
230
1.0
 70
     0
 71
     3
 72
     8
 73
4
 40
0.0
 40
0.0
 40
0.0
 40
0.0
 40
1.0
 40
1.0
 40
1.0
 40
1.0
 10
7.991
 20
5.39214
 30
0.0
 10
7.99382
 20
5.40494
 30
0.0
 10
8.00325
 20
5.41971
 30
0.0
 10
8.01785
 20
5.41644
 30
0.0
  0
SPLINE
  5
350
100
AcDbEntity
  8
C00-00-00-BLACK
100
AcDbSpline
210
0.0
220
0.0
230
1.0
 70
     0
 71
     3
 72
     8
 73
4
 40
0.0
 40
0.0
 40
0.0
 40
0.0
 40
1.0
 40
1.0
 40
1.0
 40
1.0
 10
8.01785
 20
5.41644
 30
0.0
 10
8.02675
 20
5.4145
 30
0.0
 10
8.03011
 20
5.40744
 30
0.0
 10
8.03131
 20
5.40136
 30
0.0
  0
SPLINE
  5
351
100
AcDbEntity
  8
C00-00-00-BLACK
100
AcDbSpline
210
0.0
220
0.0
230
1.0
 70
     0
 71
     3
 72
     8
 73
4
 40
0.0
 40
0.0
 40
0.0
 40
0.0
 40
1.0
 40
1.0
 40
1.0
 40
1.0
 10
8.03131
 20
5.40136
 30
0.0
 10
8.03261
 20
5.39481
 30
0.0
 10
8.03076
 20
5.38672
 30
0.0
 10
8.02919
 20
5.37972
 30
0.0
  0
SPLINE
  5
352
100
AcDbEntity
  8
C00-00-00-BLACK
100
AcDbSpline
210
0.0
220
0.0
230
1.0
 70
     0
 71
     3
 72
     8
 73
4
 40
0.0
 40
0.0
 40
0.0
 40
0.0
 40
1.0
 40
1.0
 40
1.0
 40
1.0
 10
8.02919
 20
5.37972
 30
0.0
 10
8.0274
 20
5.37147
 30
0.0
 10
8.02572
 20
5.36415
 30
0.0
 10
8.02126
 20
5.35867
 30
0.0
  0
SPLINE
  5
353
100
AcDbEntity
  8
C00-00-00-BLACK
100
AcDbSpline
210
0.0
220
0.0
230
1.0
 70
     0
 71
     3
 72
     8
 73
4
 40
0.0
 40
0.0
 40
0.0
 40
0.0
 40
1.0
 40
1.0
 40
1.0
 40
1.0
 10
8.02126
 20
5.35867
 30
0.0
 10
8.01551
 20
5.35183
 30
0.0
 10
8.00906
 20
5.35037
 30
0.0
 10
8.00256
 20
5.35178
 30
0.0
  0
LINE
  5
354
100
AcDbEntity
  8
C00-00-00-BLACK
100
AcDbLine
 10
8.00256
 20
5.35178
 30
0.0
 11
8.00261
 21
5.35178
 31
0.0
  0
LINE
  5
355
100
AcDbEntity
  8
C00-00-00-BLACK
100
AcDbLine
 10
7.93451
 20
4.46778
 30
0.0
 11
7.93539
 21
4.47146
 31
0.0
  0
LINE
  5
356
100
AcDbEntity
  8
C00-00-00-BLACK
100
AcDbLine
 10
7.93539
 20
4.47146
 30
0.0
 11
7.89632
 21
4.48036
 31
0.0
  0
SPLINE
  5
357
100
AcDbEntity
  8
C00-00-00-BLACK
100
AcDbSpline
210
0.0
220
0.0
230
1.0
 70
     0
 71
     3
 72
     8
 73
4
 40
0.0
 40
0.0
 40
0.0
 40
0.0
 40
1.0
 40
1.0
 40
1.0
 40
1.0
 10
7.89632
 20
4.48036
 30
0.0
 10
7.87674
 20
4.48481
 30
0.0
 10
7.8769
 20
4.48697
 30
0.0
 10
7.87696
 20
4.49024
 30
0.0
  0
LINE
  5
358
100
AcDbEntity
  8
C00-00-00-BLACK
100
AcDbLine
 10
7.87696
 20
4.49024
 30
0.0
 11
7.87343
 21
4.49104
 31
0.0
  0
LINE
  5
359
100
AcDbEntity
  8
C00-00-00-BLACK
100
AcDbLine
 10
7.87343
 20
4.49104
 30
0.0
 11
7.861
 21
4.45979
 31
0.0
  0
LINE
  5
35a
100
AcDbEntity
  8
C00-00-00-BLACK
100
AcDbLine
 10
7.861
 20
4.45979
 30
0.0
 11
7.86458
 21
4.45899
 31
0.0
  0
SPLINE
  5
35b
100
AcDbEntity
  8
C00-00-00-BLACK
100
AcDbSpline
210
0.0
220
0.0
230
1.0
 70
     0
 71
     3
 72
     8
 73
4
 40
0.0
 40
0.0
 40
0.0
 40
0.0
 40
1.0
 40
1.0
 40
1.0
 40
1.0
 10
7.86458
 20
4.45899
 30
0.0
 10
7.86572
 20
4.46175
 30
0.0
 10
7.86947
 20
4.47146
 30
0.0
 10
7.87196
 20
4.47276
 30
0.0
  0
SPLINE
  5
35c
100
AcDbEntity
  8
C00-00-00-BLACK
100
AcDbSpline
210
0.0
220
0.0
230
1.0
 70
     0
 71
     3
 72
     8
 73
4
 40
0.0
 40
0.0
 40
0.0
 40
0.0
 40
1.0
 40
1.0
 40
1.0
 40
1.0
 10
7.87196
 20
4.47276
 30
0.0
 10
7.87349
 20
4.47347
 30
0.0
 10
7.88564
 20
4.47071
 30
0.0
 10
7.88792
 20
4.47021
 30
0.0
  0
LINE
  5
35d
100
AcDbEntity
  8
C00-00-00-BLACK
100
AcDbLine
 10
7.88792
 20
4.47021
 30
0.0
 11
7.92219
 21
4.46235
 31
0.0
  0
LINE
  5
35e
100
AcDbEntity
  8
C00-00-00-BLACK
100
AcDbLine
 10
7.92219
 20
4.46235
 30
0.0
 11
7.89947
 21
4.44168
 31
0.0
  0
SPLINE
  5
35f
100
AcDbEntity
  8
C00-00-00-BLACK
100
AcDbSpline
210
0.0
220
0.0
230
1.0
 70
     0
 71
     3
 72
     8
 73
4
 40
0.0
 40
0.0
 40
0.0
 40
0.0
 40
1.0
 40
1.0
 40
1.0
 40
1.0
 10
7.89947
 20
4.44168
 30
0.0
 10
7.89367
 20
4.43636
 30
0.0
 10
7.87125
 20
4.41351
 30
0.0
 10
7.86431
 20
4.38308
 30
0.0
  0
SPLINE
  5
360
100
AcDbEntity
  8
C00-00-00-BLACK
100
AcDbSpline
210
0.0
220
0.0
230
1.0
 70
     0
 71
     3
 72
     8
 73
4
 40
0.0
 40
0.0
 40
0.0
 40
0.0
 40
1.0
 40
1.0
 40
1.0
 40
1.0
 10
7.86431
 20
4.38308
 30
0.0
 10
7.86387
 20
4.38129
 30
0.0
 10
7.86242
 20
4.37483
 30
0.0
 10
7.86908
 20
4.37332
 30
0.0
  0
SPLINE
  5
361
100
AcDbEntity
  8
C00-00-00-BLACK
100
AcDbSpline
210
0.0
220
0.0
230
1.0
 70
     0
 71
     3
 72
     8
 73
4
 40
0.0
 40
0.0
 40
0.0
 40
0.0
 40
1.0
 40
1.0
 40
1.0
 40
1.0
 10
7.86908
 20
4.37332
 30
0.0
 10
7.87586
 20
4.37175
 30
0.0
 10
7.87733
 20
4.3781
 30
0.0
 10
7.87776
 20
4.38021
 30
0.0
  0
LINE
  5
362
100
AcDbEntity
  8
C00-00-00-BLACK
100
AcDbLine
 10
7.87776
 20
4.38021
 30
0.0
 11
7.87961
 21
4.38829
 31
0.0
  0
SPLINE
  5
363
100
AcDbEntity
  8
C00-00-00-BLACK
100
AcDbSpline
210
0.0
220
0.0
230
1.0
 70
     0
 71
     3
 72
     8
 73
4
 40
0.0
 40
0.0
 40
0.0
 40
0.0
 40
1.0
 40
1.0
 40
1.0
 40
1.0
 10
7.87961
 20
4.38829
 30
0.0
 10
7.88514
 20
4.41243
 30
0.0
 10
7.89328
 20
4.43028
 30
0.0
 10
7.90338
 20
4.43946
 30
0.0
  0
LINE
  5
364
100
AcDbEntity
  8
C00-00-00-BLACK
100
AcDbLine
 10
7.90338
 20
4.43946
 30
0.0
 11
7.93451
 21
4.46778
 31
0.0
  0
SPLINE
  5
365
100
AcDbEntity
  8
C00-00-00-BLACK
100
AcDbSpline
210
0.0
220
0.0
230
1.0
 70
     0
 71
     3
 72
     8
 73
4
 40
0.0
 40
0.0
 40
0.0
 40
0.0
 40
1.0
 40
1.0
 40
1.0
 40
1.0
 10
7.51872
 20
3.52219
 30
0.0
 10
7.52783
 20
3.52468
 30
0.0
 10
7.54135
 20
3.52935
 30
0.0
 10
7.54449
 20
3.54297
 30
0.0
  0
SPLINE
  5
366
100
AcDbEntity
  8
C00-00-00-BLACK
100
AcDbSpline
210
0.0
220
0.0
230
1.0
 70
     0
 71
     3
 72
     8
 73
4
 40
0.0
 40
0.0
 40
0.0
 40
0.0
 40
1.0
 40
1.0
 40
1.0
 40
1.0
 10
7.54449
 20
3.54297
 30
0.0
 10
7.54779
 20
3.55701
 30
0.0
 10
7.53646
 20
3.56988
 30
0.0
 10
7.5216
 20
3.57335
 30
0.0
  0
SPLINE
  5
367
100
AcDbEntity
  8
C00-00-00-BLACK
100
AcDbSpline
210
0.0
220
0.0
230
1.0
 70
     0
 71
     3
 72
     8
 73
4
 40
0.0
 40
0.0
 40
0.0
 40
0.0
 40
1.0
 40
1.0
 40
1.0
 40
1.0
 10
7.5216
 20
3.57335
 30
0.0
 10
7.50553
 20
3.57704
 30
0.0
 10
7.49018
 20
3.56819
 30
0.0
 10
7.48676
 20
3.5535
 30
0.0
  0
SPLINE
  5
368
100
AcDbEntity
  8
C00-00-00-BLACK
100
AcDbSpline
210
0.0
220
0.0
230
1.0
 70
     0
 71
     3
 72
     8
 73
4
 40
0.0
 40
0.0
 40
0.0
 40
0.0
 40
1.0
 40
1.0
 40
1.0
 40
1.0
 10
7.48676
 20
3.5535
 30
0.0
 10
7.48551
 20
3.54796
 30
0.0
 10
7.48583
 20
3.5421
 30
0.0
 10
7.4891
 20
3.53554
 30
0.0
  0
SPLINE
  5
369
100
AcDbEntity
  8
C00-00-00-BLACK
100
AcDbSpline
210
0.0
220
0.0
230
1.0
 70
     0
 71
     3
 72
     8
 73
4
 40
0.0
 40
0.0
 40
0.0
 40
0.0
 40
1.0
 40
1.0
 40
1.0
 40
1.0
 10
7.4891
 20
3.53554
 30
0.0
 10
7.4904
 20
3.53304
 30
0.0
 10
7.4905
 20
3.53282
 30
0.0
 10
7.49994
 20
3.52229
 30
0.0
  0
SPLINE
  5
36a
100
AcDbEntity
  8
C00-00-00-BLACK
100
AcDbSpline
210
0.0
220
0.0
230
1.0
 70
     0
 71
     3
 72
     8
 73
4
 40
0.0
 40
0.0
 40
0.0
 40
0.0
 40
1.0
 40
1.0
 40
1.0
 40
1.0
 10
7.49994
 20
3.52229
 30
0.0
 10
7.48258
 20
3.51867
 30
0.0
 10
7.472
 20
3.50971
 30
0.0
 10
7.46924
 20
3.49789
 30
0.0
  0
SPLINE
  5
36b
100
AcDbEntity
  8
C00-00-00-BLACK
100
AcDbSpline
210
0.0
220
0.0
230
1.0
 70
     0
 71
     3
 72
     8
 73
4
 40
0.0
 40
0.0
 40
0.0
 40
0.0
 40
1.0
 40
1.0
 40
1.0
 40
1.0
 10
7.46924
 20
3.49789
 30
0.0
 10
7.46528
 20
3.48074
 30
0.0
 10
7.47911
 20
3.46625
 30
0.0
 10
7.49561
 20
3.46246
 30
0.0
  0
SPLINE
  5
36c
100
AcDbEntity
  8
C00-00-00-BLACK
100
AcDbSpline
210
0.0
220
0.0
230
1.0
 70
     0
 71
     3
 72
     8
 73
4
 40
0.0
 40
0.0
 40
0.0
 40
0.0
 40
1.0
 40
1.0
 40
1.0
 40
1.0
 10
7.49561
 20
3.46246
 30
0.0
 10
7.51357
 20
3.45828
 30
0.0
 10
7.53168
 20
3.46804
 30
0.0
 10
7.53564
 20
3.48503
 30
0.0
  0
SPLINE
  5
36d
100
AcDbEntity
  8
C00-00-00-BLACK
100
AcDbSpline
210
0.0
220
0.0
230
1.0
 70
     0
 71
     3
 72
     8
 73
4
 40
0.0
 40
0.0
 40
0.0
 40
0.0
 40
1.0
 40
1.0
 40
1.0
 40
1.0
 10
7.53564
 20
3.48503
 30
0.0
 10
7.5395
 20
3.50151
 30
0.0
 10
7.52951
 20
3.5115
 30
0.0
 10
7.51872
 20
3.52219
 30
0.0
  0
LINE
  5
36e
100
AcDbEntity
  8
C00-00-00-BLACK
100
AcDbLine
 10
7.51872
 20
3.52219
 30
0.0
 11
7.51872
 21
3.52219
 31
0.0
  0
SPLINE
  5
36f
100
AcDbEntity
  8
C00-00-00-BLACK
100
AcDbSpline
210
0.0
220
0.0
230
1.0
 70
     0
 71
     3
 72
     8
 73
4
 40
0.0
 40
0.0
 40
0.0
 40
0.0
 40
1.0
 40
1.0
 40
1.0
 40
1.0
 10
7.50011
 20
3.54183
 30
0.0
 10
7.49832
 20
3.54378
 30
0.0
 10
7.49283
 20
3.54947
 30
0.0
 10
7.49468
 20
3.55746
 30
0.0
  0
SPLINE
  5
370
100
AcDbEntity
  8
C00-00-00-BLACK
100
AcDbSpline
210
0.0
220
0.0
230
1.0
 70
     0
 71
     3
 72
     8
 73
4
 40
0.0
 40
0.0
 40
0.0
 40
0.0
 40
1.0
 40
1.0
 40
1.0
 40
1.0
 10
7.49468
 20
3.55746
 30
0.0
 10
7.49713
 20
3.56793
 30
0.0
 10
7.50965
 20
3.572
 30
0.0
 10
7.52051
 20
3.5695
 30
0.0
  0
SPLINE
  5
371
100
AcDbEntity
  8
C00-00-00-BLACK
100
AcDbSpline
210
0.0
220
0.0
230
1.0
 70
     0
 71
     3
 72
     8
 73
4
 40
0.0
 40
0.0
 40
0.0
 40
0.0
 40
1.0
 40
1.0
 40
1.0
 40
1.0
 10
7.52051
 20
3.5695
 30
0.0
 10
7.53217
 20
3.56679
 30
0.0
 10
7.54058
 20
3.55599
 30
0.0
 10
7.53787
 20
3.54432
 30
0.0
  0
SPLINE
  5
372
100
AcDbEntity
  8
C00-00-00-BLACK
100
AcDbSpline
210
0.0
220
0.0
230
1.0
 70
     0
 71
     3
 72
     8
 73
4
 40
0.0
 40
0.0
 40
0.0
 40
0.0
 40
1.0
 40
1.0
 40
1.0
 40
1.0
 10
7.53787
 20
3.54432
 30
0.0
 10
7.53554
 20
3.53444
 30
0.0
 10
7.52658
 20
3.52821
 30
0.0
 10
7.516
 20
3.52522
 30
0.0
  0
LINE
  5
373
100
AcDbEntity
  8
C00-00-00-BLACK
100
AcDbLine
 10
7.516
 20
3.52522
 30
0.0
 11
7.50011
 21
3.54183
 31
0.0
  0
SPLINE
  5
374
100
AcDbEntity
  8
C00-00-00-BLACK
100
AcDbSpline
210
0.0
220
0.0
230
1.0
 70
     0
 71
     3
 72
     8
 73
4
 40
0.0
 40
0.0
 40
0.0
 40
0.0
 40
1.0
 40
1.0
 40
1.0
 40
1.0
 10
7.50282
 20
3.51921
 30
0.0
 10
7.50657
 20
3.51531
 30
0.0
 10
7.51579
 20
3.50581
 30
0.0
 10
7.51942
 20
3.5019
 30
0.0
  0
SPLINE
  5
375
100
AcDbEntity
  8
C00-00-00-BLACK
100
AcDbSpline
210
0.0
220
0.0
230
1.0
 70
     0
 71
     3
 72
     8
 73
4
 40
0.0
 40
0.0
 40
0.0
 40
0.0
 40
1.0
 40
1.0
 40
1.0
 40
1.0
 10
7.51942
 20
3.5019
 30
0.0
 10
7.523
 20
3.49815
 30
0.0
 10
7.52929
 20
3.49143
 30
0.0
 10
7.52696
 20
3.48156
 30
0.0
  0
SPLINE
  5
376
100
AcDbEntity
  8
C00-00-00-BLACK
100
AcDbSpline
210
0.0
220
0.0
230
1.0
 70
     0
 71
     3
 72
     8
 73
4
 40
0.0
 40
0.0
 40
0.0
 40
0.0
 40
1.0
 40
1.0
 40
1.0
 40
1.0
 10
7.52696
 20
3.48156
 30
0.0
 10
7.52414
 20
3.46924
 30
0.0
 10
7.50971
 20
3.46376
 30
0.0
 10
7.49681
 20
3.46674
 30
0.0
  0
SPLINE
  5
377
100
AcDbEntity
  8
C00-00-00-BLACK
100
AcDbSpline
210
0.0
220
0.0
230
1.0
 70
     0
 71
     3
 72
     8
 73
4
 40
0.0
 40
0.0
 40
0.0
 40
0.0
 40
1.0
 40
1.0
 40
1.0
 40
1.0
 10
7.49681
 20
3.46674
 30
0.0
 10
7.48301
 20
3.46994
 30
0.0
 10
7.47358
 20
3.48275
 30
0.0
 10
7.47667
 20
3.49615
 30
0.0
  0
SPLINE
  5
378
100
AcDbEntity
  8
C00-00-00-BLACK
100
AcDbSpline
210
0.0
220
0.0
230
1.0
 70
     0
 71
     3
 72
     8
 73
4
 40
0.0
 40
0.0
 40
0.0
 40
0.0
 40
1.0
 40
1.0
 40
1.0
 40
1.0
 10
7.47667
 20
3.49615
 30
0.0
 10
7.4796
 20
3.50879
 30
0.0
 10
7.49121
 20
3.51682
 30
0.0
 10
7.50282
 20
3.51921
 30
0.0
  0
LINE
  5
379
100
AcDbEntity
  8
C00-00-00-BLACK
100
AcDbLine
 10
7.50282
 20
3.51921
 30
0.0
 11
7.50282
 21
3.51921
 31
0.0
  0
ENDSEC
  0
SECTION
  2
OBJECTS
  0
DICTIONARY
  5
C
330
0
100
AcDbDictionary
  3
ACAD_GROUP
350
D
  3
ACAD_LAYOUT
350
1A
  3
ACAD_MLINESTYLE
350
17
  3
ACAD_PLOTSETTINGS
350
19
  3
ACAD_PLOTSTYLENAME
350
E
  3
ACDBHEADERROUNDTRIPXREC
350
2F
  0
DICTIONARY
  5
52
330
1F
100
AcDbDictionary
280
     1
  3
ACAD_LAYOUTSELFREF
360
53
  0
DICTIONARY
  5
50
330
1B
100
AcDbDictionary
280
     1
  3
ACAD_LAYOUTSELFREF
360
51
  0
DICTIONARY
  5
D
102
{ACAD_REACTORS
330
C
102
}
330
C
100
AcDbDictionary
  0
DICTIONARY
  5
1A
102
{ACAD_REACTORS
330
C
102
}
330
C
100
AcDbDictionary
  0
DICTIONARY
  5
17
102
{ACAD_REACTORS
330
C
102
}
330
C
100
AcDbDictionary
  3
STANDARD
350
18
  0
DICTIONARY
  5
19
102
{ACAD_REACTORS
330
C
102
}
330
C
100
AcDbDictionary
  0
ACDBDICTIONARYWDFLT
  5
E
102
{ACAD_REACTORS
330
C
102
}
330
C
100
AcDbDictionary
281
     1
  3
Normal
350
F
100
AcDbDictionaryWithDefault
340
F
  0
DICTIONARY
  5
2F
102
{ACAD_REACTORS
330
C
102
}
330
C
100
AcDbDictionary
  3
CEPSNTYPE
350
39
  3
DIMSTYLEDATA
350
3D
  3
FINGERPRINTGUID
350
3A
  3
HYPERLINKBASE
350
32
  3
INSUNITS
350
38
  3
LAYOUTDICT
350
34
  3
LWETCUNION
350
37
  3
PLOTSETDICT
350
35
  3
PLOTSTYLNAMDICT
350
36
  3
PSVPSCALE
350
3C
  3
PUCSBASE
350
40
  3
PUCSORGBACK
350
46
  3
PUCSORGBOTTOM
350
42
  3
PUCSORGFRONT
350
45
  3
PUCSORGLEFT
350
43
  3
PUCSORGRIGHT
350
44
  3
PUCSORGTOP
350
41
  3
PUCSORTHOREF
350
3E
  3
PUCSORTHOVIEW
350
3F
  3
STYLESHEET
350
33
  3
TSTACKALIGN
350
30
  3
TSTACKSIZE
350
31
  3
UCSBASE
350
49
  3
UCSORGBACK
350
4F
  3
UCSORGBOTTOM
350
4B
  3
UCSORGFRONT
350
4E
  3
UCSORGLEFT
350
4C
  3
UCSORGRIGHT
350
4D
  3
UCSORGTOP
350
4A
  3
UCSORTHOREF
350
47
  3
UCSORTHOVIEW
350
48
  3
VERSIONGUID
350
3B
  0
XRECORD
  5
53
102
{ACAD_REACTORS
330
52
102
}
330
52
100
AcDbXrecord
340
1F
  0
XRECORD
  5
51
102
{ACAD_REACTORS
330
50
102
}
330
50
100
AcDbXrecord
340
1B
  0
MLINESTYLE
  5
18
102
{ACAD_REACTORS
330
17
102
}
330
17
100
AcDbMlineStyle
  2
STANDARD
 70
     0
  3

 62
   256
 51
90.0
 52
90.0
 71
     2
 49
0.5
 62
   256
  6
BYLAYER
 49
-0.5
 62
   256
  6
BYLAYER
  0
ACDBPLACEHOLDER
  5
F
102
{ACAD_REACTORS
330
E
102
}
330
E
100
AcDbPlaceHolder
280
     0
  0
XRECORD
  5
39
102
{ACAD_REACTORS
330
2F
102
}
330
2F
100
AcDbXrecord
 90
        0
  0
XRECORD
  5
3D
102
{ACAD_REACTORS
330
2F
102
}
330
2F
100
AcDbXrecord
1000
DSTYLE
1002
{
1070
   278
 70
    44
1002
}
  0
XRECORD
  5
3A
102
{ACAD_REACTORS
330
2F
102
}
330
2F
100
AcDbXrecord
  1
{705446A6-11D0-4548-8F8C-A97DCA50327D}
  0
XRECORD
  5
32
102
{ACAD_REACTORS
330
2F
102
}
330
2F
100
AcDbXrecord
  1

  0
XRECORD
  5
38
102
{ACAD_REACTORS
330
2F
102
}
330
2F
100
AcDbXrecord
 90
        4
  0
XRECORD
  5
34
102
{ACAD_REACTORS
330
2F
102
}
330
2F
100
AcDbXrecord
340
1A
  0
XRECORD
  5
37
102
{ACAD_REACTORS
330
2F
102
}
330
2F
100
AcDbXrecord
 90
    10781
  0
XRECORD
  5
35
102
{ACAD_REACTORS
330
2F
102
}
330
2F
100
AcDbXrecord
340
19
  0
XRECORD
  5
36
102
{ACAD_REACTORS
330
2F
102
}
330
2F
100
AcDbXrecord
340
E
  0
XRECORD
  5
3C
102
{ACAD_REACTORS
330
2F
102
}
330
2F
100
AcDbXrecord
 40
0.0
  0
XRECORD
  5
40
102
{ACAD_REACTORS
330
2F
102
}
330
2F
100
AcDbXrecord
340
0
  0
XRECORD
  5
46
102
{ACAD_REACTORS
330
2F
102
}
330
2F
100
AcDbXrecord
 10
0.0
 20
0.0
 30
0.0
  0
XRECORD
  5
42
102
{ACAD_REACTORS
330
2F
102
}
330
2F
100
AcDbXrecord
 10
0.0
 20
0.0
 30
0.0
  0
XRECORD
  5
45
102
{ACAD_REACTORS
330
2F
102
}
330
2F
100
AcDbXrecord
 10
0.0
 20
0.0
 30
0.0
  0
XRECORD
  5
43
102
{ACAD_REACTORS
330
2F
102
}
330
2F
100
AcDbXrecord
 10
0.0
 20
0.0
 30
0.0
  0
XRECORD
  5
44
102
{ACAD_REACTORS
330
2F
102
}
330
2F
100
AcDbXrecord
 10
0.0
 20
0.0
 30
0.0
  0
XRECORD
  5
41
102
{ACAD_REACTORS
330
2F
102
}
330
2F
100
AcDbXrecord
 10
0.0
 20
0.0
 30
0.0
  0
XRECORD
  5
3E
102
{ACAD_REACTORS
330
2F
102
}
330
2F
100
AcDbXrecord
340
0
  0
XRECORD
  5
3F
102
{ACAD_REACTORS
330
2F
102
}
330
2F
100
AcDbXrecord
 70
     0
  0
XRECORD
  5
33
102
{ACAD_REACTORS
330
2F
102
}
330
2F
100
AcDbXrecord
  1

  0
XRECORD
  5
30
102
{ACAD_REACTORS
330
2F
102
}
330
2F
100
AcDbXrecord
 90
        1
  0
XRECORD
  5
31
102
{ACAD_REACTORS
330
2F
102
}
330
2F
100
AcDbXrecord
 90
       70
  0
XRECORD
  5
49
102
{ACAD_REACTORS
330
2F
102
}
330
2F
100
AcDbXrecord
340
0
  0
XRECORD
  5
4F
102
{ACAD_REACTORS
330
2F
102
}
330
2F
100
AcDbXrecord
 10
0.0
 20
0.0
 30
0.0
  0
XRECORD
  5
4B
102
{ACAD_REACTORS
330
2F
102
}
330
2F
100
AcDbXrecord
 10
0.0
 20
0.0
 30
0.0
  0
XRECORD
  5
4E
102
{ACAD_REACTORS
330
2F
102
}
330
2F
100
AcDbXrecord
 10
0.0
 20
0.0
 30
0.0
  0
XRECORD
  5
4C
102
{ACAD_REACTORS
330
2F
102
}
330
2F
100
AcDbXrecord
 10
0.0
 20
0.0
 30
0.0
  0
XRECORD
  5
4D
102
{ACAD_REACTORS
330
2F
102
}
330
2F
100
AcDbXrecord
 10
0.0
 20
0.0
 30
0.0
  0
XRECORD
  5
4A
102
{ACAD_REACTORS
330
2F
102
}
330
2F
100
AcDbXrecord
 10
0.0
 20
0.0
 30
0.0
  0
XRECORD
  5
47
102
{ACAD_REACTORS
330
2F
102
}
330
2F
100
AcDbXrecord
340
0
  0
XRECORD
  5
48
102
{ACAD_REACTORS
330
2F
102
}
330
2F
100
AcDbXrecord
 70
     0
  0
XRECORD
  5
3B
102
{ACAD_REACTORS
330
2F
102
}
330
2F
100
AcDbXrecord
  1
{33328E3A-B6B8-4979-86B7-D70DEC2867C2}
  0
ENDSEC
  0
EOF
