  0
SECTION
  2
HEADER
  9
$ACADVER
  1
AC1014
  9
$EXTMIN
 10
70.16401489310567
 20
112.369642808922
 30
0.0
  9
$EXTMAX
 10
277.0834797641999
 20
227.1366601424358
 30
0.0
  9
$HANDSEED
  5
56
  9
$MEASUREMENT
 70
0
  0
ENDSEC
  0
SECTION
  2
TABLES
  0
TABLE
  2
VPORT
  5
8
330
0
100
AcDbSymbolTable
 70
     4
  0
VPORT
  5
2E
330
8
100
AcDbSymbolTableRecord
100
AcDbViewportTableRecord
  2
*ACTIVE
 70
     0
 10
0.0
 20
0.0
 11
1.0
 21
1.0
 12
209.9999999999999
 22
148.4999999999999
 13
0.0
 23
0.0
 14
10.0
 24
10.0
 15
10.0
 25
10.0
 16
0.0
 26
0.0
 36
1.0
 17
0.0
 27
0.0
 37
0.0
 40
340.9950045922664
 41
1.239944521497919
 42
50.0
 43
0.0
 44
0.0
 50
0.0
 51
0.0
 71
     0
 72
   100
 73
     1
 74
     3
 75
     0
 76
     0
 77
     0
 78
     0
  0
ENDTAB
  0
TABLE
  2
LTYPE
  5
5
330
0
100
AcDbSymbolTable
 70
     1
  0
LTYPE
  5
14
330
5
100
AcDbSymbolTableRecord
100
AcDbLinetypeTableRecord
  2
BYBLOCK
 70
     0
  3

 72
    65
 73
     0
 40
0.0
  0
LTYPE
  5
15
330
5
100
AcDbSymbolTableRecord
100
AcDbLinetypeTableRecord
  2
BYLAYER
 70
     0
  3

 72
    65
 73
     0
 40
0.0
  0
LTYPE
  5
16
330
5
100
AcDbSymbolTableRecord
100
AcDbLinetypeTableRecord
  2
CONTINUOUS
 70
     0
  3
Solid line
 72
    65
 73
     0
 40
0.0
  0
ENDTAB
  0
TABLE
  2
LAYER
  5
2
330
0
100
AcDbSymbolTable
 70
5
  0
LAYER
  5
10
330
2
100
AcDbSymbolTableRecord
100
AcDbLayerTableRecord
  2
0
 70
     0
 62
     7
  6
CONTINUOUS
  0
LAYER
  5
39c
100
AcDbSymbolTableRecord
100
AcDbLayerTableRecord
  2
C00-00-00-BLACK
 70
0
 62
7
  6
CONTINUOUS
  0
LAYER
  5
39d
100
AcDbSymbolTableRecord
100
AcDbLayerTableRecord
  2
CFF-FF-FF-WHITE
 70
0
 62
7
  6
CONTINUOUS
  0
LAYER
  5
39e
100
AcDbSymbolTableRecord
100
AcDbLayerTableRecord
  2
CFF-00-00
 70
0
 62
1
  6
CONTINUOUS
  0
ENDTAB
  0
TABLE
  2
STYLE
  5
3
330
0
100
AcDbSymbolTable
 70
     1
  0
STYLE
  5
11
330
3
100
AcDbSymbolTableRecord
100
AcDbTextStyleTableRecord
  2
STANDARD
 70
     0
 40
0.0
 41
1.0
 50
0.0
 71
     0
 42
2.5
  3
txt
  4

  0
ENDTAB
  0
TABLE
  2
VIEW
  5
6
330
0
100
AcDbSymbolTable
 70
     0
  0
ENDTAB
  0
TABLE
  2
UCS
  5
7
330
0
100
AcDbSymbolTable
 70
     0
  0
ENDTAB
  0
TABLE
  2
APPID
  5
9
330
0
100
AcDbSymbolTable
 70
     2
  0
APPID
  5
12
330
9
100
AcDbSymbolTableRecord
100
AcDbRegAppTableRecord
  2
ACAD
 70
     0
  0
APPID
  5
2B
330
9
100
AcDbSymbolTableRecord
100
AcDbRegAppTableRecord
  2
URBANX
 70
     0
  0
ENDTAB
  0
TABLE
  2
DIMSTYLE
  5
A
330
0
100
AcDbSymbolTable
 70
     1
  0
DIMSTYLE
105
27
330
A
100
AcDbSymbolTableRecord
100
AcDbDimStyleTableRecord
  2
ISO-25
 70
     0
  3

  4

  5

  6

  7

 40
1.0
 41
2.5
 42
0.625
 43
3.75
 44
1.25
 45
0.0
 46
0.0
 47
0.0
 48
0.0
140
2.5
141
2.5
142
0.0
143
0.03937007874016
144
1.0
145
0.0
146
1.0
147
0.625
 71
     0
 72
     0
 73
     0
 74
     0
 75
     0
 76
     0
 77
     1
 78
     8
170
     0
171
     3
172
     1
173
     0
174
     0
175
     0
176
     0
177
     0
178
     0
270
     2
271
     2
272
     2
273
     2
274
     3
340
11
275
     0
280
     0
281
     0
282
     0
283
     0
284
     8
285
     0
286
     0
287
     3
288
     0
  0
ENDTAB
  0
TABLE
  2
BLOCK_RECORD
  5
1
330
0
100
AcDbSymbolTable
 70
     1
  0
BLOCK_RECORD
  5
1F
102
{ACAD_XDICTIONARY
360
52
102
}
330
1
100
AcDbSymbolTableRecord
100
AcDbBlockTableRecord
  2
*MODEL_SPACE
  0
BLOCK_RECORD
  5
1B
102
{ACAD_XDICTIONARY
360
50
102
}
330
1
100
AcDbSymbolTableRecord
100
AcDbBlockTableRecord
  2
*PAPER_SPACE
  0
ENDTAB
  0
ENDSEC
  0
SECTION
  2
BLOCKS
  0
BLOCK
  5
20
330
1F
100
AcDbEntity
  8
0
100
AcDbBlockBegin
  2
*MODEL_SPACE
 70
     0
 10
0.0
 20
0.0
 30
0.0
  3
*MODEL_SPACE
  1

  0
ENDBLK
  5
21
330
1F
100
AcDbEntity
  8
0
100
AcDbBlockEnd
  0
BLOCK
  5
1C
330
1B
100
AcDbEntity
 67
     1
  8
0
100
AcDbBlockBegin
  2
*PAPER_SPACE
  1

  0
ENDBLK
  5
1D
330
1B
100
AcDbEntity
 67
     1
  8
0
100
AcDbBlockEnd
  0
ENDSEC
  0
SECTION
  2
ENTITIES
  0
LINE
  5
ff
100
AcDbEntity
  8
CFF-00-00
100
AcDbLine
 10
0.805935
 20
5.49349
 30
0.0
 11
0.743435
 21
5.49349
 31
0.0
  0
LINE
  5
100
100
AcDbEntity
  8
CFF-00-00
100
AcDbLine
 10
7.61849
 20
5.49349
 30
0.0
 11
7.74349
 21
5.49349
 31
0.0
  0
LINE
  5
101
100
AcDbEntity
  8
CFF-00-00
100
AcDbLine
 10
7.61849
 20
6.20763
 30
0.0
 11
7.61849
 21
6.42051
 31
0.0
  0
LINE
  5
102
100
AcDbEntity
  8
CFF-00-00
100
AcDbLine
 10
7.61849
 20
6.20763
 30
0.0
 11
7.66764
 21
6.21804
 31
0.0
  0
LINE
  5
103
100
AcDbEntity
  8
C00-00-00-BLACK
100
AcDbLine
 10
7.61849
 20
6.20763
 30
0.0
 11
1.52007
 21
6.20763
 31
0.0
  0
LINE
  5
104
100
AcDbEntity
  8
C00-00-00-BLACK
100
AcDbLine
 10
1.52007
 20
6.20763
 30
0.0
 11
0.805935
 21
5.49349
 31
0.0
  0
LINE
  5
105
100
AcDbEntity
  8
C00-00-00-BLACK
100
AcDbLine
 10
0.805935
 20
5.49349
 30
0.0
 11
1.52007
 21
4.77929
 31
0.0
  0
LINE
  5
106
100
AcDbEntity
  8
C00-00-00-BLACK
100
AcDbLine
 10
1.52007
 20
4.77929
 30
0.0
 11
7.61849
 21
4.77929
 31
0.0
  0
LINE
  5
107
100
AcDbEntity
  8
C00-00-00-BLACK
100
AcDbLine
 10
7.61849
 20
4.77929
 30
0.0
 11
7.61849
 21
6.20763
 31
0.0
  0
LINE
  5
108
100
AcDbEntity
  8
C00-00-00-BLACK
100
AcDbLine
 10
1.52007
 20
4.77929
 30
0.0
 11
1.77007
 21
4.77929
 31
0.0
  0
LINE
  5
109
100
AcDbEntity
  8
C00-00-00-BLACK
100
AcDbLine
 10
1.77007
 20
4.77929
 30
0.0
 11
1.77007
 21
6.20763
 31
0.0
  0
LINE
  5
10a
100
AcDbEntity
  8
C00-00-00-BLACK
100
AcDbLine
 10
1.77007
 20
6.20763
 30
0.0
 11
1.52007
 21
6.20763
 31
0.0
  0
LINE
  5
10b
100
AcDbEntity
  8
C00-00-00-BLACK
100
AcDbLine
 10
1.52007
 20
6.20763
 30
0.0
 11
1.52007
 21
4.77929
 31
0.0
  0
LINE
  5
10c
100
AcDbEntity
  8
C00-00-00-BLACK
100
AcDbLine
 10
7.36849
 20
4.77929
 30
0.0
 11
7.61849
 21
4.77929
 31
0.0
  0
LINE
  5
10d
100
AcDbEntity
  8
C00-00-00-BLACK
100
AcDbLine
 10
7.61849
 20
4.77929
 30
0.0
 11
7.61849
 21
6.20763
 31
0.0
  0
LINE
  5
10e
100
AcDbEntity
  8
C00-00-00-BLACK
100
AcDbLine
 10
7.61849
 20
6.20763
 30
0.0
 11
7.36849
 21
6.20763
 31
0.0
  0
LINE
  5
10f
100
AcDbEntity
  8
C00-00-00-BLACK
100
AcDbLine
 10
7.36849
 20
6.20763
 30
0.0
 11
7.36849
 21
4.77929
 31
0.0
  0
SPLINE
  5
110
100
AcDbEntity
  8
C00-00-00-BLACK
100
AcDbSpline
210
0.0
220
0.0
230
1.0
 70
     0
 71
     3
 72
     8
 73
4
 40
0.0
 40
0.0
 40
0.0
 40
0.0
 40
1.0
 40
1.0
 40
1.0
 40
1.0
 10
7.74349
 20
5.49349
 30
0.0
 10
7.74349
 20
7.42649
 30
0.0
 10
6.17649
 20
8.99349
 30
0.0
 10
4.24349
 20
8.99349
 30
0.0
  0
SPLINE
  5
111
100
AcDbEntity
  8
C00-00-00-BLACK
100
AcDbSpline
210
0.0
220
0.0
230
1.0
 70
     0
 71
     3
 72
     8
 73
4
 40
0.0
 40
0.0
 40
0.0
 40
0.0
 40
1.0
 40
1.0
 40
1.0
 40
1.0
 10
4.24349
 20
8.99349
 30
0.0
 10
2.31049
 20
8.99349
 30
0.0
 10
0.743489
 20
7.42649
 30
0.0
 10
0.743489
 20
5.49349
 30
0.0
  0
SPLINE
  5
112
100
AcDbEntity
  8
C00-00-00-BLACK
100
AcDbSpline
210
0.0
220
0.0
230
1.0
 70
     0
 71
     3
 72
     8
 73
4
 40
0.0
 40
0.0
 40
0.0
 40
0.0
 40
1.0
 40
1.0
 40
1.0
 40
1.0
 10
0.743489
 20
5.49349
 30
0.0
 10
0.743489
 20
3.56049
 30
0.0
 10
2.31049
 20
1.99349
 30
0.0
 10
4.24349
 20
1.99349
 30
0.0
  0
SPLINE
  5
113
100
AcDbEntity
  8
C00-00-00-BLACK
100
AcDbSpline
210
0.0
220
0.0
230
1.0
 70
     0
 71
     3
 72
     8
 73
4
 40
0.0
 40
0.0
 40
0.0
 40
0.0
 40
1.0
 40
1.0
 40
1.0
 40
1.0
 10
4.24349
 20
1.99349
 30
0.0
 10
6.17649
 20
1.99349
 30
0.0
 10
7.74349
 20
3.56049
 30
0.0
 10
7.74349
 20
5.49349
 30
0.0
  0
LINE
  5
114
100
AcDbEntity
  8
C00-00-00-BLACK
100
AcDbLine
 10
7.74349
 20
5.49349
 30
0.0
 11
7.74349
 21
5.49349
 31
0.0
  0
LINE
  5
115
100
AcDbEntity
  8
C00-00-00-BLACK
100
AcDbLine
 10
4.24349
 20
6.49349
 30
0.0
 11
4.24349
 21
4.49349
 31
0.0
  0
LINE
  5
116
100
AcDbEntity
  8
C00-00-00-BLACK
100
AcDbLine
 10
3.24349
 20
5.49349
 30
0.0
 11
5.24349
 21
5.49349
 31
0.0
  0
LINE
  5
117
100
AcDbEntity
  8
C00-00-00-BLACK
100
AcDbLine
 10
1.19076
 20
3.73096
 30
0.0
 11
1.05642
 21
3.65343
 31
0.0
  0
LINE
  5
118
100
AcDbEntity
  8
C00-00-00-BLACK
100
AcDbLine
 10
0.838596
 20
4.58117
 30
0.0
 11
0.688747
 21
4.54101
 31
0.0
  0
LINE
  5
119
100
AcDbEntity
  8
C00-00-00-BLACK
100
AcDbLine
 10
0.718479
 20
5.49349
 30
0.0
 11
0.563368
 21
5.49349
 31
0.0
  0
LINE
  5
11a
100
AcDbEntity
  8
C00-00-00-BLACK
100
AcDbLine
 10
0.838596
 20
6.40582
 30
0.0
 11
0.688747
 21
6.44596
 31
0.0
  0
LINE
  5
11b
100
AcDbEntity
  8
C00-00-00-BLACK
100
AcDbLine
 10
1.19076
 20
7.25597
 30
0.0
 11
1.05642
 21
7.33356
 31
0.0
  0
LINE
  5
11c
100
AcDbEntity
  8
C00-00-00-BLACK
100
AcDbLine
 10
1.75092
 20
7.986
 30
0.0
 11
1.64128
 21
8.09571
 31
0.0
  0
LINE
  5
11d
100
AcDbEntity
  8
C00-00-00-BLACK
100
AcDbLine
 10
2.48096
 20
8.54622
 30
0.0
 11
2.40343
 21
8.6805
 31
0.0
  0
LINE
  5
11e
100
AcDbEntity
  8
C00-00-00-BLACK
100
AcDbLine
 10
3.33117
 20
8.89839
 30
0.0
 11
3.29101
 21
9.04818
 31
0.0
  0
LINE
  5
11f
100
AcDbEntity
  8
C00-00-00-BLACK
100
AcDbLine
 10
4.24349
 20
9.01844
 30
0.0
 11
4.24349
 21
9.17356
 31
0.0
  0
LINE
  5
120
100
AcDbEntity
  8
C00-00-00-BLACK
100
AcDbLine
 10
5.15582
 20
8.89839
 30
0.0
 11
5.19596
 21
9.04818
 31
0.0
  0
LINE
  5
121
100
AcDbEntity
  8
C00-00-00-BLACK
100
AcDbLine
 10
6.00597
 20
8.54622
 30
0.0
 11
6.08356
 21
8.6805
 31
0.0
  0
LINE
  5
122
100
AcDbEntity
  8
C00-00-00-BLACK
100
AcDbLine
 10
6.736
 20
7.986
 30
0.0
 11
6.84571
 21
8.09571
 31
0.0
  0
LINE
  5
123
100
AcDbEntity
  8
C00-00-00-BLACK
100
AcDbLine
 10
7.29622
 20
7.25597
 30
0.0
 11
7.4305
 21
7.33356
 31
0.0
  0
LINE
  5
124
100
AcDbEntity
  8
C00-00-00-BLACK
100
AcDbLine
 10
7.64839
 20
6.40582
 30
0.0
 11
7.79818
 21
6.44596
 31
0.0
  0
LINE
  5
125
100
AcDbEntity
  8
C00-00-00-BLACK
100
AcDbLine
 10
7.76844
 20
5.49349
 30
0.0
 11
7.92356
 21
5.49349
 31
0.0
  0
LINE
  5
126
100
AcDbEntity
  8
C00-00-00-BLACK
100
AcDbLine
 10
7.64839
 20
4.58117
 30
0.0
 11
7.79818
 21
4.54101
 31
0.0
  0
LINE
  5
127
100
AcDbEntity
  8
C00-00-00-BLACK
100
AcDbLine
 10
7.29622
 20
3.73096
 30
0.0
 11
7.4305
 21
3.65343
 31
0.0
  0
LINE
  5
128
100
AcDbEntity
  8
C00-00-00-BLACK
100
AcDbLine
 10
0.986817
 20
4.14453
 30
0.0
 11
0.856554
 21
4.09056
 31
0.0
  0
LINE
  5
129
100
AcDbEntity
  8
C00-00-00-BLACK
100
AcDbLine
 10
0.748643
 20
5.03336
 30
0.0
 11
0.608832
 21
5.01497
 31
0.0
  0
LINE
  5
12a
100
AcDbEntity
  8
C00-00-00-BLACK
100
AcDbLine
 10
0.748643
 20
5.95356
 30
0.0
 11
0.608832
 21
5.97194
 31
0.0
  0
LINE
  5
12b
100
AcDbEntity
  8
C00-00-00-BLACK
100
AcDbLine
 10
0.986817
 20
6.84244
 30
0.0
 11
0.856554
 21
6.89638
 31
0.0
  0
LINE
  5
12c
100
AcDbEntity
  8
C00-00-00-BLACK
100
AcDbLine
 10
1.44689
 20
7.63937
 30
0.0
 11
1.33502
 21
7.72521
 31
0.0
  0
LINE
  5
12d
100
AcDbEntity
  8
C00-00-00-BLACK
100
AcDbLine
 10
2.0976
 20
8.29004
 30
0.0
 11
2.01178
 21
8.40192
 31
0.0
  0
LINE
  5
12e
100
AcDbEntity
  8
C00-00-00-BLACK
100
AcDbLine
 10
2.89453
 20
8.75017
 30
0.0
 11
2.84056
 21
8.88043
 31
0.0
  0
LINE
  5
12f
100
AcDbEntity
  8
C00-00-00-BLACK
100
AcDbLine
 10
3.78336
 20
8.98833
 30
0.0
 11
3.76497
 21
9.1281
 31
0.0
  0
LINE
  5
130
100
AcDbEntity
  8
C00-00-00-BLACK
100
AcDbLine
 10
4.70356
 20
8.98833
 30
0.0
 11
4.72194
 21
9.1281
 31
0.0
  0
LINE
  5
131
100
AcDbEntity
  8
C00-00-00-BLACK
100
AcDbLine
 10
5.59244
 20
8.75017
 30
0.0
 11
5.64638
 21
8.88043
 31
0.0
  0
LINE
  5
132
100
AcDbEntity
  8
C00-00-00-BLACK
100
AcDbLine
 10
6.38938
 20
8.29004
 30
0.0
 11
6.47521
 21
8.40192
 31
0.0
  0
LINE
  5
133
100
AcDbEntity
  8
C00-00-00-BLACK
100
AcDbLine
 10
7.04004
 20
7.63937
 30
0.0
 11
7.15192
 21
7.72521
 31
0.0
  0
LINE
  5
134
100
AcDbEntity
  8
C00-00-00-BLACK
100
AcDbLine
 10
7.50017
 20
6.84244
 30
0.0
 11
7.63043
 21
6.89638
 31
0.0
  0
LINE
  5
135
100
AcDbEntity
  8
C00-00-00-BLACK
100
AcDbLine
 10
7.73833
 20
5.95356
 30
0.0
 11
7.8781
 21
5.97194
 31
0.0
  0
LINE
  5
136
100
AcDbEntity
  8
C00-00-00-BLACK
100
AcDbLine
 10
7.73833
 20
5.03336
 30
0.0
 11
7.8781
 21
5.01497
 31
0.0
  0
LINE
  5
137
100
AcDbEntity
  8
C00-00-00-BLACK
100
AcDbLine
 10
7.50017
 20
4.14453
 30
0.0
 11
7.63043
 21
4.09056
 31
0.0
  0
LINE
  5
138
100
AcDbEntity
  8
C00-00-00-BLACK
100
AcDbLine
 10
1.08198
 20
3.9344
 30
0.0
 11
0.987142
 21
3.88764
 31
0.0
  0
LINE
  5
139
100
AcDbEntity
  8
C00-00-00-BLACK
100
AcDbLine
 10
0.905544
 20
4.3604
 30
0.0
 11
0.805393
 21
4.32639
 31
0.0
  0
LINE
  5
13a
100
AcDbEntity
  8
C00-00-00-BLACK
100
AcDbLine
 10
0.786187
 20
4.80578
 30
0.0
 11
0.682508
 21
4.78515
 31
0.0
  0
LINE
  5
13b
100
AcDbEntity
  8
C00-00-00-BLACK
100
AcDbLine
 10
0.726019
 20
5.26292
 30
0.0
 11
0.620497
 21
5.25603
 31
0.0
  0
LINE
  5
13c
100
AcDbEntity
  8
C00-00-00-BLACK
100
AcDbLine
 10
0.726019
 20
5.72401
 30
0.0
 11
0.620497
 21
5.73096
 31
0.0
  0
LINE
  5
13d
100
AcDbEntity
  8
C00-00-00-BLACK
100
AcDbLine
 10
0.786187
 20
6.18115
 30
0.0
 11
0.682508
 21
6.20176
 31
0.0
  0
LINE
  5
13e
100
AcDbEntity
  8
C00-00-00-BLACK
100
AcDbLine
 10
0.905544
 20
6.62651
 30
0.0
 11
0.805393
 21
6.66054
 31
0.0
  0
LINE
  5
13f
100
AcDbEntity
  8
C00-00-00-BLACK
100
AcDbLine
 10
1.08198
 20
7.05251
 30
0.0
 11
0.987142
 21
7.09933
 31
0.0
  0
LINE
  5
140
100
AcDbEntity
  8
C00-00-00-BLACK
100
AcDbLine
 10
1.31255
 20
7.45187
 30
0.0
 11
1.22461
 21
7.51064
 31
0.0
  0
LINE
  5
141
100
AcDbEntity
  8
C00-00-00-BLACK
100
AcDbLine
 10
1.59326
 20
7.81765
 30
0.0
 11
1.51372
 21
7.88737
 31
0.0
  0
LINE
  5
142
100
AcDbEntity
  8
C00-00-00-BLACK
100
AcDbLine
 10
1.91928
 20
8.14372
 30
0.0
 11
1.84956
 21
8.22319
 31
0.0
  0
LINE
  5
143
100
AcDbEntity
  8
C00-00-00-BLACK
100
AcDbLine
 10
2.2851
 20
8.42443
 30
0.0
 11
2.22635
 21
8.51232
 31
0.0
  0
LINE
  5
144
100
AcDbEntity
  8
C00-00-00-BLACK
100
AcDbLine
 10
2.6844
 20
8.65494
 30
0.0
 11
2.63764
 21
8.74978
 31
0.0
  0
LINE
  5
145
100
AcDbEntity
  8
C00-00-00-BLACK
100
AcDbLine
 10
3.1104
 20
8.83138
 30
0.0
 11
3.07639
 21
8.93153
 31
0.0
  0
LINE
  5
146
100
AcDbEntity
  8
C00-00-00-BLACK
100
AcDbLine
 10
3.55578
 20
8.95074
 30
0.0
 11
3.53515
 21
9.05447
 31
0.0
  0
LINE
  5
147
100
AcDbEntity
  8
C00-00-00-BLACK
100
AcDbLine
 10
4.01292
 20
9.0109
 30
0.0
 11
4.00603
 21
9.11649
 31
0.0
  0
LINE
  5
148
100
AcDbEntity
  8
C00-00-00-BLACK
100
AcDbLine
 10
4.47401
 20
9.0109
 30
0.0
 11
4.48096
 21
9.11649
 31
0.0
  0
LINE
  5
149
100
AcDbEntity
  8
C00-00-00-BLACK
100
AcDbLine
 10
4.93115
 20
8.95074
 30
0.0
 11
4.95182
 21
9.05447
 31
0.0
  0
LINE
  5
14a
100
AcDbEntity
  8
C00-00-00-BLACK
100
AcDbLine
 10
5.37651
 20
8.83138
 30
0.0
 11
5.41054
 21
8.93153
 31
0.0
  0
LINE
  5
14b
100
AcDbEntity
  8
C00-00-00-BLACK
100
AcDbLine
 10
5.80251
 20
8.65494
 30
0.0
 11
5.84933
 21
8.74978
 31
0.0
  0
LINE
  5
14c
100
AcDbEntity
  8
C00-00-00-BLACK
100
AcDbLine
 10
6.20188
 20
8.42443
 30
0.0
 11
6.26064
 21
8.51232
 31
0.0
  0
LINE
  5
14d
100
AcDbEntity
  8
C00-00-00-BLACK
100
AcDbLine
 10
6.56765
 20
8.14372
 30
0.0
 11
6.63737
 21
8.22319
 31
0.0
  0
LINE
  5
14e
100
AcDbEntity
  8
C00-00-00-BLACK
100
AcDbLine
 10
6.89372
 20
7.81765
 30
0.0
 11
6.97319
 21
7.88737
 31
0.0
  0
LINE
  5
14f
100
AcDbEntity
  8
C00-00-00-BLACK
100
AcDbLine
 10
7.17443
 20
7.45187
 30
0.0
 11
7.26232
 21
7.51064
 31
0.0
  0
LINE
  5
150
100
AcDbEntity
  8
C00-00-00-BLACK
100
AcDbLine
 10
7.40494
 20
7.05251
 30
0.0
 11
7.49978
 21
7.09933
 31
0.0
  0
LINE
  5
151
100
AcDbEntity
  8
C00-00-00-BLACK
100
AcDbLine
 10
7.58138
 20
6.62651
 30
0.0
 11
7.68153
 21
6.66054
 31
0.0
  0
LINE
  5
152
100
AcDbEntity
  8
C00-00-00-BLACK
100
AcDbLine
 10
7.70074
 20
6.18115
 30
0.0
 11
7.80447
 21
6.20176
 31
0.0
  0
LINE
  5
153
100
AcDbEntity
  8
C00-00-00-BLACK
100
AcDbLine
 10
7.7609
 20
5.72401
 30
0.0
 11
7.86649
 21
5.73096
 31
0.0
  0
LINE
  5
154
100
AcDbEntity
  8
C00-00-00-BLACK
100
AcDbLine
 10
7.7609
 20
5.26292
 30
0.0
 11
7.86649
 21
5.25603
 31
0.0
  0
LINE
  5
155
100
AcDbEntity
  8
C00-00-00-BLACK
100
AcDbLine
 10
7.70074
 20
4.80578
 30
0.0
 11
7.80447
 21
4.78515
 31
0.0
  0
LINE
  5
156
100
AcDbEntity
  8
C00-00-00-BLACK
100
AcDbLine
 10
7.58138
 20
4.3604
 30
0.0
 11
7.68153
 21
4.32639
 31
0.0
  0
LINE
  5
157
100
AcDbEntity
  8
C00-00-00-BLACK
100
AcDbLine
 10
7.40494
 20
3.9344
 30
0.0
 11
7.49978
 21
3.88764
 31
0.0
  0
LINE
  5
158
100
AcDbEntity
  8
C00-00-00-BLACK
100
AcDbLine
 10
1.15299
 20
3.79796
 30
0.0
 11
1.0912
 21
3.76411
 31
0.0
  0
LINE
  5
159
100
AcDbEntity
  8
C00-00-00-BLACK
100
AcDbLine
 10
1.11675
 20
3.86583
 30
0.0
 11
1.05425
 21
3.83322
 31
0.0
  0
LINE
  5
15a
100
AcDbEntity
  8
C00-00-00-BLACK
100
AcDbLine
 10
1.04872
 20
4.00375
 30
0.0
 11
0.984864
 21
3.97396
 31
0.0
  0
LINE
  5
15b
100
AcDbEntity
  8
C00-00-00-BLACK
100
AcDbLine
 10
1.01698
 20
4.07378
 30
0.0
 11
0.952474
 21
4.04542
 31
0.0
  0
LINE
  5
15c
100
AcDbEntity
  8
C00-00-00-BLACK
100
AcDbLine
 10
0.958117
 20
4.21588
 30
0.0
 11
0.892415
 21
4.19032
 31
0.0
  0
LINE
  5
15d
100
AcDbEntity
  8
C00-00-00-BLACK
100
AcDbLine
 10
0.931044
 20
4.28787
 30
0.0
 11
0.8648
 21
4.26372
 31
0.0
  0
LINE
  5
15e
100
AcDbEntity
  8
C00-00-00-BLACK
100
AcDbLine
 10
0.881619
 20
4.43349
 30
0.0
 11
0.814399
 21
4.41228
 31
0.0
  0
LINE
  5
15f
100
AcDbEntity
  8
C00-00-00-BLACK
100
AcDbLine
 10
0.859321
 20
4.50706
 30
0.0
 11
0.791613
 21
4.48736
 31
0.0
  0
LINE
  5
160
100
AcDbEntity
  8
C00-00-00-BLACK
100
AcDbLine
 10
0.819499
 20
4.6556
 30
0.0
 11
0.751031
 21
4.63883
 31
0.0
  0
LINE
  5
161
100
AcDbEntity
  8
C00-00-00-BLACK
100
AcDbLine
 10
0.802029
 20
4.73053
 30
0.0
 11
0.733182
 21
4.71528
 31
0.0
  0
LINE
  5
162
100
AcDbEntity
  8
C00-00-00-BLACK
100
AcDbLine
 10
0.772026
 20
4.88135
 30
0.0
 11
0.702582
 21
4.86908
 31
0.0
  0
LINE
  5
163
100
AcDbEntity
  8
C00-00-00-BLACK
100
AcDbLine
 10
0.759494
 20
4.95725
 30
0.0
 11
0.689833
 21
4.9465
 31
0.0
  0
LINE
  5
164
100
AcDbEntity
  8
C00-00-00-BLACK
100
AcDbLine
 10
0.739421
 20
5.10969
 30
0.0
 11
0.669325
 21
5.10206
 31
0.0
  0
LINE
  5
165
100
AcDbEntity
  8
C00-00-00-BLACK
100
AcDbLine
 10
0.731879
 20
5.18625
 30
0.0
 11
0.661675
 21
5.18012
 31
0.0
  0
LINE
  5
166
100
AcDbEntity
  8
C00-00-00-BLACK
100
AcDbLine
 10
0.721843
 20
5.33974
 30
0.0
 11
0.651367
 21
5.33664
 31
0.0
  0
LINE
  5
167
100
AcDbEntity
  8
C00-00-00-BLACK
100
AcDbLine
 10
0.719293
 20
5.41656
 30
0.0
 11
0.648817
 21
5.41504
 31
0.0
  0
LINE
  5
168
100
AcDbEntity
  8
C00-00-00-BLACK
100
AcDbLine
 10
0.719293
 20
5.57036
 30
0.0
 11
0.648817
 21
5.57194
 31
0.0
  0
LINE
  5
169
100
AcDbEntity
  8
C00-00-00-BLACK
100
AcDbLine
 10
0.721843
 20
5.64725
 30
0.0
 11
0.651367
 21
5.65028
 31
0.0
  0
LINE
  5
16a
100
AcDbEntity
  8
C00-00-00-BLACK
100
AcDbLine
 10
0.731879
 20
5.80067
 30
0.0
 11
0.661675
 21
5.80686
 31
0.0
  0
LINE
  5
16b
100
AcDbEntity
  8
C00-00-00-BLACK
100
AcDbLine
 10
0.739421
 20
5.87722
 30
0.0
 11
0.669325
 21
5.88493
 31
0.0
  0
LINE
  5
16c
100
AcDbEntity
  8
C00-00-00-BLACK
100
AcDbLine
 10
0.759494
 20
6.02974
 30
0.0
 11
0.689833
 21
6.04042
 31
0.0
  0
LINE
  5
16d
100
AcDbEntity
  8
C00-00-00-BLACK
100
AcDbLine
 10
0.772026
 20
6.10558
 30
0.0
 11
0.702582
 21
6.11783
 31
0.0
  0
LINE
  5
16e
100
AcDbEntity
  8
C00-00-00-BLACK
100
AcDbLine
 10
0.802029
 20
6.25646
 30
0.0
 11
0.733182
 21
6.27169
 31
0.0
  0
LINE
  5
16f
100
AcDbEntity
  8
C00-00-00-BLACK
100
AcDbLine
 10
0.819499
 20
6.33132
 30
0.0
 11
0.751031
 21
6.34808
 31
0.0
  0
LINE
  5
170
100
AcDbEntity
  8
C00-00-00-BLACK
100
AcDbLine
 10
0.859321
 20
6.47987
 30
0.0
 11
0.791613
 21
6.49962
 31
0.0
  0
LINE
  5
171
100
AcDbEntity
  8
C00-00-00-BLACK
100
AcDbLine
 10
0.881619
 20
6.55344
 30
0.0
 11
0.814399
 21
6.57465
 31
0.0
  0
LINE
  5
172
100
AcDbEntity
  8
C00-00-00-BLACK
100
AcDbLine
 10
0.931044
 20
6.69911
 30
0.0
 11
0.8648
 21
6.72319
 31
0.0
  0
LINE
  5
173
100
AcDbEntity
  8
C00-00-00-BLACK
100
AcDbLine
 10
0.958117
 20
6.77106
 30
0.0
 11
0.892415
 21
6.7966
 31
0.0
  0
LINE
  5
174
100
AcDbEntity
  8
C00-00-00-BLACK
100
AcDbLine
 10
1.01698
 20
6.91314
 30
0.0
 11
0.952474
 21
6.94157
 31
0.0
  0
LINE
  5
175
100
AcDbEntity
  8
C00-00-00-BLACK
100
AcDbLine
 10
1.04872
 20
6.98318
 30
0.0
 11
0.984864
 21
7.01303
 31
0.0
  0
LINE
  5
176
100
AcDbEntity
  8
C00-00-00-BLACK
100
AcDbLine
 10
1.11675
 20
7.12115
 30
0.0
 11
1.05425
 21
7.15369
 31
0.0
  0
LINE
  5
177
100
AcDbEntity
  8
C00-00-00-BLACK
100
AcDbLine
 10
1.15299
 20
7.18896
 30
0.0
 11
1.0912
 21
7.22288
 31
0.0
  0
LINE
  5
178
100
AcDbEntity
  8
C00-00-00-BLACK
100
AcDbLine
 10
1.22993
 20
7.32215
 30
0.0
 11
1.16965
 21
7.35872
 31
0.0
  0
LINE
  5
179
100
AcDbEntity
  8
C00-00-00-BLACK
100
AcDbLine
 10
1.27051
 20
7.38743
 30
0.0
 11
1.21105
 21
7.42529
 31
0.0
  0
LINE
  5
17a
100
AcDbEntity
  8
C00-00-00-BLACK
100
AcDbLine
 10
1.35596
 20
7.51535
 30
0.0
 11
1.29823
 21
7.55578
 31
0.0
  0
LINE
  5
17b
100
AcDbEntity
  8
C00-00-00-BLACK
100
AcDbLine
 10
1.40076
 20
7.57785
 30
0.0
 11
1.34391
 21
7.61951
 31
0.0
  0
LINE
  5
17c
100
AcDbEntity
  8
C00-00-00-BLACK
100
AcDbLine
 10
1.49436
 20
7.69987
 30
0.0
 11
1.4394
 21
7.74397
 31
0.0
  0
LINE
  5
17d
100
AcDbEntity
  8
C00-00-00-BLACK
100
AcDbLine
 10
1.54318
 20
7.75933
 30
0.0
 11
1.48915
 21
7.80464
 31
0.0
  0
LINE
  5
17e
100
AcDbEntity
  8
C00-00-00-BLACK
100
AcDbLine
 10
1.64458
 20
7.87494
 30
0.0
 11
1.59256
 21
7.92258
 31
0.0
  0
LINE
  5
17f
100
AcDbEntity
  8
C00-00-00-BLACK
100
AcDbLine
 10
1.69715
 20
7.93104
 30
0.0
 11
1.64621
 21
7.97982
 31
0.0
  0
LINE
  5
180
100
AcDbEntity
  8
C00-00-00-BLACK
100
AcDbLine
 10
1.80587
 20
8.03982
 30
0.0
 11
1.75717
 21
8.09071
 31
0.0
  0
LINE
  5
181
100
AcDbEntity
  8
C00-00-00-BLACK
100
AcDbLine
 10
1.86203
 20
8.09239
 30
0.0
 11
1.8144
 21
8.14438
 31
0.0
  0
LINE
  5
182
100
AcDbEntity
  8
C00-00-00-BLACK
100
AcDbLine
 10
1.97765
 20
8.19379
 30
0.0
 11
1.93235
 21
8.24778
 31
0.0
  0
LINE
  5
183
100
AcDbEntity
  8
C00-00-00-BLACK
100
AcDbLine
 10
2.03711
 20
8.24257
 30
0.0
 11
1.99294
 21
8.29758
 31
0.0
  0
LINE
  5
184
100
AcDbEntity
  8
C00-00-00-BLACK
100
AcDbLine
 10
2.15907
 20
8.33615
 30
0.0
 11
2.1174
 21
8.39307
 31
0.0
  0
LINE
  5
185
100
AcDbEntity
  8
C00-00-00-BLACK
100
AcDbLine
 10
2.22163
 20
8.38097
 30
0.0
 11
2.18121
 21
8.43875
 31
0.0
  0
LINE
  5
186
100
AcDbEntity
  8
C00-00-00-BLACK
100
AcDbLine
 10
2.3495
 20
8.46642
 30
0.0
 11
2.31164
 21
8.52587
 31
0.0
  0
LINE
  5
187
100
AcDbEntity
  8
C00-00-00-BLACK
100
AcDbLine
 10
2.41476
 20
8.50706
 30
0.0
 11
2.37819
 21
8.56733
 31
0.0
  0
LINE
  5
188
100
AcDbEntity
  8
C00-00-00-BLACK
100
AcDbLine
 10
2.54796
 20
8.58393
 30
0.0
 11
2.51411
 21
8.64572
 31
0.0
  0
LINE
  5
189
100
AcDbEntity
  8
C00-00-00-BLACK
100
AcDbLine
 10
2.61583
 20
8.62017
 30
0.0
 11
2.58322
 21
8.68272
 31
0.0
  0
LINE
  5
18a
100
AcDbEntity
  8
C00-00-00-BLACK
100
AcDbLine
 10
2.75375
 20
8.68821
 30
0.0
 11
2.72396
 21
8.75211
 31
0.0
  0
LINE
  5
18b
100
AcDbEntity
  8
C00-00-00-BLACK
100
AcDbLine
 10
2.82378
 20
8.71994
 30
0.0
 11
2.79542
 21
8.78444
 31
0.0
  0
LINE
  5
18c
100
AcDbEntity
  8
C00-00-00-BLACK
100
AcDbLine
 10
2.96588
 20
8.77881
 30
0.0
 11
2.94032
 21
8.84451
 31
0.0
  0
LINE
  5
18d
100
AcDbEntity
  8
C00-00-00-BLACK
100
AcDbLine
 10
3.03788
 20
8.80588
 30
0.0
 11
3.01372
 21
8.87213
 31
0.0
  0
LINE
  5
18e
100
AcDbEntity
  8
C00-00-00-BLACK
100
AcDbLine
 10
3.18349
 20
8.85531
 30
0.0
 11
3.16228
 21
8.92258
 31
0.0
  0
LINE
  5
18f
100
AcDbEntity
  8
C00-00-00-BLACK
100
AcDbLine
 10
3.25706
 20
8.87765
 30
0.0
 11
3.23736
 21
8.94531
 31
0.0
  0
LINE
  5
190
100
AcDbEntity
  8
C00-00-00-BLACK
100
AcDbLine
 10
3.4056
 20
8.91749
 30
0.0
 11
3.38883
 21
8.98594
 31
0.0
  0
LINE
  5
191
100
AcDbEntity
  8
C00-00-00-BLACK
100
AcDbLine
 10
3.48053
 20
8.93489
 30
0.0
 11
3.46528
 21
9.00375
 31
0.0
  0
LINE
  5
192
100
AcDbEntity
  8
C00-00-00-BLACK
100
AcDbLine
 10
3.63135
 20
8.9649
 30
0.0
 11
3.61908
 21
9.03435
 31
0.0
  0
LINE
  5
193
100
AcDbEntity
  8
C00-00-00-BLACK
100
AcDbLine
 10
3.70725
 20
8.97743
 30
0.0
 11
3.6965
 21
9.04715
 31
0.0
  0
LINE
  5
194
100
AcDbEntity
  8
C00-00-00-BLACK
100
AcDbLine
 10
3.85969
 20
8.9975
 30
0.0
 11
3.85206
 21
9.0676
 31
0.0
  0
LINE
  5
195
100
AcDbEntity
  8
C00-00-00-BLACK
100
AcDbLine
 10
3.93625
 20
9.00504
 30
0.0
 11
3.93012
 21
9.07531
 31
0.0
  0
LINE
  5
196
100
AcDbEntity
  8
C00-00-00-BLACK
100
AcDbLine
 10
4.08974
 20
9.01514
 30
0.0
 11
4.08664
 21
9.08556
 31
0.0
  0
LINE
  5
197
100
AcDbEntity
  8
C00-00-00-BLACK
100
AcDbLine
 10
4.16656
 20
9.01764
 30
0.0
 11
4.16504
 21
9.08811
 31
0.0
  0
LINE
  5
198
100
AcDbEntity
  8
C00-00-00-BLACK
100
AcDbLine
 10
4.32036
 20
9.01764
 30
0.0
 11
4.32194
 21
9.08811
 31
0.0
  0
LINE
  5
199
100
AcDbEntity
  8
C00-00-00-BLACK
100
AcDbLine
 10
4.39725
 20
9.01514
 30
0.0
 11
4.40028
 21
9.08556
 31
0.0
  0
LINE
  5
19a
100
AcDbEntity
  8
C00-00-00-BLACK
100
AcDbLine
 10
4.55067
 20
9.00504
 30
0.0
 11
4.55686
 21
9.07531
 31
0.0
  0
LINE
  5
19b
100
AcDbEntity
  8
C00-00-00-BLACK
100
AcDbLine
 10
4.62722
 20
8.9975
 30
0.0
 11
4.63493
 21
9.0676
 31
0.0
  0
LINE
  5
19c
100
AcDbEntity
  8
C00-00-00-BLACK
100
AcDbLine
 10
4.77974
 20
8.97743
 30
0.0
 11
4.79042
 21
9.04715
 31
0.0
  0
LINE
  5
19d
100
AcDbEntity
  8
C00-00-00-BLACK
100
AcDbLine
 10
4.85558
 20
8.9649
 30
0.0
 11
4.86783
 21
9.03435
 31
0.0
  0
LINE
  5
19e
100
AcDbEntity
  8
C00-00-00-BLACK
100
AcDbLine
 10
5.00646
 20
8.93489
 30
0.0
 11
5.02169
 21
9.00375
 31
0.0
  0
LINE
  5
19f
100
AcDbEntity
  8
C00-00-00-BLACK
100
AcDbLine
 10
5.08132
 20
8.91749
 30
0.0
 11
5.09808
 21
8.98594
 31
0.0
  0
LINE
  5
1a0
100
AcDbEntity
  8
C00-00-00-BLACK
100
AcDbLine
 10
5.22987
 20
8.87765
 30
0.0
 11
5.24962
 21
8.94531
 31
0.0
  0
LINE
  5
1a1
100
AcDbEntity
  8
C00-00-00-BLACK
100
AcDbLine
 10
5.30344
 20
8.85531
 30
0.0
 11
5.32465
 21
8.92258
 31
0.0
  0
LINE
  5
1a2
100
AcDbEntity
  8
C00-00-00-BLACK
100
AcDbLine
 10
5.44911
 20
8.80588
 30
0.0
 11
5.47319
 21
8.87213
 31
0.0
  0
LINE
  5
1a3
100
AcDbEntity
  8
C00-00-00-BLACK
100
AcDbLine
 10
5.52106
 20
8.77881
 30
0.0
 11
5.5466
 21
8.84451
 31
0.0
  0
LINE
  5
1a4
100
AcDbEntity
  8
C00-00-00-BLACK
100
AcDbLine
 10
5.66314
 20
8.71994
 30
0.0
 11
5.69151
 21
8.78444
 31
0.0
  0
LINE
  5
1a5
100
AcDbEntity
  8
C00-00-00-BLACK
100
AcDbLine
 10
5.73324
 20
8.68821
 30
0.0
 11
5.76303
 21
8.75211
 31
0.0
  0
LINE
  5
1a6
100
AcDbEntity
  8
C00-00-00-BLACK
100
AcDbLine
 10
5.87115
 20
8.62017
 30
0.0
 11
5.90369
 21
8.68272
 31
0.0
  0
LINE
  5
1a7
100
AcDbEntity
  8
C00-00-00-BLACK
100
AcDbLine
 10
5.93896
 20
8.58393
 30
0.0
 11
5.97288
 21
8.64572
 31
0.0
  0
LINE
  5
1a8
100
AcDbEntity
  8
C00-00-00-BLACK
100
AcDbLine
 10
6.07215
 20
8.50706
 30
0.0
 11
6.10872
 21
8.56733
 31
0.0
  0
LINE
  5
1a9
100
AcDbEntity
  8
C00-00-00-BLACK
100
AcDbLine
 10
6.13743
 20
8.46642
 30
0.0
 11
6.17529
 21
8.52587
 31
0.0
  0
LINE
  5
1aa
100
AcDbEntity
  8
C00-00-00-BLACK
100
AcDbLine
 10
6.26535
 20
8.38097
 30
0.0
 11
6.30578
 21
8.43875
 31
0.0
  0
LINE
  5
1ab
100
AcDbEntity
  8
C00-00-00-BLACK
100
AcDbLine
 10
6.32785
 20
8.33615
 30
0.0
 11
6.36951
 21
8.39307
 31
0.0
  0
LINE
  5
1ac
100
AcDbEntity
  8
C00-00-00-BLACK
100
AcDbLine
 10
6.44987
 20
8.24257
 30
0.0
 11
6.49397
 21
8.29758
 31
0.0
  0
LINE
  5
1ad
100
AcDbEntity
  8
C00-00-00-BLACK
100
AcDbLine
 10
6.50933
 20
8.19379
 30
0.0
 11
6.55464
 21
8.24778
 31
0.0
  0
LINE
  5
1ae
100
AcDbEntity
  8
C00-00-00-BLACK
100
AcDbLine
 10
6.62494
 20
8.09239
 30
0.0
 11
6.67258
 21
8.14438
 31
0.0
  0
LINE
  5
1af
100
AcDbEntity
  8
C00-00-00-BLACK
100
AcDbLine
 10
6.68104
 20
8.03982
 30
0.0
 11
6.72982
 21
8.09071
 31
0.0
  0
LINE
  5
1b0
100
AcDbEntity
  8
C00-00-00-BLACK
100
AcDbLine
 10
6.78982
 20
7.93104
 30
0.0
 11
6.84071
 21
7.97982
 31
0.0
  0
LINE
  5
1b1
100
AcDbEntity
  8
C00-00-00-BLACK
100
AcDbLine
 10
6.84239
 20
7.87494
 30
0.0
 11
6.89437
 21
7.92258
 31
0.0
  0
LINE
  5
1b2
100
AcDbEntity
  8
C00-00-00-BLACK
100
AcDbLine
 10
6.94379
 20
7.75933
 30
0.0
 11
6.99778
 21
7.80464
 31
0.0
  0
LINE
  5
1b3
100
AcDbEntity
  8
C00-00-00-BLACK
100
AcDbLine
 10
6.99257
 20
7.69987
 30
0.0
 11
7.04758
 21
7.74397
 31
0.0
  0
LINE
  5
1b4
100
AcDbEntity
  8
C00-00-00-BLACK
100
AcDbLine
 10
7.08615
 20
7.57785
 30
0.0
 11
7.14307
 21
7.61951
 31
0.0
  0
LINE
  5
1b5
100
AcDbEntity
  8
C00-00-00-BLACK
100
AcDbLine
 10
7.13097
 20
7.51535
 30
0.0
 11
7.18875
 21
7.55578
 31
0.0
  0
LINE
  5
1b6
100
AcDbEntity
  8
C00-00-00-BLACK
100
AcDbLine
 10
7.21642
 20
7.38743
 30
0.0
 11
7.27587
 21
7.42529
 31
0.0
  0
LINE
  5
1b7
100
AcDbEntity
  8
C00-00-00-BLACK
100
AcDbLine
 10
7.25706
 20
7.32215
 30
0.0
 11
7.31733
 21
7.35872
 31
0.0
  0
LINE
  5
1b8
100
AcDbEntity
  8
C00-00-00-BLACK
100
AcDbLine
 10
7.33393
 20
7.18896
 30
0.0
 11
7.39572
 21
7.22288
 31
0.0
  0
LINE
  5
1b9
100
AcDbEntity
  8
C00-00-00-BLACK
100
AcDbLine
 10
7.37017
 20
7.12115
 30
0.0
 11
7.43272
 21
7.15369
 31
0.0
  0
LINE
  5
1ba
100
AcDbEntity
  8
C00-00-00-BLACK
100
AcDbLine
 10
7.43821
 20
6.98318
 30
0.0
 11
7.50211
 21
7.01303
 31
0.0
  0
LINE
  5
1bb
100
AcDbEntity
  8
C00-00-00-BLACK
100
AcDbLine
 10
7.46994
 20
6.91314
 30
0.0
 11
7.53444
 21
6.94157
 31
0.0
  0
LINE
  5
1bc
100
AcDbEntity
  8
C00-00-00-BLACK
100
AcDbLine
 10
7.52881
 20
6.77106
 30
0.0
 11
7.59451
 21
6.7966
 31
0.0
  0
LINE
  5
1bd
100
AcDbEntity
  8
C00-00-00-BLACK
100
AcDbLine
 10
7.55588
 20
6.69911
 30
0.0
 11
7.62213
 21
6.72319
 31
0.0
  0
LINE
  5
1be
100
AcDbEntity
  8
C00-00-00-BLACK
100
AcDbLine
 10
7.60531
 20
6.55344
 30
0.0
 11
7.67258
 21
6.57465
 31
0.0
  0
LINE
  5
1bf
100
AcDbEntity
  8
C00-00-00-BLACK
100
AcDbLine
 10
7.62765
 20
6.47987
 30
0.0
 11
7.69531
 21
6.49962
 31
0.0
  0
LINE
  5
1c0
100
AcDbEntity
  8
C00-00-00-BLACK
100
AcDbLine
 10
7.66749
 20
6.33132
 30
0.0
 11
7.73594
 21
6.34808
 31
0.0
  0
LINE
  5
1c1
100
AcDbEntity
  8
C00-00-00-BLACK
100
AcDbLine
 10
7.68489
 20
6.25646
 30
0.0
 11
7.75375
 21
6.27169
 31
0.0
  0
LINE
  5
1c2
100
AcDbEntity
  8
C00-00-00-BLACK
100
AcDbLine
 10
7.7149
 20
6.10558
 30
0.0
 11
7.78435
 21
6.11783
 31
0.0
  0
LINE
  5
1c3
100
AcDbEntity
  8
C00-00-00-BLACK
100
AcDbLine
 10
7.72743
 20
6.02974
 30
0.0
 11
7.79715
 21
6.04042
 31
0.0
  0
LINE
  5
1c4
100
AcDbEntity
  8
C00-00-00-BLACK
100
AcDbLine
 10
7.7475
 20
5.87722
 30
0.0
 11
7.8176
 21
5.88493
 31
0.0
  0
LINE
  5
1c5
100
AcDbEntity
  8
C00-00-00-BLACK
100
AcDbLine
 10
7.75504
 20
5.80067
 30
0.0
 11
7.82531
 21
5.80686
 31
0.0
  0
LINE
  5
1c6
100
AcDbEntity
  8
C00-00-00-BLACK
100
AcDbLine
 10
7.76514
 20
5.64725
 30
0.0
 11
7.83556
 21
5.65028
 31
0.0
  0
LINE
  5
1c7
100
AcDbEntity
  8
C00-00-00-BLACK
100
AcDbLine
 10
7.76764
 20
5.57036
 30
0.0
 11
7.83811
 21
5.57194
 31
0.0
  0
LINE
  5
1c8
100
AcDbEntity
  8
C00-00-00-BLACK
100
AcDbLine
 10
7.76764
 20
5.41656
 30
0.0
 11
7.83811
 21
5.41504
 31
0.0
  0
LINE
  5
1c9
100
AcDbEntity
  8
C00-00-00-BLACK
100
AcDbLine
 10
7.76514
 20
5.33974
 30
0.0
 11
7.83556
 21
5.33664
 31
0.0
  0
LINE
  5
1ca
100
AcDbEntity
  8
C00-00-00-BLACK
100
AcDbLine
 10
7.75504
 20
5.18625
 30
0.0
 11
7.82531
 21
5.18012
 31
0.0
  0
LINE
  5
1cb
100
AcDbEntity
  8
C00-00-00-BLACK
100
AcDbLine
 10
7.7475
 20
5.10969
 30
0.0
 11
7.8176
 21
5.10206
 31
0.0
  0
LINE
  5
1cc
100
AcDbEntity
  8
C00-00-00-BLACK
100
AcDbLine
 10
7.72743
 20
4.95725
 30
0.0
 11
7.79715
 21
4.9465
 31
0.0
  0
LINE
  5
1cd
100
AcDbEntity
  8
C00-00-00-BLACK
100
AcDbLine
 10
7.7149
 20
4.88135
 30
0.0
 11
7.78435
 21
4.86908
 31
0.0
  0
LINE
  5
1ce
100
AcDbEntity
  8
C00-00-00-BLACK
100
AcDbLine
 10
7.68489
 20
4.73053
 30
0.0
 11
7.75375
 21
4.71528
 31
0.0
  0
LINE
  5
1cf
100
AcDbEntity
  8
C00-00-00-BLACK
100
AcDbLine
 10
7.66749
 20
4.6556
 30
0.0
 11
7.73594
 21
4.63883
 31
0.0
  0
LINE
  5
1d0
100
AcDbEntity
  8
C00-00-00-BLACK
100
AcDbLine
 10
7.62765
 20
4.50706
 30
0.0
 11
7.69531
 21
4.48736
 31
0.0
  0
LINE
  5
1d1
100
AcDbEntity
  8
C00-00-00-BLACK
100
AcDbLine
 10
7.60531
 20
4.43349
 30
0.0
 11
7.67258
 21
4.41228
 31
0.0
  0
LINE
  5
1d2
100
AcDbEntity
  8
C00-00-00-BLACK
100
AcDbLine
 10
7.55588
 20
4.28787
 30
0.0
 11
7.62213
 21
4.26372
 31
0.0
  0
LINE
  5
1d3
100
AcDbEntity
  8
C00-00-00-BLACK
100
AcDbLine
 10
7.52881
 20
4.21588
 30
0.0
 11
7.59451
 21
4.19032
 31
0.0
  0
LINE
  5
1d4
100
AcDbEntity
  8
C00-00-00-BLACK
100
AcDbLine
 10
7.46994
 20
4.07378
 30
0.0
 11
7.53444
 21
4.04542
 31
0.0
  0
LINE
  5
1d5
100
AcDbEntity
  8
C00-00-00-BLACK
100
AcDbLine
 10
7.43821
 20
4.00375
 30
0.0
 11
7.50211
 21
3.97396
 31
0.0
  0
LINE
  5
1d6
100
AcDbEntity
  8
C00-00-00-BLACK
100
AcDbLine
 10
7.37017
 20
3.86583
 30
0.0
 11
7.43272
 21
3.83322
 31
0.0
  0
LINE
  5
1d7
100
AcDbEntity
  8
C00-00-00-BLACK
100
AcDbLine
 10
7.33393
 20
3.79796
 30
0.0
 11
7.39572
 21
3.76411
 31
0.0
  0
SPLINE
  5
1d8
100
AcDbEntity
  8
C00-00-00-BLACK
100
AcDbSpline
210
0.0
220
0.0
230
1.0
 70
     0
 71
     3
 72
     8
 73
4
 40
0.0
 40
0.0
 40
0.0
 40
0.0
 40
1.0
 40
1.0
 40
1.0
 40
1.0
 10
7.74349
 20
5.49349
 30
0.0
 10
7.74349
 20
7.42649
 30
0.0
 10
6.17649
 20
8.99349
 30
0.0
 10
4.24349
 20
8.99349
 30
0.0
  0
SPLINE
  5
1d9
100
AcDbEntity
  8
C00-00-00-BLACK
100
AcDbSpline
210
0.0
220
0.0
230
1.0
 70
     0
 71
     3
 72
     8
 73
4
 40
0.0
 40
0.0
 40
0.0
 40
0.0
 40
1.0
 40
1.0
 40
1.0
 40
1.0
 10
4.24349
 20
8.99349
 30
0.0
 10
2.31049
 20
8.99349
 30
0.0
 10
0.743489
 20
7.42649
 30
0.0
 10
0.743489
 20
5.49349
 30
0.0
  0
SPLINE
  5
1da
100
AcDbEntity
  8
C00-00-00-BLACK
100
AcDbSpline
210
0.0
220
0.0
230
1.0
 70
     0
 71
     3
 72
     8
 73
4
 40
0.0
 40
0.0
 40
0.0
 40
0.0
 40
1.0
 40
1.0
 40
1.0
 40
1.0
 10
0.743489
 20
5.49349
 30
0.0
 10
0.743489
 20
3.56049
 30
0.0
 10
2.31049
 20
1.99349
 30
0.0
 10
4.24349
 20
1.99349
 30
0.0
  0
SPLINE
  5
1db
100
AcDbEntity
  8
C00-00-00-BLACK
100
AcDbSpline
210
0.0
220
0.0
230
1.0
 70
     0
 71
     3
 72
     8
 73
4
 40
0.0
 40
0.0
 40
0.0
 40
0.0
 40
1.0
 40
1.0
 40
1.0
 40
1.0
 10
4.24349
 20
1.99349
 30
0.0
 10
6.17649
 20
1.99349
 30
0.0
 10
7.74349
 20
3.56049
 30
0.0
 10
7.74349
 20
5.49349
 30
0.0
  0
LINE
  5
1dc
100
AcDbEntity
  8
C00-00-00-BLACK
100
AcDbLine
 10
7.74349
 20
5.49349
 30
0.0
 11
7.74349
 21
5.49349
 31
0.0
  0
SPLINE
  5
1dd
100
AcDbEntity
  8
C00-00-00-BLACK
100
AcDbSpline
210
0.0
220
0.0
230
1.0
 70
     0
 71
     3
 72
     8
 73
4
 40
0.0
 40
0.0
 40
0.0
 40
0.0
 40
1.0
 40
1.0
 40
1.0
 40
1.0
 10
8.24349
 20
5.49349
 30
0.0
 10
8.24349
 20
7.70264
 30
0.0
 10
6.45264
 20
9.49349
 30
0.0
 10
4.24349
 20
9.49349
 30
0.0
  0
SPLINE
  5
1de
100
AcDbEntity
  8
C00-00-00-BLACK
100
AcDbSpline
210
0.0
220
0.0
230
1.0
 70
     0
 71
     3
 72
     8
 73
4
 40
0.0
 40
0.0
 40
0.0
 40
0.0
 40
1.0
 40
1.0
 40
1.0
 40
1.0
 10
4.24349
 20
9.49349
 30
0.0
 10
2.03435
 20
9.49349
 30
0.0
 10
0.243489
 20
7.70264
 30
0.0
 10
0.243489
 20
5.49349
 30
0.0
  0
SPLINE
  5
1df
100
AcDbEntity
  8
C00-00-00-BLACK
100
AcDbSpline
210
0.0
220
0.0
230
1.0
 70
     0
 71
     3
 72
     8
 73
4
 40
0.0
 40
0.0
 40
0.0
 40
0.0
 40
1.0
 40
1.0
 40
1.0
 40
1.0
 10
0.243489
 20
5.49349
 30
0.0
 10
0.243489
 20
3.28435
 30
0.0
 10
2.03435
 20
1.49349
 30
0.0
 10
4.24349
 20
1.49349
 30
0.0
  0
SPLINE
  5
1e0
100
AcDbEntity
  8
C00-00-00-BLACK
100
AcDbSpline
210
0.0
220
0.0
230
1.0
 70
     0
 71
     3
 72
     8
 73
4
 40
0.0
 40
0.0
 40
0.0
 40
0.0
 40
1.0
 40
1.0
 40
1.0
 40
1.0
 10
4.24349
 20
1.49349
 30
0.0
 10
6.45264
 20
1.49349
 30
0.0
 10
8.24349
 20
3.28435
 30
0.0
 10
8.24349
 20
5.49349
 30
0.0
  0
LINE
  5
1e1
100
AcDbEntity
  8
C00-00-00-BLACK
100
AcDbLine
 10
8.24349
 20
5.49349
 30
0.0
 11
8.24349
 21
5.49349
 31
0.0
  0
LINE
  5
1e2
100
AcDbEntity
  8
C00-00-00-BLACK
100
AcDbLine
 10
2.43658
 20
2.36388
 30
0.0
 11
2.39974
 21
2.30003
 31
0.0
  0
LINE
  5
1e3
100
AcDbEntity
  8
C00-00-00-BLACK
100
AcDbLine
 10
2.47364
 20
2.30057
 30
0.0
 11
2.45572
 21
2.26833
 31
0.0
  0
LINE
  5
1e4
100
AcDbEntity
  8
C00-00-00-BLACK
100
AcDbLine
 10
2.52962
 20
2.27018
 30
0.0
 11
2.51232
 21
2.23762
 31
0.0
  0
LINE
  5
1e5
100
AcDbEntity
  8
C00-00-00-BLACK
100
AcDbLine
 10
2.5861
 20
2.24072
 30
0.0
 11
2.56939
 21
2.2079
 31
0.0
  0
LINE
  5
1e6
100
AcDbEntity
  8
C00-00-00-BLACK
100
AcDbLine
 10
2.64312
 20
2.21229
 30
0.0
 11
2.62696
 21
2.17919
 31
0.0
  0
LINE
  5
1e7
100
AcDbEntity
  8
C00-00-00-BLACK
100
AcDbLine
 10
2.71625
 20
2.21832
 30
0.0
 11
2.68506
 21
2.15147
 31
0.0
  0
LINE
  5
1e8
100
AcDbEntity
  8
C00-00-00-BLACK
100
AcDbLine
 10
2.75863
 20
2.15847
 30
0.0
 11
2.7436
 21
2.12478
 31
0.0
  0
LINE
  5
1e9
100
AcDbEntity
  8
C00-00-00-BLACK
100
AcDbLine
 10
2.81706
 20
2.13303
 30
0.0
 11
2.80263
 21
2.09912
 31
0.0
  0
LINE
  5
1ea
100
AcDbEntity
  8
C00-00-00-BLACK
100
AcDbLine
 10
2.87592
 20
2.10867
 30
0.0
 11
2.86208
 21
2.07449
 31
0.0
  0
LINE
  5
1eb
100
AcDbEntity
  8
C00-00-00-BLACK
100
AcDbLine
 10
2.93522
 20
2.08535
 30
0.0
 11
2.92199
 21
2.05089
 31
0.0
  0
LINE
  5
1ec
100
AcDbEntity
  8
C00-00-00-BLACK
100
AcDbLine
 10
3.00749
 20
2.09765
 30
0.0
 11
2.98226
 21
2.02838
 31
0.0
  0
LINE
  5
1ed
100
AcDbEntity
  8
C00-00-00-BLACK
100
AcDbLine
 10
3.05496
 20
2.04172
 30
0.0
 11
3.04297
 21
2.00689
 31
0.0
  0
LINE
  5
1ee
100
AcDbEntity
  8
C00-00-00-BLACK
100
AcDbLine
 10
3.11535
 20
2.02154
 30
0.0
 11
3.10394
 21
1.98643
 31
0.0
  0
LINE
  5
1ef
100
AcDbEntity
  8
C00-00-00-BLACK
100
AcDbLine
 10
3.17617
 20
2.00239
 30
0.0
 11
3.16536
 21
1.96712
 31
0.0
  0
LINE
  5
1f0
100
AcDbEntity
  8
C00-00-00-BLACK
100
AcDbLine
 10
3.23719
 20
1.98426
 30
0.0
 11
3.22706
 21
1.94883
 31
0.0
  0
LINE
  5
1f1
100
AcDbEntity
  8
C00-00-00-BLACK
100
AcDbLine
 10
3.32725
 20
2.07411
 30
0.0
 11
3.28906
 21
1.93164
 31
0.0
  0
LINE
  5
1f2
100
AcDbEntity
  8
C00-00-00-BLACK
100
AcDbLine
 10
3.36029
 20
1.95128
 30
0.0
 11
3.3514
 21
1.91553
 31
0.0
  0
LINE
  5
1f3
100
AcDbEntity
  8
C00-00-00-BLACK
100
AcDbLine
 10
3.42225
 20
1.93642
 30
0.0
 11
3.41396
 21
1.9005
 31
0.0
  0
LINE
  5
1f4
100
AcDbEntity
  8
C00-00-00-BLACK
100
AcDbLine
 10
3.48449
 20
1.92264
 30
0.0
 11
3.47678
 21
1.88656
 31
0.0
  0
LINE
  5
1f5
100
AcDbEntity
  8
C00-00-00-BLACK
100
AcDbLine
 10
3.54693
 20
1.90994
 30
0.0
 11
3.53988
 21
1.87369
 31
0.0
  0
LINE
  5
1f6
100
AcDbEntity
  8
C00-00-00-BLACK
100
AcDbLine
 10
3.61594
 20
1.93463
 30
0.0
 11
3.60314
 21
1.86197
 31
0.0
  0
LINE
  5
1f7
100
AcDbEntity
  8
C00-00-00-BLACK
100
AcDbLine
 10
3.67236
 20
1.88781
 30
0.0
 11
3.66661
 21
1.8514
 31
0.0
  0
LINE
  5
1f8
100
AcDbEntity
  8
C00-00-00-BLACK
100
AcDbLine
 10
3.7354
 20
1.87836
 30
0.0
 11
3.73025
 21
1.84185
 31
0.0
  0
LINE
  5
1f9
100
AcDbEntity
  8
C00-00-00-BLACK
100
AcDbLine
 10
3.79856
 20
1.87007
 30
0.0
 11
3.79411
 21
1.83344
 31
0.0
  0
LINE
  5
1fa
100
AcDbEntity
  8
C00-00-00-BLACK
100
AcDbLine
 10
3.86187
 20
1.86285
 30
0.0
 11
3.85801
 21
1.82617
 31
0.0
  0
LINE
  5
1fb
100
AcDbEntity
  8
C00-00-00-BLACK
100
AcDbLine
 10
3.9285
 20
1.89344
 30
0.0
 11
3.9221
 21
1.81999
 31
0.0
  0
LINE
  5
1fc
100
AcDbEntity
  8
C00-00-00-BLACK
100
AcDbLine
 10
3.98882
 20
1.85172
 30
0.0
 11
3.98628
 21
1.81494
 31
0.0
  0
LINE
  5
1fd
100
AcDbEntity
  8
C00-00-00-BLACK
100
AcDbLine
 10
4.0524
 20
1.84787
 30
0.0
 11
4.05051
 21
1.81104
 31
0.0
  0
LINE
  5
1fe
100
AcDbEntity
  8
C00-00-00-BLACK
100
AcDbLine
 10
4.11604
 20
1.84506
 30
0.0
 11
4.11481
 21
1.80821
 31
0.0
  0
LINE
  5
1ff
100
AcDbEntity
  8
C00-00-00-BLACK
100
AcDbLine
 10
4.17974
 20
1.84343
 30
0.0
 11
4.17914
 21
1.80653
 31
0.0
  0
LINE
  5
200
100
AcDbEntity
  8
C00-00-00-BLACK
100
AcDbLine
 10
4.24349
 20
1.95344
 30
0.0
 11
4.24349
 21
1.80599
 31
0.0
  0
LINE
  5
201
100
AcDbEntity
  8
C00-00-00-BLACK
100
AcDbLine
 10
4.30718
 20
1.84343
 30
0.0
 11
4.30783
 21
1.80653
 31
0.0
  0
LINE
  5
202
100
AcDbEntity
  8
C00-00-00-BLACK
100
AcDbLine
 10
4.37088
 20
1.84506
 30
0.0
 11
4.37218
 21
1.80821
 31
0.0
  0
LINE
  5
203
100
AcDbEntity
  8
C00-00-00-BLACK
100
AcDbLine
 10
4.43451
 20
1.84787
 30
0.0
 11
4.43647
 21
1.81104
 31
0.0
  0
LINE
  5
204
100
AcDbEntity
  8
C00-00-00-BLACK
100
AcDbLine
 10
4.4981
 20
1.85172
 30
0.0
 11
4.50071
 21
1.81494
 31
0.0
  0
LINE
  5
205
100
AcDbEntity
  8
C00-00-00-BLACK
100
AcDbLine
 10
4.55843
 20
1.89344
 30
0.0
 11
4.56489
 21
1.81999
 31
0.0
  0
LINE
  5
206
100
AcDbEntity
  8
C00-00-00-BLACK
100
AcDbLine
 10
4.62506
 20
1.86285
 30
0.0
 11
4.6289
 21
1.82617
 31
0.0
  0
LINE
  5
207
100
AcDbEntity
  8
C00-00-00-BLACK
100
AcDbLine
 10
4.68836
 20
1.87007
 30
0.0
 11
4.69287
 21
1.83344
 31
0.0
  0
LINE
  5
208
100
AcDbEntity
  8
C00-00-00-BLACK
100
AcDbLine
 10
4.75151
 20
1.87836
 30
0.0
 11
4.75667
 21
1.84185
 31
0.0
  0
LINE
  5
209
100
AcDbEntity
  8
C00-00-00-BLACK
100
AcDbLine
 10
4.81456
 20
1.88781
 30
0.0
 11
4.82031
 21
1.8514
 31
0.0
  0
LINE
  5
20a
100
AcDbEntity
  8
C00-00-00-BLACK
100
AcDbLine
 10
4.87099
 20
1.93463
 30
0.0
 11
4.88379
 21
1.86197
 31
0.0
  0
LINE
  5
20b
100
AcDbEntity
  8
C00-00-00-BLACK
100
AcDbLine
 10
4.94006
 20
1.90994
 30
0.0
 11
4.9471
 21
1.87369
 31
0.0
  0
LINE
  5
20c
100
AcDbEntity
  8
C00-00-00-BLACK
100
AcDbLine
 10
5.0025
 20
1.92264
 30
0.0
 11
5.01014
 21
1.88656
 31
0.0
  0
LINE
  5
20d
100
AcDbEntity
  8
C00-00-00-BLACK
100
AcDbLine
 10
5.06467
 20
1.93642
 30
0.0
 11
5.07297
 21
1.9005
 31
0.0
  0
LINE
  5
20e
100
AcDbEntity
  8
C00-00-00-BLACK
100
AcDbLine
 10
5.12663
 20
1.95128
 30
0.0
 11
5.13558
 21
1.91553
 31
0.0
  0
LINE
  5
20f
100
AcDbEntity
  8
C00-00-00-BLACK
100
AcDbLine
 10
5.17876
 20
2.00288
 30
0.0
 11
5.19786
 21
1.93164
 31
0.0
  0
LINE
  5
210
100
AcDbEntity
  8
C00-00-00-BLACK
100
AcDbLine
 10
5.24972
 20
1.98426
 30
0.0
 11
5.25988
 21
1.94883
 31
0.0
  0
LINE
  5
211
100
AcDbEntity
  8
C00-00-00-BLACK
100
AcDbLine
 10
5.31082
 20
2.00239
 30
0.0
 11
5.32161
 21
1.96712
 31
0.0
  0
LINE
  5
212
100
AcDbEntity
  8
C00-00-00-BLACK
100
AcDbLine
 10
5.37158
 20
2.02154
 30
0.0
 11
5.38297
 21
1.98643
 31
0.0
  0
LINE
  5
213
100
AcDbEntity
  8
C00-00-00-BLACK
100
AcDbLine
 10
5.43201
 20
2.04172
 30
0.0
 11
5.44401
 21
2.00689
 31
0.0
  0
LINE
  5
214
100
AcDbEntity
  8
C00-00-00-BLACK
100
AcDbLine
 10
5.47944
 20
2.09765
 30
0.0
 11
5.50467
 21
2.02838
 31
0.0
  0
LINE
  5
215
100
AcDbEntity
  8
C00-00-00-BLACK
100
AcDbLine
 10
5.55176
 20
2.08535
 30
0.0
 11
5.56494
 21
2.05089
 31
0.0
  0
LINE
  5
216
100
AcDbEntity
  8
C00-00-00-BLACK
100
AcDbLine
 10
5.611
 20
2.10867
 30
0.0
 11
5.62483
 21
2.07449
 31
0.0
  0
LINE
  5
217
100
AcDbEntity
  8
C00-00-00-BLACK
100
AcDbLine
 10
5.66986
 20
2.13303
 30
0.0
 11
5.68431
 21
2.09912
 31
0.0
  0
LINE
  5
218
100
AcDbEntity
  8
C00-00-00-BLACK
100
AcDbLine
 10
5.72831
 20
2.15847
 30
0.0
 11
5.74333
 21
2.12478
 31
0.0
  0
LINE
  5
219
100
AcDbEntity
  8
C00-00-00-BLACK
100
AcDbLine
 10
5.77072
 20
2.21832
 30
0.0
 11
5.80186
 21
2.15147
 31
0.0
  0
LINE
  5
21a
100
AcDbEntity
  8
C00-00-00-BLACK
100
AcDbLine
 10
5.84381
 20
2.21229
 30
0.0
 11
5.85997
 21
2.17919
 31
0.0
  0
LINE
  5
21b
100
AcDbEntity
  8
C00-00-00-BLACK
100
AcDbLine
 10
5.90082
 20
2.24072
 30
0.0
 11
5.91753
 21
2.2079
 31
0.0
  0
LINE
  5
21c
100
AcDbEntity
  8
C00-00-00-BLACK
100
AcDbLine
 10
5.95736
 20
2.27018
 30
0.0
 11
5.97467
 21
2.23762
 31
0.0
  0
LINE
  5
21d
100
AcDbEntity
  8
C00-00-00-BLACK
100
AcDbLine
 10
6.01335
 20
2.30057
 30
0.0
 11
6.03119
 21
2.26833
 31
0.0
  0
LINE
  5
21e
100
AcDbEntity
  8
C00-00-00-BLACK
100
AcDbLine
 10
6.05035
 20
2.36388
 30
0.0
 11
6.08724
 21
2.30003
 31
0.0
  0
SPLINE
  5
21f
100
AcDbEntity
  8
C00-00-00-BLACK
100
AcDbSpline
210
0.0
220
0.0
230
1.0
 70
     0
 71
     3
 72
     8
 73
4
 40
0.0
 40
0.0
 40
0.0
 40
0.0
 40
1.0
 40
1.0
 40
1.0
 40
1.0
 10
0.988336
 20
3.66331
 30
0.0
 10
0.987847
 20
3.66639
 30
0.0
 10
0.987685
 20
3.66721
 30
0.0
 10
0.985406
 20
3.66689
 30
0.0
  0
SPLINE
  5
220
100
AcDbEntity
  8
C00-00-00-BLACK
100
AcDbSpline
210
0.0
220
0.0
230
1.0
 70
     0
 71
     3
 72
     8
 73
4
 40
0.0
 40
0.0
 40
0.0
 40
0.0
 40
1.0
 40
1.0
 40
1.0
 40
1.0
 10
0.985406
 20
3.66689
 30
0.0
 10
0.984104
 20
3.66667
 30
0.0
 10
0.983615
 20
3.66656
 30
0.0
 10
0.982585
 20
3.66439
 30
0.0
  0
LINE
  5
221
100
AcDbEntity
  8
C00-00-00-BLACK
100
AcDbLine
 10
0.982585
 20
3.66439
 30
0.0
 11
0.945258
 21
3.58008
 31
0.0
  0
LINE
  5
222
100
AcDbEntity
  8
C00-00-00-BLACK
100
AcDbLine
 10
0.945258
 20
3.58008
 30
0.0
 11
0.945964
 21
3.57531
 31
0.0
  0
LINE
  5
223
100
AcDbEntity
  8
C00-00-00-BLACK
100
AcDbLine
 10
0.945964
 20
3.57531
 30
0.0
 11
0.98915
 21
3.58203
 31
0.0
  0
LINE
  5
224
100
AcDbEntity
  8
C00-00-00-BLACK
100
AcDbLine
 10
0.98915
 20
3.58203
 30
0.0
 11
0.991482
 21
3.56711
 31
0.0
  0
SPLINE
  5
225
100
AcDbEntity
  8
C00-00-00-BLACK
100
AcDbSpline
210
0.0
220
0.0
230
1.0
 70
     0
 71
     3
 72
     8
 73
4
 40
0.0
 40
0.0
 40
0.0
 40
0.0
 40
1.0
 40
1.0
 40
1.0
 40
1.0
 10
0.991482
 20
3.56711
 30
0.0
 10
0.992404
 20
3.56104
 30
0.0
 10
0.99235
 20
3.55935
 30
0.0
 10
0.98036
 20
3.55751
 30
0.0
  0
LINE
  5
226
100
AcDbEntity
  8
C00-00-00-BLACK
100
AcDbLine
 10
0.98036
 20
3.55751
 30
0.0
 11
0.977106
 21
3.55697
 31
0.0
  0
LINE
  5
227
100
AcDbEntity
  8
C00-00-00-BLACK
100
AcDbLine
 10
0.977106
 20
3.55697
 30
0.0
 11
0.97781
 21
3.55219
 31
0.0
  0
SPLINE
  5
228
100
AcDbEntity
  8
C00-00-00-BLACK
100
AcDbSpline
210
0.0
220
0.0
230
1.0
 70
     0
 71
     3
 72
     8
 73
4
 40
0.0
 40
0.0
 40
0.0
 40
0.0
 40
1.0
 40
1.0
 40
1.0
 40
1.0
 10
0.97781
 20
3.55219
 30
0.0
 10
0.981554
 20
3.55311
 30
0.0
 10
0.994521
 20
3.55518
 30
0.0
 10
0.999132
 20
3.55588
 30
0.0
  0
SPLINE
  5
229
100
AcDbEntity
  8
C00-00-00-BLACK
100
AcDbSpline
210
0.0
220
0.0
230
1.0
 70
     0
 71
     3
 72
     8
 73
4
 40
0.0
 40
0.0
 40
0.0
 40
0.0
 40
1.0
 40
1.0
 40
1.0
 40
1.0
 10
0.999132
 20
3.55588
 30
0.0
 10
1.00369
 20
3.55658
 30
0.0
 10
1.01682
 20
3.55865
 30
0.0
 10
1.02067
 20
3.55892
 30
0.0
  0
LINE
  5
22a
100
AcDbEntity
  8
C00-00-00-BLACK
100
AcDbLine
 10
1.02067
 20
3.55892
 30
0.0
 11
1.01991
 21
3.56369
 31
0.0
  0
LINE
  5
22b
100
AcDbEntity
  8
C00-00-00-BLACK
100
AcDbLine
 10
1.01991
 20
3.56369
 30
0.0
 11
1.0166
 21
3.56315
 31
0.0
  0
SPLINE
  5
22c
100
AcDbEntity
  8
C00-00-00-BLACK
100
AcDbSpline
210
0.0
220
0.0
230
1.0
 70
     0
 71
     3
 72
     8
 73
4
 40
0.0
 40
0.0
 40
0.0
 40
0.0
 40
1.0
 40
1.0
 40
1.0
 40
1.0
 10
1.0166
 20
3.56315
 30
0.0
 10
1.00483
 20
3.56131
 30
0.0
 10
1.00407
 20
3.56288
 30
0.0
 10
1.00309
 20
3.56896
 30
0.0
  0
LINE
  5
22d
100
AcDbEntity
  8
C00-00-00-BLACK
100
AcDbLine
 10
1.00309
 20
3.56896
 30
0.0
 11
1.00076
 21
3.58388
 31
0.0
  0
LINE
  5
22e
100
AcDbEntity
  8
C00-00-00-BLACK
100
AcDbLine
 10
1.00076
 20
3.58388
 30
0.0
 11
1.01736
 21
3.58649
 31
0.0
  0
LINE
  5
22f
100
AcDbEntity
  8
C00-00-00-BLACK
100
AcDbLine
 10
1.01736
 20
3.58649
 30
0.0
 11
1.0166
 21
3.59119
 31
0.0
  0
LINE
  5
230
100
AcDbEntity
  8
C00-00-00-BLACK
100
AcDbLine
 10
1.0166
 20
3.59119
 30
0.0
 11
1.00005
 21
3.58865
 31
0.0
  0
LINE
  5
231
100
AcDbEntity
  8
C00-00-00-BLACK
100
AcDbLine
 10
1.00005
 20
3.58865
 30
0.0
 11
0.988336
 21
3.66331
 31
0.0
  0
LINE
  5
232
100
AcDbEntity
  8
C00-00-00-BLACK
100
AcDbLine
 10
0.979492
 20
3.64882
 30
0.0
 11
0.989204
 21
3.58697
 31
0.0
  0
LINE
  5
233
100
AcDbEntity
  8
C00-00-00-BLACK
100
AcDbLine
 10
0.989204
 20
3.58697
 30
0.0
 11
0.949328
 21
3.58072
 31
0.0
  0
LINE
  5
234
100
AcDbEntity
  8
C00-00-00-BLACK
100
AcDbLine
 10
0.949328
 20
3.58072
 30
0.0
 11
0.979492
 21
3.64882
 31
0.0
  0
SPLINE
  5
235
100
AcDbEntity
  8
C00-00-00-BLACK
100
AcDbSpline
210
0.0
220
0.0
230
1.0
 70
     0
 71
     3
 72
     8
 73
4
 40
0.0
 40
0.0
 40
0.0
 40
0.0
 40
1.0
 40
1.0
 40
1.0
 40
1.0
 10
0.575304
 20
4.55567
 30
0.0
 10
0.582682
 20
4.55447
 30
0.0
 10
0.588433
 20
4.55524
 30
0.0
 10
0.590278
 20
4.55556
 30
0.0
  0
SPLINE
  5
236
100
AcDbEntity
  8
C00-00-00-BLACK
100
AcDbSpline
210
0.0
220
0.0
230
1.0
 70
     0
 71
     3
 72
     8
 73
4
 40
0.0
 40
0.0
 40
0.0
 40
0.0
 40
1.0
 40
1.0
 40
1.0
 40
1.0
 10
0.590278
 20
4.55556
 30
0.0
 10
0.608778
 20
4.55854
 30
0.0
 10
0.618381
 20
4.57406
 30
0.0
 10
0.618001
 20
4.57633
 30
0.0
  0
SPLINE
  5
237
100
AcDbEntity
  8
C00-00-00-BLACK
100
AcDbSpline
210
0.0
220
0.0
230
1.0
 70
     0
 71
     3
 72
     8
 73
4
 40
0.0
 40
0.0
 40
0.0
 40
0.0
 40
1.0
 40
1.0
 40
1.0
 40
1.0
 10
0.618001
 20
4.57633
 30
0.0
 10
0.617947
 20
4.57699
 30
0.0
 10
0.617458
 20
4.57775
 30
0.0
 10
0.616482
 20
4.57758
 30
0.0
  0
SPLINE
  5
238
100
AcDbEntity
  8
C00-00-00-BLACK
100
AcDbSpline
210
0.0
220
0.0
230
1.0
 70
     0
 71
     3
 72
     8
 73
4
 40
0.0
 40
0.0
 40
0.0
 40
0.0
 40
1.0
 40
1.0
 40
1.0
 40
1.0
 10
0.616482
 20
4.57758
 30
0.0
 10
0.616157
 20
4.57753
 30
0.0
 10
0.615831
 20
4.57747
 30
0.0
 10
0.614475
 20
4.57661
 30
0.0
  0
SPLINE
  5
239
100
AcDbEntity
  8
C00-00-00-BLACK
100
AcDbSpline
210
0.0
220
0.0
230
1.0
 70
     0
 71
     3
 72
     8
 73
4
 40
0.0
 40
0.0
 40
0.0
 40
0.0
 40
1.0
 40
1.0
 40
1.0
 40
1.0
 10
0.614475
 20
4.57661
 30
0.0
 10
0.605903
 20
4.57118
 30
0.0
 10
0.598144
 20
4.56939
 30
0.0
 10
0.593858
 20
4.56874
 30
0.0
  0
SPLINE
  5
23a
100
AcDbEntity
  8
C00-00-00-BLACK
100
AcDbSpline
210
0.0
220
0.0
230
1.0
 70
     0
 71
     3
 72
     8
 73
4
 40
0.0
 40
0.0
 40
0.0
 40
0.0
 40
1.0
 40
1.0
 40
1.0
 40
1.0
 10
0.593858
 20
4.56874
 30
0.0
 10
0.583062
 20
4.567
 30
0.0
 10
0.574815
 20
4.56901
 30
0.0
 10
0.571506
 20
4.56982
 30
0.0
  0
SPLINE
  5
23b
100
AcDbEntity
  8
C00-00-00-BLACK
100
AcDbSpline
210
0.0
220
0.0
230
1.0
 70
     0
 71
     3
 72
     8
 73
4
 40
0.0
 40
0.0
 40
0.0
 40
0.0
 40
1.0
 40
1.0
 40
1.0
 40
1.0
 10
0.571506
 20
4.56982
 30
0.0
 10
0.570258
 20
4.57015
 30
0.0
 10
0.569933
 20
4.5701
 30
0.0
 10
0.569769
 20
4.57004
 30
0.0
  0
SPLINE
  5
23c
100
AcDbEntity
  8
C00-00-00-BLACK
100
AcDbSpline
210
0.0
220
0.0
230
1.0
 70
     0
 71
     3
 72
     8
 73
4
 40
0.0
 40
0.0
 40
0.0
 40
0.0
 40
1.0
 40
1.0
 40
1.0
 40
1.0
 10
0.569769
 20
4.57004
 30
0.0
 10
0.568468
 20
4.56982
 30
0.0
 10
0.568631
 20
4.56885
 30
0.0
 10
0.569065
 20
4.56625
 30
0.0
  0
LINE
  5
23d
100
AcDbEntity
  8
C00-00-00-BLACK
100
AcDbLine
 10
0.569065
 20
4.56625
 30
0.0
 11
0.576878
 21
4.51758
 31
0.0
  0
SPLINE
  5
23e
100
AcDbEntity
  8
C00-00-00-BLACK
100
AcDbSpline
210
0.0
220
0.0
230
1.0
 70
     0
 71
     3
 72
     8
 73
4
 40
0.0
 40
0.0
 40
0.0
 40
0.0
 40
1.0
 40
1.0
 40
1.0
 40
1.0
 10
0.576878
 20
4.51758
 30
0.0
 10
0.577365
 20
4.5146
 30
0.0
 10
0.577528
 20
4.51361
 30
0.0
 10
0.579482
 20
4.51394
 30
0.0
  0
SPLINE
  5
23f
100
AcDbEntity
  8
C00-00-00-BLACK
100
AcDbSpline
210
0.0
220
0.0
230
1.0
 70
     0
 71
     3
 72
     8
 73
4
 40
0.0
 40
0.0
 40
0.0
 40
0.0
 40
1.0
 40
1.0
 40
1.0
 40
1.0
 10
0.579482
 20
4.51394
 30
0.0
 10
0.580294
 20
4.51406
 30
0.0
 10
0.580458
 20
4.51426
 30
0.0
 10
0.58176
 20
4.5165
 30
0.0
  0
SPLINE
  5
240
100
AcDbEntity
  8
C00-00-00-BLACK
100
AcDbSpline
210
0.0
220
0.0
230
1.0
 70
     0
 71
     3
 72
     8
 73
4
 40
0.0
 40
0.0
 40
0.0
 40
0.0
 40
1.0
 40
1.0
 40
1.0
 40
1.0
 10
0.58176
 20
4.5165
 30
0.0
 10
0.585286
 20
4.52399
 30
0.0
 10
0.592339
 20
4.52914
 30
0.0
 10
0.600532
 20
4.53043
 30
0.0
  0
SPLINE
  5
241
100
AcDbEntity
  8
C00-00-00-BLACK
100
AcDbSpline
210
0.0
220
0.0
230
1.0
 70
     0
 71
     3
 72
     8
 73
4
 40
0.0
 40
0.0
 40
0.0
 40
0.0
 40
1.0
 40
1.0
 40
1.0
 40
1.0
 10
0.600532
 20
4.53043
 30
0.0
 10
0.609213
 20
4.53185
 30
0.0
 10
0.6148
 20
4.52453
 30
0.0
 10
0.616536
 20
4.52192
 30
0.0
  0
SPLINE
  5
242
100
AcDbEntity
  8
C00-00-00-BLACK
100
AcDbSpline
210
0.0
220
0.0
230
1.0
 70
     0
 71
     3
 72
     8
 73
4
 40
0.0
 40
0.0
 40
0.0
 40
0.0
 40
1.0
 40
1.0
 40
1.0
 40
1.0
 10
0.616536
 20
4.52192
 30
0.0
 10
0.620389
 20
4.516
 30
0.0
 10
0.621853
 20
4.50797
 30
0.0
 10
0.622831
 20
4.50174
 30
0.0
  0
SPLINE
  5
243
100
AcDbEntity
  8
C00-00-00-BLACK
100
AcDbSpline
210
0.0
220
0.0
230
1.0
 70
     0
 71
     3
 72
     8
 73
4
 40
0.0
 40
0.0
 40
0.0
 40
0.0
 40
1.0
 40
1.0
 40
1.0
 40
1.0
 10
0.622831
 20
4.50174
 30
0.0
 10
0.623807
 20
4.49556
 30
0.0
 10
0.625325
 20
4.48617
 30
0.0
 10
0.621961
 20
4.47808
 30
0.0
  0
SPLINE
  5
244
100
AcDbEntity
  8
C00-00-00-BLACK
100
AcDbSpline
210
0.0
220
0.0
230
1.0
 70
     0
 71
     3
 72
     8
 73
4
 40
0.0
 40
0.0
 40
0.0
 40
0.0
 40
1.0
 40
1.0
 40
1.0
 40
1.0
 10
0.621961
 20
4.47808
 30
0.0
 10
0.619303
 20
4.47157
 30
0.0
 10
0.613553
 20
4.46647
 30
0.0
 10
0.606336
 20
4.46528
 30
0.0
  0
SPLINE
  5
245
100
AcDbEntity
  8
C00-00-00-BLACK
100
AcDbSpline
210
0.0
220
0.0
230
1.0
 70
     0
 71
     3
 72
     8
 73
4
 40
0.0
 40
0.0
 40
0.0
 40
0.0
 40
1.0
 40
1.0
 40
1.0
 40
1.0
 10
0.606336
 20
4.46528
 30
0.0
 10
0.59554
 20
4.46354
 30
0.0
 10
0.583658
 20
4.46918
 30
0.0
 10
0.578831
 20
4.48068
 30
0.0
  0
SPLINE
  5
246
100
AcDbEntity
  8
C00-00-00-BLACK
100
AcDbSpline
210
0.0
220
0.0
230
1.0
 70
     0
 71
     3
 72
     8
 73
4
 40
0.0
 40
0.0
 40
0.0
 40
0.0
 40
1.0
 40
1.0
 40
1.0
 40
1.0
 10
0.578831
 20
4.48068
 30
0.0
 10
0.579699
 20
4.48053
 30
0.0
 10
0.580675
 20
4.48053
 30
0.0
 10
0.581489
 20
4.48063
 30
0.0
  0
SPLINE
  5
247
100
AcDbEntity
  8
C00-00-00-BLACK
100
AcDbSpline
210
0.0
220
0.0
230
1.0
 70
     0
 71
     3
 72
     8
 73
4
 40
0.0
 40
0.0
 40
0.0
 40
0.0
 40
1.0
 40
1.0
 40
1.0
 40
1.0
 10
0.581489
 20
4.48063
 30
0.0
 10
0.58431
 20
4.48107
 30
0.0
 10
0.588433
 20
4.48346
 30
0.0
 10
0.587565
 20
4.48899
 30
0.0
  0
SPLINE
  5
248
100
AcDbEntity
  8
C00-00-00-BLACK
100
AcDbSpline
210
0.0
220
0.0
230
1.0
 70
     0
 71
     3
 72
     8
 73
4
 40
0.0
 40
0.0
 40
0.0
 40
0.0
 40
1.0
 40
1.0
 40
1.0
 40
1.0
 10
0.587565
 20
4.48899
 30
0.0
 10
0.58686
 20
4.4936
 30
0.0
 10
0.583279
 20
4.49571
 30
0.0
 10
0.57921
 20
4.49507
 30
0.0
  0
SPLINE
  5
249
100
AcDbEntity
  8
C00-00-00-BLACK
100
AcDbSpline
210
0.0
220
0.0
230
1.0
 70
     0
 71
     3
 72
     8
 73
4
 40
0.0
 40
0.0
 40
0.0
 40
0.0
 40
1.0
 40
1.0
 40
1.0
 40
1.0
 10
0.57921
 20
4.49507
 30
0.0
 10
0.576226
 20
4.49457
 30
0.0
 10
0.572211
 20
4.4924
 30
0.0
 10
0.573242
 20
4.486
 30
0.0
  0
SPLINE
  5
24a
100
AcDbEntity
  8
C00-00-00-BLACK
100
AcDbSpline
210
0.0
220
0.0
230
1.0
 70
     0
 71
     3
 72
     8
 73
4
 40
0.0
 40
0.0
 40
0.0
 40
0.0
 40
1.0
 40
1.0
 40
1.0
 40
1.0
 10
0.573242
 20
4.486
 30
0.0
 10
0.575521
 20
4.47211
 30
0.0
 10
0.589193
 20
4.45801
 30
0.0
 10
0.607422
 20
4.46094
 30
0.0
  0
SPLINE
  5
24b
100
AcDbEntity
  8
C00-00-00-BLACK
100
AcDbSpline
210
0.0
220
0.0
230
1.0
 70
     0
 71
     3
 72
     8
 73
4
 40
0.0
 40
0.0
 40
0.0
 40
0.0
 40
1.0
 40
1.0
 40
1.0
 40
1.0
 10
0.607422
 20
4.46094
 30
0.0
 10
0.625922
 20
4.46392
 30
0.0
 10
0.639649
 20
4.4821
 30
0.0
 10
0.636285
 20
4.50293
 30
0.0
  0
SPLINE
  5
24c
100
AcDbEntity
  8
C00-00-00-BLACK
100
AcDbSpline
210
0.0
220
0.0
230
1.0
 70
     0
 71
     3
 72
     8
 73
4
 40
0.0
 40
0.0
 40
0.0
 40
0.0
 40
1.0
 40
1.0
 40
1.0
 40
1.0
 10
0.636285
 20
4.50293
 30
0.0
 10
0.633137
 20
4.5224
 30
0.0
 10
0.617404
 20
4.53657
 30
0.0
 10
0.600206
 20
4.53381
 30
0.0
  0
SPLINE
  5
24d
100
AcDbEntity
  8
C00-00-00-BLACK
100
AcDbSpline
210
0.0
220
0.0
230
1.0
 70
     0
 71
     3
 72
     8
 73
4
 40
0.0
 40
0.0
 40
0.0
 40
0.0
 40
1.0
 40
1.0
 40
1.0
 40
1.0
 10
0.600206
 20
4.53381
 30
0.0
 10
0.590875
 20
4.53228
 30
0.0
 10
0.58431
 20
4.52701
 30
0.0
 10
0.580783
 20
4.52169
 30
0.0
  0
LINE
  5
24e
100
AcDbEntity
  8
C00-00-00-BLACK
100
AcDbLine
 10
0.580783
 20
4.52169
 30
0.0
 11
0.575304
 21
4.55567
 31
0.0
  0
SPLINE
  5
24f
100
AcDbEntity
  8
C00-00-00-BLACK
100
AcDbSpline
210
0.0
220
0.0
230
1.0
 70
     0
 71
     3
 72
     8
 73
4
 40
0.0
 40
0.0
 40
0.0
 40
0.0
 40
1.0
 40
1.0
 40
1.0
 40
1.0
 10
0.450956
 20
5.49507
 30
0.0
 10
0.444119
 20
5.53651
 30
0.0
 10
0.463162
 20
5.54639
 30
0.0
 10
0.472006
 20
5.54785
 30
0.0
  0
SPLINE
  5
250
100
AcDbEntity
  8
C00-00-00-BLACK
100
AcDbSpline
210
0.0
220
0.0
230
1.0
 70
     0
 71
     3
 72
     8
 73
4
 40
0.0
 40
0.0
 40
0.0
 40
0.0
 40
1.0
 40
1.0
 40
1.0
 40
1.0
 10
0.472006
 20
5.54785
 30
0.0
 10
0.477919
 20
5.54883
 30
0.0
 10
0.484104
 20
5.54801
 30
0.0
 10
0.48801
 20
5.54362
 30
0.0
  0
SPLINE
  5
251
100
AcDbEntity
  8
C00-00-00-BLACK
100
AcDbSpline
210
0.0
220
0.0
230
1.0
 70
     0
 71
     3
 72
     8
 73
4
 40
0.0
 40
0.0
 40
0.0
 40
0.0
 40
1.0
 40
1.0
 40
1.0
 40
1.0
 10
0.48801
 20
5.54362
 30
0.0
 10
0.486057
 20
5.54329
 30
0.0
 10
0.479872
 20
5.54226
 30
0.0
 10
0.480957
 20
5.53554
 30
0.0
  0
SPLINE
  5
252
100
AcDbEntity
  8
C00-00-00-BLACK
100
AcDbSpline
210
0.0
220
0.0
230
1.0
 70
     0
 71
     3
 72
     8
 73
4
 40
0.0
 40
0.0
 40
0.0
 40
0.0
 40
1.0
 40
1.0
 40
1.0
 40
1.0
 10
0.480957
 20
5.53554
 30
0.0
 10
0.481554
 20
5.53196
 30
0.0
 10
0.484537
 20
5.52924
 30
0.0
 10
0.488769
 20
5.52994
 30
0.0
  0
SPLINE
  5
253
100
AcDbEntity
  8
C00-00-00-BLACK
100
AcDbSpline
210
0.0
220
0.0
230
1.0
 70
     0
 71
     3
 72
     8
 73
4
 40
0.0
 40
0.0
 40
0.0
 40
0.0
 40
1.0
 40
1.0
 40
1.0
 40
1.0
 10
0.488769
 20
5.52994
 30
0.0
 10
0.492893
 20
5.53065
 30
0.0
 10
0.495281
 20
5.53353
 30
0.0
 10
0.494467
 20
5.53831
 30
0.0
  0
SPLINE
  5
254
100
AcDbEntity
  8
C00-00-00-BLACK
100
AcDbSpline
210
0.0
220
0.0
230
1.0
 70
     0
 71
     3
 72
     8
 73
4
 40
0.0
 40
0.0
 40
0.0
 40
0.0
 40
1.0
 40
1.0
 40
1.0
 40
1.0
 10
0.494467
 20
5.53831
 30
0.0
 10
0.493056
 20
5.54682
 30
0.0
 10
0.48546
 20
5.55414
 30
0.0
 10
0.471192
 20
5.55176
 30
0.0
  0
SPLINE
  5
255
100
AcDbEntity
  8
C00-00-00-BLACK
100
AcDbSpline
210
0.0
220
0.0
230
1.0
 70
     0
 71
     3
 72
     8
 73
4
 40
0.0
 40
0.0
 40
0.0
 40
0.0
 40
1.0
 40
1.0
 40
1.0
 40
1.0
 10
0.471192
 20
5.55176
 30
0.0
 10
0.450575
 20
5.54833
 30
0.0
 10
0.432454
 20
5.5236
 30
0.0
 10
0.438422
 20
5.48757
 30
0.0
  0
SPLINE
  5
256
100
AcDbEntity
  8
C00-00-00-BLACK
100
AcDbSpline
210
0.0
220
0.0
230
1.0
 70
     0
 71
     3
 72
     8
 73
4
 40
0.0
 40
0.0
 40
0.0
 40
0.0
 40
1.0
 40
1.0
 40
1.0
 40
1.0
 10
0.438422
 20
5.48757
 30
0.0
 10
0.44591
 20
5.44254
 30
0.0
 10
0.467231
 20
5.43565
 30
0.0
 10
0.481174
 20
5.43799
 30
0.0
  0
SPLINE
  5
257
100
AcDbEntity
  8
C00-00-00-BLACK
100
AcDbSpline
210
0.0
220
0.0
230
1.0
 70
     0
 71
     3
 72
     8
 73
4
 40
0.0
 40
0.0
 40
0.0
 40
0.0
 40
1.0
 40
1.0
 40
1.0
 40
1.0
 10
0.481174
 20
5.43799
 30
0.0
 10
0.499024
 20
5.44092
 30
0.0
 10
0.511664
 20
5.45904
 30
0.0
 10
0.508137
 20
5.48031
 30
0.0
  0
SPLINE
  5
258
100
AcDbEntity
  8
C00-00-00-BLACK
100
AcDbSpline
210
0.0
220
0.0
230
1.0
 70
     0
 71
     3
 72
     8
 73
4
 40
0.0
 40
0.0
 40
0.0
 40
0.0
 40
1.0
 40
1.0
 40
1.0
 40
1.0
 10
0.508137
 20
5.48031
 30
0.0
 10
0.504503
 20
5.50211
 30
0.0
 10
0.486871
 20
5.51417
 30
0.0
 10
0.470486
 20
5.51144
 30
0.0
  0
SPLINE
  5
259
100
AcDbEntity
  8
C00-00-00-BLACK
100
AcDbSpline
210
0.0
220
0.0
230
1.0
 70
     0
 71
     3
 72
     8
 73
4
 40
0.0
 40
0.0
 40
0.0
 40
0.0
 40
1.0
 40
1.0
 40
1.0
 40
1.0
 10
0.470486
 20
5.51144
 30
0.0
 10
0.455892
 20
5.509
 30
0.0
 10
0.452582
 20
5.4955
 30
0.0
 10
0.451714
 20
5.49067
 30
0.0
  0
LINE
  5
25a
100
AcDbEntity
  8
C00-00-00-BLACK
100
AcDbLine
 10
0.451714
 20
5.49067
 30
0.0
 11
0.450956
 21
5.49507
 31
0.0
  0
SPLINE
  5
25b
100
AcDbEntity
  8
C00-00-00-BLACK
100
AcDbSpline
210
0.0
220
0.0
230
1.0
 70
     0
 71
     3
 72
     8
 73
4
 40
0.0
 40
0.0
 40
0.0
 40
0.0
 40
1.0
 40
1.0
 40
1.0
 40
1.0
 10
0.480414
 20
5.44239
 30
0.0
 10
0.470107
 20
5.44069
 30
0.0
 10
0.46365
 20
5.44906
 30
0.0
 10
0.461589
 20
5.45225
 30
0.0
  0
SPLINE
  5
25c
100
AcDbEntity
  8
C00-00-00-BLACK
100
AcDbSpline
210
0.0
220
0.0
230
1.0
 70
     0
 71
     3
 72
     8
 73
4
 40
0.0
 40
0.0
 40
0.0
 40
0.0
 40
1.0
 40
1.0
 40
1.0
 40
1.0
 10
0.461589
 20
5.45225
 30
0.0
 10
0.459418
 20
5.45628
 30
0.0
 10
0.456435
 20
5.46397
 30
0.0
 10
0.454536
 20
5.47547
 30
0.0
  0
SPLINE
  5
25d
100
AcDbEntity
  8
C00-00-00-BLACK
100
AcDbSpline
210
0.0
220
0.0
230
1.0
 70
     0
 71
     3
 72
     8
 73
4
 40
0.0
 40
0.0
 40
0.0
 40
0.0
 40
1.0
 40
1.0
 40
1.0
 40
1.0
 10
0.454536
 20
5.47547
 30
0.0
 10
0.452365
 20
5.48844
 30
0.0
 10
0.455621
 20
5.50558
 30
0.0
 10
0.470324
 20
5.50803
 30
0.0
  0
SPLINE
  5
25e
100
AcDbEntity
  8
C00-00-00-BLACK
100
AcDbSpline
210
0.0
220
0.0
230
1.0
 70
     0
 71
     3
 72
     8
 73
4
 40
0.0
 40
0.0
 40
0.0
 40
0.0
 40
1.0
 40
1.0
 40
1.0
 40
1.0
 10
0.470324
 20
5.50803
 30
0.0
 10
0.479329
 20
5.50956
 30
0.0
 10
0.485135
 20
5.50429
 30
0.0
 10
0.488499
 20
5.49914
 30
0.0
  0
SPLINE
  5
25f
100
AcDbEntity
  8
C00-00-00-BLACK
100
AcDbSpline
210
0.0
220
0.0
230
1.0
 70
     0
 71
     3
 72
     8
 73
4
 40
0.0
 40
0.0
 40
0.0
 40
0.0
 40
1.0
 40
1.0
 40
1.0
 40
1.0
 10
0.488499
 20
5.49914
 30
0.0
 10
0.492133
 20
5.49349
 30
0.0
 10
0.493489
 20
5.48529
 30
0.0
 10
0.494629
 20
5.47825
 30
0.0
  0
SPLINE
  5
260
100
AcDbEntity
  8
C00-00-00-BLACK
100
AcDbSpline
210
0.0
220
0.0
230
1.0
 70
     0
 71
     3
 72
     8
 73
4
 40
0.0
 40
0.0
 40
0.0
 40
0.0
 40
1.0
 40
1.0
 40
1.0
 40
1.0
 10
0.494629
 20
5.47825
 30
0.0
 10
0.496039
 20
5.46989
 30
0.0
 10
0.497233
 20
5.46251
 30
0.0
 10
0.495171
 20
5.45578
 30
0.0
  0
SPLINE
  5
261
100
AcDbEntity
  8
C00-00-00-BLACK
100
AcDbSpline
210
0.0
220
0.0
230
1.0
 70
     0
 71
     3
 72
     8
 73
4
 40
0.0
 40
0.0
 40
0.0
 40
0.0
 40
1.0
 40
1.0
 40
1.0
 40
1.0
 10
0.495171
 20
5.45578
 30
0.0
 10
0.49235
 20
5.44721
 30
0.0
 10
0.486925
 20
5.44347
 30
0.0
 10
0.480414
 20
5.44239
 30
0.0
  0
LINE
  5
262
100
AcDbEntity
  8
C00-00-00-BLACK
100
AcDbLine
 10
0.480414
 20
5.44239
 30
0.0
 11
0.480414
 21
5.44239
 31
0.0
  0
LINE
  5
263
100
AcDbEntity
  8
C00-00-00-BLACK
100
AcDbLine
 10
0.629829
 20
6.52463
 30
0.0
 11
0.629178
 21
6.52843
 31
0.0
  0
LINE
  5
264
100
AcDbEntity
  8
C00-00-00-BLACK
100
AcDbLine
 10
0.629178
 20
6.52843
 30
0.0
 11
0.589735
 21
6.52165
 31
0.0
  0
SPLINE
  5
265
100
AcDbEntity
  8
C00-00-00-BLACK
100
AcDbSpline
210
0.0
220
0.0
230
1.0
 70
     0
 71
     3
 72
     8
 73
4
 40
0.0
 40
0.0
 40
0.0
 40
0.0
 40
1.0
 40
1.0
 40
1.0
 40
1.0
 10
0.589735
 20
6.52165
 30
0.0
 10
0.569933
 20
6.51828
 30
0.0
 10
0.569282
 20
6.52035
 30
0.0
 10
0.568088
 20
6.52333
 30
0.0
  0
LINE
  5
266
100
AcDbEntity
  8
C00-00-00-BLACK
100
AcDbLine
 10
0.568088
 20
6.52333
 30
0.0
 11
0.564453
 21
6.52274
 31
0.0
  0
LINE
  5
267
100
AcDbEntity
  8
C00-00-00-BLACK
100
AcDbLine
 10
0.564453
 20
6.52274
 30
0.0
 11
0.564996
 21
6.48915
 31
0.0
  0
LINE
  5
268
100
AcDbEntity
  8
C00-00-00-BLACK
100
AcDbLine
 10
0.564996
 20
6.48915
 30
0.0
 11
0.568576
 21
6.48975
 31
0.0
  0
SPLINE
  5
269
100
AcDbEntity
  8
C00-00-00-BLACK
100
AcDbSpline
210
0.0
220
0.0
230
1.0
 70
     0
 71
     3
 72
     8
 73
4
 40
0.0
 40
0.0
 40
0.0
 40
0.0
 40
1.0
 40
1.0
 40
1.0
 40
1.0
 10
0.568576
 20
6.48975
 30
0.0
 10
0.568576
 20
6.49278
 30
0.0
 10
0.568306
 20
6.50319
 30
0.0
 10
0.57015
 20
6.50537
 30
0.0
  0
SPLINE
  5
26a
100
AcDbEntity
  8
C00-00-00-BLACK
100
AcDbSpline
210
0.0
220
0.0
230
1.0
 70
     0
 71
     3
 72
     8
 73
4
 40
0.0
 40
0.0
 40
0.0
 40
0.0
 40
1.0
 40
1.0
 40
1.0
 40
1.0
 10
0.57015
 20
6.50537
 30
0.0
 10
0.571289
 20
6.50657
 30
0.0
 10
0.58355
 20
6.50863
 30
0.0
 10
0.585829
 20
6.50906
 30
0.0
  0
LINE
  5
26b
100
AcDbEntity
  8
C00-00-00-BLACK
100
AcDbLine
 10
0.585829
 20
6.50906
 30
0.0
 11
0.620551
 21
6.51497
 31
0.0
  0
LINE
  5
26c
100
AcDbEntity
  8
C00-00-00-BLACK
100
AcDbLine
 10
0.620551
 20
6.51497
 30
0.0
 11
0.607422
 21
6.48714
 31
0.0
  0
SPLINE
  5
26d
100
AcDbEntity
  8
C00-00-00-BLACK
100
AcDbSpline
210
0.0
220
0.0
230
1.0
 70
     0
 71
     3
 72
     8
 73
4
 40
0.0
 40
0.0
 40
0.0
 40
0.0
 40
1.0
 40
1.0
 40
1.0
 40
1.0
 10
0.607422
 20
6.48714
 30
0.0
 10
0.604113
 20
6.47999
 30
0.0
 10
0.592122
 20
6.45036
 30
0.0
 10
0.597385
 20
6.41954
 30
0.0
  0
SPLINE
  5
26e
100
AcDbEntity
  8
C00-00-00-BLACK
100
AcDbSpline
210
0.0
220
0.0
230
1.0
 70
     0
 71
     3
 72
     8
 73
4
 40
0.0
 40
0.0
 40
0.0
 40
0.0
 40
1.0
 40
1.0
 40
1.0
 40
1.0
 10
0.597385
 20
6.41954
 30
0.0
 10
0.597711
 20
6.41775
 30
0.0
 10
0.598796
 20
6.41118
 30
0.0
 10
0.605524
 20
6.41238
 30
0.0
  0
SPLINE
  5
26f
100
AcDbEntity
  8
C00-00-00-BLACK
100
AcDbSpline
210
0.0
220
0.0
230
1.0
 70
     0
 71
     3
 72
     8
 73
4
 40
0.0
 40
0.0
 40
0.0
 40
0.0
 40
1.0
 40
1.0
 40
1.0
 40
1.0
 10
0.605524
 20
6.41238
 30
0.0
 10
0.612414
 20
6.41351
 30
0.0
 10
0.611328
 20
6.41992
 30
0.0
 10
0.610949
 20
6.42204
 30
0.0
  0
LINE
  5
270
100
AcDbEntity
  8
C00-00-00-BLACK
100
AcDbLine
 10
0.610949
 20
6.42204
 30
0.0
 11
0.609538
 21
6.43024
 31
0.0
  0
SPLINE
  5
271
100
AcDbEntity
  8
C00-00-00-BLACK
100
AcDbSpline
210
0.0
220
0.0
230
1.0
 70
     0
 71
     3
 72
     8
 73
4
 40
0.0
 40
0.0
 40
0.0
 40
0.0
 40
1.0
 40
1.0
 40
1.0
 40
1.0
 10
0.609538
 20
6.43024
 30
0.0
 10
0.605414
 20
6.45458
 30
0.0
 10
0.606065
 20
6.47428
 30
0.0
 10
0.611925
 20
6.48654
 30
0.0
  0
LINE
  5
272
100
AcDbEntity
  8
C00-00-00-BLACK
100
AcDbLine
 10
0.611925
 20
6.48654
 30
0.0
 11
0.629829
 21
6.52463
 31
0.0
  0
SPLINE
  5
273
100
AcDbEntity
  8
C00-00-00-BLACK
100
AcDbSpline
210
0.0
220
0.0
230
1.0
 70
     0
 71
     3
 72
     8
 73
4
 40
0.0
 40
0.0
 40
0.0
 40
0.0
 40
1.0
 40
1.0
 40
1.0
 40
1.0
 10
0.984212
 20
7.38704
 30
0.0
 10
0.991644
 20
7.39285
 30
0.0
 10
1.00223
 20
7.4025
 30
0.0
 10
0.999837
 20
7.41624
 30
0.0
  0
SPLINE
  5
274
100
AcDbEntity
  8
C00-00-00-BLACK
100
AcDbSpline
210
0.0
220
0.0
230
1.0
 70
     0
 71
     3
 72
     8
 73
4
 40
0.0
 40
0.0
 40
0.0
 40
0.0
 40
1.0
 40
1.0
 40
1.0
 40
1.0
 10
0.999837
 20
7.41624
 30
0.0
 10
0.997342
 20
7.43044
 30
0.0
 10
0.981879
 20
7.43787
 30
0.0
 10
0.966851
 20
7.43522
 30
0.0
  0
SPLINE
  5
275
100
AcDbEntity
  8
C00-00-00-BLACK
100
AcDbSpline
210
0.0
220
0.0
230
1.0
 70
     0
 71
     3
 72
     8
 73
4
 40
0.0
 40
0.0
 40
0.0
 40
0.0
 40
1.0
 40
1.0
 40
1.0
 40
1.0
 10
0.966851
 20
7.43522
 30
0.0
 10
0.950629
 20
7.4324
 30
0.0
 10
0.939996
 20
7.41824
 30
0.0
 10
0.9426
 20
7.40332
 30
0.0
  0
SPLINE
  5
276
100
AcDbEntity
  8
C00-00-00-BLACK
100
AcDbSpline
210
0.0
220
0.0
230
1.0
 70
     0
 71
     3
 72
     8
 73
4
 40
0.0
 40
0.0
 40
0.0
 40
0.0
 40
1.0
 40
1.0
 40
1.0
 40
1.0
 10
0.9426
 20
7.40332
 30
0.0
 10
0.943576
 20
7.39779
 30
0.0
 10
0.946181
 20
7.39253
 30
0.0
 10
0.951714
 20
7.38775
 30
0.0
  0
SPLINE
  5
277
100
AcDbEntity
  8
C00-00-00-BLACK
100
AcDbSpline
210
0.0
220
0.0
230
1.0
 70
     0
 71
     3
 72
     8
 73
4
 40
0.0
 40
0.0
 40
0.0
 40
0.0
 40
1.0
 40
1.0
 40
1.0
 40
1.0
 10
0.951714
 20
7.38775
 30
0.0
 10
0.953885
 20
7.3859
 30
0.0
 10
0.954101
 20
7.38579
 30
0.0
 10
0.96696
 20
7.37978
 30
0.0
  0
SPLINE
  5
278
100
AcDbEntity
  8
C00-00-00-BLACK
100
AcDbSpline
210
0.0
220
0.0
230
1.0
 70
     0
 71
     3
 72
     8
 73
4
 40
0.0
 40
0.0
 40
0.0
 40
0.0
 40
1.0
 40
1.0
 40
1.0
 40
1.0
 10
0.96696
 20
7.37978
 30
0.0
 10
0.952365
 20
7.36962
 30
0.0
 10
0.946126
 20
7.35726
 30
0.0
 10
0.948188
 20
7.34532
 30
0.0
  0
SPLINE
  5
279
100
AcDbEntity
  8
C00-00-00-BLACK
100
AcDbSpline
210
0.0
220
0.0
230
1.0
 70
     0
 71
     3
 72
     8
 73
4
 40
0.0
 40
0.0
 40
0.0
 40
0.0
 40
1.0
 40
1.0
 40
1.0
 40
1.0
 10
0.948188
 20
7.34532
 30
0.0
 10
0.951226
 20
7.32796
 30
0.0
 10
0.969672
 20
7.3201
 30
0.0
 10
0.986328
 20
7.32303
 30
0.0
  0
SPLINE
  5
27a
100
AcDbEntity
  8
C00-00-00-BLACK
100
AcDbSpline
210
0.0
220
0.0
230
1.0
 70
     0
 71
     3
 72
     8
 73
4
 40
0.0
 40
0.0
 40
0.0
 40
0.0
 40
1.0
 40
1.0
 40
1.0
 40
1.0
 10
0.986328
 20
7.32303
 30
0.0
 10
1.0045
 20
7.32617
 30
0.0
 10
1.01736
 20
7.34229
 30
0.0
 10
1.01432
 20
7.35943
 30
0.0
  0
SPLINE
  5
27b
100
AcDbEntity
  8
C00-00-00-BLACK
100
AcDbSpline
210
0.0
220
0.0
230
1.0
 70
     0
 71
     3
 72
     8
 73
4
 40
0.0
 40
0.0
 40
0.0
 40
0.0
 40
1.0
 40
1.0
 40
1.0
 40
1.0
 10
1.01432
 20
7.35943
 30
0.0
 10
1.01139
 20
7.37614
 30
0.0
 10
0.998372
 20
7.3814
 30
0.0
 10
0.984212
 20
7.38704
 30
0.0
  0
LINE
  5
27c
100
AcDbEntity
  8
C00-00-00-BLACK
100
AcDbLine
 10
0.984212
 20
7.38704
 30
0.0
 11
0.984212
 21
7.38704
 31
0.0
  0
SPLINE
  5
27d
100
AcDbEntity
  8
C00-00-00-BLACK
100
AcDbSpline
210
0.0
220
0.0
230
1.0
 70
     0
 71
     3
 72
     8
 73
4
 40
0.0
 40
0.0
 40
0.0
 40
0.0
 40
1.0
 40
1.0
 40
1.0
 40
1.0
 10
0.959364
 20
7.39785
 30
0.0
 10
0.956976
 20
7.39893
 30
0.0
 10
0.949707
 20
7.40207
 30
0.0
 10
0.948296
 20
7.41004
 30
0.0
  0
SPLINE
  5
27e
100
AcDbEntity
  8
C00-00-00-BLACK
100
AcDbSpline
210
0.0
220
0.0
230
1.0
 70
     0
 71
     3
 72
     8
 73
4
 40
0.0
 40
0.0
 40
0.0
 40
0.0
 40
1.0
 40
1.0
 40
1.0
 40
1.0
 10
0.948296
 20
7.41004
 30
0.0
 10
0.946451
 20
7.42068
 30
0.0
 10
0.956381
 20
7.42936
 30
0.0
 10
0.967339
 20
7.43126
 30
0.0
  0
SPLINE
  5
27f
100
AcDbEntity
  8
C00-00-00-BLACK
100
AcDbSpline
210
0.0
220
0.0
230
1.0
 70
     0
 71
     3
 72
     8
 73
4
 40
0.0
 40
0.0
 40
0.0
 40
0.0
 40
1.0
 40
1.0
 40
1.0
 40
1.0
 10
0.967339
 20
7.43126
 30
0.0
 10
0.979113
 20
7.43332
 30
0.0
 10
0.991103
 20
7.42671
 30
0.0
 10
0.993164
 20
7.41487
 30
0.0
  0
SPLINE
  5
280
100
AcDbEntity
  8
C00-00-00-BLACK
100
AcDbSpline
210
0.0
220
0.0
230
1.0
 70
     0
 71
     3
 72
     8
 73
4
 40
0.0
 40
0.0
 40
0.0
 40
0.0
 40
1.0
 40
1.0
 40
1.0
 40
1.0
 10
0.993164
 20
7.41487
 30
0.0
 10
0.9949
 20
7.40494
 30
0.0
 10
0.989094
 20
7.39567
 30
0.0
 10
0.980524
 20
7.38872
 30
0.0
  0
LINE
  5
281
100
AcDbEntity
  8
C00-00-00-BLACK
100
AcDbLine
 10
0.980524
 20
7.38872
 30
0.0
 11
0.959364
 21
7.39785
 31
0.0
  0
SPLINE
  5
282
100
AcDbEntity
  8
C00-00-00-BLACK
100
AcDbSpline
210
0.0
220
0.0
230
1.0
 70
     0
 71
     3
 72
     8
 73
4
 40
0.0
 40
0.0
 40
0.0
 40
0.0
 40
1.0
 40
1.0
 40
1.0
 40
1.0
 10
0.970757
 20
7.3781
 30
0.0
 10
0.975694
 20
7.37592
 30
0.0
 10
0.987901
 20
7.37082
 30
0.0
 10
0.992839
 20
7.36865
 30
0.0
  0
SPLINE
  5
283
100
AcDbEntity
  8
C00-00-00-BLACK
100
AcDbSpline
210
0.0
220
0.0
230
1.0
 70
     0
 71
     3
 72
     8
 73
4
 40
0.0
 40
0.0
 40
0.0
 40
0.0
 40
1.0
 40
1.0
 40
1.0
 40
1.0
 10
0.992839
 20
7.36865
 30
0.0
 10
0.997558
 20
7.36664
 30
0.0
 10
1.00597
 20
7.3629
 30
0.0
 10
1.00776
 20
7.35286
 30
0.0
  0
SPLINE
  5
284
100
AcDbEntity
  8
C00-00-00-BLACK
100
AcDbSpline
210
0.0
220
0.0
230
1.0
 70
     0
 71
     3
 72
     8
 73
4
 40
0.0
 40
0.0
 40
0.0
 40
0.0
 40
1.0
 40
1.0
 40
1.0
 40
1.0
 10
1.00776
 20
7.35286
 30
0.0
 10
1.00993
 20
7.34044
 30
0.0
 10
0.998807
 20
7.32975
 30
0.0
 10
0.985732
 20
7.32742
 30
0.0
  0
SPLINE
  5
285
100
AcDbEntity
  8
C00-00-00-BLACK
100
AcDbSpline
210
0.0
220
0.0
230
1.0
 70
     0
 71
     3
 72
     8
 73
4
 40
0.0
 40
0.0
 40
0.0
 40
0.0
 40
1.0
 40
1.0
 40
1.0
 40
1.0
 10
0.985732
 20
7.32742
 30
0.0
 10
0.971843
 20
7.32503
 30
0.0
 10
0.958117
 20
7.33306
 30
0.0
 10
0.955729
 20
7.34662
 30
0.0
  0
SPLINE
  5
286
100
AcDbEntity
  8
C00-00-00-BLACK
100
AcDbSpline
210
0.0
220
0.0
230
1.0
 70
     0
 71
     3
 72
     8
 73
4
 40
0.0
 40
0.0
 40
0.0
 40
0.0
 40
1.0
 40
1.0
 40
1.0
 40
1.0
 10
0.955729
 20
7.34662
 30
0.0
 10
0.953504
 20
7.35938
 30
0.0
 10
0.960992
 20
7.37131
 30
0.0
 10
0.970811
 20
7.3781
 30
0.0
  0
LINE
  5
287
100
AcDbEntity
  8
C00-00-00-BLACK
100
AcDbLine
 10
0.970811
 20
7.3781
 30
0.0
 11
0.970757
 21
7.3781
 31
0.0
  0
SPLINE
  5
288
100
AcDbEntity
  8
C00-00-00-BLACK
100
AcDbSpline
210
0.0
220
0.0
230
1.0
 70
     0
 71
     3
 72
     8
 73
4
 40
0.0
 40
0.0
 40
0.0
 40
0.0
 40
1.0
 40
1.0
 40
1.0
 40
1.0
 10
1.59847
 20
8.15831
 30
0.0
 10
1.60542
 20
8.11974
 30
0.0
 10
1.58968
 20
8.10867
 30
0.0
 10
1.57992
 20
8.10688
 30
0.0
  0
SPLINE
  5
289
100
AcDbEntity
  8
C00-00-00-BLACK
100
AcDbSpline
210
0.0
220
0.0
230
1.0
 70
     0
 71
     3
 72
     8
 73
4
 40
0.0
 40
0.0
 40
0.0
 40
0.0
 40
1.0
 40
1.0
 40
1.0
 40
1.0
 10
1.57992
 20
8.10688
 30
0.0
 10
1.57596
 20
8.10618
 30
0.0
 10
1.56722
 20
8.10514
 30
0.0
 10
1.56213
 20
8.11014
 30
0.0
  0
LINE
  5
28a
100
AcDbEntity
  8
C00-00-00-BLACK
100
AcDbLine
 10
1.56213
 20
8.11014
 30
0.0
 11
1.5631
 21
8.11029
 31
0.0
  0
SPLINE
  5
28b
100
AcDbEntity
  8
C00-00-00-BLACK
100
AcDbSpline
210
0.0
220
0.0
230
1.0
 70
     0
 71
     3
 72
     8
 73
4
 40
0.0
 40
0.0
 40
0.0
 40
0.0
 40
1.0
 40
1.0
 40
1.0
 40
1.0
 10
1.5631
 20
8.11029
 30
0.0
 10
1.56429
 20
8.11019
 30
0.0
 10
1.56999
 20
8.11219
 30
0.0
 10
1.5689
 20
8.11828
 30
0.0
  0
SPLINE
  5
28c
100
AcDbEntity
  8
C00-00-00-BLACK
100
AcDbSpline
210
0.0
220
0.0
230
1.0
 70
     0
 71
     3
 72
     8
 73
4
 40
0.0
 40
0.0
 40
0.0
 40
0.0
 40
1.0
 40
1.0
 40
1.0
 40
1.0
 10
1.5689
 20
8.11828
 30
0.0
 10
1.56825
 20
8.12185
 30
0.0
 10
1.56526
 20
8.12451
 30
0.0
 10
1.56099
 20
8.12375
 30
0.0
  0
SPLINE
  5
28d
100
AcDbEntity
  8
C00-00-00-BLACK
100
AcDbSpline
210
0.0
220
0.0
230
1.0
 70
     0
 71
     3
 72
     8
 73
4
 40
0.0
 40
0.0
 40
0.0
 40
0.0
 40
1.0
 40
1.0
 40
1.0
 40
1.0
 10
1.56099
 20
8.12375
 30
0.0
 10
1.55675
 20
8.12299
 30
0.0
 10
1.55464
 20
8.11974
 30
0.0
 10
1.55539
 20
8.1155
 30
0.0
  0
SPLINE
  5
28e
100
AcDbEntity
  8
C00-00-00-BLACK
100
AcDbSpline
210
0.0
220
0.0
230
1.0
 70
     0
 71
     3
 72
     8
 73
4
 40
0.0
 40
0.0
 40
0.0
 40
0.0
 40
1.0
 40
1.0
 40
1.0
 40
1.0
 10
1.55539
 20
8.1155
 30
0.0
 10
1.55718
 20
8.10536
 30
0.0
 10
1.56662
 20
8.09993
 30
0.0
 10
1.58083
 20
8.10254
 30
0.0
  0
SPLINE
  5
28f
100
AcDbEntity
  8
C00-00-00-BLACK
100
AcDbSpline
210
0.0
220
0.0
230
1.0
 70
     0
 71
     3
 72
     8
 73
4
 40
0.0
 40
0.0
 40
0.0
 40
0.0
 40
1.0
 40
1.0
 40
1.0
 40
1.0
 10
1.58083
 20
8.10254
 30
0.0
 10
1.60124
 20
8.10618
 30
0.0
 10
1.61714
 20
8.13151
 30
0.0
 10
1.61074
 20
8.16694
 30
0.0
  0
SPLINE
  5
290
100
AcDbEntity
  8
C00-00-00-BLACK
100
AcDbSpline
210
0.0
220
0.0
230
1.0
 70
     0
 71
     3
 72
     8
 73
4
 40
0.0
 40
0.0
 40
0.0
 40
0.0
 40
1.0
 40
1.0
 40
1.0
 40
1.0
 10
1.61074
 20
8.16694
 30
0.0
 10
1.60281
 20
8.21089
 30
0.0
 10
1.58251
 20
8.21853
 30
0.0
 10
1.56814
 20
8.21599
 30
0.0
  0
SPLINE
  5
291
100
AcDbEntity
  8
C00-00-00-BLACK
100
AcDbSpline
210
0.0
220
0.0
230
1.0
 70
     0
 71
     3
 72
     8
 73
4
 40
0.0
 40
0.0
 40
0.0
 40
0.0
 40
1.0
 40
1.0
 40
1.0
 40
1.0
 10
1.56814
 20
8.21599
 30
0.0
 10
1.55018
 20
8.21272
 30
0.0
 10
1.53706
 20
8.19482
 30
0.0
 10
1.5409
 20
8.17329
 30
0.0
  0
SPLINE
  5
292
100
AcDbEntity
  8
C00-00-00-BLACK
100
AcDbSpline
210
0.0
220
0.0
230
1.0
 70
     0
 71
     3
 72
     8
 73
4
 40
0.0
 40
0.0
 40
0.0
 40
0.0
 40
1.0
 40
1.0
 40
1.0
 40
1.0
 10
1.5409
 20
8.17329
 30
0.0
 10
1.54482
 20
8.15169
 30
0.0
 10
1.56267
 20
8.13975
 30
0.0
 10
1.579
 20
8.14268
 30
0.0
  0
SPLINE
  5
293
100
AcDbEntity
  8
C00-00-00-BLACK
100
AcDbSpline
210
0.0
220
0.0
230
1.0
 70
     0
 71
     3
 72
     8
 73
4
 40
0.0
 40
0.0
 40
0.0
 40
0.0
 40
1.0
 40
1.0
 40
1.0
 40
1.0
 10
1.579
 20
8.14268
 30
0.0
 10
1.5911
 20
8.14486
 30
0.0
 10
1.59571
 20
8.15479
 30
0.0
 10
1.5975
 20
8.16374
 30
0.0
  0
LINE
  5
294
100
AcDbEntity
  8
C00-00-00-BLACK
100
AcDbLine
 10
1.5975
 20
8.16374
 30
0.0
 11
1.59847
 21
8.15831
 31
0.0
  0
SPLINE
  5
295
100
AcDbEntity
  8
C00-00-00-BLACK
100
AcDbSpline
210
0.0
220
0.0
230
1.0
 70
     0
 71
     3
 72
     8
 73
4
 40
0.0
 40
0.0
 40
0.0
 40
0.0
 40
1.0
 40
1.0
 40
1.0
 40
1.0
 10
1.5791
 20
8.14606
 30
0.0
 10
1.56879
 20
8.14421
 30
0.0
 10
1.56288
 20
8.15175
 30
0.0
 10
1.56088
 20
8.15457
 30
0.0
  0
SPLINE
  5
296
100
AcDbEntity
  8
C00-00-00-BLACK
100
AcDbSpline
210
0.0
220
0.0
230
1.0
 70
     0
 71
     3
 72
     8
 73
4
 40
0.0
 40
0.0
 40
0.0
 40
0.0
 40
1.0
 40
1.0
 40
1.0
 40
1.0
 10
1.56088
 20
8.15457
 30
0.0
 10
1.55712
 20
8.16032
 30
0.0
 10
1.55572
 20
8.16818
 30
0.0
 10
1.55436
 20
8.17551
 30
0.0
  0
SPLINE
  5
297
100
AcDbEntity
  8
C00-00-00-BLACK
100
AcDbSpline
210
0.0
220
0.0
230
1.0
 70
     0
 71
     3
 72
     8
 73
4
 40
0.0
 40
0.0
 40
0.0
 40
0.0
 40
1.0
 40
1.0
 40
1.0
 40
1.0
 10
1.55436
 20
8.17551
 30
0.0
 10
1.55274
 20
8.18468
 30
0.0
 10
1.55132
 20
8.19249
 30
0.0
 10
1.55436
 20
8.19997
 30
0.0
  0
SPLINE
  5
298
100
AcDbEntity
  8
C00-00-00-BLACK
100
AcDbSpline
210
0.0
220
0.0
230
1.0
 70
     0
 71
     3
 72
     8
 73
4
 40
0.0
 40
0.0
 40
0.0
 40
0.0
 40
1.0
 40
1.0
 40
1.0
 40
1.0
 10
1.55436
 20
8.19997
 30
0.0
 10
1.55647
 20
8.20492
 30
0.0
 10
1.56006
 20
8.21044
 30
0.0
 10
1.5689
 20
8.21203
 30
0.0
  0
SPLINE
  5
299
100
AcDbEntity
  8
C00-00-00-BLACK
100
AcDbSpline
210
0.0
220
0.0
230
1.0
 70
     0
 71
     3
 72
     8
 73
4
 40
0.0
 40
0.0
 40
0.0
 40
0.0
 40
1.0
 40
1.0
 40
1.0
 40
1.0
 10
1.5689
 20
8.21203
 30
0.0
 10
1.57818
 20
8.21371
 30
0.0
 10
1.58442
 20
8.20638
 30
0.0
 10
1.58669
 20
8.20296
 30
0.0
  0
SPLINE
  5
29a
100
AcDbEntity
  8
C00-00-00-BLACK
100
AcDbSpline
210
0.0
220
0.0
230
1.0
 70
     0
 71
     3
 72
     8
 73
4
 40
0.0
 40
0.0
 40
0.0
 40
0.0
 40
1.0
 40
1.0
 40
1.0
 40
1.0
 10
1.58669
 20
8.20296
 30
0.0
 10
1.59142
 20
8.19553
 30
0.0
 10
1.59392
 20
8.18164
 30
0.0
 10
1.59435
 20
8.17919
 30
0.0
  0
SPLINE
  5
29b
100
AcDbEntity
  8
C00-00-00-BLACK
100
AcDbSpline
210
0.0
220
0.0
230
1.0
 70
     0
 71
     3
 72
     8
 73
4
 40
0.0
 40
0.0
 40
0.0
 40
0.0
 40
1.0
 40
1.0
 40
1.0
 40
1.0
 10
1.59435
 20
8.17919
 30
0.0
 10
1.59685
 20
8.16547
 30
0.0
 10
1.59343
 20
8.14865
 30
0.0
 10
1.57904
 20
8.14606
 30
0.0
  0
LINE
  5
29c
100
AcDbEntity
  8
C00-00-00-BLACK
100
AcDbLine
 10
1.57904
 20
8.14606
 30
0.0
 11
1.5791
 21
8.14606
 31
0.0
  0
SPLINE
  5
29d
100
AcDbEntity
  8
C00-00-00-BLACK
100
AcDbSpline
210
0.0
220
0.0
230
1.0
 70
     0
 71
     3
 72
     8
 73
4
 40
0.0
 40
0.0
 40
0.0
 40
0.0
 40
1.0
 40
1.0
 40
1.0
 40
1.0
 10
2.31381
 20
8.80642
 30
0.0
 10
2.3131
 20
8.81017
 30
0.0
 10
2.31304
 20
8.81033
 30
0.0
 10
2.30979
 20
8.80974
 30
0.0
  0
SPLINE
  5
29e
100
AcDbEntity
  8
C00-00-00-BLACK
100
AcDbSpline
210
0.0
220
0.0
230
1.0
 70
     0
 71
     3
 72
     8
 73
4
 40
0.0
 40
0.0
 40
0.0
 40
0.0
 40
1.0
 40
1.0
 40
1.0
 40
1.0
 10
2.30979
 20
8.80974
 30
0.0
 10
2.30669
 20
8.80458
 30
0.0
 10
2.29964
 20
8.79704
 30
0.0
 10
2.28282
 20
8.79394
 30
0.0
  0
LINE
  5
29f
100
AcDbEntity
  8
C00-00-00-BLACK
100
AcDbLine
 10
2.28282
 20
8.79394
 30
0.0
 11
2.28369
 21
8.78917
 31
0.0
  0
SPLINE
  5
2a0
100
AcDbEntity
  8
C00-00-00-BLACK
100
AcDbSpline
210
0.0
220
0.0
230
1.0
 70
     0
 71
     3
 72
     8
 73
4
 40
0.0
 40
0.0
 40
0.0
 40
0.0
 40
1.0
 40
1.0
 40
1.0
 40
1.0
 10
2.28369
 20
8.78917
 30
0.0
 10
2.28743
 20
8.78987
 30
0.0
 10
2.29563
 20
8.79139
 30
0.0
 10
2.30382
 20
8.79731
 30
0.0
  0
LINE
  5
2a1
100
AcDbEntity
  8
C00-00-00-BLACK
100
AcDbLine
 10
2.30382
 20
8.79731
 30
0.0
 11
2.31956
 21
8.71224
 31
0.0
  0
SPLINE
  5
2a2
100
AcDbEntity
  8
C00-00-00-BLACK
100
AcDbSpline
210
0.0
220
0.0
230
1.0
 70
     0
 71
     3
 72
     8
 73
4
 40
0.0
 40
0.0
 40
0.0
 40
0.0
 40
1.0
 40
1.0
 40
1.0
 40
1.0
 10
2.31956
 20
8.71224
 30
0.0
 10
2.32064
 20
8.70638
 30
0.0
 10
2.32047
 20
8.70432
 30
0.0
 10
2.3061
 20
8.70167
 30
0.0
  0
LINE
  5
2a3
100
AcDbEntity
  8
C00-00-00-BLACK
100
AcDbLine
 10
2.3061
 20
8.70167
 30
0.0
 11
2.30106
 21
8.70068
 31
0.0
  0
LINE
  5
2a4
100
AcDbEntity
  8
C00-00-00-BLACK
100
AcDbLine
 10
2.30106
 20
8.70068
 30
0.0
 11
2.30192
 21
8.69596
 31
0.0
  0
SPLINE
  5
2a5
100
AcDbEntity
  8
C00-00-00-BLACK
100
AcDbSpline
210
0.0
220
0.0
230
1.0
 70
     0
 71
     3
 72
     8
 73
4
 40
0.0
 40
0.0
 40
0.0
 40
0.0
 40
1.0
 40
1.0
 40
1.0
 40
1.0
 10
2.30192
 20
8.69596
 30
0.0
 10
2.30632
 20
8.6971
 30
0.0
 10
2.32215
 20
8.70003
 30
0.0
 10
2.32753
 20
8.70101
 30
0.0
  0
SPLINE
  5
2a6
100
AcDbEntity
  8
C00-00-00-BLACK
100
AcDbSpline
210
0.0
220
0.0
230
1.0
 70
     0
 71
     3
 72
     8
 73
4
 40
0.0
 40
0.0
 40
0.0
 40
0.0
 40
1.0
 40
1.0
 40
1.0
 40
1.0
 10
2.32753
 20
8.70101
 30
0.0
 10
2.3329
 20
8.70204
 30
0.0
 10
2.34858
 20
8.70492
 30
0.0
 10
2.35303
 20
8.7054
 30
0.0
  0
LINE
  5
2a7
100
AcDbEntity
  8
C00-00-00-BLACK
100
AcDbLine
 10
2.35303
 20
8.7054
 30
0.0
 11
2.35215
 21
8.71018
 31
0.0
  0
LINE
  5
2a8
100
AcDbEntity
  8
C00-00-00-BLACK
100
AcDbLine
 10
2.35215
 20
8.71018
 30
0.0
 11
2.34711
 21
8.70919
 31
0.0
  0
SPLINE
  5
2a9
100
AcDbEntity
  8
C00-00-00-BLACK
100
AcDbSpline
210
0.0
220
0.0
230
1.0
 70
     0
 71
     3
 72
     8
 73
4
 40
0.0
 40
0.0
 40
0.0
 40
0.0
 40
1.0
 40
1.0
 40
1.0
 40
1.0
 10
2.34711
 20
8.70919
 30
0.0
 10
2.33274
 20
8.70654
 30
0.0
 10
2.33188
 20
8.70844
 30
0.0
 10
2.33078
 20
8.71431
 30
0.0
  0
LINE
  5
2aa
100
AcDbEntity
  8
C00-00-00-BLACK
100
AcDbLine
 10
2.33078
 20
8.71431
 30
0.0
 11
2.31381
 21
8.80642
 31
0.0
  0
SPLINE
  5
2ab
100
AcDbEntity
  8
C00-00-00-BLACK
100
AcDbSpline
210
0.0
220
0.0
230
1.0
 70
     0
 71
     3
 72
     8
 73
4
 40
0.0
 40
0.0
 40
0.0
 40
0.0
 40
1.0
 40
1.0
 40
1.0
 40
1.0
 10
2.43018
 20
8.77274
 30
0.0
 10
2.42763
 20
8.78629
 30
0.0
 10
2.42437
 20
8.79937
 30
0.0
 10
2.41624
 20
8.81065
 30
0.0
  0
SPLINE
  5
2ac
100
AcDbEntity
  8
C00-00-00-BLACK
100
AcDbSpline
210
0.0
220
0.0
230
1.0
 70
     0
 71
     3
 72
     8
 73
4
 40
0.0
 40
0.0
 40
0.0
 40
0.0
 40
1.0
 40
1.0
 40
1.0
 40
1.0
 10
2.41624
 20
8.81065
 30
0.0
 10
2.40701
 20
8.82297
 30
0.0
 10
2.39458
 20
8.82437
 30
0.0
 10
2.38661
 20
8.82292
 30
0.0
  0
SPLINE
  5
2ad
100
AcDbEntity
  8
C00-00-00-BLACK
100
AcDbSpline
210
0.0
220
0.0
230
1.0
 70
     0
 71
     3
 72
     8
 73
4
 40
0.0
 40
0.0
 40
0.0
 40
0.0
 40
1.0
 40
1.0
 40
1.0
 40
1.0
 10
2.38661
 20
8.82292
 30
0.0
 10
2.37711
 20
8.82118
 30
0.0
 10
2.36637
 20
8.81429
 30
0.0
 10
2.36285
 20
8.79964
 30
0.0
  0
SPLINE
  5
2ae
100
AcDbEntity
  8
C00-00-00-BLACK
100
AcDbSpline
210
0.0
220
0.0
230
1.0
 70
     0
 71
     3
 72
     8
 73
4
 40
0.0
 40
0.0
 40
0.0
 40
0.0
 40
1.0
 40
1.0
 40
1.0
 40
1.0
 10
2.36285
 20
8.79964
 30
0.0
 10
2.36019
 20
8.78847
 30
0.0
 10
2.3604
 20
8.77806
 30
0.0
 10
2.36372
 20
8.76047
 30
0.0
  0
SPLINE
  5
2af
100
AcDbEntity
  8
C00-00-00-BLACK
100
AcDbSpline
210
0.0
220
0.0
230
1.0
 70
     0
 71
     3
 72
     8
 73
4
 40
0.0
 40
0.0
 40
0.0
 40
0.0
 40
1.0
 40
1.0
 40
1.0
 40
1.0
 10
2.36372
 20
8.76047
 30
0.0
 10
2.36664
 20
8.74457
 30
0.0
 10
2.36996
 20
8.73292
 30
0.0
 10
2.37799
 20
8.72239
 30
0.0
  0
SPLINE
  5
2b0
100
AcDbEntity
  8
C00-00-00-BLACK
100
AcDbSpline
210
0.0
220
0.0
230
1.0
 70
     0
 71
     3
 72
     8
 73
4
 40
0.0
 40
0.0
 40
0.0
 40
0.0
 40
1.0
 40
1.0
 40
1.0
 40
1.0
 10
2.37799
 20
8.72239
 30
0.0
 10
2.38667
 20
8.71115
 30
0.0
 10
2.39865
 20
8.70931
 30
0.0
 10
2.40711
 20
8.71089
 30
0.0
  0
SPLINE
  5
2b1
100
AcDbEntity
  8
C00-00-00-BLACK
100
AcDbSpline
210
0.0
220
0.0
230
1.0
 70
     0
 71
     3
 72
     8
 73
4
 40
0.0
 40
0.0
 40
0.0
 40
0.0
 40
1.0
 40
1.0
 40
1.0
 40
1.0
 10
2.40711
 20
8.71089
 30
0.0
 10
2.42133
 20
8.71349
 30
0.0
 10
2.42794
 20
8.72353
 30
0.0
 10
2.43093
 20
8.73389
 30
0.0
  0
SPLINE
  5
2b2
100
AcDbEntity
  8
C00-00-00-BLACK
100
AcDbSpline
210
0.0
220
0.0
230
1.0
 70
     0
 71
     3
 72
     8
 73
4
 40
0.0
 40
0.0
 40
0.0
 40
0.0
 40
1.0
 40
1.0
 40
1.0
 40
1.0
 10
2.43093
 20
8.73389
 30
0.0
 10
2.43451
 20
8.74718
 30
0.0
 10
2.43192
 20
8.76324
 30
0.0
 10
2.43018
 20
8.77274
 30
0.0
  0
LINE
  5
2b3
100
AcDbEntity
  8
C00-00-00-BLACK
100
AcDbLine
 10
2.43018
 20
8.77274
 30
0.0
 11
2.43018
 21
8.77274
 31
0.0
  0
SPLINE
  5
2b4
100
AcDbEntity
  8
C00-00-00-BLACK
100
AcDbSpline
210
0.0
220
0.0
230
1.0
 70
     0
 71
     3
 72
     8
 73
4
 40
0.0
 40
0.0
 40
0.0
 40
0.0
 40
1.0
 40
1.0
 40
1.0
 40
1.0
 10
2.40653
 20
8.71414
 30
0.0
 10
2.40132
 20
8.71317
 30
0.0
 10
2.39014
 20
8.71414
 30
0.0
 10
2.38379
 20
8.73139
 30
0.0
  0
SPLINE
  5
2b5
100
AcDbEntity
  8
C00-00-00-BLACK
100
AcDbSpline
210
0.0
220
0.0
230
1.0
 70
     0
 71
     3
 72
     8
 73
4
 40
0.0
 40
0.0
 40
0.0
 40
0.0
 40
1.0
 40
1.0
 40
1.0
 40
1.0
 10
2.38379
 20
8.73139
 30
0.0
 10
2.38015
 20
8.74083
 30
0.0
 10
2.37788
 20
8.75325
 30
0.0
 10
2.37576
 20
8.76471
 30
0.0
  0
SPLINE
  5
2b6
100
AcDbEntity
  8
C00-00-00-BLACK
100
AcDbSpline
210
0.0
220
0.0
230
1.0
 70
     0
 71
     3
 72
     8
 73
4
 40
0.0
 40
0.0
 40
0.0
 40
0.0
 40
1.0
 40
1.0
 40
1.0
 40
1.0
 10
2.37576
 20
8.76471
 30
0.0
 10
2.37326
 20
8.77806
 30
0.0
 10
2.37104
 20
8.79015
 30
0.0
 10
2.37185
 20
8.80024
 30
0.0
  0
SPLINE
  5
2b7
100
AcDbEntity
  8
C00-00-00-BLACK
100
AcDbSpline
210
0.0
220
0.0
230
1.0
 70
     0
 71
     3
 72
     8
 73
4
 40
0.0
 40
0.0
 40
0.0
 40
0.0
 40
1.0
 40
1.0
 40
1.0
 40
1.0
 10
2.37185
 20
8.80024
 30
0.0
 10
2.37261
 20
8.81174
 30
0.0
 10
2.37999
 20
8.81831
 30
0.0
 10
2.38704
 20
8.81961
 30
0.0
  0
SPLINE
  5
2b8
100
AcDbEntity
  8
C00-00-00-BLACK
100
AcDbSpline
210
0.0
220
0.0
230
1.0
 70
     0
 71
     3
 72
     8
 73
4
 40
0.0
 40
0.0
 40
0.0
 40
0.0
 40
1.0
 40
1.0
 40
1.0
 40
1.0
 10
2.38704
 20
8.81961
 30
0.0
 10
2.39322
 20
8.82075
 30
0.0
 10
2.40343
 20
8.81874
 30
0.0
 10
2.40913
 20
8.80528
 30
0.0
  0
SPLINE
  5
2b9
100
AcDbEntity
  8
C00-00-00-BLACK
100
AcDbSpline
210
0.0
220
0.0
230
1.0
 70
     0
 71
     3
 72
     8
 73
4
 40
0.0
 40
0.0
 40
0.0
 40
0.0
 40
1.0
 40
1.0
 40
1.0
 40
1.0
 10
2.40913
 20
8.80528
 30
0.0
 10
2.41297
 20
8.79639
 30
0.0
 10
2.41531
 20
8.78347
 30
0.0
 10
2.41737
 20
8.77235
 30
0.0
  0
SPLINE
  5
2ba
100
AcDbEntity
  8
C00-00-00-BLACK
100
AcDbSpline
210
0.0
220
0.0
230
1.0
 70
     0
 71
     3
 72
     8
 73
4
 40
0.0
 40
0.0
 40
0.0
 40
0.0
 40
1.0
 40
1.0
 40
1.0
 40
1.0
 10
2.41737
 20
8.77235
 30
0.0
 10
2.41938
 20
8.76144
 30
0.0
 10
2.42171
 20
8.74903
 30
0.0
 10
2.42176
 20
8.73872
 30
0.0
  0
SPLINE
  5
2bb
100
AcDbEntity
  8
C00-00-00-BLACK
100
AcDbSpline
210
0.0
220
0.0
230
1.0
 70
     0
 71
     3
 72
     8
 73
4
 40
0.0
 40
0.0
 40
0.0
 40
0.0
 40
1.0
 40
1.0
 40
1.0
 40
1.0
 10
2.42176
 20
8.73872
 30
0.0
 10
2.42199
 20
8.72021
 30
0.0
 10
2.41228
 20
8.71517
 30
0.0
 10
2.40653
 20
8.71414
 30
0.0
  0
LINE
  5
2bc
100
AcDbEntity
  8
C00-00-00-BLACK
100
AcDbLine
 10
2.40653
 20
8.71414
 30
0.0
 11
2.40653
 21
8.71414
 31
0.0
  0
SPLINE
  5
2bd
100
AcDbEntity
  8
C00-00-00-BLACK
100
AcDbSpline
210
0.0
220
0.0
230
1.0
 70
     0
 71
     3
 72
     8
 73
4
 40
0.0
 40
0.0
 40
0.0
 40
0.0
 40
1.0
 40
1.0
 40
1.0
 40
1.0
 10
3.22299
 20
9.18294
 30
0.0
 10
3.22228
 20
9.18668
 30
0.0
 10
3.22228
 20
9.18685
 30
0.0
 10
3.21897
 20
9.18619
 30
0.0
  0
SPLINE
  5
2be
100
AcDbEntity
  8
C00-00-00-BLACK
100
AcDbSpline
210
0.0
220
0.0
230
1.0
 70
     0
 71
     3
 72
     8
 73
4
 40
0.0
 40
0.0
 40
0.0
 40
0.0
 40
1.0
 40
1.0
 40
1.0
 40
1.0
 10
3.21897
 20
9.18619
 30
0.0
 10
3.21593
 20
9.18104
 30
0.0
 10
3.20888
 20
9.1735
 30
0.0
 10
3.19211
 20
9.17031
 30
0.0
  0
LINE
  5
2bf
100
AcDbEntity
  8
C00-00-00-BLACK
100
AcDbLine
 10
3.19211
 20
9.17031
 30
0.0
 11
3.19299
 21
9.16558
 31
0.0
  0
SPLINE
  5
2c0
100
AcDbEntity
  8
C00-00-00-BLACK
100
AcDbSpline
210
0.0
220
0.0
230
1.0
 70
     0
 71
     3
 72
     8
 73
4
 40
0.0
 40
0.0
 40
0.0
 40
0.0
 40
1.0
 40
1.0
 40
1.0
 40
1.0
 10
3.19299
 20
9.16558
 30
0.0
 10
3.19672
 20
9.16629
 30
0.0
 10
3.20492
 20
9.16786
 30
0.0
 10
3.21306
 20
9.17378
 30
0.0
  0
LINE
  5
2c1
100
AcDbEntity
  8
C00-00-00-BLACK
100
AcDbLine
 10
3.21306
 20
9.17378
 30
0.0
 11
3.22917
 21
9.08876
 31
0.0
  0
SPLINE
  5
2c2
100
AcDbEntity
  8
C00-00-00-BLACK
100
AcDbSpline
210
0.0
220
0.0
230
1.0
 70
     0
 71
     3
 72
     8
 73
4
 40
0.0
 40
0.0
 40
0.0
 40
0.0
 40
1.0
 40
1.0
 40
1.0
 40
1.0
 10
3.22917
 20
9.08876
 30
0.0
 10
3.23031
 20
9.0829
 30
0.0
 10
3.23019
 20
9.08083
 30
0.0
 10
3.21582
 20
9.07813
 30
0.0
  0
LINE
  5
2c3
100
AcDbEntity
  8
C00-00-00-BLACK
100
AcDbLine
 10
3.21582
 20
9.07813
 30
0.0
 11
3.21078
 21
9.07715
 31
0.0
  0
LINE
  5
2c4
100
AcDbEntity
  8
C00-00-00-BLACK
100
AcDbLine
 10
3.21078
 20
9.07715
 30
0.0
 11
3.21164
 21
9.07243
 31
0.0
  0
SPLINE
  5
2c5
100
AcDbEntity
  8
C00-00-00-BLACK
100
AcDbSpline
210
0.0
220
0.0
230
1.0
 70
     0
 71
     3
 72
     8
 73
4
 40
0.0
 40
0.0
 40
0.0
 40
0.0
 40
1.0
 40
1.0
 40
1.0
 40
1.0
 10
3.21164
 20
9.07243
 30
0.0
 10
3.21604
 20
9.07363
 30
0.0
 10
3.23182
 20
9.07661
 30
0.0
 10
3.23719
 20
9.07764
 30
0.0
  0
SPLINE
  5
2c6
100
AcDbEntity
  8
C00-00-00-BLACK
100
AcDbSpline
210
0.0
220
0.0
230
1.0
 70
     0
 71
     3
 72
     8
 73
4
 40
0.0
 40
0.0
 40
0.0
 40
0.0
 40
1.0
 40
1.0
 40
1.0
 40
1.0
 10
3.23719
 20
9.07764
 30
0.0
 10
3.24262
 20
9.07861
 30
0.0
 10
3.25825
 20
9.0816
 30
0.0
 10
3.26269
 20
9.08208
 30
0.0
  0
LINE
  5
2c7
100
AcDbEntity
  8
C00-00-00-BLACK
100
AcDbLine
 10
3.26269
 20
9.08208
 30
0.0
 11
3.26183
 21
9.08686
 31
0.0
  0
LINE
  5
2c8
100
AcDbEntity
  8
C00-00-00-BLACK
100
AcDbLine
 10
3.26183
 20
9.08686
 30
0.0
 11
3.25678
 21
9.08589
 31
0.0
  0
SPLINE
  5
2c9
100
AcDbEntity
  8
C00-00-00-BLACK
100
AcDbSpline
210
0.0
220
0.0
230
1.0
 70
     0
 71
     3
 72
     8
 73
4
 40
0.0
 40
0.0
 40
0.0
 40
0.0
 40
1.0
 40
1.0
 40
1.0
 40
1.0
 10
3.25678
 20
9.08589
 30
0.0
 10
3.2424
 20
9.08317
 30
0.0
 10
3.24154
 20
9.08501
 30
0.0
 10
3.24044
 20
9.09093
 30
0.0
  0
LINE
  5
2ca
100
AcDbEntity
  8
C00-00-00-BLACK
100
AcDbLine
 10
3.24044
 20
9.09093
 30
0.0
 11
3.22299
 21
9.18294
 31
0.0
  0
SPLINE
  5
2cb
100
AcDbEntity
  8
C00-00-00-BLACK
100
AcDbSpline
210
0.0
220
0.0
230
1.0
 70
     0
 71
     3
 72
     8
 73
4
 40
0.0
 40
0.0
 40
0.0
 40
0.0
 40
1.0
 40
1.0
 40
1.0
 40
1.0
 10
3.30354
 20
9.19819
 30
0.0
 10
3.30285
 20
9.20193
 30
0.0
 10
3.30279
 20
9.2021
 30
0.0
 10
3.29953
 20
9.2015
 30
0.0
  0
SPLINE
  5
2cc
100
AcDbEntity
  8
C00-00-00-BLACK
100
AcDbSpline
210
0.0
220
0.0
230
1.0
 70
     0
 71
     3
 72
     8
 73
4
 40
0.0
 40
0.0
 40
0.0
 40
0.0
 40
1.0
 40
1.0
 40
1.0
 40
1.0
 10
3.29953
 20
9.2015
 30
0.0
 10
3.29644
 20
9.19635
 30
0.0
 10
3.28944
 20
9.18881
 30
0.0
 10
3.27268
 20
9.1856
 30
0.0
  0
LINE
  5
2cd
100
AcDbEntity
  8
C00-00-00-BLACK
100
AcDbLine
 10
3.27268
 20
9.1856
 30
0.0
 11
3.27354
 21
9.18083
 31
0.0
  0
SPLINE
  5
2ce
100
AcDbEntity
  8
C00-00-00-BLACK
100
AcDbSpline
210
0.0
220
0.0
230
1.0
 70
     0
 71
     3
 72
     8
 73
4
 40
0.0
 40
0.0
 40
0.0
 40
0.0
 40
1.0
 40
1.0
 40
1.0
 40
1.0
 10
3.27354
 20
9.18083
 30
0.0
 10
3.27729
 20
9.18153
 30
0.0
 10
3.28543
 20
9.18311
 30
0.0
 10
3.29363
 20
9.18901
 30
0.0
  0
LINE
  5
2cf
100
AcDbEntity
  8
C00-00-00-BLACK
100
AcDbLine
 10
3.29363
 20
9.18901
 30
0.0
 11
3.30974
 21
9.10406
 31
0.0
  0
SPLINE
  5
2d0
100
AcDbEntity
  8
C00-00-00-BLACK
100
AcDbSpline
210
0.0
220
0.0
230
1.0
 70
     0
 71
     3
 72
     8
 73
4
 40
0.0
 40
0.0
 40
0.0
 40
0.0
 40
1.0
 40
1.0
 40
1.0
 40
1.0
 10
3.30974
 20
9.10406
 30
0.0
 10
3.31087
 20
9.09814
 30
0.0
 10
3.31071
 20
9.09614
 30
0.0
 10
3.29639
 20
9.09343
 30
0.0
  0
LINE
  5
2d1
100
AcDbEntity
  8
C00-00-00-BLACK
100
AcDbLine
 10
3.29639
 20
9.09343
 30
0.0
 11
3.29135
 21
9.09244
 31
0.0
  0
LINE
  5
2d2
100
AcDbEntity
  8
C00-00-00-BLACK
100
AcDbLine
 10
3.29135
 20
9.09244
 30
0.0
 11
3.29221
 21
9.08772
 31
0.0
  0
SPLINE
  5
2d3
100
AcDbEntity
  8
C00-00-00-BLACK
100
AcDbSpline
210
0.0
220
0.0
230
1.0
 70
     0
 71
     3
 72
     8
 73
4
 40
0.0
 40
0.0
 40
0.0
 40
0.0
 40
1.0
 40
1.0
 40
1.0
 40
1.0
 10
3.29221
 20
9.08772
 30
0.0
 10
3.29656
 20
9.08886
 30
0.0
 10
3.31239
 20
9.09185
 30
0.0
 10
3.31776
 20
9.09289
 30
0.0
  0
SPLINE
  5
2d4
100
AcDbEntity
  8
C00-00-00-BLACK
100
AcDbSpline
210
0.0
220
0.0
230
1.0
 70
     0
 71
     3
 72
     8
 73
4
 40
0.0
 40
0.0
 40
0.0
 40
0.0
 40
1.0
 40
1.0
 40
1.0
 40
1.0
 10
3.31776
 20
9.09289
 30
0.0
 10
3.32314
 20
9.09392
 30
0.0
 10
3.33882
 20
9.0969
 30
0.0
 10
3.34326
 20
9.09739
 30
0.0
  0
LINE
  5
2d5
100
AcDbEntity
  8
C00-00-00-BLACK
100
AcDbLine
 10
3.34326
 20
9.09739
 30
0.0
 11
3.34239
 21
9.10211
 31
0.0
  0
LINE
  5
2d6
100
AcDbEntity
  8
C00-00-00-BLACK
100
AcDbLine
 10
3.34239
 20
9.10211
 30
0.0
 11
3.33729
 21
9.10118
 31
0.0
  0
SPLINE
  5
2d7
100
AcDbEntity
  8
C00-00-00-BLACK
100
AcDbSpline
210
0.0
220
0.0
230
1.0
 70
     0
 71
     3
 72
     8
 73
4
 40
0.0
 40
0.0
 40
0.0
 40
0.0
 40
1.0
 40
1.0
 40
1.0
 40
1.0
 10
3.33729
 20
9.10118
 30
0.0
 10
3.32297
 20
9.09847
 30
0.0
 10
3.3221
 20
9.10032
 30
0.0
 10
3.32096
 20
9.10618
 30
0.0
  0
LINE
  5
2d8
100
AcDbEntity
  8
C00-00-00-BLACK
100
AcDbLine
 10
3.32096
 20
9.10618
 30
0.0
 11
3.30354
 21
9.19819
 31
0.0
  0
SPLINE
  5
2d9
100
AcDbEntity
  8
C00-00-00-BLACK
100
AcDbSpline
210
0.0
220
0.0
230
1.0
 70
     0
 71
     3
 72
     8
 73
4
 40
0.0
 40
0.0
 40
0.0
 40
0.0
 40
1.0
 40
1.0
 40
1.0
 40
1.0
 10
4.20833
 20
9.31819
 30
0.0
 10
4.20833
 20
9.32206
 30
0.0
 10
4.20833
 20
9.32221
 30
0.0
 10
4.20508
 20
9.32221
 30
0.0
  0
SPLINE
  5
2da
100
AcDbEntity
  8
C00-00-00-BLACK
100
AcDbSpline
210
0.0
220
0.0
230
1.0
 70
     0
 71
     3
 72
     8
 73
4
 40
0.0
 40
0.0
 40
0.0
 40
0.0
 40
1.0
 40
1.0
 40
1.0
 40
1.0
 10
4.20508
 20
9.32221
 30
0.0
 10
4.20117
 20
9.31754
 30
0.0
 10
4.19303
 20
9.31108
 30
0.0
 10
4.17622
 20
9.31108
 30
0.0
  0
LINE
  5
2db
100
AcDbEntity
  8
C00-00-00-BLACK
100
AcDbLine
 10
4.17622
 20
9.31108
 30
0.0
 11
4.17622
 21
9.30697
 31
0.0
  0
SPLINE
  5
2dc
100
AcDbEntity
  8
C00-00-00-BLACK
100
AcDbSpline
210
0.0
220
0.0
230
1.0
 70
     0
 71
     3
 72
     8
 73
4
 40
0.0
 40
0.0
 40
0.0
 40
0.0
 40
1.0
 40
1.0
 40
1.0
 40
1.0
 10
4.17622
 20
9.30697
 30
0.0
 10
4.18001
 20
9.30697
 30
0.0
 10
4.18821
 20
9.30697
 30
0.0
 10
4.19721
 20
9.31039
 30
0.0
  0
LINE
  5
2dd
100
AcDbEntity
  8
C00-00-00-BLACK
100
AcDbLine
 10
4.19721
 20
9.31039
 30
0.0
 11
4.19721
 21
9.22331
 31
0.0
  0
SPLINE
  5
2de
100
AcDbEntity
  8
C00-00-00-BLACK
100
AcDbSpline
210
0.0
220
0.0
230
1.0
 70
     0
 71
     3
 72
     8
 73
4
 40
0.0
 40
0.0
 40
0.0
 40
0.0
 40
1.0
 40
1.0
 40
1.0
 40
1.0
 10
4.19721
 20
9.22331
 30
0.0
 10
4.19721
 20
9.21729
 30
0.0
 10
4.19672
 20
9.21528
 30
0.0
 10
4.18229
 20
9.21528
 30
0.0
  0
LINE
  5
2df
100
AcDbEntity
  8
C00-00-00-BLACK
100
AcDbLine
 10
4.18229
 20
9.21528
 30
0.0
 11
4.17725
 21
9.21528
 31
0.0
  0
LINE
  5
2e0
100
AcDbEntity
  8
C00-00-00-BLACK
100
AcDbLine
 10
4.17725
 20
9.21528
 30
0.0
 11
4.17725
 21
9.2111
 31
0.0
  0
SPLINE
  5
2e1
100
AcDbEntity
  8
C00-00-00-BLACK
100
AcDbSpline
210
0.0
220
0.0
230
1.0
 70
     0
 71
     3
 72
     8
 73
4
 40
0.0
 40
0.0
 40
0.0
 40
0.0
 40
1.0
 40
1.0
 40
1.0
 40
1.0
 10
4.17725
 20
9.2111
 30
0.0
 10
4.18169
 20
9.21143
 30
0.0
 10
4.19781
 20
9.21143
 30
0.0
 10
4.20329
 20
9.21143
 30
0.0
  0
SPLINE
  5
2e2
100
AcDbEntity
  8
C00-00-00-BLACK
100
AcDbSpline
210
0.0
220
0.0
230
1.0
 70
     0
 71
     3
 72
     8
 73
4
 40
0.0
 40
0.0
 40
0.0
 40
0.0
 40
1.0
 40
1.0
 40
1.0
 40
1.0
 10
4.20329
 20
9.21143
 30
0.0
 10
4.20876
 20
9.21143
 30
0.0
 10
4.22472
 20
9.21143
 30
0.0
 10
4.22922
 20
9.2111
 30
0.0
  0
LINE
  5
2e3
100
AcDbEntity
  8
C00-00-00-BLACK
100
AcDbLine
 10
4.22922
 20
9.2111
 30
0.0
 11
4.22922
 21
9.21528
 31
0.0
  0
LINE
  5
2e4
100
AcDbEntity
  8
C00-00-00-BLACK
100
AcDbLine
 10
4.22922
 20
9.21528
 30
0.0
 11
4.2239
 21
9.21528
 31
0.0
  0
SPLINE
  5
2e5
100
AcDbEntity
  8
C00-00-00-BLACK
100
AcDbSpline
210
0.0
220
0.0
230
1.0
 70
     0
 71
     3
 72
     8
 73
4
 40
0.0
 40
0.0
 40
0.0
 40
0.0
 40
1.0
 40
1.0
 40
1.0
 40
1.0
 10
4.2239
 20
9.21528
 30
0.0
 10
4.20882
 20
9.21528
 30
0.0
 10
4.20833
 20
9.21729
 30
0.0
 10
4.20833
 20
9.22336
 30
0.0
  0
LINE
  5
2e6
100
AcDbEntity
  8
C00-00-00-BLACK
100
AcDbLine
 10
4.20833
 20
9.22336
 30
0.0
 11
4.20833
 21
9.31819
 31
0.0
  0
LINE
  5
2e7
100
AcDbEntity
  8
C00-00-00-BLACK
100
AcDbLine
 10
4.31668
 20
9.23899
 30
0.0
 11
4.31299
 21
9.23899
 31
0.0
  0
SPLINE
  5
2e8
100
AcDbEntity
  8
C00-00-00-BLACK
100
AcDbSpline
210
0.0
220
0.0
230
1.0
 70
     0
 71
     3
 72
     8
 73
4
 40
0.0
 40
0.0
 40
0.0
 40
0.0
 40
1.0
 40
1.0
 40
1.0
 40
1.0
 10
4.31299
 20
9.23899
 30
0.0
 10
4.31244
 20
9.23606
 30
0.0
 10
4.31114
 20
9.22656
 30
0.0
 10
4.30946
 20
9.22379
 30
0.0
  0
SPLINE
  5
2e9
100
AcDbEntity
  8
C00-00-00-BLACK
100
AcDbSpline
210
0.0
220
0.0
230
1.0
 70
     0
 71
     3
 72
     8
 73
4
 40
0.0
 40
0.0
 40
0.0
 40
0.0
 40
1.0
 40
1.0
 40
1.0
 40
1.0
 10
4.30946
 20
9.22379
 30
0.0
 10
4.30826
 20
9.22222
 30
0.0
 10
4.29872
 20
9.22222
 30
0.0
 10
4.29368
 20
9.22222
 30
0.0
  0
LINE
  5
2ea
100
AcDbEntity
  8
C00-00-00-BLACK
100
AcDbLine
 10
4.29368
 20
9.22222
 30
0.0
 11
4.26264
 21
9.22222
 31
0.0
  0
SPLINE
  5
2eb
100
AcDbEntity
  8
C00-00-00-BLACK
100
AcDbSpline
210
0.0
220
0.0
230
1.0
 70
     0
 71
     3
 72
     8
 73
4
 40
0.0
 40
0.0
 40
0.0
 40
0.0
 40
1.0
 40
1.0
 40
1.0
 40
1.0
 10
4.26264
 20
9.22222
 30
0.0
 10
4.26714
 20
9.22613
 30
0.0
 10
4.2774
 20
9.23687
 30
0.0
 10
4.28174
 20
9.24094
 30
0.0
  0
SPLINE
  5
2ec
100
AcDbEntity
  8
C00-00-00-BLACK
100
AcDbSpline
210
0.0
220
0.0
230
1.0
 70
     0
 71
     3
 72
     8
 73
4
 40
0.0
 40
0.0
 40
0.0
 40
0.0
 40
1.0
 40
1.0
 40
1.0
 40
1.0
 10
4.28174
 20
9.24094
 30
0.0
 10
4.30724
 20
9.26449
 30
0.0
 10
4.31668
 20
9.27322
 30
0.0
 10
4.31668
 20
9.28987
 30
0.0
  0
SPLINE
  5
2ed
100
AcDbEntity
  8
C00-00-00-BLACK
100
AcDbSpline
210
0.0
220
0.0
230
1.0
 70
     0
 71
     3
 72
     8
 73
4
 40
0.0
 40
0.0
 40
0.0
 40
0.0
 40
1.0
 40
1.0
 40
1.0
 40
1.0
 10
4.31668
 20
9.28987
 30
0.0
 10
4.31668
 20
9.30925
 30
0.0
 10
4.30149
 20
9.32221
 30
0.0
 10
4.28211
 20
9.32221
 30
0.0
  0
SPLINE
  5
2ee
100
AcDbEntity
  8
C00-00-00-BLACK
100
AcDbSpline
210
0.0
220
0.0
230
1.0
 70
     0
 71
     3
 72
     8
 73
4
 40
0.0
 40
0.0
 40
0.0
 40
0.0
 40
1.0
 40
1.0
 40
1.0
 40
1.0
 10
4.28211
 20
9.32221
 30
0.0
 10
4.26275
 20
9.32221
 30
0.0
 10
4.25142
 20
9.30533
 30
0.0
 10
4.25142
 20
9.29064
 30
0.0
  0
SPLINE
  5
2ef
100
AcDbEntity
  8
C00-00-00-BLACK
100
AcDbSpline
210
0.0
220
0.0
230
1.0
 70
     0
 71
     3
 72
     8
 73
4
 40
0.0
 40
0.0
 40
0.0
 40
0.0
 40
1.0
 40
1.0
 40
1.0
 40
1.0
 10
4.25142
 20
9.29064
 30
0.0
 10
4.25142
 20
9.28196
 30
0.0
 10
4.25851
 20
9.28196
 30
0.0
 10
4.259
 20
9.28196
 30
0.0
  0
SPLINE
  5
2f0
100
AcDbEntity
  8
C00-00-00-BLACK
100
AcDbSpline
210
0.0
220
0.0
230
1.0
 70
     0
 71
     3
 72
     8
 73
4
 40
0.0
 40
0.0
 40
0.0
 40
0.0
 40
1.0
 40
1.0
 40
1.0
 40
1.0
 10
4.259
 20
9.28196
 30
0.0
 10
4.26243
 20
9.28196
 30
0.0
 10
4.26665
 20
9.2844
 30
0.0
 10
4.26665
 20
9.28961
 30
0.0
  0
SPLINE
  5
2f1
100
AcDbEntity
  8
C00-00-00-BLACK
100
AcDbSpline
210
0.0
220
0.0
230
1.0
 70
     0
 71
     3
 72
     8
 73
4
 40
0.0
 40
0.0
 40
0.0
 40
0.0
 40
1.0
 40
1.0
 40
1.0
 40
1.0
 10
4.26665
 20
9.28961
 30
0.0
 10
4.26665
 20
9.29411
 30
0.0
 10
4.26357
 20
9.29719
 30
0.0
 10
4.25896
 20
9.29719
 30
0.0
  0
SPLINE
  5
2f2
100
AcDbEntity
  8
C00-00-00-BLACK
100
AcDbSpline
210
0.0
220
0.0
230
1.0
 70
     0
 71
     3
 72
     8
 73
4
 40
0.0
 40
0.0
 40
0.0
 40
0.0
 40
1.0
 40
1.0
 40
1.0
 40
1.0
 10
4.25896
 20
9.29719
 30
0.0
 10
4.25749
 20
9.29719
 30
0.0
 10
4.25717
 20
9.29719
 30
0.0
 10
4.25667
 20
9.29719
 30
0.0
  0
SPLINE
  5
2f3
100
AcDbEntity
  8
C00-00-00-BLACK
100
AcDbSpline
210
0.0
220
0.0
230
1.0
 70
     0
 71
     3
 72
     8
 73
4
 40
0.0
 40
0.0
 40
0.0
 40
0.0
 40
1.0
 40
1.0
 40
1.0
 40
1.0
 10
4.25667
 20
9.29719
 30
0.0
 10
4.25988
 20
9.30968
 30
0.0
 10
4.26888
 20
9.31808
 30
0.0
 10
4.27979
 20
9.31808
 30
0.0
  0
SPLINE
  5
2f4
100
AcDbEntity
  8
C00-00-00-BLACK
100
AcDbSpline
210
0.0
220
0.0
230
1.0
 70
     0
 71
     3
 72
     8
 73
4
 40
0.0
 40
0.0
 40
0.0
 40
0.0
 40
1.0
 40
1.0
 40
1.0
 40
1.0
 10
4.27979
 20
9.31808
 30
0.0
 10
4.29406
 20
9.31808
 30
0.0
 10
4.30279
 20
9.3061
 30
0.0
 10
4.30279
 20
9.29064
 30
0.0
  0
SPLINE
  5
2f5
100
AcDbEntity
  8
C00-00-00-BLACK
100
AcDbSpline
210
0.0
220
0.0
230
1.0
 70
     0
 71
     3
 72
     8
 73
4
 40
0.0
 40
0.0
 40
0.0
 40
0.0
 40
1.0
 40
1.0
 40
1.0
 40
1.0
 10
4.30279
 20
9.29064
 30
0.0
 10
4.30279
 20
9.27636
 30
0.0
 10
4.2946
 20
9.26394
 30
0.0
 10
4.2851
 20
9.25315
 30
0.0
  0
LINE
  5
2f6
100
AcDbEntity
  8
C00-00-00-BLACK
100
AcDbLine
 10
4.2851
 20
9.25315
 30
0.0
 11
4.25142
 21
9.21517
 31
0.0
  0
LINE
  5
2f7
100
AcDbEntity
  8
C00-00-00-BLACK
100
AcDbLine
 10
4.25142
 20
9.21517
 30
0.0
 11
4.25142
 21
9.2111
 31
0.0
  0
LINE
  5
2f8
100
AcDbEntity
  8
C00-00-00-BLACK
100
AcDbLine
 10
4.25142
 20
9.2111
 30
0.0
 11
4.31233
 21
9.2111
 31
0.0
  0
LINE
  5
2f9
100
AcDbEntity
  8
C00-00-00-BLACK
100
AcDbLine
 10
4.31233
 20
9.2111
 30
0.0
 11
4.31668
 21
9.23899
 31
0.0
  0
SPLINE
  5
2fa
100
AcDbEntity
  8
C00-00-00-BLACK
100
AcDbSpline
210
0.0
220
0.0
230
1.0
 70
     0
 71
     3
 72
     8
 73
4
 40
0.0
 40
0.0
 40
0.0
 40
0.0
 40
1.0
 40
1.0
 40
1.0
 40
1.0
 10
5.2385
 20
9.18674
 30
0.0
 10
5.23926
 20
9.19049
 30
0.0
 10
5.23931
 20
9.19065
 30
0.0
 10
5.23606
 20
9.19129
 30
0.0
  0
SPLINE
  5
2fb
100
AcDbEntity
  8
C00-00-00-BLACK
100
AcDbSpline
210
0.0
220
0.0
230
1.0
 70
     0
 71
     3
 72
     8
 73
4
 40
0.0
 40
0.0
 40
0.0
 40
0.0
 40
1.0
 40
1.0
 40
1.0
 40
1.0
 10
5.23606
 20
9.19129
 30
0.0
 10
5.23122
 20
9.18767
 30
0.0
 10
5.2219
 20
9.18326
 30
0.0
 10
5.20514
 20
9.18658
 30
0.0
  0
LINE
  5
2fc
100
AcDbEntity
  8
C00-00-00-BLACK
100
AcDbLine
 10
5.20514
 20
9.18658
 30
0.0
 11
5.20421
 21
9.18186
 31
0.0
  0
SPLINE
  5
2fd
100
AcDbEntity
  8
C00-00-00-BLACK
100
AcDbSpline
210
0.0
220
0.0
230
1.0
 70
     0
 71
     3
 72
     8
 73
4
 40
0.0
 40
0.0
 40
0.0
 40
0.0
 40
1.0
 40
1.0
 40
1.0
 40
1.0
 10
5.20421
 20
9.18186
 30
0.0
 10
5.20796
 20
9.18115
 30
0.0
 10
5.2161
 20
9.17953
 30
0.0
 10
5.22586
 20
9.18197
 30
0.0
  0
LINE
  5
2fe
100
AcDbEntity
  8
C00-00-00-BLACK
100
AcDbLine
 10
5.22586
 20
9.18197
 30
0.0
 11
5.20899
 21
9.09711
 31
0.0
  0
SPLINE
  5
2ff
100
AcDbEntity
  8
C00-00-00-BLACK
100
AcDbSpline
210
0.0
220
0.0
230
1.0
 70
     0
 71
     3
 72
     8
 73
4
 40
0.0
 40
0.0
 40
0.0
 40
0.0
 40
1.0
 40
1.0
 40
1.0
 40
1.0
 10
5.20899
 20
9.09711
 30
0.0
 10
5.20785
 20
9.09125
 30
0.0
 10
5.20692
 20
9.08942
 30
0.0
 10
5.1926
 20
9.09224
 30
0.0
  0
LINE
  5
300
100
AcDbEntity
  8
C00-00-00-BLACK
100
AcDbLine
 10
5.1926
 20
9.09224
 30
0.0
 11
5.18756
 21
9.09326
 31
0.0
  0
LINE
  5
301
100
AcDbEntity
  8
C00-00-00-BLACK
100
AcDbLine
 10
5.18756
 20
9.09326
 30
0.0
 11
5.18664
 21
9.08854
 31
0.0
  0
SPLINE
  5
302
100
AcDbEntity
  8
C00-00-00-BLACK
100
AcDbSpline
210
0.0
220
0.0
230
1.0
 70
     0
 71
     3
 72
     8
 73
4
 40
0.0
 40
0.0
 40
0.0
 40
0.0
 40
1.0
 40
1.0
 40
1.0
 40
1.0
 10
5.18664
 20
9.08854
 30
0.0
 10
5.19108
 20
9.088
 30
0.0
 10
5.20687
 20
9.08485
 30
0.0
 10
5.21224
 20
9.08376
 30
0.0
  0
SPLINE
  5
303
100
AcDbEntity
  8
C00-00-00-BLACK
100
AcDbSpline
210
0.0
220
0.0
230
1.0
 70
     0
 71
     3
 72
     8
 73
4
 40
0.0
 40
0.0
 40
0.0
 40
0.0
 40
1.0
 40
1.0
 40
1.0
 40
1.0
 10
5.21224
 20
9.08376
 30
0.0
 10
5.21761
 20
9.08268
 30
0.0
 10
5.23329
 20
9.07958
 30
0.0
 10
5.23757
 20
9.0784
 30
0.0
  0
LINE
  5
304
100
AcDbEntity
  8
C00-00-00-BLACK
100
AcDbLine
 10
5.23757
 20
9.0784
 30
0.0
 11
5.23856
 21
9.08311
 31
0.0
  0
LINE
  5
305
100
AcDbEntity
  8
C00-00-00-BLACK
100
AcDbLine
 10
5.23856
 20
9.08311
 30
0.0
 11
5.2335
 21
9.0841
 31
0.0
  0
SPLINE
  5
306
100
AcDbEntity
  8
C00-00-00-BLACK
100
AcDbSpline
210
0.0
220
0.0
230
1.0
 70
     0
 71
     3
 72
     8
 73
4
 40
0.0
 40
0.0
 40
0.0
 40
0.0
 40
1.0
 40
1.0
 40
1.0
 40
1.0
 10
5.2335
 20
9.0841
 30
0.0
 10
5.21913
 20
9.08697
 30
0.0
 10
5.21907
 20
9.08897
 30
0.0
 10
5.22021
 20
9.09483
 30
0.0
  0
LINE
  5
307
100
AcDbEntity
  8
C00-00-00-BLACK
100
AcDbLine
 10
5.22021
 20
9.09483
 30
0.0
 11
5.2385
 21
9.18674
 31
0.0
  0
LINE
  5
308
100
AcDbEntity
  8
C00-00-00-BLACK
100
AcDbLine
 10
6.15631
 20
8.72803
 30
0.0
 11
6.15272
 21
8.72874
 31
0.0
  0
SPLINE
  5
309
100
AcDbEntity
  8
C00-00-00-BLACK
100
AcDbSpline
210
0.0
220
0.0
230
1.0
 70
     0
 71
     3
 72
     8
 73
4
 40
0.0
 40
0.0
 40
0.0
 40
0.0
 40
1.0
 40
1.0
 40
1.0
 40
1.0
 10
6.15272
 20
8.72874
 30
0.0
 10
6.15169
 20
8.72607
 30
0.0
 10
6.14854
 20
8.71739
 30
0.0
 10
6.14638
 20
8.71511
 30
0.0
  0
SPLINE
  5
30a
100
AcDbEntity
  8
C00-00-00-BLACK
100
AcDbSpline
210
0.0
220
0.0
230
1.0
 70
     0
 71
     3
 72
     8
 73
4
 40
0.0
 40
0.0
 40
0.0
 40
0.0
 40
1.0
 40
1.0
 40
1.0
 40
1.0
 10
6.14638
 20
8.71511
 30
0.0
 10
6.14497
 20
8.71392
 30
0.0
 10
6.13569
 20
8.71576
 30
0.0
 10
6.13081
 20
8.71679
 30
0.0
  0
LINE
  5
30b
100
AcDbEntity
  8
C00-00-00-BLACK
100
AcDbLine
 10
6.13081
 20
8.71679
 30
0.0
 11
6.10075
 21
8.72293
 31
0.0
  0
SPLINE
  5
30c
100
AcDbEntity
  8
C00-00-00-BLACK
100
AcDbSpline
210
0.0
220
0.0
230
1.0
 70
     0
 71
     3
 72
     8
 73
4
 40
0.0
 40
0.0
 40
0.0
 40
0.0
 40
1.0
 40
1.0
 40
1.0
 40
1.0
 10
6.10075
 20
8.72293
 30
0.0
 10
6.10585
 20
8.72581
 30
0.0
 10
6.11789
 20
8.73415
 30
0.0
 10
6.12294
 20
8.73719
 30
0.0
  0
SPLINE
  5
30d
100
AcDbEntity
  8
C00-00-00-BLACK
100
AcDbSpline
210
0.0
220
0.0
230
1.0
 70
     0
 71
     3
 72
     8
 73
4
 40
0.0
 40
0.0
 40
0.0
 40
0.0
 40
1.0
 40
1.0
 40
1.0
 40
1.0
 10
6.12294
 20
8.73719
 30
0.0
 10
6.15235
 20
8.75493
 30
0.0
 10
6.16314
 20
8.76156
 30
0.0
 10
6.16644
 20
8.77767
 30
0.0
  0
SPLINE
  5
30e
100
AcDbEntity
  8
C00-00-00-BLACK
100
AcDbSpline
210
0.0
220
0.0
230
1.0
 70
     0
 71
     3
 72
     8
 73
4
 40
0.0
 40
0.0
 40
0.0
 40
0.0
 40
1.0
 40
1.0
 40
1.0
 40
1.0
 10
6.16644
 20
8.77767
 30
0.0
 10
6.17025
 20
8.79639
 30
0.0
 10
6.15799
 20
8.8119
 30
0.0
 10
6.13911
 20
8.81575
 30
0.0
  0
SPLINE
  5
30f
100
AcDbEntity
  8
C00-00-00-BLACK
100
AcDbSpline
210
0.0
220
0.0
230
1.0
 70
     0
 71
     3
 72
     8
 73
4
 40
0.0
 40
0.0
 40
0.0
 40
0.0
 40
1.0
 40
1.0
 40
1.0
 40
1.0
 10
6.13911
 20
8.81575
 30
0.0
 10
6.12022
 20
8.81961
 30
0.0
 10
6.1059
 20
8.80578
 30
0.0
 10
6.10308
 20
8.79178
 30
0.0
  0
SPLINE
  5
310
100
AcDbEntity
  8
C00-00-00-BLACK
100
AcDbSpline
210
0.0
220
0.0
230
1.0
 70
     0
 71
     3
 72
     8
 73
4
 40
0.0
 40
0.0
 40
0.0
 40
0.0
 40
1.0
 40
1.0
 40
1.0
 40
1.0
 10
6.10308
 20
8.79178
 30
0.0
 10
6.10135
 20
8.78347
 30
0.0
 10
6.1085
 20
8.78201
 30
0.0
 10
6.109
 20
8.7819
 30
0.0
  0
SPLINE
  5
311
100
AcDbEntity
  8
C00-00-00-BLACK
100
AcDbSpline
210
0.0
220
0.0
230
1.0
 70
     0
 71
     3
 72
     8
 73
4
 40
0.0
 40
0.0
 40
0.0
 40
0.0
 40
1.0
 40
1.0
 40
1.0
 40
1.0
 10
6.109
 20
8.7819
 30
0.0
 10
6.11242
 20
8.78119
 30
0.0
 10
6.11714
 20
8.78276
 30
0.0
 10
6.11822
 20
8.78797
 30
0.0
  0
SPLINE
  5
312
100
AcDbEntity
  8
C00-00-00-BLACK
100
AcDbSpline
210
0.0
220
0.0
230
1.0
 70
     0
 71
     3
 72
     8
 73
4
 40
0.0
 40
0.0
 40
0.0
 40
0.0
 40
1.0
 40
1.0
 40
1.0
 40
1.0
 10
6.11822
 20
8.78797
 30
0.0
 10
6.11914
 20
8.79253
 30
0.0
 10
6.11669
 20
8.79628
 30
0.0
 10
6.11214
 20
8.79719
 30
0.0
  0
SPLINE
  5
313
100
AcDbEntity
  8
C00-00-00-BLACK
100
AcDbSpline
210
0.0
220
0.0
230
1.0
 70
     0
 71
     3
 72
     8
 73
4
 40
0.0
 40
0.0
 40
0.0
 40
0.0
 40
1.0
 40
1.0
 40
1.0
 40
1.0
 10
6.11214
 20
8.79719
 30
0.0
 10
6.11068
 20
8.79753
 30
0.0
 10
6.11035
 20
8.79758
 30
0.0
 10
6.10981
 20
8.79753
 30
0.0
  0
SPLINE
  5
314
100
AcDbEntity
  8
C00-00-00-BLACK
100
AcDbSpline
210
0.0
220
0.0
230
1.0
 70
     0
 71
     3
 72
     8
 73
4
 40
0.0
 40
0.0
 40
0.0
 40
0.0
 40
1.0
 40
1.0
 40
1.0
 40
1.0
 10
6.10981
 20
8.79753
 30
0.0
 10
6.11518
 20
8.80794
 30
0.0
 10
6.12549
 20
8.81364
 30
0.0
 10
6.13607
 20
8.81147
 30
0.0
  0
SPLINE
  5
315
100
AcDbEntity
  8
C00-00-00-BLACK
100
AcDbSpline
210
0.0
220
0.0
230
1.0
 70
     0
 71
     3
 72
     8
 73
4
 40
0.0
 40
0.0
 40
0.0
 40
0.0
 40
1.0
 40
1.0
 40
1.0
 40
1.0
 10
6.13607
 20
8.81147
 30
0.0
 10
6.1499
 20
8.80865
 30
0.0
 10
6.15597
 20
8.79542
 30
0.0
 10
6.15294
 20
8.78043
 30
0.0
  0
SPLINE
  5
316
100
AcDbEntity
  8
C00-00-00-BLACK
100
AcDbSpline
210
0.0
220
0.0
230
1.0
 70
     0
 71
     3
 72
     8
 73
4
 40
0.0
 40
0.0
 40
0.0
 40
0.0
 40
1.0
 40
1.0
 40
1.0
 40
1.0
 10
6.15294
 20
8.78043
 30
0.0
 10
6.15012
 20
8.7666
 30
0.0
 10
6.13971
 20
8.75618
 30
0.0
 10
6.12831
 20
8.74767
 30
0.0
  0
LINE
  5
317
100
AcDbEntity
  8
C00-00-00-BLACK
100
AcDbLine
 10
6.12831
 20
8.74767
 30
0.0
 11
6.08794
 21
8.71761
 31
0.0
  0
LINE
  5
318
100
AcDbEntity
  8
C00-00-00-BLACK
100
AcDbLine
 10
6.08794
 20
8.71761
 30
0.0
 11
6.08713
 21
8.71371
 31
0.0
  0
LINE
  5
319
100
AcDbEntity
  8
C00-00-00-BLACK
100
AcDbLine
 10
6.08713
 20
8.71371
 30
0.0
 11
6.14654
 21
8.70161
 31
0.0
  0
LINE
  5
31a
100
AcDbEntity
  8
C00-00-00-BLACK
100
AcDbLine
 10
6.14654
 20
8.70161
 30
0.0
 11
6.15631
 21
8.72803
 31
0.0
  0
SPLINE
  5
31b
100
AcDbEntity
  8
C00-00-00-BLACK
100
AcDbSpline
210
0.0
220
0.0
230
1.0
 70
     0
 71
     3
 72
     8
 73
4
 40
0.0
 40
0.0
 40
0.0
 40
0.0
 40
1.0
 40
1.0
 40
1.0
 40
1.0
 10
6.90181
 20
8.16738
 30
0.0
 10
6.89899
 20
8.16781
 30
0.0
 10
6.89833
 20
8.16775
 30
0.0
 10
6.898
 20
8.16635
 30
0.0
  0
SPLINE
  5
31c
100
AcDbEntity
  8
C00-00-00-BLACK
100
AcDbSpline
210
0.0
220
0.0
230
1.0
 70
     0
 71
     3
 72
     8
 73
4
 40
0.0
 40
0.0
 40
0.0
 40
0.0
 40
1.0
 40
1.0
 40
1.0
 40
1.0
 10
6.898
 20
8.16635
 30
0.0
 10
6.89768
 20
8.16471
 30
0.0
 10
6.89849
 20
8.16456
 30
0.0
 10
6.90142
 20
8.1639
 30
0.0
  0
LINE
  5
31d
100
AcDbEntity
  8
C00-00-00-BLACK
100
AcDbLine
 10
6.90142
 20
8.1639
 30
0.0
 11
6.9089
 21
8.16237
 31
0.0
  0
SPLINE
  5
31e
100
AcDbEntity
  8
C00-00-00-BLACK
100
AcDbSpline
210
0.0
220
0.0
230
1.0
 70
     0
 71
     3
 72
     8
 73
4
 40
0.0
 40
0.0
 40
0.0
 40
0.0
 40
1.0
 40
1.0
 40
1.0
 40
1.0
 10
6.9089
 20
8.16237
 30
0.0
 10
6.92269
 20
8.1595
 30
0.0
 10
6.92654
 20
8.14681
 30
0.0
 10
6.92324
 20
8.13118
 30
0.0
  0
SPLINE
  5
31f
100
AcDbEntity
  8
C00-00-00-BLACK
100
AcDbSpline
210
0.0
220
0.0
230
1.0
 70
     0
 71
     3
 72
     8
 73
4
 40
0.0
 40
0.0
 40
0.0
 40
0.0
 40
1.0
 40
1.0
 40
1.0
 40
1.0
 10
6.92324
 20
8.13118
 30
0.0
 10
6.91878
 20
8.10992
 30
0.0
 10
6.90657
 20
8.10656
 30
0.0
 10
6.8986
 20
8.10818
 30
0.0
  0
SPLINE
  5
320
100
AcDbEntity
  8
C00-00-00-BLACK
100
AcDbSpline
210
0.0
220
0.0
230
1.0
 70
     0
 71
     3
 72
     8
 73
4
 40
0.0
 40
0.0
 40
0.0
 40
0.0
 40
1.0
 40
1.0
 40
1.0
 40
1.0
 10
6.8986
 20
8.10818
 30
0.0
 10
6.89079
 20
8.10981
 30
0.0
 10
6.87825
 20
8.11632
 30
0.0
 10
6.87576
 20
8.12804
 30
0.0
  0
SPLINE
  5
321
100
AcDbEntity
  8
C00-00-00-BLACK
100
AcDbSpline
210
0.0
220
0.0
230
1.0
 70
     0
 71
     3
 72
     8
 73
4
 40
0.0
 40
0.0
 40
0.0
 40
0.0
 40
1.0
 40
1.0
 40
1.0
 40
1.0
 10
6.87576
 20
8.12804
 30
0.0
 10
6.88081
 20
8.12614
 30
0.0
 10
6.88612
 20
8.1281
 30
0.0
 10
6.88737
 20
8.13396
 30
0.0
  0
SPLINE
  5
322
100
AcDbEntity
  8
C00-00-00-BLACK
100
AcDbSpline
210
0.0
220
0.0
230
1.0
 70
     0
 71
     3
 72
     8
 73
4
 40
0.0
 40
0.0
 40
0.0
 40
0.0
 40
1.0
 40
1.0
 40
1.0
 40
1.0
 10
6.88737
 20
8.13396
 30
0.0
 10
6.88835
 20
8.13867
 30
0.0
 10
6.88558
 20
8.14264
 30
0.0
 10
6.88103
 20
8.14361
 30
0.0
  0
SPLINE
  5
323
100
AcDbEntity
  8
C00-00-00-BLACK
100
AcDbSpline
210
0.0
220
0.0
230
1.0
 70
     0
 71
     3
 72
     8
 73
4
 40
0.0
 40
0.0
 40
0.0
 40
0.0
 40
1.0
 40
1.0
 40
1.0
 40
1.0
 10
6.88103
 20
8.14361
 30
0.0
 10
6.87711
 20
8.14442
 30
0.0
 10
6.87244
 20
8.14301
 30
0.0
 10
6.87115
 20
8.13683
 30
0.0
  0
SPLINE
  5
324
100
AcDbEntity
  8
C00-00-00-BLACK
100
AcDbSpline
210
0.0
220
0.0
230
1.0
 70
     0
 71
     3
 72
     8
 73
4
 40
0.0
 40
0.0
 40
0.0
 40
0.0
 40
1.0
 40
1.0
 40
1.0
 40
1.0
 10
6.87115
 20
8.13683
 30
0.0
 10
6.86817
 20
8.12235
 30
0.0
 10
6.8801
 20
8.10747
 30
0.0
 10
6.89817
 20
8.10374
 30
0.0
  0
SPLINE
  5
325
100
AcDbEntity
  8
C00-00-00-BLACK
100
AcDbSpline
210
0.0
220
0.0
230
1.0
 70
     0
 71
     3
 72
     8
 73
4
 40
0.0
 40
0.0
 40
0.0
 40
0.0
 40
1.0
 40
1.0
 40
1.0
 40
1.0
 10
6.89817
 20
8.10374
 30
0.0
 10
6.91753
 20
8.09967
 30
0.0
 10
6.93489
 20
8.11149
 30
0.0
 10
6.93832
 20
8.12793
 30
0.0
  0
SPLINE
  5
326
100
AcDbEntity
  8
C00-00-00-BLACK
100
AcDbSpline
210
0.0
220
0.0
230
1.0
 70
     0
 71
     3
 72
     8
 73
4
 40
0.0
 40
0.0
 40
0.0
 40
0.0
 40
1.0
 40
1.0
 40
1.0
 40
1.0
 10
6.93832
 20
8.12793
 30
0.0
 10
6.94146
 20
8.14285
 30
0.0
 10
6.93186
 20
8.15707
 30
0.0
 10
6.91683
 20
8.16308
 30
0.0
  0
SPLINE
  5
327
100
AcDbEntity
  8
C00-00-00-BLACK
100
AcDbSpline
210
0.0
220
0.0
230
1.0
 70
     0
 71
     3
 72
     8
 73
4
 40
0.0
 40
0.0
 40
0.0
 40
0.0
 40
1.0
 40
1.0
 40
1.0
 40
1.0
 10
6.91683
 20
8.16308
 30
0.0
 10
6.93181
 20
8.16417
 30
0.0
 10
6.94342
 20
8.17415
 30
0.0
 10
6.94601
 20
8.18685
 30
0.0
  0
SPLINE
  5
328
100
AcDbEntity
  8
C00-00-00-BLACK
100
AcDbSpline
210
0.0
220
0.0
230
1.0
 70
     0
 71
     3
 72
     8
 73
4
 40
0.0
 40
0.0
 40
0.0
 40
0.0
 40
1.0
 40
1.0
 40
1.0
 40
1.0
 10
6.94601
 20
8.18685
 30
0.0
 10
6.94874
 20
8.19971
 30
0.0
 10
6.93733
 20
8.21192
 30
0.0
 10
6.92156
 20
8.21517
 30
0.0
  0
SPLINE
  5
329
100
AcDbEntity
  8
C00-00-00-BLACK
100
AcDbSpline
210
0.0
220
0.0
230
1.0
 70
     0
 71
     3
 72
     8
 73
4
 40
0.0
 40
0.0
 40
0.0
 40
0.0
 40
1.0
 40
1.0
 40
1.0
 40
1.0
 10
6.92156
 20
8.21517
 30
0.0
 10
6.90533
 20
8.21858
 30
0.0
 10
6.89122
 20
8.21115
 30
0.0
 10
6.88872
 20
8.19928
 30
0.0
  0
SPLINE
  5
32a
100
AcDbEntity
  8
C00-00-00-BLACK
100
AcDbSpline
210
0.0
220
0.0
230
1.0
 70
     0
 71
     3
 72
     8
 73
4
 40
0.0
 40
0.0
 40
0.0
 40
0.0
 40
1.0
 40
1.0
 40
1.0
 40
1.0
 10
6.88872
 20
8.19928
 30
0.0
 10
6.88737
 20
8.19282
 30
0.0
 10
6.89214
 20
8.19043
 30
0.0
 10
6.89458
 20
8.18994
 30
0.0
  0
SPLINE
  5
32b
100
AcDbEntity
  8
C00-00-00-BLACK
100
AcDbSpline
210
0.0
220
0.0
230
1.0
 70
     0
 71
     3
 72
     8
 73
4
 40
0.0
 40
0.0
 40
0.0
 40
0.0
 40
1.0
 40
1.0
 40
1.0
 40
1.0
 10
6.89458
 20
8.18994
 30
0.0
 10
6.898
 20
8.18918
 30
0.0
 10
6.9024
 20
8.19086
 30
0.0
 10
6.90343
 20
8.19575
 30
0.0
  0
SPLINE
  5
32c
100
AcDbEntity
  8
C00-00-00-BLACK
100
AcDbSpline
210
0.0
220
0.0
230
1.0
 70
     0
 71
     3
 72
     8
 73
4
 40
0.0
 40
0.0
 40
0.0
 40
0.0
 40
1.0
 40
1.0
 40
1.0
 40
1.0
 10
6.90343
 20
8.19575
 30
0.0
 10
6.90451
 20
8.2009
 30
0.0
 10
6.9011
 20
8.204
 30
0.0
 10
6.89751
 20
8.20475
 30
0.0
  0
SPLINE
  5
32d
100
AcDbEntity
  8
C00-00-00-BLACK
100
AcDbSpline
210
0.0
220
0.0
230
1.0
 70
     0
 71
     3
 72
     8
 73
4
 40
0.0
 40
0.0
 40
0.0
 40
0.0
 40
1.0
 40
1.0
 40
1.0
 40
1.0
 10
6.89751
 20
8.20475
 30
0.0
 10
6.89654
 20
8.20497
 30
0.0
 10
6.89621
 20
8.20503
 30
0.0
 10
6.89567
 20
8.20497
 30
0.0
  0
SPLINE
  5
32e
100
AcDbEntity
  8
C00-00-00-BLACK
100
AcDbSpline
210
0.0
220
0.0
230
1.0
 70
     0
 71
     3
 72
     8
 73
4
 40
0.0
 40
0.0
 40
0.0
 40
0.0
 40
1.0
 40
1.0
 40
1.0
 40
1.0
 10
6.89567
 20
8.20497
 30
0.0
 10
6.90419
 20
8.21474
 30
0.0
 10
6.91943
 20
8.21153
 30
0.0
 10
6.92025
 20
8.21137
 30
0.0
  0
SPLINE
  5
32f
100
AcDbEntity
  8
C00-00-00-BLACK
100
AcDbSpline
210
0.0
220
0.0
230
1.0
 70
     0
 71
     3
 72
     8
 73
4
 40
0.0
 40
0.0
 40
0.0
 40
0.0
 40
1.0
 40
1.0
 40
1.0
 40
1.0
 10
6.92025
 20
8.21137
 30
0.0
 10
6.92562
 20
8.21024
 30
0.0
 10
6.93565
 20
8.20562
 30
0.0
 10
6.93235
 20
8.18967
 30
0.0
  0
SPLINE
  5
330
100
AcDbEntity
  8
C00-00-00-BLACK
100
AcDbSpline
210
0.0
220
0.0
230
1.0
 70
     0
 71
     3
 72
     8
 73
4
 40
0.0
 40
0.0
 40
0.0
 40
0.0
 40
1.0
 40
1.0
 40
1.0
 40
1.0
 10
6.93235
 20
8.18967
 30
0.0
 10
6.93175
 20
8.18658
 30
0.0
 10
6.92931
 20
8.17757
 30
0.0
 10
6.92318
 20
8.17156
 30
0.0
  0
SPLINE
  5
331
100
AcDbEntity
  8
C00-00-00-BLACK
100
AcDbSpline
210
0.0
220
0.0
230
1.0
 70
     0
 71
     3
 72
     8
 73
4
 40
0.0
 40
0.0
 40
0.0
 40
0.0
 40
1.0
 40
1.0
 40
1.0
 40
1.0
 10
6.92318
 20
8.17156
 30
0.0
 10
6.91678
 20
8.16542
 30
0.0
 10
6.91118
 20
8.16613
 30
0.0
 10
6.90674
 20
8.16689
 30
0.0
  0
LINE
  5
332
100
AcDbEntity
  8
C00-00-00-BLACK
100
AcDbLine
 10
6.90674
 20
8.16689
 30
0.0
 11
6.90181
 21
8.16738
 31
0.0
  0
SPLINE
  5
333
100
AcDbEntity
  8
C00-00-00-BLACK
100
AcDbSpline
210
0.0
220
0.0
230
1.0
 70
     0
 71
     3
 72
     8
 73
4
 40
0.0
 40
0.0
 40
0.0
 40
0.0
 40
1.0
 40
1.0
 40
1.0
 40
1.0
 10
7.5409
 20
7.42794
 30
0.0
 10
7.54156
 20
7.43099
 30
0.0
 10
7.54172
 20
7.43186
 30
0.0
 10
7.53944
 20
7.43235
 30
0.0
  0
SPLINE
  5
334
100
AcDbEntity
  8
C00-00-00-BLACK
100
AcDbSpline
210
0.0
220
0.0
230
1.0
 70
     0
 71
     3
 72
     8
 73
4
 40
0.0
 40
0.0
 40
0.0
 40
0.0
 40
1.0
 40
1.0
 40
1.0
 40
1.0
 10
7.53944
 20
7.43235
 30
0.0
 10
7.53814
 20
7.43261
 30
0.0
 10
7.53765
 20
7.43267
 30
0.0
 10
7.53597
 20
7.43104
 30
0.0
  0
LINE
  5
335
100
AcDbEntity
  8
C00-00-00-BLACK
100
AcDbLine
 10
7.53597
 20
7.43104
 30
0.0
 11
7.47092
 21
7.36561
 31
0.0
  0
LINE
  5
336
100
AcDbEntity
  8
C00-00-00-BLACK
100
AcDbLine
 10
7.47092
 20
7.36561
 30
0.0
 11
7.46989
 21
7.36089
 31
0.0
  0
LINE
  5
337
100
AcDbEntity
  8
C00-00-00-BLACK
100
AcDbLine
 10
7.46989
 20
7.36089
 30
0.0
 11
7.51258
 21
7.35178
 31
0.0
  0
LINE
  5
338
100
AcDbEntity
  8
C00-00-00-BLACK
100
AcDbLine
 10
7.51258
 20
7.35178
 30
0.0
 11
7.50944
 21
7.33703
 31
0.0
  0
SPLINE
  5
339
100
AcDbEntity
  8
C00-00-00-BLACK
100
AcDbSpline
210
0.0
220
0.0
230
1.0
 70
     0
 71
     3
 72
     8
 73
4
 40
0.0
 40
0.0
 40
0.0
 40
0.0
 40
1.0
 40
1.0
 40
1.0
 40
1.0
 10
7.50944
 20
7.33703
 30
0.0
 10
7.50819
 20
7.331
 30
0.0
 10
7.50749
 20
7.32949
 30
0.0
 10
7.49567
 20
7.33197
 30
0.0
  0
LINE
  5
33a
100
AcDbEntity
  8
C00-00-00-BLACK
100
AcDbLine
 10
7.49567
 20
7.33197
 30
0.0
 11
7.4924
 21
7.33268
 31
0.0
  0
LINE
  5
33b
100
AcDbEntity
  8
C00-00-00-BLACK
100
AcDbLine
 10
7.4924
 20
7.33268
 30
0.0
 11
7.49143
 21
7.32796
 31
0.0
  0
SPLINE
  5
33c
100
AcDbEntity
  8
C00-00-00-BLACK
100
AcDbSpline
210
0.0
220
0.0
230
1.0
 70
     0
 71
     3
 72
     8
 73
4
 40
0.0
 40
0.0
 40
0.0
 40
0.0
 40
1.0
 40
1.0
 40
1.0
 40
1.0
 10
7.49143
 20
7.32796
 30
0.0
 10
7.49522
 20
7.32753
 30
0.0
 10
7.50803
 20
7.32476
 30
0.0
 10
7.51258
 20
7.32378
 30
0.0
  0
SPLINE
  5
33d
100
AcDbEntity
  8
C00-00-00-BLACK
100
AcDbSpline
210
0.0
220
0.0
230
1.0
 70
     0
 71
     3
 72
     8
 73
4
 40
0.0
 40
0.0
 40
0.0
 40
0.0
 40
1.0
 40
1.0
 40
1.0
 40
1.0
 10
7.51258
 20
7.32378
 30
0.0
 10
7.51714
 20
7.32281
 30
0.0
 10
7.53011
 20
7.32004
 30
0.0
 10
7.53381
 20
7.31896
 30
0.0
  0
LINE
  5
33e
100
AcDbEntity
  8
C00-00-00-BLACK
100
AcDbLine
 10
7.53381
 20
7.31896
 30
0.0
 11
7.53478
 21
7.32368
 31
0.0
  0
LINE
  5
33f
100
AcDbEntity
  8
C00-00-00-BLACK
100
AcDbLine
 10
7.53478
 20
7.32368
 30
0.0
 11
7.53153
 21
7.32433
 31
0.0
  0
SPLINE
  5
340
100
AcDbEntity
  8
C00-00-00-BLACK
100
AcDbSpline
210
0.0
220
0.0
230
1.0
 70
     0
 71
     3
 72
     8
 73
4
 40
0.0
 40
0.0
 40
0.0
 40
0.0
 40
1.0
 40
1.0
 40
1.0
 40
1.0
 10
7.53153
 20
7.32433
 30
0.0
 10
7.51986
 20
7.32682
 30
0.0
 10
7.51969
 20
7.32856
 30
0.0
 10
7.521
 20
7.33458
 30
0.0
  0
LINE
  5
341
100
AcDbEntity
  8
C00-00-00-BLACK
100
AcDbLine
 10
7.521
 20
7.33458
 30
0.0
 11
7.52414
 21
7.34933
 31
0.0
  0
LINE
  5
342
100
AcDbEntity
  8
C00-00-00-BLACK
100
AcDbLine
 10
7.52414
 20
7.34933
 30
0.0
 11
7.54058
 21
7.34586
 31
0.0
  0
LINE
  5
343
100
AcDbEntity
  8
C00-00-00-BLACK
100
AcDbLine
 10
7.54058
 20
7.34586
 30
0.0
 11
7.54156
 21
7.35058
 31
0.0
  0
LINE
  5
344
100
AcDbEntity
  8
C00-00-00-BLACK
100
AcDbLine
 10
7.54156
 20
7.35058
 30
0.0
 11
7.52517
 21
7.35406
 31
0.0
  0
LINE
  5
345
100
AcDbEntity
  8
C00-00-00-BLACK
100
AcDbLine
 10
7.52517
 20
7.35406
 30
0.0
 11
7.5409
 21
7.42794
 31
0.0
  0
LINE
  5
346
100
AcDbEntity
  8
C00-00-00-BLACK
100
AcDbLine
 10
7.5275
 20
7.41753
 30
0.0
 11
7.51443
 21
7.35633
 31
0.0
  0
LINE
  5
347
100
AcDbEntity
  8
C00-00-00-BLACK
100
AcDbLine
 10
7.51443
 20
7.35633
 30
0.0
 11
7.47493
 21
7.36475
 31
0.0
  0
LINE
  5
348
100
AcDbEntity
  8
C00-00-00-BLACK
100
AcDbLine
 10
7.47493
 20
7.36475
 30
0.0
 11
7.5275
 21
7.41753
 31
0.0
  0
SPLINE
  5
349
100
AcDbEntity
  8
C00-00-00-BLACK
100
AcDbSpline
210
0.0
220
0.0
230
1.0
 70
     0
 71
     3
 72
     8
 73
4
 40
0.0
 40
0.0
 40
0.0
 40
0.0
 40
1.0
 40
1.0
 40
1.0
 40
1.0
 10
7.87717
 20
6.51346
 30
0.0
 10
7.88362
 20
6.50965
 30
0.0
 10
7.88926
 20
6.50825
 30
0.0
 10
7.89106
 20
6.50786
 30
0.0
  0
SPLINE
  5
34a
100
AcDbEntity
  8
C00-00-00-BLACK
100
AcDbSpline
210
0.0
220
0.0
230
1.0
 70
     0
 71
     3
 72
     8
 73
4
 40
0.0
 40
0.0
 40
0.0
 40
0.0
 40
1.0
 40
1.0
 40
1.0
 40
1.0
 10
7.89106
 20
6.50786
 30
0.0
 10
7.9094
 20
6.50385
 30
0.0
 10
7.92399
 20
6.51475
 30
0.0
 10
7.92447
 20
6.51704
 30
0.0
  0
SPLINE
  5
34b
100
AcDbEntity
  8
C00-00-00-BLACK
100
AcDbSpline
210
0.0
220
0.0
230
1.0
 70
     0
 71
     3
 72
     8
 73
4
 40
0.0
 40
0.0
 40
0.0
 40
0.0
 40
1.0
 40
1.0
 40
1.0
 40
1.0
 10
7.92447
 20
6.51704
 30
0.0
 10
7.92464
 20
6.51768
 30
0.0
 10
7.92447
 20
6.51856
 30
0.0
 10
7.9235
 20
6.51878
 30
0.0
  0
SPLINE
  5
34c
100
AcDbEntity
  8
C00-00-00-BLACK
100
AcDbSpline
210
0.0
220
0.0
230
1.0
 70
     0
 71
     3
 72
     8
 73
4
 40
0.0
 40
0.0
 40
0.0
 40
0.0
 40
1.0
 40
1.0
 40
1.0
 40
1.0
 10
7.9235
 20
6.51878
 30
0.0
 10
7.92318
 20
6.51882
 30
0.0
 10
7.92285
 20
6.51893
 30
0.0
 10
7.92128
 20
6.51861
 30
0.0
  0
SPLINE
  5
34d
100
AcDbEntity
  8
C00-00-00-BLACK
100
AcDbSpline
210
0.0
220
0.0
230
1.0
 70
     0
 71
     3
 72
     8
 73
4
 40
0.0
 40
0.0
 40
0.0
 40
0.0
 40
1.0
 40
1.0
 40
1.0
 40
1.0
 10
7.92128
 20
6.51861
 30
0.0
 10
7.91135
 20
6.51665
 30
0.0
 10
7.90343
 20
6.5179
 30
0.0
 10
7.89919
 20
6.51882
 30
0.0
  0
SPLINE
  5
34e
100
AcDbEntity
  8
C00-00-00-BLACK
100
AcDbSpline
210
0.0
220
0.0
230
1.0
 70
     0
 71
     3
 72
     8
 73
4
 40
0.0
 40
0.0
 40
0.0
 40
0.0
 40
1.0
 40
1.0
 40
1.0
 40
1.0
 10
7.89919
 20
6.51882
 30
0.0
 10
7.88851
 20
6.52115
 30
0.0
 10
7.88162
 20
6.52604
 30
0.0
 10
7.87879
 20
6.52806
 30
0.0
  0
SPLINE
  5
34f
100
AcDbEntity
  8
C00-00-00-BLACK
100
AcDbSpline
210
0.0
220
0.0
230
1.0
 70
     0
 71
     3
 72
     8
 73
4
 40
0.0
 40
0.0
 40
0.0
 40
0.0
 40
1.0
 40
1.0
 40
1.0
 40
1.0
 10
7.87879
 20
6.52806
 30
0.0
 10
7.87776
 20
6.52875
 30
0.0
 10
7.87744
 20
6.52881
 30
0.0
 10
7.87728
 20
6.52886
 30
0.0
  0
SPLINE
  5
350
100
AcDbEntity
  8
C00-00-00-BLACK
100
AcDbSpline
210
0.0
220
0.0
230
1.0
 70
     0
 71
     3
 72
     8
 73
4
 40
0.0
 40
0.0
 40
0.0
 40
0.0
 40
1.0
 40
1.0
 40
1.0
 40
1.0
 10
7.87728
 20
6.52886
 30
0.0
 10
7.87597
 20
6.52914
 30
0.0
 10
7.87576
 20
6.52815
 30
0.0
 10
7.87522
 20
6.52561
 30
0.0
  0
LINE
  5
351
100
AcDbEntity
  8
C00-00-00-BLACK
100
AcDbLine
 10
7.87522
 20
6.52561
 30
0.0
 11
7.86469
 21
6.47738
 31
0.0
  0
SPLINE
  5
352
100
AcDbEntity
  8
C00-00-00-BLACK
100
AcDbSpline
210
0.0
220
0.0
230
1.0
 70
     0
 71
     3
 72
     8
 73
4
 40
0.0
 40
0.0
 40
0.0
 40
0.0
 40
1.0
 40
1.0
 40
1.0
 40
1.0
 10
7.86469
 20
6.47738
 30
0.0
 10
7.86404
 20
6.47444
 30
0.0
 10
7.86382
 20
6.47353
 30
0.0
 10
7.86578
 20
6.47308
 30
0.0
  0
SPLINE
  5
353
100
AcDbEntity
  8
C00-00-00-BLACK
100
AcDbSpline
210
0.0
220
0.0
230
1.0
 70
     0
 71
     3
 72
     8
 73
4
 40
0.0
 40
0.0
 40
0.0
 40
0.0
 40
1.0
 40
1.0
 40
1.0
 40
1.0
 10
7.86578
 20
6.47308
 30
0.0
 10
7.8666
 20
6.47293
 30
0.0
 10
7.86681
 20
6.47304
 30
0.0
 10
7.86888
 20
6.47461
 30
0.0
  0
SPLINE
  5
354
100
AcDbEntity
  8
C00-00-00-BLACK
100
AcDbSpline
210
0.0
220
0.0
230
1.0
 70
     0
 71
     3
 72
     8
 73
4
 40
0.0
 40
0.0
 40
0.0
 40
0.0
 40
1.0
 40
1.0
 40
1.0
 40
1.0
 10
7.86888
 20
6.47461
 30
0.0
 10
7.87483
 20
6.48025
 30
0.0
 10
7.88331
 20
6.48253
 30
0.0
 10
7.89144
 20
6.48074
 30
0.0
  0
SPLINE
  5
355
100
AcDbEntity
  8
C00-00-00-BLACK
100
AcDbSpline
210
0.0
220
0.0
230
1.0
 70
     0
 71
     3
 72
     8
 73
4
 40
0.0
 40
0.0
 40
0.0
 40
0.0
 40
1.0
 40
1.0
 40
1.0
 40
1.0
 10
7.89144
 20
6.48074
 30
0.0
 10
7.90001
 20
6.47889
 30
0.0
 10
7.9025
 20
6.47
 30
0.0
 10
7.90321
 20
6.46696
 30
0.0
  0
SPLINE
  5
356
100
AcDbEntity
  8
C00-00-00-BLACK
100
AcDbSpline
210
0.0
220
0.0
230
1.0
 70
     0
 71
     3
 72
     8
 73
4
 40
0.0
 40
0.0
 40
0.0
 40
0.0
 40
1.0
 40
1.0
 40
1.0
 40
1.0
 10
7.90321
 20
6.46696
 30
0.0
 10
7.90457
 20
6.46001
 30
0.0
 10
7.903
 20
6.45204
 30
0.0
 10
7.90169
 20
6.44586
 30
0.0
  0
SPLINE
  5
357
100
AcDbEntity
  8
C00-00-00-BLACK
100
AcDbSpline
210
0.0
220
0.0
230
1.0
 70
     0
 71
     3
 72
     8
 73
4
 40
0.0
 40
0.0
 40
0.0
 40
0.0
 40
1.0
 40
1.0
 40
1.0
 40
1.0
 10
7.90169
 20
6.44586
 30
0.0
 10
7.90033
 20
6.43972
 30
0.0
 10
7.89833
 20
6.43044
 30
0.0
 10
7.89214
 20
6.42415
 30
0.0
  0
SPLINE
  5
358
100
AcDbEntity
  8
C00-00-00-BLACK
100
AcDbSpline
210
0.0
220
0.0
230
1.0
 70
     0
 71
     3
 72
     8
 73
4
 40
0.0
 40
0.0
 40
0.0
 40
0.0
 40
1.0
 40
1.0
 40
1.0
 40
1.0
 10
7.89214
 20
6.42415
 30
0.0
 10
7.88732
 20
6.41911
 30
0.0
 10
7.8801
 20
6.41639
 30
0.0
 10
7.87299
 20
6.41797
 30
0.0
  0
SPLINE
  5
359
100
AcDbEntity
  8
C00-00-00-BLACK
100
AcDbSpline
210
0.0
220
0.0
230
1.0
 70
     0
 71
     3
 72
     8
 73
4
 40
0.0
 40
0.0
 40
0.0
 40
0.0
 40
1.0
 40
1.0
 40
1.0
 40
1.0
 10
7.87299
 20
6.41797
 30
0.0
 10
7.86225
 20
6.42031
 30
0.0
 10
7.85331
 20
6.4299
 30
0.0
 10
7.85297
 20
6.44239
 30
0.0
  0
SPLINE
  5
35a
100
AcDbEntity
  8
C00-00-00-BLACK
100
AcDbSpline
210
0.0
220
0.0
230
1.0
 70
     0
 71
     3
 72
     8
 73
4
 40
0.0
 40
0.0
 40
0.0
 40
0.0
 40
1.0
 40
1.0
 40
1.0
 40
1.0
 10
7.85297
 20
6.44239
 30
0.0
 10
7.85374
 20
6.44189
 30
0.0
 10
7.85465
 20
6.44151
 30
0.0
 10
7.85547
 20
6.44135
 30
0.0
  0
SPLINE
  5
35b
100
AcDbEntity
  8
C00-00-00-BLACK
100
AcDbSpline
210
0.0
220
0.0
230
1.0
 70
     0
 71
     3
 72
     8
 73
4
 40
0.0
 40
0.0
 40
0.0
 40
0.0
 40
1.0
 40
1.0
 40
1.0
 40
1.0
 10
7.85547
 20
6.44135
 30
0.0
 10
7.85818
 20
6.44075
 30
0.0
 10
7.86296
 20
6.4414
 30
0.0
 10
7.86415
 20
6.44694
 30
0.0
  0
SPLINE
  5
35c
100
AcDbEntity
  8
C00-00-00-BLACK
100
AcDbSpline
210
0.0
220
0.0
230
1.0
 70
     0
 71
     3
 72
     8
 73
4
 40
0.0
 40
0.0
 40
0.0
 40
0.0
 40
1.0
 40
1.0
 40
1.0
 40
1.0
 10
7.86415
 20
6.44694
 30
0.0
 10
7.86513
 20
6.45144
 30
0.0
 10
7.86263
 20
6.45475
 30
0.0
 10
7.85856
 20
6.45562
 30
0.0
  0
SPLINE
  5
35d
100
AcDbEntity
  8
C00-00-00-BLACK
100
AcDbSpline
210
0.0
220
0.0
230
1.0
 70
     0
 71
     3
 72
     8
 73
4
 40
0.0
 40
0.0
 40
0.0
 40
0.0
 40
1.0
 40
1.0
 40
1.0
 40
1.0
 10
7.85856
 20
6.45562
 30
0.0
 10
7.85562
 20
6.45628
 30
0.0
 10
7.85113
 20
6.45572
 30
0.0
 10
7.84972
 20
6.44938
 30
0.0
  0
SPLINE
  5
35e
100
AcDbEntity
  8
C00-00-00-BLACK
100
AcDbSpline
210
0.0
220
0.0
230
1.0
 70
     0
 71
     3
 72
     8
 73
4
 40
0.0
 40
0.0
 40
0.0
 40
0.0
 40
1.0
 40
1.0
 40
1.0
 40
1.0
 10
7.84972
 20
6.44938
 30
0.0
 10
7.84674
 20
6.4356
 30
0.0
 10
7.85433
 20
6.41749
 30
0.0
 10
7.87235
 20
6.41351
 30
0.0
  0
SPLINE
  5
35f
100
AcDbEntity
  8
C00-00-00-BLACK
100
AcDbSpline
210
0.0
220
0.0
230
1.0
 70
     0
 71
     3
 72
     8
 73
4
 40
0.0
 40
0.0
 40
0.0
 40
0.0
 40
1.0
 40
1.0
 40
1.0
 40
1.0
 10
7.87235
 20
6.41351
 30
0.0
 10
7.89068
 20
6.4095
 30
0.0
 10
7.9101
 20
6.42144
 30
0.0
 10
7.91461
 20
6.44206
 30
0.0
  0
SPLINE
  5
360
100
AcDbEntity
  8
C00-00-00-BLACK
100
AcDbSpline
210
0.0
220
0.0
230
1.0
 70
     0
 71
     3
 72
     8
 73
4
 40
0.0
 40
0.0
 40
0.0
 40
0.0
 40
1.0
 40
1.0
 40
1.0
 40
1.0
 10
7.91461
 20
6.44206
 30
0.0
 10
7.91878
 20
6.46137
 30
0.0
 10
7.90935
 20
6.48025
 30
0.0
 10
7.89231
 20
6.48394
 30
0.0
  0
SPLINE
  5
361
100
AcDbEntity
  8
C00-00-00-BLACK
100
AcDbSpline
210
0.0
220
0.0
230
1.0
 70
     0
 71
     3
 72
     8
 73
4
 40
0.0
 40
0.0
 40
0.0
 40
0.0
 40
1.0
 40
1.0
 40
1.0
 40
1.0
 10
7.89231
 20
6.48394
 30
0.0
 10
7.88303
 20
6.48594
 30
0.0
 10
7.87506
 20
6.48346
 30
0.0
 10
7.86985
 20
6.47987
 30
0.0
  0
LINE
  5
362
100
AcDbEntity
  8
C00-00-00-BLACK
100
AcDbLine
 10
7.86985
 20
6.47987
 30
0.0
 11
7.87717
 21
6.51346
 31
0.0
  0
SPLINE
  5
363
100
AcDbEntity
  8
C00-00-00-BLACK
100
AcDbSpline
210
0.0
220
0.0
230
1.0
 70
     0
 71
     3
 72
     8
 73
4
 40
0.0
 40
0.0
 40
0.0
 40
0.0
 40
1.0
 40
1.0
 40
1.0
 40
1.0
 10
7.99642
 20
5.50196
 30
0.0
 10
8.00553
 20
5.54297
 30
0.0
 10
8.02692
 20
5.54497
 30
0.0
 10
8.03564
 20
5.54308
 30
0.0
  0
SPLINE
  5
364
100
AcDbEntity
  8
C00-00-00-BLACK
100
AcDbSpline
210
0.0
220
0.0
230
1.0
 70
     0
 71
     3
 72
     8
 73
4
 40
0.0
 40
0.0
 40
0.0
 40
0.0
 40
1.0
 40
1.0
 40
1.0
 40
1.0
 10
8.03564
 20
5.54308
 30
0.0
 10
8.0415
 20
5.54178
 30
0.0
 10
8.04693
 20
5.53868
 30
0.0
 10
8.04893
 20
5.53315
 30
0.0
  0
SPLINE
  5
365
100
AcDbEntity
  8
C00-00-00-BLACK
100
AcDbSpline
210
0.0
220
0.0
230
1.0
 70
     0
 71
     3
 72
     8
 73
4
 40
0.0
 40
0.0
 40
0.0
 40
0.0
 40
1.0
 40
1.0
 40
1.0
 40
1.0
 10
8.04893
 20
5.53315
 30
0.0
 10
8.04699
 20
5.53353
 30
0.0
 10
8.04085
 20
5.53494
 30
0.0
 10
8.03933
 20
5.52826
 30
0.0
  0
SPLINE
  5
366
100
AcDbEntity
  8
C00-00-00-BLACK
100
AcDbSpline
210
0.0
220
0.0
230
1.0
 70
     0
 71
     3
 72
     8
 73
4
 40
0.0
 40
0.0
 40
0.0
 40
0.0
 40
1.0
 40
1.0
 40
1.0
 40
1.0
 10
8.03933
 20
5.52826
 30
0.0
 10
8.03857
 20
5.52474
 30
0.0
 10
8.04031
 20
5.52111
 30
0.0
 10
8.04449
 20
5.52018
 30
0.0
  0
SPLINE
  5
367
100
AcDbEntity
  8
C00-00-00-BLACK
100
AcDbSpline
210
0.0
220
0.0
230
1.0
 70
     0
 71
     3
 72
     8
 73
4
 40
0.0
 40
0.0
 40
0.0
 40
0.0
 40
1.0
 40
1.0
 40
1.0
 40
1.0
 10
8.04449
 20
5.52018
 30
0.0
 10
8.04856
 20
5.51926
 30
0.0
 10
8.05186
 20
5.52111
 30
0.0
 10
8.0529
 20
5.52576
 30
0.0
  0
SPLINE
  5
368
100
AcDbEntity
  8
C00-00-00-BLACK
100
AcDbSpline
210
0.0
220
0.0
230
1.0
 70
     0
 71
     3
 72
     8
 73
4
 40
0.0
 40
0.0
 40
0.0
 40
0.0
 40
1.0
 40
1.0
 40
1.0
 40
1.0
 10
8.0529
 20
5.52576
 30
0.0
 10
8.05479
 20
5.53424
 30
0.0
 10
8.05046
 20
5.54383
 30
0.0
 10
8.03635
 20
5.54699
 30
0.0
  0
SPLINE
  5
369
100
AcDbEntity
  8
C00-00-00-BLACK
100
AcDbSpline
210
0.0
220
0.0
230
1.0
 70
     0
 71
     3
 72
     8
 73
4
 40
0.0
 40
0.0
 40
0.0
 40
0.0
 40
1.0
 40
1.0
 40
1.0
 40
1.0
 10
8.03635
 20
5.54699
 30
0.0
 10
8.01594
 20
5.55154
 30
0.0
 10
7.9899
 20
5.53543
 30
0.0
 10
7.98193
 20
5.49972
 30
0.0
  0
SPLINE
  5
36a
100
AcDbEntity
  8
C00-00-00-BLACK
100
AcDbSpline
210
0.0
220
0.0
230
1.0
 70
     0
 71
     3
 72
     8
 73
4
 40
0.0
 40
0.0
 40
0.0
 40
0.0
 40
1.0
 40
1.0
 40
1.0
 40
1.0
 10
7.98193
 20
5.49972
 30
0.0
 10
7.972
 20
5.45518
 30
0.0
 10
7.98921
 20
5.44081
 30
0.0
 10
8.00299
 20
5.43772
 30
0.0
  0
SPLINE
  5
36b
100
AcDbEntity
  8
C00-00-00-BLACK
100
AcDbSpline
210
0.0
220
0.0
230
1.0
 70
     0
 71
     3
 72
     8
 73
4
 40
0.0
 40
0.0
 40
0.0
 40
0.0
 40
1.0
 40
1.0
 40
1.0
 40
1.0
 10
8.00299
 20
5.43772
 30
0.0
 10
8.02067
 20
5.43375
 30
0.0
 10
8.03917
 20
5.44581
 30
0.0
 10
8.04383
 20
5.4669
 30
0.0
  0
SPLINE
  5
36c
100
AcDbEntity
  8
C00-00-00-BLACK
100
AcDbSpline
210
0.0
220
0.0
230
1.0
 70
     0
 71
     3
 72
     8
 73
4
 40
0.0
 40
0.0
 40
0.0
 40
0.0
 40
1.0
 40
1.0
 40
1.0
 40
1.0
 10
8.04383
 20
5.4669
 30
0.0
 10
8.04867
 20
5.48844
 30
0.0
 10
8.03678
 20
5.50624
 30
0.0
 10
8.02061
 20
5.50988
 30
0.0
  0
SPLINE
  5
36d
100
AcDbEntity
  8
C00-00-00-BLACK
100
AcDbSpline
210
0.0
220
0.0
230
1.0
 70
     0
 71
     3
 72
     8
 73
4
 40
0.0
 40
0.0
 40
0.0
 40
0.0
 40
1.0
 40
1.0
 40
1.0
 40
1.0
 10
8.02061
 20
5.50988
 30
0.0
 10
8.00618
 20
5.51307
 30
0.0
 10
7.99804
 20
5.50179
 30
0.0
 10
7.99544
 20
5.49761
 30
0.0
  0
LINE
  5
36e
100
AcDbEntity
  8
C00-00-00-BLACK
100
AcDbLine
 10
7.99544
 20
5.49761
 30
0.0
 11
7.99642
 21
5.50196
 31
0.0
  0
SPLINE
  5
36f
100
AcDbEntity
  8
C00-00-00-BLACK
100
AcDbSpline
210
0.0
220
0.0
230
1.0
 70
     0
 71
     3
 72
     8
 73
4
 40
0.0
 40
0.0
 40
0.0
 40
0.0
 40
1.0
 40
1.0
 40
1.0
 40
1.0
 10
8.00396
 20
5.44206
 30
0.0
 10
7.99376
 20
5.44433
 30
0.0
 10
7.99094
 20
5.45454
 30
0.0
 10
7.99024
 20
5.45822
 30
0.0
  0
SPLINE
  5
370
100
AcDbEntity
  8
C00-00-00-BLACK
100
AcDbSpline
210
0.0
220
0.0
230
1.0
 70
     0
 71
     3
 72
     8
 73
4
 40
0.0
 40
0.0
 40
0.0
 40
0.0
 40
1.0
 40
1.0
 40
1.0
 40
1.0
 10
7.99024
 20
5.45822
 30
0.0
 10
7.98969
 20
5.46278
 30
0.0
 10
7.98986
 20
5.47108
 30
0.0
 10
7.99235
 20
5.48242
 30
0.0
  0
SPLINE
  5
371
100
AcDbEntity
  8
C00-00-00-BLACK
100
AcDbSpline
210
0.0
220
0.0
230
1.0
 70
     0
 71
     3
 72
     8
 73
4
 40
0.0
 40
0.0
 40
0.0
 40
0.0
 40
1.0
 40
1.0
 40
1.0
 40
1.0
 10
7.99235
 20
5.48242
 30
0.0
 10
7.99522
 20
5.49522
 30
0.0
 10
8.00467
 20
5.50999
 30
0.0
 10
8.01921
 20
5.50672
 30
0.0
  0
SPLINE
  5
372
100
AcDbEntity
  8
C00-00-00-BLACK
100
AcDbSpline
210
0.0
220
0.0
230
1.0
 70
     0
 71
     3
 72
     8
 73
4
 40
0.0
 40
0.0
 40
0.0
 40
0.0
 40
1.0
 40
1.0
 40
1.0
 40
1.0
 10
8.01921
 20
5.50672
 30
0.0
 10
8.02815
 20
5.50478
 30
0.0
 10
8.03153
 20
5.49772
 30
0.0
 10
8.03271
 20
5.49164
 30
0.0
  0
SPLINE
  5
373
100
AcDbEntity
  8
C00-00-00-BLACK
100
AcDbSpline
210
0.0
220
0.0
230
1.0
 70
     0
 71
     3
 72
     8
 73
4
 40
0.0
 40
0.0
 40
0.0
 40
0.0
 40
1.0
 40
1.0
 40
1.0
 40
1.0
 10
8.03271
 20
5.49164
 30
0.0
 10
8.03396
 20
5.48508
 30
0.0
 10
8.03217
 20
5.477
 30
0.0
 10
8.0306
 20
5.47
 30
0.0
  0
SPLINE
  5
374
100
AcDbEntity
  8
C00-00-00-BLACK
100
AcDbSpline
210
0.0
220
0.0
230
1.0
 70
     0
 71
     3
 72
     8
 73
4
 40
0.0
 40
0.0
 40
0.0
 40
0.0
 40
1.0
 40
1.0
 40
1.0
 40
1.0
 10
8.0306
 20
5.47
 30
0.0
 10
8.02875
 20
5.46175
 30
0.0
 10
8.02713
 20
5.45443
 30
0.0
 10
8.02268
 20
5.44894
 30
0.0
  0
SPLINE
  5
375
100
AcDbEntity
  8
C00-00-00-BLACK
100
AcDbSpline
210
0.0
220
0.0
230
1.0
 70
     0
 71
     3
 72
     8
 73
4
 40
0.0
 40
0.0
 40
0.0
 40
0.0
 40
1.0
 40
1.0
 40
1.0
 40
1.0
 10
8.02268
 20
5.44894
 30
0.0
 10
8.01693
 20
5.44211
 30
0.0
 10
8.01047
 20
5.44065
 30
0.0
 10
8.00396
 20
5.44206
 30
0.0
  0
LINE
  5
376
100
AcDbEntity
  8
C00-00-00-BLACK
100
AcDbLine
 10
8.00396
 20
5.44206
 30
0.0
 11
8.00396
 21
5.44206
 31
0.0
  0
LINE
  5
377
100
AcDbEntity
  8
C00-00-00-BLACK
100
AcDbLine
 10
7.93593
 20
4.55664
 30
0.0
 11
7.93674
 21
4.56039
 31
0.0
  0
LINE
  5
378
100
AcDbEntity
  8
C00-00-00-BLACK
100
AcDbLine
 10
7.93674
 20
4.56039
 30
0.0
 11
7.89774
 21
4.56922
 31
0.0
  0
SPLINE
  5
379
100
AcDbEntity
  8
C00-00-00-BLACK
100
AcDbSpline
210
0.0
220
0.0
230
1.0
 70
     0
 71
     3
 72
     8
 73
4
 40
0.0
 40
0.0
 40
0.0
 40
0.0
 40
1.0
 40
1.0
 40
1.0
 40
1.0
 10
7.89774
 20
4.56922
 30
0.0
 10
7.87815
 20
4.57374
 30
0.0
 10
7.87831
 20
4.5759
 30
0.0
 10
7.87836
 20
4.5791
 30
0.0
  0
LINE
  5
37a
100
AcDbEntity
  8
C00-00-00-BLACK
100
AcDbLine
 10
7.87836
 20
4.5791
 30
0.0
 11
7.87478
 21
4.57992
 31
0.0
  0
LINE
  5
37b
100
AcDbEntity
  8
C00-00-00-BLACK
100
AcDbLine
 10
7.87478
 20
4.57992
 30
0.0
 11
7.86242
 21
4.54867
 31
0.0
  0
LINE
  5
37c
100
AcDbEntity
  8
C00-00-00-BLACK
100
AcDbLine
 10
7.86242
 20
4.54867
 30
0.0
 11
7.86594
 21
4.54785
 31
0.0
  0
SPLINE
  5
37d
100
AcDbEntity
  8
C00-00-00-BLACK
100
AcDbSpline
210
0.0
220
0.0
230
1.0
 70
     0
 71
     3
 72
     8
 73
4
 40
0.0
 40
0.0
 40
0.0
 40
0.0
 40
1.0
 40
1.0
 40
1.0
 40
1.0
 10
7.86594
 20
4.54785
 30
0.0
 10
7.86714
 20
4.55067
 30
0.0
 10
7.87082
 20
4.56039
 30
0.0
 10
7.87337
 20
4.56168
 30
0.0
  0
SPLINE
  5
37e
100
AcDbEntity
  8
C00-00-00-BLACK
100
AcDbSpline
210
0.0
220
0.0
230
1.0
 70
     0
 71
     3
 72
     8
 73
4
 40
0.0
 40
0.0
 40
0.0
 40
0.0
 40
1.0
 40
1.0
 40
1.0
 40
1.0
 10
7.87337
 20
4.56168
 30
0.0
 10
7.87489
 20
4.56233
 30
0.0
 10
7.88699
 20
4.55957
 30
0.0
 10
7.88926
 20
4.55908
 30
0.0
  0
LINE
  5
37f
100
AcDbEntity
  8
C00-00-00-BLACK
100
AcDbLine
 10
7.88926
 20
4.55908
 30
0.0
 11
7.92361
 21
4.55126
 31
0.0
  0
LINE
  5
380
100
AcDbEntity
  8
C00-00-00-BLACK
100
AcDbLine
 10
7.92361
 20
4.55126
 30
0.0
 11
7.90082
 21
4.53054
 31
0.0
  0
SPLINE
  5
381
100
AcDbEntity
  8
C00-00-00-BLACK
100
AcDbSpline
210
0.0
220
0.0
230
1.0
 70
     0
 71
     3
 72
     8
 73
4
 40
0.0
 40
0.0
 40
0.0
 40
0.0
 40
1.0
 40
1.0
 40
1.0
 40
1.0
 10
7.90082
 20
4.53054
 30
0.0
 10
7.89501
 20
4.52522
 30
0.0
 10
7.87261
 20
4.50239
 30
0.0
 10
7.86567
 20
4.47194
 30
0.0
  0
SPLINE
  5
382
100
AcDbEntity
  8
C00-00-00-BLACK
100
AcDbSpline
210
0.0
220
0.0
230
1.0
 70
     0
 71
     3
 72
     8
 73
4
 40
0.0
 40
0.0
 40
0.0
 40
0.0
 40
1.0
 40
1.0
 40
1.0
 40
1.0
 10
7.86567
 20
4.47194
 30
0.0
 10
7.86529
 20
4.47021
 30
0.0
 10
7.86382
 20
4.46371
 30
0.0
 10
7.87044
 20
4.46218
 30
0.0
  0
SPLINE
  5
383
100
AcDbEntity
  8
C00-00-00-BLACK
100
AcDbSpline
210
0.0
220
0.0
230
1.0
 70
     0
 71
     3
 72
     8
 73
4
 40
0.0
 40
0.0
 40
0.0
 40
0.0
 40
1.0
 40
1.0
 40
1.0
 40
1.0
 10
7.87044
 20
4.46218
 30
0.0
 10
7.87722
 20
4.46067
 30
0.0
 10
7.87869
 20
4.46696
 30
0.0
 10
7.87918
 20
4.46907
 30
0.0
  0
LINE
  5
384
100
AcDbEntity
  8
C00-00-00-BLACK
100
AcDbLine
 10
7.87918
 20
4.46907
 30
0.0
 11
7.88103
 21
4.47715
 31
0.0
  0
SPLINE
  5
385
100
AcDbEntity
  8
C00-00-00-BLACK
100
AcDbSpline
210
0.0
220
0.0
230
1.0
 70
     0
 71
     3
 72
     8
 73
4
 40
0.0
 40
0.0
 40
0.0
 40
0.0
 40
1.0
 40
1.0
 40
1.0
 40
1.0
 10
7.88103
 20
4.47715
 30
0.0
 10
7.8865
 20
4.50131
 30
0.0
 10
7.89464
 20
4.51921
 30
0.0
 10
7.90474
 20
4.52832
 30
0.0
  0
LINE
  5
386
100
AcDbEntity
  8
C00-00-00-BLACK
100
AcDbLine
 10
7.90474
 20
4.52832
 30
0.0
 11
7.93593
 21
4.55664
 31
0.0
  0
SPLINE
  5
387
100
AcDbEntity
  8
C00-00-00-BLACK
100
AcDbSpline
210
0.0
220
0.0
230
1.0
 70
     0
 71
     3
 72
     8
 73
4
 40
0.0
 40
0.0
 40
0.0
 40
0.0
 40
1.0
 40
1.0
 40
1.0
 40
1.0
 10
7.52012
 20
3.61106
 30
0.0
 10
7.52919
 20
3.61356
 30
0.0
 10
7.54275
 20
3.61828
 30
0.0
 10
7.5459
 20
3.63183
 30
0.0
  0
SPLINE
  5
388
100
AcDbEntity
  8
C00-00-00-BLACK
100
AcDbSpline
210
0.0
220
0.0
230
1.0
 70
     0
 71
     3
 72
     8
 73
4
 40
0.0
 40
0.0
 40
0.0
 40
0.0
 40
1.0
 40
1.0
 40
1.0
 40
1.0
 10
7.5459
 20
3.63183
 30
0.0
 10
7.54915
 20
3.64589
 30
0.0
 10
7.53787
 20
3.65875
 30
0.0
 10
7.52294
 20
3.66222
 30
0.0
  0
SPLINE
  5
389
100
AcDbEntity
  8
C00-00-00-BLACK
100
AcDbSpline
210
0.0
220
0.0
230
1.0
 70
     0
 71
     3
 72
     8
 73
4
 40
0.0
 40
0.0
 40
0.0
 40
0.0
 40
1.0
 40
1.0
 40
1.0
 40
1.0
 10
7.52294
 20
3.66222
 30
0.0
 10
7.50694
 20
3.66596
 30
0.0
 10
7.4916
 20
3.65707
 30
0.0
 10
7.48817
 20
3.64236
 30
0.0
  0
SPLINE
  5
38a
100
AcDbEntity
  8
C00-00-00-BLACK
100
AcDbSpline
210
0.0
220
0.0
230
1.0
 70
     0
 71
     3
 72
     8
 73
4
 40
0.0
 40
0.0
 40
0.0
 40
0.0
 40
1.0
 40
1.0
 40
1.0
 40
1.0
 10
7.48817
 20
3.64236
 30
0.0
 10
7.48687
 20
3.63688
 30
0.0
 10
7.48719
 20
3.63097
 30
0.0
 10
7.49044
 20
3.62446
 30
0.0
  0
SPLINE
  5
38b
100
AcDbEntity
  8
C00-00-00-BLACK
100
AcDbSpline
210
0.0
220
0.0
230
1.0
 70
     0
 71
     3
 72
     8
 73
4
 40
0.0
 40
0.0
 40
0.0
 40
0.0
 40
1.0
 40
1.0
 40
1.0
 40
1.0
 10
7.49044
 20
3.62446
 30
0.0
 10
7.49175
 20
3.6219
 30
0.0
 10
7.49186
 20
3.62175
 30
0.0
 10
7.50136
 20
3.61117
 30
0.0
  0
SPLINE
  5
38c
100
AcDbEntity
  8
C00-00-00-BLACK
100
AcDbSpline
210
0.0
220
0.0
230
1.0
 70
     0
 71
     3
 72
     8
 73
4
 40
0.0
 40
0.0
 40
0.0
 40
0.0
 40
1.0
 40
1.0
 40
1.0
 40
1.0
 10
7.50136
 20
3.61117
 30
0.0
 10
7.484
 20
3.60753
 30
0.0
 10
7.47336
 20
3.59858
 30
0.0
 10
7.47065
 20
3.58675
 30
0.0
  0
SPLINE
  5
38d
100
AcDbEntity
  8
C00-00-00-BLACK
100
AcDbSpline
210
0.0
220
0.0
230
1.0
 70
     0
 71
     3
 72
     8
 73
4
 40
0.0
 40
0.0
 40
0.0
 40
0.0
 40
1.0
 40
1.0
 40
1.0
 40
1.0
 10
7.47065
 20
3.58675
 30
0.0
 10
7.46664
 20
3.56967
 30
0.0
 10
7.48053
 20
3.55518
 30
0.0
 10
7.49701
 20
3.55132
 30
0.0
  0
SPLINE
  5
38e
100
AcDbEntity
  8
C00-00-00-BLACK
100
AcDbSpline
210
0.0
220
0.0
230
1.0
 70
     0
 71
     3
 72
     8
 73
4
 40
0.0
 40
0.0
 40
0.0
 40
0.0
 40
1.0
 40
1.0
 40
1.0
 40
1.0
 10
7.49701
 20
3.55132
 30
0.0
 10
7.51497
 20
3.54715
 30
0.0
 10
7.5331
 20
3.55692
 30
0.0
 10
7.537
 20
3.57389
 30
0.0
  0
SPLINE
  5
38f
100
AcDbEntity
  8
C00-00-00-BLACK
100
AcDbSpline
210
0.0
220
0.0
230
1.0
 70
     0
 71
     3
 72
     8
 73
4
 40
0.0
 40
0.0
 40
0.0
 40
0.0
 40
1.0
 40
1.0
 40
1.0
 40
1.0
 10
7.537
 20
3.57389
 30
0.0
 10
7.54085
 20
3.59039
 30
0.0
 10
7.53093
 20
3.60037
 30
0.0
 10
7.52012
 20
3.61106
 30
0.0
  0
LINE
  5
390
100
AcDbEntity
  8
C00-00-00-BLACK
100
AcDbLine
 10
7.52012
 20
3.61106
 30
0.0
 11
7.52012
 21
3.61106
 31
0.0
  0
SPLINE
  5
391
100
AcDbEntity
  8
C00-00-00-BLACK
100
AcDbSpline
210
0.0
220
0.0
230
1.0
 70
     0
 71
     3
 72
     8
 73
4
 40
0.0
 40
0.0
 40
0.0
 40
0.0
 40
1.0
 40
1.0
 40
1.0
 40
1.0
 10
7.50146
 20
3.63075
 30
0.0
 10
7.49972
 20
3.63271
 30
0.0
 10
7.49425
 20
3.6384
 30
0.0
 10
7.4961
 20
3.64632
 30
0.0
  0
SPLINE
  5
392
100
AcDbEntity
  8
C00-00-00-BLACK
100
AcDbSpline
210
0.0
220
0.0
230
1.0
 70
     0
 71
     3
 72
     8
 73
4
 40
0.0
 40
0.0
 40
0.0
 40
0.0
 40
1.0
 40
1.0
 40
1.0
 40
1.0
 10
7.4961
 20
3.64632
 30
0.0
 10
7.49854
 20
3.65685
 30
0.0
 10
7.51107
 20
3.66092
 30
0.0
 10
7.52192
 20
3.65836
 30
0.0
  0
SPLINE
  5
393
100
AcDbEntity
  8
C00-00-00-BLACK
100
AcDbSpline
210
0.0
220
0.0
230
1.0
 70
     0
 71
     3
 72
     8
 73
4
 40
0.0
 40
0.0
 40
0.0
 40
0.0
 40
1.0
 40
1.0
 40
1.0
 40
1.0
 10
7.52192
 20
3.65836
 30
0.0
 10
7.53353
 20
3.65565
 30
0.0
 10
7.54194
 20
3.64486
 30
0.0
 10
7.53922
 20
3.63325
 30
0.0
  0
SPLINE
  5
394
100
AcDbEntity
  8
C00-00-00-BLACK
100
AcDbSpline
210
0.0
220
0.0
230
1.0
 70
     0
 71
     3
 72
     8
 73
4
 40
0.0
 40
0.0
 40
0.0
 40
0.0
 40
1.0
 40
1.0
 40
1.0
 40
1.0
 10
7.53922
 20
3.63325
 30
0.0
 10
7.53694
 20
3.62337
 30
0.0
 10
7.528
 20
3.61708
 30
0.0
 10
7.51742
 20
3.6141
 30
0.0
  0
LINE
  5
395
100
AcDbEntity
  8
C00-00-00-BLACK
100
AcDbLine
 10
7.51742
 20
3.6141
 30
0.0
 11
7.50146
 21
3.63075
 31
0.0
  0
SPLINE
  5
396
100
AcDbEntity
  8
C00-00-00-BLACK
100
AcDbSpline
210
0.0
220
0.0
230
1.0
 70
     0
 71
     3
 72
     8
 73
4
 40
0.0
 40
0.0
 40
0.0
 40
0.0
 40
1.0
 40
1.0
 40
1.0
 40
1.0
 10
7.50424
 20
3.60813
 30
0.0
 10
7.50792
 20
3.60417
 30
0.0
 10
7.51714
 20
3.59472
 30
0.0
 10
7.52083
 20
3.59076
 30
0.0
  0
SPLINE
  5
397
100
AcDbEntity
  8
C00-00-00-BLACK
100
AcDbSpline
210
0.0
220
0.0
230
1.0
 70
     0
 71
     3
 72
     8
 73
4
 40
0.0
 40
0.0
 40
0.0
 40
0.0
 40
1.0
 40
1.0
 40
1.0
 40
1.0
 10
7.52083
 20
3.59076
 30
0.0
 10
7.52442
 20
3.58708
 30
0.0
 10
7.53065
 20
3.58029
 30
0.0
 10
7.52838
 20
3.57042
 30
0.0
  0
SPLINE
  5
398
100
AcDbEntity
  8
C00-00-00-BLACK
100
AcDbSpline
210
0.0
220
0.0
230
1.0
 70
     0
 71
     3
 72
     8
 73
4
 40
0.0
 40
0.0
 40
0.0
 40
0.0
 40
1.0
 40
1.0
 40
1.0
 40
1.0
 10
7.52838
 20
3.57042
 30
0.0
 10
7.52556
 20
3.55817
 30
0.0
 10
7.51113
 20
3.55263
 30
0.0
 10
7.49815
 20
3.55567
 30
0.0
  0
SPLINE
  5
399
100
AcDbEntity
  8
C00-00-00-BLACK
100
AcDbSpline
210
0.0
220
0.0
230
1.0
 70
     0
 71
     3
 72
     8
 73
4
 40
0.0
 40
0.0
 40
0.0
 40
0.0
 40
1.0
 40
1.0
 40
1.0
 40
1.0
 10
7.49815
 20
3.55567
 30
0.0
 10
7.48443
 20
3.55886
 30
0.0
 10
7.47493
 20
3.57161
 30
0.0
 10
7.47808
 20
3.58507
 30
0.0
  0
SPLINE
  5
39a
100
AcDbEntity
  8
C00-00-00-BLACK
100
AcDbSpline
210
0.0
220
0.0
230
1.0
 70
     0
 71
     3
 72
     8
 73
4
 40
0.0
 40
0.0
 40
0.0
 40
0.0
 40
1.0
 40
1.0
 40
1.0
 40
1.0
 10
7.47808
 20
3.58507
 30
0.0
 10
7.48101
 20
3.59765
 30
0.0
 10
7.49262
 20
3.60568
 30
0.0
 10
7.50424
 20
3.60813
 30
0.0
  0
LINE
  5
39b
100
AcDbEntity
  8
C00-00-00-BLACK
100
AcDbLine
 10
7.50424
 20
3.60813
 30
0.0
 11
7.50424
 21
3.60813
 31
0.0
  0
ENDSEC
  0
SECTION
  2
OBJECTS
  0
DICTIONARY
  5
C
330
0
100
AcDbDictionary
  3
ACAD_GROUP
350
D
  3
ACAD_LAYOUT
350
1A
  3
ACAD_MLINESTYLE
350
17
  3
ACAD_PLOTSETTINGS
350
19
  3
ACAD_PLOTSTYLENAME
350
E
  3
ACDBHEADERROUNDTRIPXREC
350
2F
  0
DICTIONARY
  5
52
330
1F
100
AcDbDictionary
280
     1
  3
ACAD_LAYOUTSELFREF
360
53
  0
DICTIONARY
  5
50
330
1B
100
AcDbDictionary
280
     1
  3
ACAD_LAYOUTSELFREF
360
51
  0
DICTIONARY
  5
D
102
{ACAD_REACTORS
330
C
102
}
330
C
100
AcDbDictionary
  0
DICTIONARY
  5
1A
102
{ACAD_REACTORS
330
C
102
}
330
C
100
AcDbDictionary
  0
DICTIONARY
  5
17
102
{ACAD_REACTORS
330
C
102
}
330
C
100
AcDbDictionary
  3
STANDARD
350
18
  0
DICTIONARY
  5
19
102
{ACAD_REACTORS
330
C
102
}
330
C
100
AcDbDictionary
  0
ACDBDICTIONARYWDFLT
  5
E
102
{ACAD_REACTORS
330
C
102
}
330
C
100
AcDbDictionary
281
     1
  3
Normal
350
F
100
AcDbDictionaryWithDefault
340
F
  0
DICTIONARY
  5
2F
102
{ACAD_REACTORS
330
C
102
}
330
C
100
AcDbDictionary
  3
CEPSNTYPE
350
39
  3
DIMSTYLEDATA
350
3D
  3
FINGERPRINTGUID
350
3A
  3
HYPERLINKBASE
350
32
  3
INSUNITS
350
38
  3
LAYOUTDICT
350
34
  3
LWETCUNION
350
37
  3
PLOTSETDICT
350
35
  3
PLOTSTYLNAMDICT
350
36
  3
PSVPSCALE
350
3C
  3
PUCSBASE
350
40
  3
PUCSORGBACK
350
46
  3
PUCSORGBOTTOM
350
42
  3
PUCSORGFRONT
350
45
  3
PUCSORGLEFT
350
43
  3
PUCSORGRIGHT
350
44
  3
PUCSORGTOP
350
41
  3
PUCSORTHOREF
350
3E
  3
PUCSORTHOVIEW
350
3F
  3
STYLESHEET
350
33
  3
TSTACKALIGN
350
30
  3
TSTACKSIZE
350
31
  3
UCSBASE
350
49
  3
UCSORGBACK
350
4F
  3
UCSORGBOTTOM
350
4B
  3
UCSORGFRONT
350
4E
  3
UCSORGLEFT
350
4C
  3
UCSORGRIGHT
350
4D
  3
UCSORGTOP
350
4A
  3
UCSORTHOREF
350
47
  3
UCSORTHOVIEW
350
48
  3
VERSIONGUID
350
3B
  0
XRECORD
  5
53
102
{ACAD_REACTORS
330
52
102
}
330
52
100
AcDbXrecord
340
1F
  0
XRECORD
  5
51
102
{ACAD_REACTORS
330
50
102
}
330
50
100
AcDbXrecord
340
1B
  0
MLINESTYLE
  5
18
102
{ACAD_REACTORS
330
17
102
}
330
17
100
AcDbMlineStyle
  2
STANDARD
 70
     0
  3

 62
   256
 51
90.0
 52
90.0
 71
     2
 49
0.5
 62
   256
  6
BYLAYER
 49
-0.5
 62
   256
  6
BYLAYER
  0
ACDBPLACEHOLDER
  5
F
102
{ACAD_REACTORS
330
E
102
}
330
E
100
AcDbPlaceHolder
280
     0
  0
XRECORD
  5
39
102
{ACAD_REACTORS
330
2F
102
}
330
2F
100
AcDbXrecord
 90
        0
  0
XRECORD
  5
3D
102
{ACAD_REACTORS
330
2F
102
}
330
2F
100
AcDbXrecord
1000
DSTYLE
1002
{
1070
   278
 70
    44
1002
}
  0
XRECORD
  5
3A
102
{ACAD_REACTORS
330
2F
102
}
330
2F
100
AcDbXrecord
  1
{705446A6-11D0-4548-8F8C-A97DCA50327D}
  0
XRECORD
  5
32
102
{ACAD_REACTORS
330
2F
102
}
330
2F
100
AcDbXrecord
  1

  0
XRECORD
  5
38
102
{ACAD_REACTORS
330
2F
102
}
330
2F
100
AcDbXrecord
 90
        4
  0
XRECORD
  5
34
102
{ACAD_REACTORS
330
2F
102
}
330
2F
100
AcDbXrecord
340
1A
  0
XRECORD
  5
37
102
{ACAD_REACTORS
330
2F
102
}
330
2F
100
AcDbXrecord
 90
    10781
  0
XRECORD
  5
35
102
{ACAD_REACTORS
330
2F
102
}
330
2F
100
AcDbXrecord
340
19
  0
XRECORD
  5
36
102
{ACAD_REACTORS
330
2F
102
}
330
2F
100
AcDbXrecord
340
E
  0
XRECORD
  5
3C
102
{ACAD_REACTORS
330
2F
102
}
330
2F
100
AcDbXrecord
 40
0.0
  0
XRECORD
  5
40
102
{ACAD_REACTORS
330
2F
102
}
330
2F
100
AcDbXrecord
340
0
  0
XRECORD
  5
46
102
{ACAD_REACTORS
330
2F
102
}
330
2F
100
AcDbXrecord
 10
0.0
 20
0.0
 30
0.0
  0
XRECORD
  5
42
102
{ACAD_REACTORS
330
2F
102
}
330
2F
100
AcDbXrecord
 10
0.0
 20
0.0
 30
0.0
  0
XRECORD
  5
45
102
{ACAD_REACTORS
330
2F
102
}
330
2F
100
AcDbXrecord
 10
0.0
 20
0.0
 30
0.0
  0
XRECORD
  5
43
102
{ACAD_REACTORS
330
2F
102
}
330
2F
100
AcDbXrecord
 10
0.0
 20
0.0
 30
0.0
  0
XRECORD
  5
44
102
{ACAD_REACTORS
330
2F
102
}
330
2F
100
AcDbXrecord
 10
0.0
 20
0.0
 30
0.0
  0
XRECORD
  5
41
102
{ACAD_REACTORS
330
2F
102
}
330
2F
100
AcDbXrecord
 10
0.0
 20
0.0
 30
0.0
  0
XRECORD
  5
3E
102
{ACAD_REACTORS
330
2F
102
}
330
2F
100
AcDbXrecord
340
0
  0
XRECORD
  5
3F
102
{ACAD_REACTORS
330
2F
102
}
330
2F
100
AcDbXrecord
 70
     0
  0
XRECORD
  5
33
102
{ACAD_REACTORS
330
2F
102
}
330
2F
100
AcDbXrecord
  1

  0
XRECORD
  5
30
102
{ACAD_REACTORS
330
2F
102
}
330
2F
100
AcDbXrecord
 90
        1
  0
XRECORD
  5
31
102
{ACAD_REACTORS
330
2F
102
}
330
2F
100
AcDbXrecord
 90
       70
  0
XRECORD
  5
49
102
{ACAD_REACTORS
330
2F
102
}
330
2F
100
AcDbXrecord
340
0
  0
XRECORD
  5
4F
102
{ACAD_REACTORS
330
2F
102
}
330
2F
100
AcDbXrecord
 10
0.0
 20
0.0
 30
0.0
  0
XRECORD
  5
4B
102
{ACAD_REACTORS
330
2F
102
}
330
2F
100
AcDbXrecord
 10
0.0
 20
0.0
 30
0.0
  0
XRECORD
  5
4E
102
{ACAD_REACTORS
330
2F
102
}
330
2F
100
AcDbXrecord
 10
0.0
 20
0.0
 30
0.0
  0
XRECORD
  5
4C
102
{ACAD_REACTORS
330
2F
102
}
330
2F
100
AcDbXrecord
 10
0.0
 20
0.0
 30
0.0
  0
XRECORD
  5
4D
102
{ACAD_REACTORS
330
2F
102
}
330
2F
100
AcDbXrecord
 10
0.0
 20
0.0
 30
0.0
  0
XRECORD
  5
4A
102
{ACAD_REACTORS
330
2F
102
}
330
2F
100
AcDbXrecord
 10
0.0
 20
0.0
 30
0.0
  0
XRECORD
  5
47
102
{ACAD_REACTORS
330
2F
102
}
330
2F
100
AcDbXrecord
340
0
  0
XRECORD
  5
48
102
{ACAD_REACTORS
330
2F
102
}
330
2F
100
AcDbXrecord
 70
     0
  0
XRECORD
  5
3B
102
{ACAD_REACTORS
330
2F
102
}
330
2F
100
AcDbXrecord
  1
{33328E3A-B6B8-4979-86B7-D70DEC2867C2}
  0
ENDSEC
  0
EOF
